<svg width="29" height="34" viewBox="0 0 29 34" fill="none" xmlns="http://www.w3.org/2000/svg">
<path id="Vector" d="M4.83563 31.9694L4.83577 31.9694L4.83382 31.9559L1.4488 8.51994H27.0544L23.6691 31.9559L23.669 31.9559L23.6674 31.9685C23.571 32.7401 22.9001 33.3333 22.1161 33.3333H6.38687C5.58948 33.3333 4.93236 32.752 4.83563 31.9694ZM18.6456 11.4927H17.9789V12.1594V27.5V28.1667H18.6456H20.0286H20.6953V27.5V12.1594V11.4927H20.0286H18.6456ZM13.566 11.4927H12.8993V12.1594V27.5V28.1667H13.566H14.949H15.6157V27.5V12.1594V11.4927H14.949H13.566ZM8.47387 11.4927H7.8072V12.1594V27.5V28.1667H8.47387H9.85688H10.5235V27.5V12.1594V11.4927H9.85688H8.47387ZM19.3496 2.87931V3.54597H20.0163H26.9315C27.4181 3.54597 27.8236 3.95142 27.8236 4.43832V5.06673H0.666667V4.43832C0.666667 3.95158 1.07224 3.54597 1.55901 3.54597H8.4742H9.14087V2.87931V2.66556C9.14087 1.48936 9.98039 0.666667 10.8505 0.666667H17.64C18.5101 0.666667 19.3496 1.48936 19.3496 2.66556V2.87931Z" fill="#B3B4B4" stroke="#B3B4B4" stroke-width="1.33333"/>
</svg>
