<svg width="20" height="18" viewBox="0 0 20 18" fill="none" xmlns="http://www.w3.org/2000/svg">
<g id="Iconly/Bold/Ticket-Star">
<g id="Ticket-Star">
<path id="Vector" d="M10.002 4.56825H10.0037C10.4669 4.56987 10.8893 4.82794 11.0969 5.2457L11.0967 5.24533L10.6493 5.46838L11.0971 5.24597L10.002 4.56825ZM10.002 4.56825C9.53607 4.56825 9.11479 4.82712 8.90535 5.24216L8.90419 5.24448M10.002 4.56825L8.90419 5.24448M8.90419 5.24448L8.30819 6.44097L6.97924 6.63291C6.97892 6.63296 6.97859 6.633 6.97826 6.63305C6.51833 6.69829 6.13555 7.01293 5.98797 7.45654L5.98744 7.45814M8.90419 5.24448L5.98744 7.45814M5.98744 7.45814C5.84161 7.90149 5.96009 8.38529 6.29842 8.71084M5.98744 7.45814L6.29842 8.71084M6.29842 8.71084C6.2985 8.71092 6.29858 8.711 6.29866 8.71107L7.26023 9.6388L7.03355 10.9501C6.95376 11.4113 7.14344 11.8708 7.52267 12.1436L7.52553 12.1457C7.7363 12.2951 7.98479 12.3744 8.23903 12.3744C8.43478 12.3744 8.62925 12.3264 8.80528 12.2346C8.80529 12.2345 8.8053 12.2345 8.80531 12.2345C8.80558 12.2344 8.80584 12.2343 8.80611 12.2341L10.0001 11.6126L11.1903 12.2318C11.6033 12.4501 12.0987 12.4167 12.4773 12.1427C12.8582 11.8704 13.0471 11.4104 12.9674 10.9501L12.9674 10.9499L12.7399 9.63867L13.7005 8.71192C13.7008 8.71164 13.701 8.71137 13.7013 8.71109C14.0408 8.3856 14.1597 7.90134 14.0123 7.45734C13.8661 7.01395 13.4835 6.69826 13.0253 6.63396C13.0247 6.63389 13.0242 6.63381 13.0237 6.63374L6.29842 8.71084ZM19.2768 4.04321V4.0434L19.2778 6.66103C19.2778 6.66106 19.2778 6.6611 19.2778 6.66114C19.2778 6.66116 19.2778 6.66119 19.2778 6.66121C19.2777 6.7198 19.2537 6.7778 19.2117 6.81934C19.1678 6.8629 19.1086 6.88766 19.0445 6.88766C17.9699 6.88766 17.0885 7.75439 17.0885 8.83027C17.0885 9.90615 17.9699 10.7729 19.0445 10.7729C19.1774 10.7729 19.2778 10.8789 19.2778 10.9995V13.6163C19.2778 15.5487 17.6893 17.1293 15.7278 17.1293H4.27316C2.31157 17.1293 0.722229 15.5486 0.722229 13.6163V10.9995C0.722229 10.8789 0.822568 10.7729 0.955562 10.7729C2.03088 10.7729 2.91245 9.90636 2.91245 8.83027C2.91245 7.74638 2.02799 6.97195 0.955562 6.97195C0.89277 6.97195 0.833481 6.94744 0.789267 6.90363C0.745488 6.86025 0.722266 6.80284 0.722229 6.74545C0.722229 6.74541 0.722229 6.74536 0.722229 6.74532L0.724185 4.04357V4.04321C0.724185 2.11068 2.31286 0.529297 4.27414 0.529297H15.7259C17.6873 0.529297 19.2768 2.11084 19.2768 4.04321ZM11.6928 6.44106L11.4337 6.40355L11.3621 6.89839L11.8095 6.67534L11.6928 6.44106Z" stroke="#005487"/>
</g>
</g>
</svg>
