<svg width="17" height="17" viewBox="0 0 17 17" fill="none" xmlns="http://www.w3.org/2000/svg">
<path d="M9.0553 7.07597L9.37251 11.2485L9.43351 13.0664L7.42043 13.0664L7.48143 11.2485L7.79865 7.07597L9.0553 7.07597ZM8.42087 3.81844C9.0553 3.81844 9.50671 4.26986 9.50671 4.90429C9.50671 5.53871 9.0431 5.97793 8.42087 5.97793C7.81085 5.97793 7.34723 5.53871 7.34723 4.90429C7.34723 4.26986 7.81085 3.81844 8.42087 3.81844Z" fill="#005487"/>
<path d="M15.6941 8.44469C15.6941 12.457 12.4414 15.7097 8.42906 15.7097C4.41671 15.7097 1.16406 12.457 1.16406 8.44469C1.16406 4.43234 4.41671 1.17969 8.42906 1.17969C12.4414 1.17969 15.6941 4.43234 15.6941 8.44469Z" stroke="#005487" stroke-width="1.5"/>
</svg>
