<svg width="17" height="16" viewBox="0 0 17 16" fill="none" xmlns="http://www.w3.org/2000/svg">
<g id="Group 1737">
<path id="Vector" d="M8.43759 0.527618C9.40544 0.527618 10.3703 0.536552 11.3352 0.521662C11.7194 0.515706 11.8564 0.658651 11.8504 1.04282C11.8325 2.16255 11.8623 3.28527 11.8355 4.405C11.8236 4.8666 11.9487 5.0691 12.4341 5.02443C12.8212 4.9887 13.2114 5.01252 13.6015 5.02145C13.7325 5.02145 13.9142 4.96785 13.9737 5.13164C14.0214 5.26267 13.8755 5.34606 13.795 5.4354C12.58 6.74871 11.365 8.06201 10.147 9.37532C9.74494 9.81011 9.33695 10.236 8.94385 10.6797C8.7473 10.9001 8.59244 10.9269 8.37207 10.7035C6.61504 8.93755 4.84907 7.18052 3.08906 5.42051C3.00865 5.3401 2.85975 5.26267 2.93122 5.11675C2.99674 4.98572 3.1516 5.02145 3.27072 5.02145C3.69062 5.0155 4.11052 5.00656 4.53042 5.02145C4.87289 5.03337 5.00095 4.8934 4.99797 4.5539C4.98606 3.4163 4.99201 2.28167 4.99797 1.14407C4.99797 0.554421 5.02477 0.530596 5.59655 0.527618C6.54654 0.52464 7.49653 0.527618 8.44652 0.527618H8.43759Z" fill="#005487"/>
<path id="Vector_2" d="M8.44731 15.4633C6.01724 15.4633 3.58717 15.4633 1.15413 15.4633C0.543636 15.4633 0.534702 15.4544 0.534702 14.829C0.534702 13.6914 0.546614 12.5538 0.528746 11.4162C0.52279 11.0171 0.662757 10.8444 1.06777 10.8593C1.51745 10.8772 1.97011 10.8682 2.42277 10.8623C2.75333 10.8563 2.90819 10.9933 2.89627 11.3387C2.88138 11.7914 2.90819 12.2441 2.89032 12.6937C2.87841 13.0273 2.98859 13.1672 3.34298 13.1672C6.67836 13.1583 10.0108 13.1643 13.3462 13.1583C13.9537 13.1583 14.0103 13.0839 14.0132 12.4823C14.0132 12.0773 14.0192 11.6723 14.0162 11.2673C14.0162 10.9963 14.1472 10.8652 14.4153 10.8682C14.9454 10.8682 15.4754 10.8682 16.0055 10.8682C16.2557 10.8682 16.3688 10.9903 16.3659 11.2464C16.3599 12.524 16.3569 13.8016 16.3659 15.0791C16.3659 15.4901 16.0978 15.4633 15.8268 15.4633C13.364 15.4633 10.9042 15.4633 8.44135 15.4633H8.44731Z" fill="#005487"/>
</g>
</svg>
