<svg width="29" height="27" viewBox="0 0 29 27" fill="none" xmlns="http://www.w3.org/2000/svg">
<g id="icon/editing">
<path id="Vector" d="M12.8984 2.94287H3.95095C3.27295 2.94287 2.62271 3.21221 2.14329 3.69163C1.66387 4.17105 1.39453 4.82129 1.39453 5.49929V23.3942C1.39453 24.0722 1.66387 24.7225 2.14329 25.2019C2.62271 25.6813 3.27295 25.9507 3.95095 25.9507H21.8459C22.5239 25.9507 23.1741 25.6813 23.6536 25.2019C24.133 24.7225 24.4023 24.0722 24.4023 23.3942V14.4468" stroke="#005487" stroke-width="2" stroke-linecap="round" stroke-linejoin="round"/>
<path id="Vector_2" d="M22.4837 3.73705C22.9922 3.22855 23.6819 2.94287 24.401 2.94287C25.1202 2.94287 25.8098 3.22855 26.3183 3.73705C26.8268 4.24555 27.1125 4.93523 27.1125 5.65436C27.1125 6.3735 26.8268 7.06318 26.3183 7.57168L14.1753 19.7147L9.0625 20.9929L10.3407 15.88L22.4837 3.73705Z" stroke="#005487" stroke-width="2" stroke-linecap="round" stroke-linejoin="round"/>
</g>
</svg>
