<svg width="26" height="23" viewBox="0 0 26 23" fill="none" xmlns="http://www.w3.org/2000/svg">
<g id="Group 1674">
<path id="Vector" d="M18.8481 16.9237C17.1002 18.1083 14.972 18.7645 12.7746 18.7965C5.61724 18.7965 1.52734 11.5237 1.52734 11.5237C2.79919 9.41636 4.56321 7.57519 6.70106 6.12373M10.6274 4.46918C11.3312 4.32271 12.0517 4.24949 12.7746 4.251C19.9319 4.251 24.0218 11.5237 24.0218 11.5237C23.4011 12.5561 22.6609 13.528 21.8132 14.4237M14.9422 13.451C14.6614 13.719 14.3227 13.9339 13.9465 14.0829C13.5702 14.232 13.164 14.3121 12.7522 14.3186C12.3403 14.3251 11.9312 14.2577 11.5492 14.1205C11.1673 13.9834 10.8203 13.7792 10.5291 13.5202C10.2378 13.2613 10.0081 12.9528 9.85387 12.6132C9.6996 12.2736 9.62384 11.9098 9.6311 11.5436C9.63837 11.1775 9.72852 10.8163 9.89617 10.4818C10.0638 10.1472 10.3055 9.84613 10.6069 9.59645" stroke="#525252" stroke-width="2" stroke-linecap="round" stroke-linejoin="round"/>
<path id="Vector_2" d="M1.52734 1.52344L24.0218 21.5234" stroke="#525252" stroke-width="2" stroke-linecap="round" stroke-linejoin="round"/>
</g>
</svg>
