<svg xmlns="http://www.w3.org/2000/svg" width="23" height="23" viewBox="0 0 23 23" fill="none">
  <g filter="url(#filter0_d_277_19277)">
    <circle cx="11.3094" cy="10.8926" r="8.52734" fill="#129EF2"/>
  </g>
  <g filter="url(#filter1_d_277_19277)">
    <path d="M9.60129 12.9501C11.7922 10.7572 13.9771 8.57233 16.1619 6.38748C16.364 6.18334 16.4125 6.18334 16.6167 6.38748C16.934 6.7048 17.2513 7.02212 17.5666 7.33944C17.6919 7.46475 17.6899 7.54963 17.5606 7.67899C16.6167 8.62286 15.6748 9.56674 14.731 10.5106C13.0938 12.1477 11.4567 13.7849 9.81958 15.422C9.64576 15.5958 9.5831 15.5958 9.41131 15.422C7.96821 13.9769 6.52511 12.5338 5.08202 11.0907C4.92235 10.931 4.91831 10.8623 5.07595 10.7006C5.40742 10.3651 5.74293 10.0316 6.07642 9.70013C6.15322 9.62333 6.29672 9.64556 6.39374 9.74055C7.20624 10.5531 8.01874 11.3656 8.83326 12.1801C9.0859 12.4327 9.34057 12.6874 9.60129 12.9481V12.9501Z" fill="#9CDAFF"/>
  </g>
  <defs>
    <filter id="filter0_d_277_19277" x="0.348041" y="0.742525" width="21.9228" height="21.9228" filterUnits="userSpaceOnUse" color-interpolation-filters="sRGB">
      <feFlood flood-opacity="0" result="BackgroundImageFix"/>
      <feColorMatrix in="SourceAlpha" type="matrix" values="0 0 0 0 0 0 0 0 0 0 0 0 0 0 0 0 0 0 127 0" result="hardAlpha"/>
      <feOffset dy="0.811355"/>
      <feGaussianBlur stdDeviation="1.21703"/>
      <feComposite in2="hardAlpha" operator="out"/>
      <feColorMatrix type="matrix" values="0 0 0 0 0 0 0 0 0 0 0 0 0 0 0 0 0 0 0.45 0"/>
      <feBlend mode="normal" in2="BackgroundImageFix" result="effect1_dropShadow_277_19277"/>
      <feBlend mode="normal" in="SourceGraphic" in2="effect1_dropShadow_277_19277" result="shape"/>
    </filter>
    <filter id="filter1_d_277_19277" x="1.71454" y="4.61167" width="19.1899" height="15.8092" filterUnits="userSpaceOnUse" color-interpolation-filters="sRGB">
      <feFlood flood-opacity="0" result="BackgroundImageFix"/>
      <feColorMatrix in="SourceAlpha" type="matrix" values="0 0 0 0 0 0 0 0 0 0 0 0 0 0 0 0 0 0 127 0" result="hardAlpha"/>
      <feOffset dy="1.62271"/>
      <feGaussianBlur stdDeviation="1.62271"/>
      <feComposite in2="hardAlpha" operator="out"/>
      <feColorMatrix type="matrix" values="0 0 0 0 0 0 0 0 0 0 0 0 0 0 0 0 0 0 0.15 0"/>
      <feBlend mode="normal" in2="BackgroundImageFix" result="effect1_dropShadow_277_19277"/>
      <feBlend mode="normal" in="SourceGraphic" in2="effect1_dropShadow_277_19277" result="shape"/>
    </filter>
  </defs>
</svg>