<svg width="29" height="27" viewBox="0 0 29 27" fill="none" xmlns="http://www.w3.org/2000/svg">
<path d="M12.8984 2.94287H3.95095C3.27295 2.94287 2.62271 3.21221 2.14329 3.69163C1.66387 4.17105 1.39453 4.82129 1.39453 5.49929V23.3942C1.39453 24.0722 1.66387 24.7225 2.14329 25.2019C2.62271 25.6813 3.27295 25.9507 3.95095 25.9507H21.8459C22.5239 25.9507 23.1741 25.6813 23.6536 25.2019C24.133 24.7225 24.4023 24.0722 24.4023 23.3942V14.4468" stroke="#FFD600" stroke-width="2" stroke-linecap="round" stroke-linejoin="round"/>
<path d="M4.45955 13.4732C4.45955 13.2205 4.53935 12.9944 4.71225 12.8215C5.35065 12.1698 6.00235 11.5181 6.65405 10.8797C7.07965 10.4674 7.59835 10.5073 8.05055 10.9728C9.63326 12.5688 9.65368 12.5821 11.2231 14.1781C11.4093 14.3643 11.6088 14.5505 11.795 14.75C11.8881 14.8564 11.9679 14.883 12.061 14.75C12.1142 14.6835 12.1807 14.6303 12.2472 14.5638C15.9712 10.8398 19.6952 7.11575 23.4192 3.39175C24.0177 2.79325 24.4699 2.79325 25.0684 3.39175C25.627 3.95035 26.1856 4.50895 26.7442 5.06755C27.2363 5.55965 27.2363 6.06505 26.7442 6.55715C22.0493 11.2521 17.3677 15.947 12.6728 20.6286C12.1807 21.1207 11.6753 21.1074 11.1832 20.6286C8.52318 17.9553 7.43875 16.8514 4.79205 14.1781C4.59255 13.9786 4.44625 13.7658 4.45955 13.4732Z" stroke="#FFD600" stroke-width="1.8"/>
</svg>