<svg width="43" height="31" viewBox="0 0 43 31" fill="none" xmlns="http://www.w3.org/2000/svg">
<path id="Vector" d="M5.46234 10.2966C6.2043 10.3297 6.61366 10.7347 7.03154 11.1397C9.81176 13.8591 12.609 16.5537 15.3551 19.2979C15.9436 19.8847 16.2506 19.9261 16.8732 19.3227C23.0903 13.2475 29.3415 7.20532 35.5842 1.1549C36.9146 -0.134538 37.5202 -0.126272 38.8591 1.1549C39.6693 1.94013 40.4795 2.71709 41.2811 3.50233C42.4069 4.60992 42.4154 5.29596 41.2811 6.40355C34.774 12.7185 28.2584 19.0251 21.7428 25.34C20.3442 26.6956 18.9541 28.0512 17.5554 29.3985C16.4553 30.4564 15.7474 30.4564 14.6473 29.3902C10.2041 25.059 5.76083 20.7278 1.32612 16.3884C0.345367 15.4296 0.353896 14.6774 1.32612 13.7186C2.27276 12.7846 3.23646 11.8671 4.18309 10.9331C4.56687 10.5611 4.98475 10.3049 5.45381 10.2966H5.46234Z" fill="#FFD600"/>
</svg>
