<svg width="192" height="39" viewBox="0 0 192 39" fill="none" xmlns="http://www.w3.org/2000/svg">
<g clip-path="url(#clip0_1_4508)">
<path d="M21.6073 7.60118C23.7522 7.60118 25.491 5.8996 25.491 3.80059C25.491 1.70158 23.7522 0 21.6073 0C19.4624 0 17.7236 1.70158 17.7236 3.80059C17.7236 5.8996 19.4624 7.60118 21.6073 7.60118Z" fill="#FFD600"/>
<path d="M12.3132 0C5.51121 0 0 5.39333 0 12.0499C0 13.2691 0.185204 14.4444 0.52755 15.5539C2.05969 10.6054 6.75713 7.59569 12.3132 7.59569V0Z" fill="white"/>
<path d="M12.3132 31.4207C5.51121 31.4207 0 26.0274 0 19.3709C0 18.1516 0.185204 16.5864 0.52755 15.4824C2.05969 20.4309 6.75713 23.144 12.3132 23.144V31.4262V31.4207Z" fill="#FFD600"/>
<path d="M12.3135 39.0002C19.1155 39.0002 24.6267 33.6068 24.6267 26.9503C24.6267 25.731 24.4415 24.5557 24.0992 23.4463C22.567 28.3947 17.8696 31.4045 12.3135 31.4045V39.0002Z" fill="#FFD600"/>
<path d="M12.3135 7.57922C19.1155 7.57922 24.6267 12.9725 24.6267 19.6291C24.6267 20.8483 24.4415 22.4136 24.0992 23.5175C22.567 18.5691 17.8696 15.8559 12.3135 15.8559V7.57373V7.57922Z" fill="white"/>
<path d="M125.905 32.3106C122.425 32.3106 119.726 31.366 117.801 29.4821C115.876 27.5983 114.916 24.9346 114.916 21.4855V7.39258H119.939V21.1066C119.939 25.6651 121.943 27.9443 125.944 27.9443C129.946 27.9443 131.983 25.6651 131.983 21.1066V7.39258H137.006V21.491C137.006 24.9401 136.04 27.6038 134.115 29.4876C132.19 31.3715 129.457 32.3161 125.91 32.3161L125.905 32.3106Z" fill="white"/>
<path d="M144.447 31.7998V7.39258H152.551C155.419 7.39258 157.67 8.08459 159.314 9.46313C160.953 10.8417 161.778 12.742 161.778 15.164C161.778 16.5975 161.419 17.8881 160.695 19.036C159.971 20.1839 158.944 21.1066 157.608 21.8151L164.27 31.7998H158.624L153.275 23.0343C152.271 23.0783 151.721 23.1002 151.637 23.1002H149.24V31.8053H144.447V31.7998ZM149.24 11.3415V19.1459H151.704C155.139 19.1459 156.856 17.8277 156.856 15.197C156.856 12.5662 155.195 11.3415 151.867 11.3415H149.24Z" fill="white"/>
<path d="M169.714 31.7998V7.39258H174.176L187.235 24.347V7.39258H191.994V31.7998H187.533L174.473 14.9059V31.7998H169.714Z" fill="white"/>
<path d="M53.3779 20.4307C52.1319 19.2334 50.0217 18.1734 47.0417 17.2507C45.2906 16.718 44.1177 16.2237 43.5116 15.7733C42.9111 15.323 42.608 14.6694 42.608 13.8126C42.608 11.9068 44.0167 10.9567 46.8396 10.9567C49.1126 10.9567 51.3126 11.5553 53.434 12.7526V8.34788C51.4473 7.38126 49.208 6.87598 46.6712 6.87598C43.9381 6.87598 41.7662 7.51856 40.1554 8.80373C38.5447 10.0889 37.7422 11.7695 37.7422 13.8456C37.7422 15.7294 38.3202 17.2617 39.482 18.437C40.6213 19.5959 42.5575 20.59 45.2906 21.4248C47.2156 22.0234 48.5177 22.5836 49.1968 23.0944C49.8983 23.6107 50.2462 24.2807 50.2462 25.1155C50.2462 26.0986 49.8365 26.8675 49.0172 27.4113C48.1978 27.955 47.0304 28.2296 45.5207 28.2296C44.2299 28.2296 42.883 28.0374 41.4855 27.6529C40.0825 27.2685 38.859 26.7467 37.8095 26.0821V30.5857C38.6233 31.0526 39.684 31.448 41.0253 31.7666C42.6417 32.129 44.2075 32.3103 45.7172 32.3103C48.6692 32.3103 50.9927 31.6622 52.6932 30.3661C54.3881 29.0699 55.2355 27.3014 55.2355 25.0496C55.2355 23.1658 54.6125 21.6225 53.3666 20.4252L53.3779 20.4307Z" fill="white"/>
<path d="M74.1205 7.39258H68.8058L63.042 21.5899H65.0512C66.617 21.5899 68.0088 20.6342 68.542 19.1953L71.2976 11.7644L74.9736 21.5899L76.3542 25.3795L78.7169 31.7998H84.0317L74.1205 7.39258Z" fill="white"/>
<path d="M107.884 25.9562C105.499 27.1754 103.074 27.7851 100.605 27.7851C98.1353 27.7851 95.9578 27.0601 94.4032 25.6047C92.8711 24.1273 92.1078 22.1336 92.1078 19.6292C92.1078 17.1247 92.8879 15.153 94.4537 13.6537C96.0195 12.1543 98.0343 11.4074 100.509 11.4074C102.698 11.4074 104.993 11.984 107.396 13.1429V8.56241C106.571 8.16698 105.639 7.83745 104.595 7.57382C103.186 7.22232 101.8 7.04657 100.442 7.04657C96.4573 7.00263 93.1966 8.20542 90.6486 10.644C88.1007 13.0825 86.8604 16.1142 86.9221 19.7335C86.8997 23.4792 88.1344 26.4999 90.6318 28.7901C93.1236 31.0804 96.3114 32.2063 100.184 32.1623C103.125 32.1623 105.684 31.5747 107.889 30.4543V25.9671L107.884 25.9562Z" fill="white"/>
<path d="M75.0633 21.947C75.0633 21.947 73.3964 21.6504 72.3694 21.6504C66.774 21.6504 61.375 25.3741 59.1357 32.3162H64.1587C65.6852 27.2579 70.551 22.7708 75.0633 21.947Z" fill="#FFD600"/>
</g>
<defs>
<clipPath id="clip0_1_4508">
<rect width="192" height="39" fill="white"/>
</clipPath>
</defs>
</svg>
