<svg width="33" height="24" viewBox="0 0 33 24" fill="none" xmlns="http://www.w3.org/2000/svg">
<path d="M28.2274 11.1874C28.2293 11.1874 28.2303 11.1898 28.2288 11.1911C27.6431 11.7146 27.017 12.1956 26.3439 12.6281C26.1318 12.7643 25.787 12.8059 25.5408 12.7518C24.7692 12.5908 24.0776 12.294 23.4431 11.8815C23.1516 11.6904 22.7401 11.7558 22.5686 11.9922C22.3628 12.2588 22.4429 12.5657 22.7458 12.7719C23.3845 13.2216 23.4466 14.188 22.6988 14.4138C22.1561 14.5776 21.5957 14.6987 21.0196 14.784C20.9396 14.7941 20.831 14.7639 20.8024 14.8444C20.7738 14.9349 20.8996 14.9399 20.9625 14.9802C21.997 15.5939 23.0944 16.112 24.1862 16.6402C25.5065 17.284 26.8669 17.8424 28.2272 18.4158C29.3247 18.8786 30.4049 19.3666 31.4109 19.9652C31.5367 20.0406 31.6738 20.106 31.7824 20.2016C31.8568 20.267 32.0225 20.3223 31.9253 20.4581C31.8453 20.5788 31.7253 20.5738 31.5767 20.5285C31.1937 20.4128 30.8108 20.3122 30.4221 20.2066C29.3761 19.9249 28.3072 19.7338 27.2384 19.5326C27.2164 19.5281 27.1938 19.5251 27.1709 19.5232C26.9513 19.5042 26.7433 19.4422 26.5239 19.4219C25.5923 19.3163 24.6606 19.2307 23.7232 19.1855C23.2888 19.1653 22.8487 19.1553 22.4086 19.115C21.7784 19.0545 21.1223 18.991 20.4952 18.9039C20.1557 18.8568 19.8145 18.8197 19.4764 18.768C19.1143 18.7115 18.7413 18.6906 18.4102 18.5549C18.2481 18.4885 18.1125 18.3638 17.956 18.2851C16.6985 17.6362 15.5839 16.8464 14.6865 15.8303C14.0063 15.0607 13.5091 14.1955 13.029 13.3202C12.103 11.6552 11.0913 10.0405 9.55375 8.73764C9.33891 8.55613 9.1212 8.37714 8.88623 8.21778C8.45504 7.92534 8.02442 7.48898 7.86759 6.99214C7.846 6.92878 7.82213 6.86543 7.79743 6.80207C7.7765 6.7484 7.81615 6.68314 7.87331 6.69032C8.27913 6.76075 8.54206 6.66517 8.66209 6.39857C8.78784 6.1219 8.68495 5.86536 8.36487 5.67924C8.11909 5.53336 7.85616 5.41264 7.6161 5.26173C7.19694 5.00273 7.13818 4.54012 7.56982 4.30251C8.56821 3.7529 9.68481 3.51634 10.9141 3.6269C12.3545 3.75769 13.3147 4.52228 13.9721 5.61385C14.3436 6.23257 14.5894 6.90159 14.8866 7.5505C15.0428 7.88445 15.2141 8.26041 15.3629 8.59773C15.4973 8.90213 15.6797 9.19074 15.8125 9.4972C15.8868 9.66823 15.984 9.65817 16.1326 9.56763C17.573 8.69236 19.0648 7.90261 20.6138 7.18329C22.0999 6.49414 23.6146 5.86536 25.1293 5.24161C25.6293 5.03381 26.1525 4.87057 26.663 4.68422C27.3099 4.44809 27.995 4.28133 28.6472 4.06023C28.7852 4.01342 28.9227 3.96545 29.0617 3.92368C29.559 3.77278 30.0734 3.68726 30.5821 3.57157C31.0432 3.4646 31.5257 3.46041 32.0049 3.43604C32.2826 3.42192 32.5255 3.63968 32.5255 3.91773V4.019C32.5255 4.16526 32.4191 4.31192 32.3998 4.45689C32.3805 4.57617 32.3579 4.69454 32.3323 4.81206C32.0219 6.23482 30.6161 7.26165 29.2137 6.86927C29.1344 6.84707 29.0551 6.82267 28.976 6.79596C28.6445 6.68529 28.3358 6.77584 28.1815 7.0022C27.9414 7.35432 28.1072 7.68128 28.5988 7.85231C28.7037 7.88748 28.8094 7.91838 28.9159 7.94568C29.7796 8.16717 30.2841 9.07443 29.6937 9.74261C29.4896 9.97361 29.1929 10.1141 28.8847 10.109C28.0464 10.0953 27.2404 9.9319 26.4668 9.59781C26.2553 9.50726 26.0209 9.52235 25.8209 9.65314C25.4436 9.89962 25.5122 10.3523 25.9466 10.5636C26.6553 10.9107 27.4326 11.0717 28.2271 11.1873C28.2272 11.1874 28.2273 11.1874 28.2274 11.1874ZM10.5597 6.2879C10.9313 6.2879 11.2285 6.01124 11.2113 5.67924C11.1942 5.3724 10.9141 5.14604 10.5369 5.141C10.1711 5.141 9.91956 5.36737 9.91385 5.70942C9.91385 6.04645 10.1825 6.2879 10.554 6.2879H10.5597Z" fill="#80D34A"/>
<path d="M27.6221 4.28511C27.6228 4.28445 27.622 4.28327 27.6211 4.28372C26.8282 4.68918 25.9503 4.90525 25.1294 5.24644C23.609 5.87522 22.0943 6.49897 20.6139 7.18811C19.0649 7.90744 17.5731 8.69719 16.1327 9.57245C15.9841 9.663 15.8869 9.67306 15.8126 9.50203C15.4115 8.57648 15.6252 7.63744 16.4118 7.00593C16.5302 6.91084 16.6474 6.81454 16.7614 6.71527C17.2587 6.28267 17.8303 5.92552 18.3104 5.47783C18.5676 5.24141 18.922 5.08547 19.2192 4.86414C20.391 3.9939 21.5913 3.14882 22.8659 2.39931C24.1634 1.63472 25.4723 0.870118 26.9984 0.482788C27.1527 0.442546 27.3014 0.487819 27.45 0.437516C27.5414 0.407335 27.5586 0.482788 27.57 0.548182C27.5986 0.704119 27.6614 0.860057 27.6614 1.02103C27.6614 1.48381 27.8215 1.94156 27.7072 2.4144C27.6329 2.73634 27.7186 3.0784 27.6329 3.41039C27.5814 3.6116 27.5871 3.81784 27.5528 4.02409C27.5357 4.12441 27.5528 4.20974 27.6209 4.28504C27.6212 4.28538 27.6217 4.28541 27.6221 4.28511Z" fill="#66A53D"/>
<path d="M8.08468 7.89269C8.05772 7.8571 8.14567 7.83365 8.18732 7.84972C8.71787 8.05453 9.13812 8.39177 9.54792 8.7428C11.0855 10.0456 12.0972 11.6603 13.0231 13.3254C13.509 14.1956 14.0005 15.0608 14.6807 15.8355C15.5781 16.8516 16.6927 17.6413 17.9501 18.2902C18.0861 18.3586 18.0586 18.5014 17.9084 18.4771C17.8341 18.4651 17.7626 18.4398 17.6986 18.421C16.0239 17.8979 14.3949 17.2741 12.9031 16.4039C11.1598 15.3928 10.0223 13.9592 9.24499 12.274C8.82773 11.3686 8.65626 10.4179 8.49622 9.4571C8.41048 8.92892 8.4162 8.37559 8.08468 7.89269Z" fill="#FEEC9C"/>
<path d="M21.4429 19.0817C21.4429 19.083 21.4441 19.0838 21.4453 19.0834C21.7646 18.9742 22.0895 19.0843 22.4031 19.1144C22.8375 19.1547 23.2834 19.1648 23.7178 19.1849C24.6551 19.2352 25.5868 19.3157 26.5185 19.4213C26.7372 19.4416 26.9184 19.6009 27.0849 19.7442C27.6249 20.2091 28.1662 20.6722 28.6905 21.1467C29.2735 21.6748 29.8051 22.2433 30.3023 22.8318C30.3881 22.9374 30.5138 23.0733 30.3595 23.189C30.228 23.2896 30.0623 23.2242 29.9308 23.1487C29.445 22.857 28.9763 22.5501 28.4847 22.2634C27.4044 21.6296 26.2899 21.0461 25.1353 20.528C23.9357 19.985 22.7019 19.5074 21.4452 19.08C21.4441 19.0796 21.4429 19.0805 21.4429 19.0817Z" fill="#66A53D"/>
<path d="M6.77596 4.82935C6.774 4.82935 6.7731 4.83179 6.7746 4.83306C7.01431 5.03638 7.34345 5.10198 7.61047 5.26698C7.85053 5.41789 8.11346 5.54364 8.35924 5.68449C8.67932 5.87061 8.7822 6.12715 8.65646 6.40382C8.53643 6.67042 8.26778 6.76599 7.86768 6.69557C7.86095 6.69472 7.85422 6.69416 7.84749 6.69381C7.7924 6.69096 7.74444 6.63938 7.69111 6.62528C7.67312 6.62052 7.65417 6.61399 7.6394 6.60269C7.17463 6.24695 6.60155 6.0627 6.0672 5.81025C5.71283 5.63922 5.32415 5.52352 4.93548 5.41286C4.23244 5.21668 3.50082 5.13619 2.79777 4.97522C2.35194 4.87462 1.90611 4.9551 1.46028 4.88971C1.08875 4.82935 0.831543 4.66838 0.831543 4.3565C0.831543 3.96918 1.01445 3.78809 1.44885 3.78809C2.44911 3.78809 3.42651 3.94905 4.40391 4.12511C5.15268 4.26596 5.83286 4.55771 6.54162 4.77905C6.62164 4.8042 6.69023 4.83941 6.77596 4.82935Z" fill="#66A53D"/>
<path d="M28.4151 11.048C28.3033 11.1381 28.1533 11.176 28.0115 11.1533C27.2951 11.0389 26.6002 10.8735 25.9522 10.5633C25.5178 10.352 25.455 9.89929 25.8265 9.65281C26.0265 9.52202 26.2609 9.50693 26.4724 9.59748C26.9734 9.81517 27.4898 9.96191 28.0216 10.041C28.5116 10.1139 28.8007 10.737 28.4151 11.048Z" fill="#66A53D"/>
<path d="M30.8443 8.19034C30.8412 8.19299 30.8373 8.19432 30.8333 8.19403C30.0809 8.13896 29.3229 8.10326 28.6047 7.85746C28.1074 7.69146 27.9474 7.35947 28.1874 7.00735C28.3418 6.78602 28.6447 6.69044 28.9819 6.80111C29.3898 6.93973 29.8032 7.01501 30.2214 7.04313C30.7999 7.08203 31.2388 7.67633 30.8864 8.13674C30.8731 8.15405 30.8597 8.17128 30.8461 8.18841C30.8455 8.18911 30.8449 8.18975 30.8443 8.19034Z" fill="#66A53D"/>
<path d="M24.5376 13.647C24.5382 13.647 24.5383 13.6462 24.5377 13.646C23.9043 13.4148 23.288 13.1535 22.7401 12.7768C22.4372 12.5655 22.3628 12.2637 22.5629 11.9971C22.7401 11.7657 23.1459 11.7003 23.4374 11.8864C24.0719 12.2989 24.7635 12.5957 25.5351 12.7567C25.5942 12.7691 25.6592 12.7644 25.722 12.7656C25.8688 12.7684 25.8498 12.9347 25.7245 13.0111C25.3441 13.2432 24.9605 13.4741 24.5374 13.646C24.5368 13.6462 24.537 13.647 24.5376 13.647Z" fill="#66A53D"/>
<path d="M7.67821 6.66758C7.65122 6.64784 7.69225 6.6129 7.72107 6.62987C7.75432 6.64944 7.70936 6.69036 7.67821 6.66758Z" fill="#80D34A"/>
<path d="M10.5602 6.2876C10.1829 6.2876 9.9143 6.04615 9.92001 5.70912C9.92001 5.36707 10.1772 5.13568 10.543 5.14071C10.9203 5.14071 11.2061 5.3721 11.2175 5.67894C11.2346 6.01094 10.9374 6.2876 10.5659 6.2876H10.5602Z" fill="#282928"/>
</svg>
