<svg width="338" height="101" viewBox="0 0 338 101" fill="none" xmlns="http://www.w3.org/2000/svg">
<path d="M43.5826 56.1329C43.8526 55.6637 44.1098 55.2191 44.3656 54.7734C46.0109 51.9023 47.6559 49.0312 49.3008 46.1597C51.1396 42.9499 52.978 39.7398 54.8167 36.5301C54.9857 36.2353 55.1622 35.9447 55.323 35.6458C55.4232 35.4593 55.5577 35.3738 55.7725 35.3745C57.2492 35.3798 58.7259 35.373 60.2026 35.3798C60.6398 35.3817 60.7709 35.6258 60.5459 36.0355C60.1163 36.8188 59.6682 37.5918 59.2273 38.369C57.3653 41.6525 55.5029 44.936 53.6408 48.2196C51.9527 51.1966 50.2657 54.1744 48.5775 57.1514C47.0509 59.844 45.5238 62.5361 43.9968 65.2286C43.9656 65.2835 43.9397 65.341 43.9052 65.3936C43.7016 65.705 43.3835 65.7042 43.1878 65.3811C42.973 65.0262 42.7747 64.6607 42.5678 64.3008C40.9735 61.5311 39.3789 58.7614 37.7843 55.9917C37.2067 54.9887 36.6287 53.9856 36.0544 52.9806C35.7964 52.5289 35.819 52.4865 36.344 52.488C37.8079 52.4925 39.2696 52.3998 40.7335 52.3976C41.1339 52.3968 41.3408 52.5425 41.5312 52.8694C42.1013 53.8475 42.6985 54.8097 43.2885 55.7761C43.3591 55.8915 43.4113 56.025 43.5826 56.1325V56.1329Z" fill="#FFD600"/>
<path d="M39.936 35.395C44.2648 35.395 48.5939 35.398 52.9226 35.3923C53.6493 35.3916 53.4912 35.5028 53.238 35.9459C52.6954 36.896 52.1591 37.8503 51.6344 38.8106C51.5082 39.0418 51.3475 39.1432 51.0936 39.1193C50.9944 39.1102 50.8934 39.1182 50.7935 39.1182C43.4618 39.1182 36.1305 39.1182 28.7988 39.1182C28.6985 39.1182 28.5979 39.1091 28.4987 39.1197C28.2129 39.1496 28.0405 39.024 27.9001 38.7716C27.4107 37.8915 26.9015 37.0239 26.4001 36.151C26.3565 36.0749 26.3066 35.9996 26.278 35.9175C26.1961 35.6818 26.2968 35.4782 26.5394 35.4256C26.696 35.3916 26.8624 35.3961 27.0243 35.3957C31.3282 35.3942 35.6321 35.3946 39.936 35.3946V35.395Z" fill="#FFD600"/>
<path d="M39.8295 41.077C43.1202 41.077 46.4108 41.0758 49.7015 41.0804C49.8803 41.0804 50.1229 40.9915 50.2198 41.1856C50.3001 41.3464 50.1203 41.5064 50.0365 41.657C49.5411 42.5477 49.0428 43.4361 48.5451 44.3253C48.4959 44.4131 48.4404 44.4979 48.3976 44.5887C48.283 44.8335 48.0979 44.9489 47.8274 44.9262C47.7403 44.919 47.6524 44.9258 47.5649 44.9258C42.41 44.9258 37.255 44.9197 32.1001 44.936C31.6265 44.9375 31.3478 44.7956 31.121 44.373C30.6038 43.4089 30.0379 42.4713 29.4922 41.5227C29.4482 41.4463 29.4032 41.3702 29.3675 41.29C29.3213 41.186 29.3637 41.1114 29.4715 41.0978C29.6075 41.0808 29.7457 41.0777 29.8828 41.0777C33.1986 41.0766 36.514 41.077 39.8299 41.077H39.8295Z" fill="#FFD600"/>
<path d="M39.854 46.8865C42.081 46.8865 44.3081 46.8858 46.5348 46.8888C46.6802 46.8888 46.8732 46.8222 46.9581 46.9588C47.058 47.1192 46.8894 47.2592 46.8135 47.3962C46.3132 48.2982 45.8081 49.1976 45.3037 50.0974C45.2361 50.2181 45.1621 50.335 45.0942 50.4557C45.0119 50.6022 44.8846 50.6661 44.7231 50.6703C44.6104 50.6733 44.4982 50.6756 44.3855 50.6756C41.3701 50.6756 38.3551 50.6756 35.3397 50.6756C35.277 50.6756 35.2143 50.671 35.1519 50.6756C34.8849 50.6967 34.7163 50.5832 34.5811 50.343C34.0076 49.3232 33.4161 48.3141 32.8314 47.3008C32.7938 47.2354 32.7544 47.1707 32.7224 47.1026C32.6676 46.9849 32.695 46.9035 32.8347 46.8941C32.947 46.8861 33.0597 46.8869 33.1724 46.8869C35.3994 46.8869 37.6265 46.8869 39.8532 46.8869L39.854 46.8865Z" fill="#FFD600"/>
<path d="M167.23 35.7671C168.995 35.7942 171.038 36.6918 172.503 38.7552C173.068 39.5492 173.059 39.5732 172.243 40.0854C171.871 40.3191 171.507 40.5654 171.13 40.7915C170.716 41.0398 170.526 40.9981 170.219 40.6197C170.14 40.5218 170.075 40.4132 169.998 40.314C168.828 38.8152 167.294 38.3201 165.484 38.7439C163.727 39.1557 162.658 40.338 162.258 42.0756C161.833 43.9268 162.138 45.6366 163.542 47.0243C165.257 48.7182 168.644 48.7227 170.158 46.4318C170.216 46.344 170.271 46.2543 170.338 46.1735C170.584 45.8754 170.769 45.8154 171.098 46.0137C171.654 46.3478 172.189 46.7167 172.73 47.0729C173.026 47.2674 172.919 47.4866 172.774 47.7203C172.071 48.8553 171.135 49.7465 169.942 50.3238C167.175 51.6628 163.226 51.3211 160.855 48.753C159.28 47.0476 158.708 44.9905 158.875 42.7066C158.979 41.2956 159.414 39.9894 160.245 38.8329C161.687 36.8276 163.866 35.7639 167.23 35.7677L167.23 35.7671Z" fill="white"/>
<path d="M236.52 50.6919C234.671 50.6578 232.975 49.879 231.78 48.1212C231.437 47.6166 231.448 47.5837 231.947 47.2288C232.339 46.9496 232.728 46.6648 233.128 46.3976C233.592 46.0875 233.801 46.1197 234.123 46.5719C234.419 46.9869 234.742 47.3684 235.181 47.6311C235.98 48.1086 236.824 48.2071 237.709 47.9084C238.842 47.5256 239.294 46.0755 238.262 45.1862C237.648 44.6575 236.93 44.3265 236.204 44.0013C235.327 43.6084 234.443 43.2294 233.664 42.6458C232.347 41.6593 231.836 40.3442 232.077 38.7235C232.242 37.6087 232.858 36.7877 233.781 36.1965C235.776 34.9181 239.239 35.0059 241.089 37.1414C241.697 37.8424 241.707 37.8765 240.962 38.4298C240.626 38.68 240.292 38.9326 239.948 39.1707C239.554 39.4436 239.348 39.4303 239.033 39.0551C238.555 38.4867 237.992 38.1071 237.244 37.9921C236.792 37.9227 236.368 37.9713 235.956 38.1368C235.009 38.5164 234.826 39.6842 235.617 40.3259C236.057 40.6828 236.558 40.9474 237.072 41.1862C237.906 41.5727 238.758 41.9252 239.546 42.4071C240.321 42.8814 241.026 43.429 241.477 44.2514C242.296 45.7464 242.118 48.2981 240.116 49.687C239.101 50.3912 237.968 50.69 236.52 50.6919Z" fill="white"/>
<path d="M87.845 46.4545C88.6193 44.1833 89.4656 41.9669 90.2461 39.7272C90.5984 38.7154 90.9771 37.7124 91.3169 36.6962C91.4517 36.2919 91.6792 36.1283 92.0993 36.1397C92.8503 36.1606 93.6026 36.1359 94.3537 36.1498C94.842 36.1593 94.9097 36.261 94.7273 36.7284C94.1769 38.1375 93.612 39.5409 93.0541 40.9463C91.8529 43.9729 90.6524 46.9996 89.4506 50.0263C89.381 50.2019 89.3076 50.3762 89.2318 50.5492C89.1484 50.7412 89.0017 50.8442 88.7917 50.8448C88.1654 50.8474 87.5391 50.8467 86.9134 50.848C86.674 50.848 86.5254 50.7242 86.4395 50.5075C86.3774 50.3515 86.3072 50.1987 86.2451 50.0427C84.5243 45.708 82.8034 41.3732 81.0838 37.0385C80.7465 36.189 80.7722 36.1486 81.6536 36.1454C82.2379 36.1429 82.8228 36.1422 83.4071 36.1454C84.145 36.1498 84.1582 36.1517 84.4077 36.8339C85.0352 38.5506 85.6565 40.2698 86.274 41.9903C86.805 43.4708 87.3843 44.9349 87.8463 46.4545H87.845Z" fill="white"/>
<path d="M148.139 49.7106C147.858 49.7636 147.765 49.9449 147.628 50.0655C145.737 51.7323 142.54 51.3957 141.438 48.7379C140.548 46.5904 140.582 44.4537 142.021 42.5121C143.399 40.6539 146.158 40.5465 147.658 42.1098C147.771 42.2279 147.86 42.3814 148.047 42.4332C148.21 42.2822 148.138 42.0839 148.138 41.9077C148.139 40.0766 148.135 38.2456 148.133 36.4146C148.133 36.3091 148.138 36.2042 148.139 36.0988C148.141 35.8221 148.27 35.6547 148.551 35.6522C149.22 35.6459 149.888 35.6453 150.556 35.6541C150.809 35.6573 150.926 35.8208 150.937 36.0653C150.944 36.2333 150.947 36.4019 150.947 36.5699C150.947 40.9685 150.949 45.3676 150.947 49.7661C150.947 50.699 150.945 50.6997 149.996 50.7016C149.62 50.7022 149.244 50.7079 148.869 50.699C148.277 50.6858 148.237 50.6441 148.176 50.0592C148.166 49.9569 148.155 49.8546 148.139 49.7099V49.7106ZM143.747 46.0226C143.777 46.3573 143.778 46.5696 143.818 46.7742C143.984 47.6357 144.388 48.2958 145.297 48.5307C146.499 48.8415 147.63 48.2288 148.018 47.0382C148.247 46.3359 148.225 45.6285 147.975 44.9394C147.611 43.9433 146.731 43.4052 145.666 43.4981C144.712 43.5808 144.034 44.2288 143.832 45.2729C143.777 45.559 143.765 45.8546 143.747 46.0226Z" fill="white"/>
<path d="M308.839 42.089C308.98 41.8085 308.933 41.5957 308.933 41.391C308.938 39.644 308.936 37.8976 308.936 36.1506C308.936 36.0034 308.941 35.8562 308.942 35.7084C308.943 35.435 309.063 35.2594 309.348 35.2562C310.016 35.2499 310.684 35.2493 311.352 35.2581C311.6 35.2613 311.731 35.4091 311.74 35.6598C311.745 35.807 311.749 35.9541 311.749 36.1013C311.749 40.5415 311.749 44.9824 311.749 49.4226C311.749 49.528 311.752 49.6335 311.746 49.7384C311.72 50.2095 311.658 50.2841 311.188 50.2986C310.666 50.315 310.143 50.315 309.621 50.2986C309.122 50.2834 309.074 50.2203 309.049 49.6891C309.042 49.5438 309.047 49.3986 309.047 49.2066C308.725 49.2527 308.612 49.5034 308.443 49.6582C307.037 50.9466 304.862 51.0401 303.366 49.866C302.894 49.4958 302.527 49.0335 302.295 48.4865C301.448 46.4988 301.405 44.5175 302.486 42.6006C303.555 40.7045 305.931 40.0735 307.76 41.1523C308.16 41.3885 308.452 41.751 308.838 42.0883L308.839 42.089ZM304.56 45.6487C304.582 45.9001 304.585 46.1546 304.627 46.4022C304.802 47.4286 305.421 48.081 306.379 48.1928C307.153 48.2831 308.212 48.0337 308.679 47.0086C309.135 46.0087 309.114 44.9944 308.52 44.0514C308.035 43.2814 307.289 43.0111 306.407 43.1115C305.57 43.2069 305.056 43.7109 304.748 44.4689C304.594 44.8478 304.574 45.2464 304.56 45.6487Z" fill="white"/>
<path d="M278.723 49.2903C278.488 49.3011 278.39 49.5139 278.244 49.6478C276.875 50.9098 274.777 51.0374 273.268 49.9504C272.725 49.5588 272.33 49.0377 272.069 48.4377C271.221 46.4917 271.234 44.5432 272.244 42.6622C273.284 40.7276 275.715 40.0625 277.55 41.1527C277.949 41.3895 278.248 41.7445 278.592 42.0559C278.794 41.8891 278.722 41.6883 278.722 41.514C278.725 39.7253 278.719 37.9359 278.717 36.1472C278.717 36 278.722 35.8529 278.722 35.7051C278.723 35.4297 278.848 35.2585 279.131 35.256C279.799 35.2497 280.467 35.2497 281.136 35.2579C281.379 35.261 281.523 35.3968 281.533 35.6514C281.54 35.8194 281.544 35.988 281.544 36.156C281.544 40.5546 281.545 44.9531 281.544 49.3522C281.544 49.9859 281.233 50.3039 280.612 50.306C280.195 50.3072 279.776 50.3173 279.359 50.299C278.923 50.2801 278.875 50.2156 278.828 49.7748C278.811 49.615 278.878 49.435 278.723 49.2903ZM276.524 43.0936C275.569 43.0886 274.883 43.5579 274.556 44.463C274.291 45.1981 274.281 45.951 274.496 46.6976C274.759 47.6159 275.409 48.18 276.288 48.2084C277.275 48.2406 278.099 47.8616 278.498 46.9648C278.896 46.0691 278.883 45.1577 278.444 44.2804C278.054 43.4985 277.401 43.1006 276.524 43.0936Z" fill="white"/>
<path d="M196.101 49.6701C195.942 49.8406 196.003 50.0181 195.986 50.1792C195.941 50.5973 195.895 50.6737 195.507 50.6876C194.923 50.7085 194.337 50.7091 193.753 50.6876C193.364 50.6731 193.306 50.5878 193.276 50.176C193.266 50.0295 193.271 49.8817 193.271 49.7339C193.271 45.355 193.271 40.9766 193.271 36.5977C193.271 35.9598 193.58 35.6396 194.197 35.637C194.615 35.6358 195.033 35.6294 195.45 35.6402C195.997 35.6541 196.062 35.7229 196.085 36.2585C196.091 36.4057 196.087 36.5535 196.087 36.7007C196.087 38.406 196.086 40.1113 196.089 41.8161C196.089 42.0169 196.047 42.2285 196.153 42.4224C196.411 42.3744 196.514 42.1717 196.656 42.0308C198.154 40.5396 201.5 40.4922 202.69 43.1797C203.659 45.3695 203.622 47.5845 202.157 49.5842C200.819 51.4089 198.203 51.582 196.564 50.0339C196.43 49.907 196.329 49.7352 196.102 49.6701H196.101ZM200.443 46.1135C200.442 45.7245 200.425 45.4124 200.346 45.1023C200.13 44.2534 199.656 43.6616 198.762 43.5214C197.816 43.373 196.996 43.625 196.484 44.4814C195.877 45.4983 195.865 46.5695 196.452 47.601C196.89 48.3722 197.63 48.6627 198.477 48.5926C199.367 48.5181 199.991 48.0336 200.278 47.1595C200.397 46.7969 200.458 46.4243 200.443 46.1142L200.443 46.1135Z" fill="white"/>
<path d="M209.485 41.0414C211.825 41.0452 213.589 42.1783 214.396 44.1281C215.535 46.8794 214.002 50.0639 211.145 50.844C209.222 51.3688 207.437 51.0638 205.94 49.7058C204.501 48.4003 204.038 46.717 204.484 44.8304C204.909 43.031 206.067 41.8688 207.801 41.2827C208.382 41.0863 208.98 41.0199 209.485 41.0408V41.0414ZM211.876 45.992C211.871 45.9143 211.87 45.7242 211.847 45.5372C211.703 44.4167 210.86 43.5912 209.783 43.5072C208.594 43.415 207.632 44.0693 207.318 45.2012C207.175 45.7159 207.174 46.2459 207.288 46.7625C207.505 47.7478 208.345 48.466 209.316 48.5367C210.807 48.6453 211.852 47.6512 211.875 45.9926L211.876 45.992Z" fill="white"/>
<path d="M100.276 46.5459C99.378 46.5459 98.4803 46.5415 97.5825 46.5472C96.9105 46.5516 96.7763 46.7474 96.9813 47.398C97.4728 48.9574 99.5166 49.4311 100.626 48.1584C101.148 47.5597 101.565 47.547 102.167 47.8616C102.444 48.0062 102.753 48.0826 103.039 48.2109C103.471 48.4048 103.507 48.5134 103.241 48.9239C102.787 49.6238 102.206 50.2099 101.44 50.5383C99.4326 51.3992 97.4885 51.3152 95.6911 49.9813C94.794 49.3155 94.2743 48.3706 94.0806 47.2849C93.7584 45.4829 94.0022 43.794 95.3457 42.4272C96.2027 41.555 97.2584 41.092 98.4828 41.0509C99.1931 41.0269 99.8977 41.032 100.587 41.2733C102.441 41.9226 103.408 43.2736 103.681 45.1861C103.713 45.4147 103.718 45.6472 103.729 45.8783C103.755 46.4367 103.67 46.5352 103.094 46.5409C102.155 46.5504 101.216 46.5434 100.276 46.5434V46.5447V46.5459ZM98.874 44.9707V44.9732C99.3736 44.9732 99.8733 44.9833 100.372 44.9701C100.856 44.9574 100.911 44.8627 100.754 44.3896C100.486 43.5793 99.7673 43.103 98.8671 43.1397C97.9813 43.1757 97.2214 43.7732 97.0177 44.5728C96.9462 44.8539 97.0378 44.9701 97.3123 44.9701C97.8327 44.9701 98.353 44.9701 98.8734 44.9701L98.874 44.9707Z" fill="white"/>
<path d="M136.311 46.544C135.35 46.544 134.389 46.537 133.427 46.5471C133 46.5516 132.967 46.6059 133.009 47.0373C133.16 48.5759 135.004 49.4026 136.313 48.519C136.593 48.3295 136.832 48.0965 137.032 47.8217C137.184 47.612 137.383 47.5242 137.633 47.6209C138.179 47.8318 138.724 48.0466 139.268 48.2645C139.579 48.3889 139.521 48.6043 139.388 48.826C138.907 49.6224 138.255 50.2452 137.403 50.5983C135.685 51.3101 133.982 51.2829 132.331 50.3633C131.619 49.966 131.058 49.4045 130.682 48.6769C129.859 47.0827 129.809 45.4267 130.515 43.8034C131.293 42.0141 132.752 41.1431 134.67 41.0477C135.359 41.0136 136.04 41.0547 136.713 41.2745C138.899 41.9888 139.907 44.1256 139.81 46.0362C139.789 46.448 139.71 46.5288 139.257 46.5351C138.275 46.5484 137.293 46.5389 136.311 46.5389V46.5427L136.311 46.544ZM134.948 44.9681V44.97C135.469 44.97 135.99 44.9801 136.509 44.9669C136.932 44.9561 136.976 44.881 136.869 44.4647C136.664 43.6683 135.917 43.1276 135.036 43.1365C134.115 43.1459 133.306 43.7384 133.11 44.5468C133.033 44.8652 133.088 44.9517 133.449 44.9637C133.948 44.9801 134.448 44.9681 134.948 44.9681H134.948Z" fill="white"/>
<path d="M219.144 42.4541C219.331 42.4118 219.402 42.2697 219.499 42.1661C220.505 41.0968 221.752 40.8486 223.123 41.1391C224.411 41.412 225.118 42.2968 225.399 43.5512C225.49 43.9599 225.537 44.3799 225.536 44.8037C225.531 46.4876 225.535 48.1714 225.534 49.8553C225.534 49.9608 225.536 50.0663 225.526 50.1705C225.483 50.588 225.404 50.6802 224.979 50.6928C224.394 50.7105 223.808 50.7105 223.224 50.6934C222.772 50.6802 222.695 50.5873 222.661 50.1212C222.649 49.9538 222.655 49.7846 222.654 49.6159C222.654 48.3742 222.655 47.1324 222.653 45.8901C222.653 45.6166 222.65 45.3425 222.631 45.0696C222.571 44.2169 222.255 43.7521 221.62 43.5657C220.914 43.3586 220.11 43.6289 219.666 44.2397C219.282 44.769 219.139 45.3759 219.141 46.024C219.142 47.2449 219.141 48.4658 219.139 49.6867C219.138 50.6953 219.133 50.6998 218.124 50.701C217.664 50.701 217.204 50.7124 216.745 50.6922C216.353 50.6751 216.283 50.5899 216.249 50.197C216.238 50.0713 216.243 49.9444 216.243 49.818C216.243 47.3131 216.243 44.8081 216.243 42.3038C216.243 42.1983 216.24 42.0928 216.247 41.988C216.278 41.5136 216.339 41.4397 216.807 41.4271C217.35 41.4126 217.894 41.4139 218.437 41.4252C218.992 41.4366 219.017 41.4726 219.058 42.0486C219.067 42.1718 219.039 42.3019 219.144 42.4522V42.4541Z" fill="white"/>
<path d="M263.594 42.0482C263.812 42.0052 263.902 41.7943 264.047 41.6566C265.184 40.5689 266.516 40.4092 267.948 40.8664C268.77 41.1286 269.326 41.716 269.643 42.5282C269.859 43.0834 269.964 43.6607 269.965 44.255C269.969 45.9812 269.967 47.7074 269.967 49.4329C269.967 49.5593 269.961 49.6856 269.956 49.8113C269.945 50.1492 269.765 50.3008 269.436 50.2995C268.871 50.2976 268.307 50.3115 267.743 50.2995C267.183 50.2881 267.098 50.2073 267.093 49.6212C267.08 48.4003 267.089 47.1794 267.086 45.9585C267.085 45.5378 267.092 45.1159 267.067 44.6959C267.014 43.8091 266.678 43.3322 266.016 43.1592C265.3 42.9716 264.51 43.2609 264.077 43.8792C263.715 44.3965 263.577 44.9839 263.576 45.6086C263.574 46.8295 263.575 48.0504 263.573 49.2713C263.571 49.9568 263.239 50.3008 262.575 50.3033C262.178 50.3039 261.78 50.3096 261.383 50.3008C260.787 50.2869 260.717 50.2105 260.694 49.5927C260.691 49.5087 260.693 49.4241 260.693 49.3401C260.693 46.8775 260.691 44.4142 260.693 41.9515C260.693 41.0332 260.702 41.0275 261.59 41.0243C261.987 41.0231 262.384 41.0199 262.781 41.0256C263.429 41.0357 263.445 41.0559 263.492 41.6888C263.501 41.8082 263.454 41.9459 263.594 42.0469V42.0482Z" fill="white"/>
<path d="M254.771 40.6646C255.188 40.6545 255.603 40.6627 256.014 40.7638C257.324 41.0859 258.142 41.9992 258.332 43.3464C258.435 44.0784 258.434 44.813 258.432 45.5488C258.43 46.3901 258.423 47.2314 258.44 48.0721C258.45 48.525 258.516 48.5667 258.957 48.5711C259.361 48.5749 259.41 48.6166 259.444 49.0334C259.459 49.2216 259.453 49.4117 259.451 49.6006C259.444 50.3434 259.345 50.4672 258.598 50.548C258.226 50.5884 257.848 50.5739 257.472 50.5802C256.915 50.5891 256.465 50.3712 256.102 49.9423C255.792 49.5747 255.777 49.5741 255.374 49.8741C254.51 50.5171 253.535 50.7628 252.481 50.6699C251.711 50.6023 251.018 50.3326 250.531 49.6777C249.922 48.861 249.899 47.2017 251.033 46.3276C251.657 45.8463 252.367 45.5444 253.115 45.3379C253.718 45.1711 254.333 45.0505 254.944 44.9134C255.521 44.7839 255.587 44.6962 255.532 44.0993C255.462 43.3464 255.039 42.9624 254.285 42.9984C253.533 43.0344 252.94 43.4115 252.435 43.9445C251.993 44.41 251.989 44.4151 251.455 44.0576C251.211 43.8946 250.967 43.7323 250.73 43.5599C250.243 43.2049 250.223 43.1291 250.582 42.6655C251.503 41.4743 252.724 40.8225 254.209 40.6671C254.394 40.6475 254.584 40.6646 254.772 40.6646H254.771ZM255.548 47.354C255.548 47.1121 255.559 46.9226 255.545 46.735C255.519 46.3832 255.467 46.3358 255.109 46.4053C254.598 46.5045 254.096 46.6459 253.624 46.8771C253.338 47.0173 253.095 47.2144 252.942 47.5018C252.676 48.0001 252.858 48.5862 253.362 48.7549C253.982 48.9627 254.541 48.7372 255.086 48.4397C255.56 48.1814 255.579 47.7569 255.548 47.3546V47.354Z" fill="white"/>
<path d="M182.295 46.1597C182.295 47.0111 182.285 47.7058 182.298 48.4C182.307 48.9286 182.347 48.9741 182.871 48.9438C183.185 48.9255 183.292 49.067 183.299 49.3392C183.308 49.6758 183.3 50.0125 183.304 50.3491C183.306 50.6182 183.185 50.7837 182.922 50.8475C182.221 51.018 181.516 51.0496 180.812 50.886C180.481 50.8089 180.208 50.6125 179.984 50.346C179.669 49.972 179.661 49.9727 179.251 50.2708C178.421 50.8752 177.49 51.1304 176.476 51.071C175.885 51.0363 175.32 50.8898 174.846 50.4988C173.702 49.5564 173.693 47.7551 174.83 46.7913C175.283 46.4066 175.801 46.1413 176.357 45.9399C177.186 45.6392 178.042 45.4529 178.903 45.2805C179.472 45.1668 179.516 45.0891 179.424 44.5131C179.279 43.613 178.771 43.246 177.876 43.4153C177.258 43.5322 176.762 43.8682 176.337 44.3274C175.907 44.791 175.864 44.7922 175.343 44.4474C175.081 44.2743 174.821 44.0975 174.566 43.9143C174.115 43.5903 174.099 43.5271 174.453 43.0673C175.386 41.8527 176.62 41.1807 178.138 41.0594C178.533 41.0278 178.933 41.0386 179.328 41.0651C180.818 41.1649 181.862 42.0826 182.182 43.5454C182.383 44.4632 182.245 45.3929 182.294 46.159L182.295 46.1597ZM179.474 47.6604C179.474 47.4279 179.472 47.2593 179.474 47.0913C179.479 46.8178 179.363 46.7085 179.086 46.7692C178.471 46.9031 177.867 47.0616 177.318 47.3843C176.994 47.5745 176.77 47.8385 176.711 48.2193C176.646 48.6305 176.848 49.0259 177.211 49.1301C177.855 49.3139 178.436 49.1402 179.002 48.8017C179.491 48.5099 179.504 48.0715 179.474 47.6604Z" fill="white"/>
<path d="M291.327 45.8578C291.327 46.5519 291.318 47.2467 291.33 47.9408C291.34 48.5301 291.38 48.5737 291.974 48.5548C292.25 48.5459 292.363 48.6741 292.386 48.911C292.41 49.1403 292.41 49.3733 292.408 49.6039C292.402 50.3391 292.316 50.4471 291.613 50.545C291.136 50.6113 290.654 50.6094 290.175 50.5639C289.722 50.521 289.338 50.3283 289.045 49.9614C288.734 49.5717 288.722 49.566 288.328 49.8635C287.29 50.6473 286.131 50.8481 284.885 50.5784C284.025 50.3921 283.378 49.8919 283.17 49.0139C282.955 48.1006 283.037 47.2145 283.783 46.5077C284.316 46.0037 284.964 45.7207 285.63 45.4706C286.297 45.2199 286.995 45.0841 287.694 44.954C288.448 44.8131 288.482 44.7885 288.503 44.3849C288.537 43.7305 288.258 43.2448 287.748 43.0711C287.463 42.9739 287.173 42.984 286.882 43.0415C286.283 43.1596 285.814 43.4943 285.398 43.927C284.931 44.4127 284.895 44.412 284.358 44.0337C284.085 43.8404 283.803 43.6585 283.538 43.4545C283.224 43.2139 283.2 43.1021 283.435 42.7749C283.831 42.2235 284.329 41.7782 284.904 41.4189C286.141 40.6451 287.49 40.474 288.884 40.762C290.397 41.074 291.245 42.142 291.306 43.7147C291.334 44.4291 291.311 45.1453 291.311 45.8603C291.316 45.8603 291.322 45.8603 291.328 45.8603L291.327 45.8578ZM288.507 47.3061C288.507 47.073 288.501 46.905 288.508 46.737C288.521 46.4142 288.357 46.334 288.073 46.3947C287.5 46.5172 286.939 46.6795 286.422 46.9663C286.22 47.0787 286.044 47.2297 285.923 47.4337C285.576 48.0179 285.832 48.6748 286.487 48.808C287.125 48.9382 287.665 48.6697 288.184 48.3249C288.604 48.0463 288.486 47.6276 288.507 47.3061H288.507Z" fill="white"/>
<path d="M120.942 50.7007C120.691 50.7007 120.44 50.7076 120.19 50.6994C119.641 50.6804 119.573 50.6204 119.564 50.0779C119.553 49.2997 119.561 48.5216 119.561 47.7428C119.561 46.6072 119.564 45.4709 119.559 44.3353C119.556 43.674 119.532 43.6544 118.9 43.6412C118.255 43.6273 117.932 43.3037 117.931 42.6704C117.931 42.4177 117.921 42.1645 117.939 41.9137C117.967 41.5145 118.029 41.4583 118.439 41.4293C118.626 41.416 118.815 41.4293 119.003 41.4211C119.494 41.4015 119.546 41.3592 119.556 40.8779C119.569 40.3315 119.564 39.7839 119.562 39.237C119.561 38.6439 119.654 38.0628 119.807 37.4931C120.107 36.3726 120.807 35.6804 121.956 35.4618C122.712 35.3178 123.452 35.3974 124.189 35.5768C124.438 35.6374 124.619 35.7682 124.604 36.0473C124.574 36.6139 124.535 37.1798 124.481 37.7445C124.459 37.9775 124.293 38.0476 124.071 38.0154C123.824 37.9794 123.575 37.9289 123.327 37.9308C122.888 37.9346 122.655 38.1013 122.539 38.5125C122.3 39.357 122.39 40.2242 122.408 41.0844C122.413 41.3137 122.58 41.4084 122.792 41.4135C123.147 41.4223 123.503 41.4122 123.857 41.4305C124.291 41.4526 124.353 41.5164 124.373 41.9636C124.389 42.3205 124.387 42.6792 124.376 43.0361C124.36 43.5609 124.304 43.6165 123.799 43.638C123.549 43.6487 123.298 43.638 123.047 43.6424C122.419 43.6532 122.395 43.6759 122.389 44.3372C122.384 44.9259 122.388 45.5151 122.388 46.1044C122.388 47.3879 122.391 48.6707 122.386 49.9541C122.383 50.6482 122.333 50.6918 121.63 50.7032C121.401 50.707 121.171 50.7032 120.941 50.7032V50.7019L120.942 50.7007Z" fill="white"/>
<path d="M246.79 39.2329C246.79 39.6535 246.78 40.0748 246.793 40.4948C246.808 40.9483 246.864 41.0077 247.302 41.0216C247.782 41.0367 248.263 41.0165 248.743 41.0336C249.169 41.0481 249.248 41.1252 249.27 41.561C249.289 41.9595 249.29 42.3612 249.267 42.7591C249.245 43.1608 249.166 43.2354 248.772 43.2512C248.313 43.2695 247.853 43.2512 247.394 43.2613C246.856 43.2726 246.798 43.3175 246.793 43.8253C246.783 44.8561 246.792 45.8869 246.795 46.9177C246.795 47.0017 246.801 47.0863 246.811 47.1697C246.906 47.939 247.332 48.28 248.101 48.1935C248.245 48.1771 248.387 48.1341 248.53 48.1019C249.087 47.9775 249.167 48.011 249.228 48.556C249.28 49.014 249.274 49.4788 249.285 49.9412C249.292 50.2083 249.148 50.3725 248.897 50.4439C247.696 50.7831 246.497 50.8463 245.353 50.2702C244.427 49.8028 244.009 48.9691 243.986 47.9522C243.958 46.6909 243.975 45.4283 243.973 44.1657C243.973 43.9977 243.97 43.8291 243.963 43.6611C243.954 43.4078 243.819 43.2764 243.569 43.2688C243.319 43.2606 243.068 43.255 242.818 43.2537C242.514 43.2518 242.35 43.1122 242.351 42.7964C242.352 42.3758 242.335 41.9545 242.353 41.5344C242.37 41.129 242.443 41.0671 242.838 41.0336C242.983 41.021 243.13 41.0298 243.276 41.0266C243.933 41.0121 243.965 40.9793 243.973 40.2908C243.977 39.891 243.984 39.4912 243.973 39.092C243.965 38.7901 244.065 38.5627 244.33 38.4099C244.854 38.1061 245.374 37.7934 245.902 37.4947C246.007 37.4353 246.137 37.4037 246.259 37.3924C246.617 37.3589 246.76 37.47 246.778 37.8452C246.8 38.3069 246.783 38.7705 246.783 39.2335C246.786 39.2335 246.789 39.2335 246.792 39.2335L246.79 39.2329Z" fill="white"/>
<path d="M107.982 42.6476C108.255 42.3419 108.431 42.1354 108.617 41.9389C109.229 41.2909 109.973 40.989 110.867 41.0433C111.814 41.1008 112.621 41.7545 112.867 42.6817C112.924 42.8958 112.892 43.0537 112.697 43.1636C112.114 43.4933 111.531 43.8218 110.948 44.1521C110.708 44.2885 110.535 44.2184 110.346 44.0214C109.799 43.4485 109.281 43.4807 108.771 44.0946C108.438 44.4963 108.296 44.9827 108.216 45.4835C108.132 46.0021 108.083 46.5251 108.09 47.0537C108.104 47.9797 108.096 48.9056 108.093 49.8315C108.091 50.6848 108.078 50.6962 107.204 50.7006C106.912 50.7019 106.619 50.7006 106.327 50.7006C105.629 50.6998 105.279 50.3575 105.279 49.6736C105.278 47.4851 105.279 45.2966 105.279 43.1081C105.279 42.7714 105.273 42.4348 105.281 42.0981C105.296 41.4975 105.351 41.4368 105.921 41.4242C106.381 41.4141 106.84 41.4147 107.3 41.4242C107.86 41.4356 107.907 41.4867 107.941 42.0324C107.951 42.196 107.963 42.359 107.982 42.647L107.982 42.6476Z" fill="white"/>
<path d="M296.393 42.1982C296.617 41.9518 296.805 41.739 297.001 41.5324C297.634 40.8648 298.413 40.5983 299.323 40.6545C300.242 40.7114 300.95 41.4181 301.245 42.3169C301.318 42.5386 301.233 42.6826 301.048 42.7875C300.465 43.1159 299.882 43.4443 299.297 43.7702C299.085 43.889 298.92 43.8366 298.744 43.6597C298.138 43.0508 297.611 43.0932 297.089 43.7709C296.785 44.1656 296.651 44.6292 296.582 45.1124C296.508 45.6328 296.459 46.1546 296.465 46.6832C296.477 47.6925 296.475 48.7025 296.463 49.7124C296.458 50.2032 296.385 50.284 295.932 50.2985C295.348 50.3169 294.763 50.3169 294.179 50.2985C293.751 50.2853 293.688 50.2038 293.657 49.7642C293.648 49.6385 293.653 49.5122 293.653 49.3859C293.653 46.9036 293.652 44.4214 293.653 41.9392C293.653 41.7503 293.66 41.5609 293.678 41.3726C293.696 41.1819 293.809 41.0524 294 41.0493C294.647 41.0385 295.294 41.036 295.94 41.0436C296.2 41.0467 296.285 41.2299 296.309 41.4661C296.332 41.6885 296.273 41.9215 296.392 42.1988L296.393 42.1982Z" fill="white"/>
<path d="M187.336 42.4816C187.556 42.4494 187.622 42.2491 187.742 42.1121C188.437 41.3125 189.297 40.9398 190.359 41.0567C191.198 41.1489 191.992 41.8594 192.165 42.6755C192.209 42.8877 192.172 43.057 191.985 43.1644C191.388 43.5079 190.789 43.849 190.184 44.18C189.961 44.3019 189.801 44.1819 189.641 44.0126C189.124 43.4669 188.532 43.4941 188.067 44.0947C187.596 44.7023 187.465 45.4325 187.448 46.1746C187.423 47.3728 187.438 48.5716 187.435 49.7697C187.434 50.3895 187.116 50.7001 186.482 50.7013C186.086 50.702 185.689 50.7077 185.293 50.6988C184.682 50.6849 184.632 50.63 184.622 49.9933C184.615 49.5941 184.62 49.1943 184.62 48.7951C184.62 46.6717 184.62 44.5482 184.62 42.4247C184.62 42.2567 184.614 42.0875 184.627 41.9201C184.659 41.5222 184.721 41.4464 185.123 41.4318C185.644 41.4129 186.166 41.4135 186.687 41.4306C187.122 41.4445 187.162 41.5064 187.21 41.9592C187.229 42.1367 187.146 42.3433 187.336 42.4822V42.4816Z" fill="white"/>
<path d="M125.609 46C125.609 44.7185 125.603 43.4376 125.611 42.1561C125.615 41.4847 125.672 41.4329 126.321 41.4253C126.863 41.4196 127.406 41.4145 127.947 41.4297C128.377 41.4423 128.445 41.5194 128.481 41.9508C128.494 42.0967 128.488 42.2445 128.488 42.3916C128.488 44.8284 128.488 47.2651 128.488 49.7013C128.488 49.8484 128.493 49.9962 128.481 50.1421C128.443 50.5956 128.365 50.6821 127.901 50.696C127.359 50.7125 126.817 50.7099 126.275 50.6986C125.707 50.6866 125.621 50.6089 125.615 50.0322C125.601 48.8353 125.61 47.6378 125.608 46.4403C125.608 46.2931 125.608 46.1459 125.609 45.9994V46Z" fill="white"/>
<path d="M116.745 46.0729C116.745 47.3355 116.747 48.5981 116.744 49.8607C116.742 50.6755 116.721 50.6938 115.887 50.6995C115.511 50.702 115.135 50.702 114.759 50.6995C113.952 50.6938 113.933 50.6736 113.929 49.8323C113.927 49.3485 113.929 48.864 113.929 48.3802C113.929 46.3812 113.929 44.3821 113.93 42.3831C113.93 42.1936 113.932 42.0041 113.945 41.8153C113.962 41.5664 114.102 41.4325 114.35 41.4312C114.998 41.4274 115.645 41.4293 116.293 41.4287C116.611 41.4287 116.739 41.6056 116.739 41.9068C116.739 42.0748 116.745 42.2435 116.745 42.4115C116.745 43.6318 116.745 44.8527 116.745 46.0729Z" fill="white"/>
<path d="M115.202 35.9813C115.928 35.9668 116.465 36.2946 116.772 36.9357C117.046 37.5079 116.988 38.0865 116.577 38.5937C116.064 39.2259 115.378 39.3245 114.644 39.1539C113.877 38.9752 113.452 38.3417 113.48 37.5048C113.505 36.7532 113.964 36.1986 114.705 36.0369C114.867 36.0016 115.036 35.999 115.202 35.9807V35.9813Z" fill="white"/>
<path d="M126.925 39.2182C125.769 39.2056 125.037 38.4148 125.16 37.3897C125.233 36.7771 125.551 36.3343 126.136 36.1126C126.581 35.944 127.04 35.9402 127.489 36.0735C128.238 36.2964 128.646 36.9489 128.581 37.775C128.526 38.4609 127.962 39.0749 127.271 39.1923C127.128 39.2163 126.98 39.2144 126.925 39.2182Z" fill="white"/>
<path d="M100.365 62.4063C100.365 61.5858 100.358 60.7647 100.367 59.9443C100.373 59.3543 100.441 59.2817 101.013 59.2735C101.765 59.2628 102.521 59.2255 103.267 59.2855C105.117 59.4346 105.584 61.2138 104.913 62.2983C104.755 62.5541 104.546 62.76 104.29 62.9084C104.031 63.0587 104.018 63.2267 104.161 63.4775C104.442 63.9695 104.702 64.4742 104.959 64.9795C105.192 65.4361 105.104 65.5921 104.61 65.6243C104.464 65.6338 104.315 65.6136 104.171 65.6313C103.732 65.685 103.475 65.4854 103.296 65.0887C103.071 64.5916 102.805 64.1129 102.546 63.6322C102.451 63.4554 102.371 63.1952 102.103 63.2792C101.843 63.3606 101.921 63.6272 101.914 63.8255C101.901 64.2247 101.921 64.6258 101.903 65.0243C101.88 65.5138 101.782 65.6003 101.296 65.6256C101.171 65.6319 101.045 65.6325 100.92 65.6256C100.459 65.5997 100.376 65.5321 100.369 65.0578C100.356 64.1742 100.365 63.2905 100.365 62.4069H100.363L100.365 62.4063ZM102.688 60.6965C102.514 60.7047 102.37 60.7073 102.225 60.7186C102.092 60.7294 101.998 60.7969 101.946 60.927C101.716 61.4968 101.977 61.913 102.576 61.9206C102.761 61.9231 102.95 61.9294 103.132 61.8997C103.465 61.8454 103.642 61.6193 103.635 61.2953C103.627 60.9744 103.445 60.7982 103.152 60.7357C102.992 60.7016 102.824 60.7066 102.689 60.6965H102.688Z" fill="white"/>
<path d="M107 62.4288C107 61.5868 106.992 60.7449 107.003 59.9036C107.01 59.368 107.093 59.2833 107.63 59.2745C108.382 59.2625 109.135 59.2448 109.886 59.2814C111.083 59.3402 111.914 60.2939 111.826 61.4624C111.783 62.0479 111.49 62.4862 111.028 62.8292C110.601 63.1469 110.606 63.1519 110.862 63.6313C111.12 64.1126 111.391 64.5882 111.628 65.0796C111.805 65.4453 111.717 65.5792 111.329 65.6228C111.287 65.6272 111.245 65.6222 111.203 65.6278C110.501 65.7327 110.002 65.5262 109.748 64.7916C109.592 64.3387 109.329 63.9225 109.108 63.493C109.039 63.3597 108.946 63.2353 108.769 63.2694C108.585 63.3042 108.557 63.4602 108.554 63.6086C108.543 64.0501 108.553 64.4928 108.539 64.9343C108.52 65.5375 108.433 65.6165 107.832 65.6285C107.728 65.6304 107.623 65.6329 107.519 65.6247C107.099 65.5918 107.015 65.523 107.006 65.0815C106.99 64.3034 106.999 63.5246 106.999 62.7458C106.999 62.6403 106.999 62.5355 106.999 62.43H107V62.4288ZM109.375 61.9216C109.434 61.9178 109.603 61.9241 109.765 61.8931C110.089 61.8319 110.264 61.631 110.274 61.3474C110.285 61.0398 110.094 60.7777 109.765 60.7322C109.478 60.6925 109.183 60.7108 108.892 60.7165C108.699 60.7202 108.602 60.8371 108.559 61.0266C108.414 61.6727 108.605 61.9184 109.375 61.9222V61.9216Z" fill="white"/>
<path d="M94.3626 62.4561C94.3626 61.6362 94.355 60.8164 94.3651 59.9966C94.3726 59.3801 94.461 59.2816 95.0421 59.274C95.9806 59.262 96.9198 59.2683 97.8589 59.2728C98.0852 59.274 98.3573 59.2469 98.4532 59.514C98.5761 59.8545 98.5961 60.2183 98.4237 60.5524C98.3366 60.7217 98.141 60.7103 97.9748 60.7122C97.4533 60.7172 96.931 60.7071 96.4101 60.7217C95.9907 60.7337 95.9129 60.8196 95.9142 61.1897C95.9154 61.5592 95.9957 61.6457 96.4088 61.6634C96.763 61.6786 97.1185 61.659 97.4727 61.6748C97.9579 61.6962 98.0344 61.7859 98.0526 62.2874C98.0557 62.3714 98.0557 62.4561 98.0513 62.5394C98.0269 63.0131 97.9617 63.0896 97.5009 63.1098C97.1053 63.1268 96.7085 63.1205 96.3116 63.1211C95.9668 63.1211 95.9085 63.3403 95.9092 63.6258C95.9104 64.0521 95.9681 64.1582 96.3267 64.1728C96.8477 64.1943 97.3699 64.1797 97.8915 64.186C98.1209 64.1886 98.3905 64.1721 98.467 64.4519C98.561 64.7955 98.6055 65.1575 98.393 65.4846C98.3184 65.5996 98.1805 65.6166 98.0557 65.6166C96.9918 65.6204 95.9273 65.6318 94.8635 65.6147C94.4792 65.6084 94.3789 65.484 94.3701 65.0406C94.3538 64.1791 94.3651 63.3169 94.3651 62.4548H94.3613L94.3626 62.4561Z" fill="white"/>
<path d="M118.201 65.6272C117.791 65.7011 117.456 65.5331 117.282 65.0601C117.202 64.8421 117.028 64.736 116.793 64.7367C116.27 64.7379 115.748 64.7398 115.226 64.7354C114.961 64.7335 114.803 64.8712 114.695 65.1011C114.597 65.3095 114.504 65.5439 114.245 65.59C113.895 65.6519 113.538 65.6613 113.188 65.5805C113.046 65.5477 112.997 65.4169 113.027 65.2817C113.059 65.1396 113.108 64.9988 113.169 64.8661C113.97 63.1292 114.774 61.3942 115.579 59.6592C115.632 59.5461 115.689 59.4255 115.774 59.3396C115.966 59.1463 116.201 59.217 116.361 59.536C116.596 60.0053 116.808 60.4866 117.029 60.9634C117.611 62.2222 118.193 63.4817 118.775 64.7411C118.784 64.76 118.794 64.7784 118.803 64.7973C119.13 65.5199 119.061 65.6272 118.2 65.6266L118.201 65.6272ZM115.944 62.322C115.822 62.5841 115.714 62.8058 115.616 63.0313C115.571 63.1349 115.576 63.2587 115.699 63.289C115.919 63.344 116.172 63.4021 116.356 63.2486C116.515 63.1141 116.343 62.9416 116.282 62.7983C116.218 62.6486 116.176 62.4793 115.945 62.322H115.944Z" fill="white"/>
<path d="M149.279 65.6245C148.925 65.6245 148.569 65.6384 148.216 65.6207C147.804 65.5999 147.718 65.5032 147.673 65.0883C147.665 65.0049 147.665 64.9203 147.665 64.8363C147.665 63.2395 147.66 61.6428 147.667 60.0455C147.67 59.3646 147.759 59.2806 148.423 59.2718C148.965 59.2648 149.508 59.2528 150.049 59.2762C151.562 59.3413 152.879 60.4958 153.069 61.9037C153.287 63.5162 152.459 64.9443 151.013 65.4717C150.445 65.6788 149.86 65.6144 149.279 65.6239V65.6245ZM149.633 60.3165C149.548 60.3165 149.402 60.3184 149.257 60.3165C148.949 60.312 148.795 60.4643 148.795 60.7744C148.795 61.9264 148.795 63.0791 148.795 64.2312C148.795 64.552 148.966 64.6758 149.268 64.6727C149.728 64.6682 150.185 64.6266 150.622 64.4832C151.163 64.3057 151.541 63.9324 151.775 63.4057C152.425 61.9441 151.437 60.1788 149.633 60.3165Z" fill="white"/>
<path d="M169.43 65.6228C169.096 65.6228 168.761 65.6386 168.429 65.6184C168.042 65.595 167.973 65.5104 167.937 65.1157C167.93 65.0323 167.932 64.9476 167.932 64.8636C167.932 63.2448 167.928 61.626 167.934 60.0072C167.936 59.3446 168.002 59.2809 168.647 59.2714C169.19 59.2632 169.733 59.255 170.275 59.2745C171.802 59.3289 173.078 60.4923 173.324 62.0378C173.548 63.4476 172.619 64.9584 171.228 65.4687C170.64 65.6841 170.033 65.6127 169.431 65.6235L169.43 65.6228ZM168.993 62.5002H168.994C168.994 63.0471 168.984 63.5947 168.997 64.1417C169.008 64.5984 169.069 64.6489 169.504 64.6716C169.841 64.6893 170.171 64.6369 170.499 64.5699C171.581 64.3508 172.266 63.4469 172.2 62.3315C172.131 61.1788 171.329 60.3735 170.185 60.3154C169.998 60.306 169.809 60.3072 169.622 60.3116C169.059 60.3262 169.007 60.371 168.996 60.9211C168.986 61.4473 168.993 61.9734 168.993 62.4995L168.993 62.5002Z" fill="white"/>
<path d="M141.352 61.3385C141.129 61.6997 141.189 61.9145 141.187 62.1172C141.179 63.1063 141.191 64.0954 141.176 65.0845C141.169 65.5393 140.97 65.6814 140.539 65.6157C140.322 65.5822 140.198 65.4654 140.171 65.2525C140.151 65.0864 140.142 64.9172 140.142 64.7492C140.14 63.1708 140.136 61.5924 140.146 60.014C140.147 59.7373 140.04 59.3761 140.409 59.2491C140.736 59.1367 140.888 59.4449 141.059 59.6413C141.98 60.7024 142.89 61.7724 143.806 62.8385C143.94 62.9952 144.044 63.1859 144.252 63.2807C144.441 63.1733 144.369 62.987 144.37 62.8379C144.379 61.8488 144.368 60.8597 144.381 59.8706C144.387 59.4443 144.489 59.3287 144.8 59.287C145.192 59.2352 145.407 59.3887 145.42 59.791C145.443 60.4428 145.431 61.0953 145.432 61.7477C145.433 62.716 145.432 63.6836 145.432 64.6519C145.432 64.799 145.437 64.9468 145.429 65.094C145.416 65.3195 145.462 65.5879 145.174 65.677C144.9 65.7616 144.755 65.5393 144.608 65.3681C144.32 65.0346 144.044 64.691 143.763 64.3525C143.025 63.4657 142.285 62.5808 141.55 61.6915C141.484 61.6113 141.446 61.5071 141.352 61.3378L141.352 61.3385Z" fill="white"/>
<path d="M161.334 62.3783C161.334 61.5786 161.325 60.7784 161.337 59.9788C161.346 59.3693 161.435 59.2815 162.03 59.2714C162.677 59.2606 163.326 59.2575 163.973 59.2739C164.741 59.2928 165.341 59.6352 165.727 60.3097C166.164 61.0746 166.043 61.9368 165.428 62.5753C165.312 62.6953 165.189 62.8179 165.049 62.9038C164.788 63.0642 164.8 63.2524 164.931 63.4886C165.125 63.8373 165.307 64.1929 165.495 64.5453C165.544 64.6382 165.608 64.7247 165.645 64.822C165.737 65.0588 166.009 65.302 165.709 65.5502C165.455 65.7599 164.827 65.619 164.654 65.3114C164.376 64.8175 164.108 64.3141 163.888 63.7924C163.692 63.3295 163.385 63.1671 162.907 63.2126C162.461 63.2549 162.395 63.289 162.38 63.728C162.365 64.1487 162.382 64.5699 162.372 64.9906C162.36 65.506 162.272 65.6121 161.884 65.6197C161.471 65.6279 161.346 65.5003 161.338 64.9679C161.325 64.1051 161.335 63.2417 161.335 62.3789H161.333L161.334 62.3783ZM163.395 62.2696C163.602 62.2696 163.813 62.2943 164.017 62.2646C164.517 62.1919 164.905 61.7353 164.89 61.2704C164.875 60.822 164.507 60.4158 164.023 60.335C163.86 60.3078 163.692 60.3123 163.526 60.3104C162.812 60.3024 162.456 60.6525 162.457 61.3607C162.459 61.9784 162.771 62.2814 163.395 62.2696Z" fill="white"/>
<path d="M90.0521 62.3446C90.511 61.5968 90.7693 60.8161 91.1279 60.0847C91.1925 59.9527 91.2489 59.8163 91.3041 59.6799C91.4094 59.4203 91.5912 59.2718 91.8777 59.275C92.1492 59.2782 92.4219 59.2674 92.6908 59.294C92.9516 59.3198 93.0519 59.4885 92.9679 59.7418C92.9084 59.9211 92.8375 60.0974 92.7579 60.2685C92.015 61.869 91.269 63.4683 90.5236 65.0681C90.4878 65.1445 90.4521 65.2203 90.4139 65.2955C90.3292 65.4641 90.2596 65.6694 90.0415 65.6827C89.7832 65.6978 89.7011 65.4686 89.6145 65.281C88.7858 63.4885 87.9557 61.6966 87.1395 59.8984C86.9282 59.4329 87.0254 59.3066 87.5451 59.2731C87.6699 59.2649 87.7965 59.2794 87.9206 59.2681C88.3808 59.2251 88.656 59.4297 88.8315 59.8605C89.1174 60.5603 89.4428 61.2444 89.7525 61.9341C89.8114 62.0655 89.8634 62.2038 90.0528 62.3446H90.0521Z" fill="white"/>
<path d="M138.117 65.625C137.816 65.6685 137.599 65.4993 137.483 65.1917C137.129 64.2531 137.108 64.3434 136.073 64.3371C135.656 64.3346 135.238 64.3504 134.822 64.3346C134.464 64.3207 134.224 64.4546 134.097 64.8001C134.033 64.9769 133.944 65.1449 133.862 65.3155C133.775 65.5005 133.632 65.6035 133.423 65.6205C132.795 65.673 132.662 65.4721 132.897 64.9618C133.705 63.2097 134.492 61.4475 135.287 59.6891C135.305 59.6506 135.323 59.6133 135.343 59.576C135.433 59.4093 135.515 59.2268 135.747 59.2394C135.95 59.2508 136.017 59.4194 136.087 59.5697C136.361 60.1596 136.63 60.7515 136.897 61.3445C137.412 62.4928 137.924 63.6423 138.438 64.7912C138.472 64.8677 138.511 64.9428 138.54 65.0211C138.703 65.4595 138.607 65.6117 138.117 65.625H138.117ZM135.677 61.2542C135.387 61.9168 135.144 62.4663 134.905 63.0177C134.813 63.2293 134.831 63.3973 135.11 63.4023C135.504 63.4093 135.897 63.4124 136.29 63.3979C136.55 63.3884 136.603 63.2267 136.504 63.0082C136.256 62.4612 136.06 61.889 135.677 61.2542Z" fill="white"/>
<path d="M159.284 65.6244C159.004 65.6547 158.801 65.5063 158.682 65.2233C158.267 64.2361 158.308 64.3454 157.157 64.3371C156.761 64.3346 156.365 64.3485 155.969 64.3359C155.634 64.3251 155.418 64.4654 155.291 64.7767C155.213 64.9706 155.112 65.1557 155.017 65.342C154.922 65.5265 154.766 65.6035 154.562 65.6231C154.013 65.6768 153.848 65.4892 154.07 64.9826C154.583 63.811 155.12 62.6507 155.648 61.4854C155.89 60.9505 156.133 60.4167 156.377 59.8824C156.429 59.7681 156.479 59.6519 156.542 59.5432C156.791 59.1207 157.039 59.1131 157.255 59.5445C157.498 60.0315 157.712 60.5342 157.935 61.0313C158.502 62.2933 159.067 63.5565 159.633 64.8191C159.667 64.8955 159.706 64.9706 159.734 65.0496C159.885 65.4759 159.775 65.625 159.283 65.6244H159.284ZM156.853 61.2448C156.561 61.9244 156.303 62.5099 156.06 63.1011C155.987 63.2767 156.081 63.3941 156.261 63.3986C156.676 63.408 157.092 63.4118 157.507 63.3954C157.726 63.3866 157.793 63.2356 157.701 63.0423C157.436 62.4821 157.243 61.8859 156.853 61.2448Z" fill="white"/>
<path d="M86.2307 65.6244C85.9329 65.6636 85.7229 65.5006 85.5925 65.1936C85.1981 64.2639 85.2489 64.3403 84.1788 64.3359C83.7619 64.334 83.345 64.3492 82.9287 64.3334C82.5676 64.3195 82.3344 64.466 82.2059 64.8046C82.1463 64.9606 82.0711 65.1122 81.989 65.2581C81.8009 65.5934 81.4379 65.7223 81.0862 65.5928C80.9232 65.5328 80.853 65.4185 80.8956 65.2511C80.9264 65.1298 80.9721 65.0111 81.0235 64.8974C81.8028 63.1794 82.5827 61.4615 83.3682 59.746C83.4603 59.5452 83.5023 59.2666 83.7863 59.2483C84.1111 59.2281 84.17 59.5218 84.2709 59.7441C85.0226 61.4059 85.7711 63.0689 86.5197 64.7319C86.5711 64.8463 86.6237 64.9618 86.6626 65.0806C86.7955 65.488 86.7027 65.6137 86.2294 65.6238L86.2307 65.6244ZM83.8265 61.248C83.4459 61.903 83.2409 62.4941 82.9851 63.0601C82.8917 63.266 82.9939 63.3891 83.2039 63.3967C83.5769 63.41 83.9512 63.4188 84.3242 63.4024C84.6697 63.3866 84.7255 63.3013 84.5869 62.9628C84.3669 62.4253 84.1173 61.8992 83.8265 61.248Z" fill="white"/>
<path d="M125.073 65.7472C124.353 65.7333 123.806 65.5407 123.31 65.2097C122.936 64.9596 122.895 64.7594 123.11 64.4278C123.31 64.1196 123.45 64.0905 123.84 64.321C124.242 64.5585 124.646 64.7632 125.133 64.7107C125.441 64.6779 125.707 64.5775 125.824 64.2598C125.951 63.9193 125.822 63.6421 125.578 63.4096C125.379 63.2195 125.128 63.1083 124.885 62.9858C124.531 62.8071 124.162 62.653 123.828 62.4414C123.188 62.0352 122.89 61.4352 123.001 60.6716C123.109 59.9326 123.635 59.4381 124.416 59.2587C125.103 59.1008 125.743 59.2353 126.351 59.5518C126.736 59.752 126.805 59.949 126.655 60.2516C126.48 60.6046 126.288 60.6691 125.894 60.4802C125.571 60.3261 125.251 60.1789 124.882 60.1935C124.5 60.2086 124.201 60.4038 124.097 60.7095C124.001 60.9925 124.109 61.2836 124.414 61.5337C124.693 61.7624 125.028 61.8881 125.354 62.0264C125.701 62.1736 126.033 62.3409 126.331 62.581C126.911 63.0496 127.137 63.6528 126.97 64.3709C126.813 65.0449 126.33 65.4301 125.695 65.6354C125.455 65.7125 125.209 65.7586 125.073 65.7466V65.7472Z" fill="white"/>
<path d="M129.814 62.9069C129.814 62.2134 129.824 61.5198 129.81 60.827C129.801 60.3823 129.734 60.3267 129.295 60.2996C129.087 60.2863 128.877 60.3034 128.671 60.2787C128.304 60.2352 128.204 60.1013 128.207 59.7438C128.209 59.4267 128.371 59.2802 128.67 59.2795C129.775 59.2764 130.881 59.2675 131.985 59.2846C132.348 59.2903 132.477 59.4621 132.474 59.7981C132.47 60.1246 132.341 60.2528 131.958 60.2863C131.75 60.304 131.541 60.2989 131.333 60.3008C131.022 60.3034 130.879 60.4632 130.881 60.772C130.883 61.1712 130.878 61.5704 130.877 61.9695C130.876 62.9782 130.883 63.9863 130.87 64.9943C130.864 65.4642 130.761 65.5811 130.423 65.6184C130.006 65.6645 129.834 65.5388 129.824 65.1124C129.807 64.3779 129.82 63.6421 129.82 62.9069H129.814Z" fill="white"/>
</svg>
