<svg width="92" height="91" viewBox="0 0 92 91" fill="none" xmlns="http://www.w3.org/2000/svg">
<g filter="url(#filter0_dd_2431_6469)">
<circle cx="46.3613" cy="41.5" r="26" fill="#666666"/>
<path d="M46.3613 7C27.3061 7 11.8613 22.4448 11.8613 41.5C11.8613 60.5552 27.3061 76 46.3613 76C65.4165 76 80.8613 60.5552 80.8613 41.5C80.8613 22.4448 65.4126 7 46.3613 7ZM57.913 52.2227C56.6656 54.3765 54.7365 55.6897 52.4354 56.4993C51.6374 56.7821 50.8239 57.0068 49.9795 57.1191C49.6889 57.1579 49.5843 57.3012 49.5882 57.5995C49.6037 58.5989 49.6153 59.6022 49.5805 60.6017C49.5185 62.4185 47.9767 63.8479 46.1909 63.7821C44.5252 63.7201 43.2042 62.3333 43.1267 60.5436C43.1035 60.0516 43.1267 59.5557 43.1267 59.0638H43.119C43.119 58.5718 43.1035 58.076 43.1267 57.584C43.1422 57.2741 43.0028 57.1579 42.7238 57.1114C40.0897 56.6891 37.6375 55.7594 35.3443 54.4152C34.2092 53.7489 33.5972 52.6991 33.694 51.4285C33.8025 50.0533 34.5695 48.988 35.9253 48.4999C36.8512 48.1668 37.7964 48.2404 38.668 48.7246C39.9115 49.418 41.1666 50.0998 42.5301 50.5298C44.746 51.2348 46.9928 51.6377 49.286 50.8552C49.7974 50.6809 50.2622 50.4213 50.6535 50.0378C51.7149 49.0035 51.6297 47.4463 50.4482 46.5398C49.6618 45.9355 48.7553 45.5869 47.8101 45.3351C45.7028 44.7695 43.5373 44.4286 41.4377 43.8204C39.7139 43.3207 38.0482 42.6893 36.5994 41.5736C33.7095 39.3539 32.9619 35.2671 34.2828 32.1254C35.4024 29.4641 37.3858 27.7519 40.0587 26.7796C40.9458 26.4542 41.8522 26.1869 42.7858 26.0281C43.0647 25.9816 43.1228 25.8538 43.1228 25.6058C43.1151 24.6761 43.1035 23.7425 43.1267 22.8128C43.1577 21.7049 43.5218 20.7558 44.4438 20.0547C46.342 18.6098 49.1427 19.7215 49.503 22.0768C49.6734 23.1847 49.5766 24.3004 49.5843 25.4121C49.5843 25.8073 49.6928 25.939 50.1073 26.0319C52.3541 26.5394 54.5854 27.1321 56.4836 28.515C58.2578 29.805 58.3546 31.955 56.7625 33.3689C55.9141 34.1204 54.6009 34.3296 53.6014 33.8105C52.2108 33.0822 50.8007 32.4082 49.2434 32.1138C47.5428 31.7962 45.8229 31.6916 44.1223 32.0712C43.0764 32.3036 42.1389 32.7685 41.736 33.8764C41.4726 34.6008 41.5927 35.2671 42.1466 35.8249C42.7432 36.4292 43.4715 36.8243 44.2734 37.0878C45.9391 37.634 47.6745 37.8819 49.3751 38.2731C51.312 38.7186 53.2334 39.2106 54.9805 40.2255C56.8361 41.2986 58.0331 42.8558 58.6219 44.9051C59.354 47.4385 59.2572 49.8984 57.9091 52.2188L57.913 52.2227Z" fill="#FFD600"/>
<circle cx="46.1951" cy="41.5" r="26" fill="#666666"/>
<path d="M46.1951 7C27.1399 7 11.6951 22.4448 11.6951 41.5C11.6951 60.5552 27.1399 76 46.1951 76C65.2503 76 80.6951 60.5552 80.6951 41.5C80.6951 22.4448 65.2464 7 46.1951 7ZM57.7467 52.2227C56.4994 54.3765 54.5702 55.6897 52.2692 56.4993C51.4712 56.7821 50.6577 57.0068 49.8132 57.1191C49.5227 57.1579 49.4181 57.3012 49.4219 57.5995C49.4374 58.5989 49.4491 59.6022 49.4142 60.6017C49.3522 62.4185 47.8104 63.8479 46.0246 63.7821C44.3589 63.7201 43.0379 62.3333 42.9605 60.5436C42.9372 60.0516 42.9605 59.5557 42.9605 59.0638H42.9527C42.9527 58.5718 42.9372 58.076 42.9605 57.584C42.9759 57.2741 42.8365 57.1579 42.5576 57.1114C39.9234 56.6891 37.4713 55.7594 35.178 54.4152C34.043 53.7489 33.4309 52.6991 33.5278 51.4285C33.6362 50.0533 34.4032 48.988 35.7591 48.4999C36.6849 48.1668 37.6301 48.2404 38.5017 48.7246C39.7452 49.418 41.0003 50.0998 42.3639 50.5298C44.5797 51.2348 46.8265 51.6377 49.1198 50.8552C49.6311 50.6809 50.096 50.4213 50.4872 50.0378C51.5487 49.0035 51.4634 47.4463 50.2819 46.5398C49.4955 45.9355 48.5891 45.5869 47.6439 45.3351C45.5365 44.7695 43.3711 44.4286 41.2715 43.8204C39.5476 43.3207 37.8819 42.6893 36.4331 41.5736C33.5433 39.3539 32.7956 35.2671 34.1166 32.1254C35.2361 29.4641 37.2195 27.7519 39.8924 26.7796C40.7795 26.4542 41.686 26.1869 42.6196 26.0281C42.8985 25.9816 42.9566 25.8538 42.9566 25.6058C42.9488 24.6761 42.9372 23.7425 42.9605 22.8128C42.9914 21.7049 43.3556 20.7558 44.2775 20.0547C46.1757 18.6098 48.9765 19.7215 49.3367 22.0768C49.5072 23.1847 49.4103 24.3004 49.4181 25.4121C49.4181 25.8073 49.5265 25.939 49.941 26.0319C52.1878 26.5394 54.4191 27.1321 56.3173 28.515C58.0915 29.805 58.1883 31.955 56.5962 33.3689C55.7478 34.1204 54.4346 34.3296 53.4352 33.8105C52.0445 33.0822 50.6344 32.4082 49.0772 32.1138C47.3766 31.7962 45.6566 31.6916 43.956 32.0712C42.9101 32.3036 41.9726 32.7685 41.5698 33.8764C41.3063 34.6008 41.4264 35.2671 41.9804 35.8249C42.5769 36.4292 43.3052 36.8243 44.1071 37.0878C45.7728 37.634 47.5083 37.8819 49.2089 38.2731C51.1458 38.7186 53.0672 39.2106 54.8143 40.2255C56.6698 41.2986 57.8668 42.8558 58.4556 44.9051C59.1878 47.4385 59.0909 49.8984 57.7428 52.2188L57.7467 52.2227Z" fill="#FFD600"/>
</g>
<defs>
<filter id="filter0_dd_2431_6469" x="0.965069" y="0.27" width="90.6263" height="90.46" filterUnits="userSpaceOnUse" color-interpolation-filters="sRGB">
<feFlood flood-opacity="0" result="BackgroundImageFix"/>
<feColorMatrix in="SourceAlpha" type="matrix" values="0 0 0 0 0 0 0 0 0 0 0 0 0 0 0 0 0 0 127 0" result="hardAlpha"/>
<feOffset dy="4"/>
<feGaussianBlur stdDeviation="5.365"/>
<feComposite in2="hardAlpha" operator="out"/>
<feColorMatrix type="matrix" values="0 0 0 0 0 0 0 0 0 0.329412 0 0 0 0 0.529412 0 0 0 0.2 0"/>
<feBlend mode="normal" in2="BackgroundImageFix" result="effect1_dropShadow_2431_6469"/>
<feColorMatrix in="SourceAlpha" type="matrix" values="0 0 0 0 0 0 0 0 0 0 0 0 0 0 0 0 0 0 127 0" result="hardAlpha"/>
<feOffset dy="1.79"/>
<feGaussianBlur stdDeviation="4.17"/>
<feComposite in2="hardAlpha" operator="out"/>
<feColorMatrix type="matrix" values="0 0 0 0 0 0 0 0 0 0 0 0 0 0 0 0 0 0 0.45 0"/>
<feBlend mode="normal" in2="effect1_dropShadow_2431_6469" result="effect2_dropShadow_2431_6469"/>
<feBlend mode="normal" in="SourceGraphic" in2="effect2_dropShadow_2431_6469" result="shape"/>
</filter>
</defs>
</svg>
