<svg width="25" height="23" viewBox="0 0 25 23" fill="none" xmlns="http://www.w3.org/2000/svg">
<g id="_&#229;&#156;&#150;&#229;&#177;&#164;_1" clip-path="url(#clip0_4508_5645)">
<path id="Vector" d="M4.23884 23.0008C3.51902 22.8684 2.84904 22.6341 2.27873 22.1961C1.32636 21.4626 0.783735 20.5255 0.783735 19.3693C0.778198 15.208 0.778198 11.0417 0.778198 6.88042C0.778198 4.94495 2.51682 3.31508 4.62089 3.24887C6.40381 3.19284 8.18673 3.23868 9.96965 3.2234C10.4846 3.2234 10.9552 3.33036 11.2709 3.74801C11.592 4.16057 11.6418 4.60369 11.3927 5.057C11.1435 5.51031 10.7227 5.7446 10.1745 5.7446C8.4359 5.7497 6.70281 5.7446 4.96419 5.7446C4.02289 5.7446 3.49134 6.23356 3.49134 7.10452C3.49134 11.1181 3.49134 15.1265 3.49134 19.1401C3.49134 20.0161 4.02843 20.5051 4.98633 20.5051C9.33843 20.5051 13.6905 20.5051 18.0426 20.5051C19.0171 20.5051 19.5376 20.0212 19.5376 19.1197C19.5376 17.5306 19.5376 15.9415 19.5376 14.3472C19.5376 13.8226 19.8145 13.4304 20.335 13.2114C20.8554 12.9924 21.3482 13.0688 21.7912 13.3999C22.129 13.6546 22.2729 14.006 22.2729 14.3982C22.2729 16.1707 22.3504 17.9431 22.2342 19.7105C22.1345 21.2283 20.7945 22.5628 19.139 22.9142C19.0227 22.9397 18.9119 22.9652 18.7957 22.9855H4.23884V23.0008Z" fill="#FFD600"/>
<path id="Vector_2" d="M24.9373 9.7267C24.7546 10.2208 24.4169 10.5569 23.8355 10.6588C23.0215 10.8014 22.2408 10.2258 22.2353 9.45675C22.2297 8.09174 22.2353 6.72673 22.2353 5.35662C22.2353 5.27512 22.2353 5.19872 22.2353 5.10195C22.119 5.12742 22.0692 5.20382 22.0082 5.25984C18.4147 8.56542 14.8157 11.871 11.2221 15.1817C10.6906 15.6706 10.0206 15.7572 9.44474 15.416C8.73047 14.9932 8.60865 14.0866 9.17897 13.511C9.24541 13.4397 9.32293 13.3786 9.39491 13.3124C12.9552 10.0374 16.5155 6.76238 20.0758 3.48227C20.1367 3.42624 20.2143 3.3855 20.2364 3.29891C20.1533 3.25307 20.0648 3.27854 19.9817 3.27854C18.4978 3.27854 17.0139 3.27854 15.5244 3.27854C14.9153 3.27854 14.3948 2.91182 14.2287 2.37702C14.0626 1.84222 14.2896 1.27686 14.7935 0.97635C15.015 0.849017 15.242 0.77771 15.4912 0.77771C18.2098 0.77771 20.9285 0.77771 23.6472 0.77771C24.1732 0.77771 24.5497 1.03238 24.8044 1.44494C24.8543 1.52643 24.893 1.61302 24.9373 1.6996V9.72161V9.7267Z" fill="#FFD600"/>
</g>
<defs>
<clipPath id="clip0_4508_5645">
<rect width="24.158" height="22.2222" fill="white" transform="translate(0.778198 0.77771)"/>
</clipPath>
</defs>
</svg>
