<svg width="94" height="85" viewBox="0 0 94 85" fill="none" xmlns="http://www.w3.org/2000/svg">
<g filter="url(#filter0_dd_2433_6502)">
<ellipse cx="13.2418" cy="13.2757" rx="13.2418" ry="13.2757" transform="matrix(1 0 0 -1 57.3484 73.2773)" fill="#666666"/>
<path d="M7.99918 44.2558V40.7244C8.08244 40.6384 8.05913 40.5293 8.06579 40.4268C8.14572 38.9389 8.33221 37.4609 8.61862 35.9994C9.96408 29.1285 13.1312 23.2033 18.0668 18.2204C20.9909 15.2644 24.3645 12.9234 28.1544 11.1842C31.5447 9.6268 35.0982 8.62823 38.8182 8.22484C39.5342 8.14879 40.2502 8.07605 40.9663 8C42.1519 8 43.3375 8 44.5231 8C44.6496 8.09919 44.7995 8.05952 44.9394 8.06944C46.4946 8.15541 48.0332 8.35049 49.5585 8.65799C56.6322 10.0996 62.7001 13.3764 67.7322 18.5213C71.6154 22.4924 74.3696 27.1347 76.0015 32.4251C77.4235 37.0377 77.8232 41.7461 77.2703 46.5372C77.247 46.7356 77.2603 46.8712 77.4735 46.977C79.0254 47.7573 80.4109 48.7691 81.5998 50.0322C85.0966 53.7355 86.522 58.1265 85.8293 63.1458C85.3164 66.8557 83.608 69.9935 80.7872 72.48C77.0605 75.7634 72.6911 77.0265 67.7622 76.3023C64.8415 75.8725 62.2671 74.6524 60.0225 72.7512C59.8693 72.6222 59.766 72.6057 59.5796 72.7049C58.8369 73.0983 58.0942 73.4918 57.3282 73.8423C51.6134 76.4544 45.6187 77.4232 39.361 76.8446C35.0815 76.4478 31.0185 75.2872 27.1853 73.3662C21.4371 70.4829 16.8213 66.3399 13.371 60.9403C10.5336 56.503 8.82177 51.6623 8.22564 46.438C8.14238 45.7139 8.07245 44.9898 7.99585 44.2657L7.99918 44.2558ZM54.8238 57.5942C54.8771 57.4123 54.9104 57.3197 54.9337 57.2238C56.9419 49.1428 64.7149 44.0673 72.9609 45.4593C73.2373 45.5056 73.2839 45.4494 73.3072 45.1915C73.5304 42.586 73.4404 39.9937 72.9908 37.4146C71.7753 30.4577 68.5282 24.592 63.2562 19.8703C58.5038 15.6083 52.9122 13.0821 46.5446 12.2951C42.3084 11.7694 38.1221 12.0604 34.0425 13.3135C25.3103 15.9918 18.916 21.431 14.9829 29.6179C12.0222 35.7812 11.3462 42.2652 12.7816 48.9311C14.177 55.4218 17.4174 60.8908 22.4296 65.2818C28.2543 70.387 35.0982 72.9264 42.8612 72.9429C47.7302 72.9529 52.3494 71.8286 56.6988 69.6331C57.0285 69.4678 57.0318 69.362 56.852 69.071C55.0936 66.2241 54.3143 63.1292 54.5441 59.793C54.5541 59.631 54.5441 59.469 54.5441 59.2871C53.4184 60.2857 52.8289 60.3452 51.5601 59.5913C48.8059 57.9546 46.0517 56.3212 43.3075 54.6679C42.9045 54.4265 42.5881 54.4133 42.1885 54.6679C41.3592 55.2003 40.5033 55.6863 39.6574 56.1889C37.6725 57.3726 35.6877 58.5531 33.7028 59.7368C32.9634 60.1765 32.2174 60.2493 31.4848 59.7269C30.7588 59.2077 30.479 58.5101 30.6755 57.6372C31.4015 54.4398 32.1175 51.2424 32.8702 48.0516C33.0001 47.4994 32.9168 47.1589 32.4639 46.7753C29.9861 44.6658 27.5416 42.5165 25.0905 40.3772C24.2146 39.6134 24.0847 38.4033 24.7741 37.5766C25.1971 37.0707 25.7699 36.8657 26.4027 36.8029C26.9022 36.7533 27.4018 36.7269 27.898 36.6806C30.5856 36.4359 33.2732 36.1813 35.9641 35.9531C36.5036 35.9068 36.8366 35.6919 37.0365 35.1959C37.4827 34.0949 37.9523 33.0037 38.4219 31.9093C39.2212 30.0345 40.0271 28.163 40.833 26.2915C41.0728 25.7361 41.3992 25.2533 42.0087 25.045C43.1177 24.6614 44.1301 25.1111 44.5963 26.199C45.8852 29.2013 47.1707 32.2036 48.4429 35.2092C48.646 35.6886 48.9558 35.9168 49.4786 35.9598C52.7057 36.2342 55.9328 36.5152 59.1566 36.8161C60.0624 36.8988 60.7751 37.3319 61.0549 38.2346C61.3213 39.0976 61.0283 39.825 60.3555 40.4136C60.1957 40.5525 60.0325 40.6814 59.8759 40.8203C57.5747 42.834 55.2801 44.8542 52.9622 46.8514C52.5892 47.1721 52.4892 47.4697 52.6025 47.9392C53.1153 50.0851 53.5949 52.2409 54.0878 54.3935C54.3276 55.435 54.564 56.4766 54.8205 57.6008L54.8238 57.5942ZM69.7005 48.8882C63.2496 49.0832 57.5114 54.7836 58.2241 62.0943C58.8302 68.3072 64.5051 73.515 71.5555 72.7975C77.6167 72.1791 82.9785 66.7598 82.2758 59.6277C81.6497 53.299 76.0814 48.5608 69.7005 48.8882Z" fill="#FFD600"/>
<path d="M68.4021 56.3825C68.4021 55.6385 68.4088 54.8913 68.3988 54.1473C68.3954 53.853 68.4854 53.7274 68.8051 53.7307C69.7675 53.7472 70.7267 53.7472 71.6891 53.7307C72.0322 53.7241 72.1121 53.8663 72.1121 54.1705C72.1021 55.5956 72.1088 57.0207 72.1088 58.4458C72.1088 58.8491 72.3186 59.0508 72.7382 59.0508C74.1603 59.0508 75.5823 59.0575 77.0044 59.0442C77.3241 59.0442 77.444 59.1203 77.4373 59.4575C77.4173 60.3999 77.4173 61.3389 77.4373 62.2813C77.444 62.6053 77.3374 62.7144 77.011 62.7111C75.5224 62.6979 74.0337 62.7177 72.5484 62.6979C72.192 62.6946 72.1021 62.8103 72.1054 63.1476C72.1221 64.5991 72.1021 66.0507 72.1188 67.4989C72.1221 67.8726 72.0122 67.9982 71.6292 67.985C70.7067 67.9586 69.7842 67.9586 68.865 67.985C68.4854 67.9949 68.3988 67.856 68.4021 67.5122C68.4154 66.0606 68.3988 64.6091 68.4154 63.1608C68.4188 62.8004 68.3088 62.6913 67.9458 62.6979C66.4971 62.7177 65.0484 62.6946 63.5997 62.7111C63.2168 62.7144 63.0602 62.6285 63.0769 62.2152C63.1069 61.3158 63.1002 60.4098 63.0769 59.5104C63.0702 59.16 63.1601 59.0376 63.5365 59.0409C65.0118 59.0608 66.4871 59.0409 67.9592 59.0575C68.3022 59.0608 68.4254 58.9649 68.4121 58.6144C68.3888 57.8704 68.4054 57.1232 68.4054 56.3792L68.4021 56.3825Z" fill="#FFD600"/>
</g>
<defs>
<filter id="filter0_dd_2433_6502" x="-0.00415039" y="0" width="94.0042" height="85.0059" filterUnits="userSpaceOnUse" color-interpolation-filters="sRGB">
<feFlood flood-opacity="0" result="BackgroundImageFix"/>
<feColorMatrix in="SourceAlpha" type="matrix" values="0 0 0 0 0 0 0 0 0 0 0 0 0 0 0 0 0 0 127 0" result="hardAlpha"/>
<feOffset dy="1"/>
<feGaussianBlur stdDeviation="2"/>
<feComposite in2="hardAlpha" operator="out"/>
<feColorMatrix type="matrix" values="0 0 0 0 0 0 0 0 0 0 0 0 0 0 0 0 0 0 0.35 0"/>
<feBlend mode="normal" in2="BackgroundImageFix" result="effect1_dropShadow_2433_6502"/>
<feColorMatrix in="SourceAlpha" type="matrix" values="0 0 0 0 0 0 0 0 0 0 0 0 0 0 0 0 0 0 127 0" result="hardAlpha"/>
<feOffset/>
<feGaussianBlur stdDeviation="4"/>
<feComposite in2="hardAlpha" operator="out"/>
<feColorMatrix type="matrix" values="0 0 0 0 0 0 0 0 0 0.329412 0 0 0 0 0.529412 0 0 0 0.2 0"/>
<feBlend mode="normal" in2="effect1_dropShadow_2433_6502" result="effect2_dropShadow_2433_6502"/>
<feBlend mode="normal" in="SourceGraphic" in2="effect2_dropShadow_2433_6502" result="shape"/>
</filter>
</defs>
</svg>
