<svg width="21" height="21" viewBox="0 0 21 21" fill="none" xmlns="http://www.w3.org/2000/svg">
<path d="M20.2642 17.1439L15.5263 13.1151C15.0363 12.6739 14.5125 12.4726 14.09 12.4914C15.2088 11.1813 15.8839 9.48258 15.8839 7.62506C15.8839 3.48253 12.5261 0.125 8.38334 0.125C4.24055 0.125 0.882812 3.48253 0.882812 7.62506C0.882812 11.7676 4.24055 15.1251 8.38334 15.1251C10.241 15.1251 11.9398 14.4501 13.2499 13.3314C13.2299 13.7539 13.4324 14.2776 13.8737 14.7676L17.9028 19.5052C18.5928 20.2714 19.7191 20.3364 20.4067 19.6489C21.0942 18.9614 21.0292 17.8339 20.2629 17.1451L20.2642 17.1439ZM8.38334 12.6239C5.6219 12.6239 3.38299 10.3851 3.38299 7.62381C3.38299 4.86254 5.6219 2.62377 8.38334 2.62377C11.1448 2.62377 13.3837 4.86254 13.3837 7.62381C13.3837 10.3851 11.1448 12.6239 8.38334 12.6239Z" fill="white"/>
</svg>
