<svg width="129" height="82" viewBox="0 0 129 82" fill="none" xmlns="http://www.w3.org/2000/svg">
<g id="Group 1953">
<path id="Vector" d="M64.1454 81.1517C47.2749 81.1517 30.4044 81.1658 13.534 81.1313C11.7587 81.1282 10.0698 80.4806 8.51268 79.6652C5.07988 77.8651 2.71129 75.0975 1.61411 71.3703C1.22955 70.061 1.03021 68.6498 1.02707 67.284C0.987826 49.5684 0.994105 31.8527 1.00195 14.1371C1.00195 11.1328 2.11483 8.50002 3.92462 6.15425C5.83017 3.68459 8.30078 2.03189 11.3537 1.32157C12.3175 1.09734 13.3142 0.895064 14.2968 0.893496C47.4868 0.869975 80.6784 0.858999 113.87 0.885656C117.176 0.888792 120.23 1.89704 122.759 4.09385C125.343 6.33771 127.093 9.09901 127.462 12.591C127.565 13.5663 127.711 14.5448 127.713 15.5217C127.732 32.6368 127.738 49.7518 127.732 66.8653C127.732 70.279 126.807 73.4213 124.595 76.0728C122.955 78.0391 120.924 79.5194 118.479 80.3692C116.895 80.9196 115.269 81.1642 113.581 81.1627C97.1032 81.1439 80.6251 81.1517 64.147 81.1517H64.1454ZM123.222 72.0806C122.935 72.0728 122.647 72.0571 122.36 72.0571C83.667 72.0571 44.9754 72.0571 6.28222 72.0571C6.02166 72.0571 5.7611 72.0728 5.49897 72.0806C5.45345 72.1245 5.40636 72.1684 5.36084 72.2139C5.73285 72.8145 6.04207 73.4668 6.48627 74.0062C8.80777 76.8192 11.7838 78.047 15.4615 78.0423C47.9985 77.9984 80.5356 78.0109 113.073 78.0297C115 78.0297 116.851 77.7961 118.576 76.9211C120.593 75.8972 122.255 74.4891 123.228 72.3864C123.277 72.3143 123.327 72.2421 123.376 72.17C123.324 72.1402 123.272 72.112 123.22 72.0822L123.222 72.0806ZM124.572 55.2525C124.584 55.0628 124.595 54.9593 124.595 54.8573C124.595 41.4773 124.608 28.0957 124.586 14.7157C124.583 12.7086 124.076 10.7894 122.994 9.07863C120.828 5.64934 117.595 4.02486 113.625 4.02015C80.7946 3.98879 47.9624 3.99977 15.1319 4.01545C14.1665 4.01545 13.1824 4.12992 12.239 4.3369C7.68548 5.3326 4.13966 9.67918 4.13652 14.3394C4.12711 27.7461 4.12868 41.1527 4.12711 54.5594C4.12711 54.7868 4.15065 55.0126 4.16321 55.2509H124.57L124.572 55.2525Z" fill="#005487" stroke="#005487"/>
<path id="Vector_2" d="M26.76 24.5055C29.0611 24.5055 31.3638 24.4882 33.6649 24.5102C35.6238 24.529 37.2861 25.2362 38.2734 26.9783C38.7238 27.7748 39.0519 28.7533 39.077 29.658C39.1712 32.9211 39.1837 36.1904 39.0927 39.4551C39.0127 42.2964 36.9957 44.5387 33.8407 44.5684C29.1067 44.6124 24.3726 44.5873 19.6386 44.5763C17.1083 44.5716 15.4555 42.8985 14.6471 40.7613C14.4886 40.3442 14.5702 39.8314 14.5702 39.3626C14.5639 36.1748 14.6346 32.9854 14.5435 29.8007C14.4604 26.8324 16.9357 24.4945 19.7767 24.507C20.954 24.5117 22.1312 24.507 23.3068 24.507C24.4574 24.507 25.6079 24.507 26.76 24.507V24.5055ZM28.7425 42.8954C28.4772 42.1866 28.0723 41.4967 27.975 40.7644C27.7646 39.2026 28.5071 38.0188 29.8161 37.1846C28.1947 35.4833 28.1539 33.6612 29.824 31.9615C28.8147 31.3719 28.2167 30.4593 28.0001 29.3538C27.7819 28.2342 27.9671 27.1304 28.5683 26.1284H25.1009C25.9376 28.3863 25.9281 30.4122 23.8374 31.9787C24.5971 32.7173 25.09 33.6048 24.9298 34.6161C24.7854 35.5272 24.3554 36.3943 24.0948 37.1564C24.528 37.8071 25.1276 38.4406 25.4086 39.1917C25.8732 40.4414 25.6174 41.6974 24.9361 42.8515C24.9079 42.8985 24.8812 42.9471 24.8529 42.9941C24.8937 42.9973 24.9346 43.0004 24.9754 43.002C26.173 43.0051 27.3706 43.0083 28.5683 43.0114C28.6264 42.9722 28.6844 42.933 28.7425 42.8938V42.8954ZM16.0661 31.4064C17.912 31.4064 19.7124 31.3515 21.5065 31.4205C23.6898 31.5052 24.7996 30.3166 24.6536 28.0806C24.5845 27.0253 24.0038 26.1127 23.3084 26.1033C21.8989 26.0845 20.4689 25.9716 19.0892 26.1739C18.3311 26.2836 17.5243 26.8293 16.9702 27.4001C15.9295 28.4742 15.9013 29.8979 16.0677 31.4064H16.0661ZM37.5246 31.4158C37.5246 30.7415 37.578 30.1425 37.5152 29.5561C37.3441 27.9551 36.5734 26.5831 34.7417 26.2962C33.4718 26.097 32.1627 26.1739 30.8756 26.0719C29.7816 25.9857 29.4677 26.3416 29.0721 27.3718C28.8869 27.8548 28.8728 28.4334 28.9057 28.9618C28.9795 30.1128 30.028 31.3797 30.9808 31.4017C33.1391 31.4487 35.2989 31.4174 37.5262 31.4174L37.5246 31.4158ZM16.019 37.8965C16.019 38.4986 15.9735 39.0207 16.0269 39.5319C16.2152 41.3085 17.7535 43.1023 19.637 43.0302C20.6808 42.991 21.7278 43.0506 22.77 42.991C23.1248 42.9706 23.5391 42.8028 23.8028 42.5661C24.7493 41.7146 24.8451 40.6233 24.5013 39.4661C24.2015 38.4547 23.4826 37.9027 22.4749 37.8996C20.3622 37.8918 18.2479 37.898 16.019 37.898V37.8965ZM37.5027 37.9121C35.4433 37.9121 33.4624 37.9623 31.4862 37.898C29.5085 37.8353 28.6577 39.2544 28.9199 40.962C29.0972 42.1207 29.8224 43.1682 31.3371 43.0239C32.1894 42.9424 33.0606 43.06 33.9176 43.0083C35.054 42.9377 36.0084 42.5378 36.7649 41.5766C37.6361 40.468 37.5262 39.2481 37.5042 37.9121H37.5027ZM37.5215 32.3488C35.5296 32.3488 33.5754 32.3362 31.6212 32.3535C30.4346 32.3644 29.5587 33.2269 29.5179 34.3684C29.474 35.6307 30.3796 36.8976 31.4815 36.929C33.4844 36.987 35.4904 36.9447 37.5215 36.9447V32.3488ZM16.1728 36.9604C18.1333 36.9604 20.064 37.0513 21.9836 36.9321C23.5376 36.8349 24.2392 35.4237 23.9363 33.9685C23.751 33.081 23.2472 32.4021 22.2944 32.3754C20.2664 32.319 18.2353 32.3582 16.1728 32.3582V36.9619V36.9604Z" fill="#005487" stroke="#005487"/>
</g>
</svg>
