<svg width="25" height="18" viewBox="0 0 25 18" fill="none" xmlns="http://www.w3.org/2000/svg">
<path d="M12.3017 17.034C8.79798 17.034 5.28673 17.034 1.78299 17.034C1.2353 17.034 0.78514 16.8464 0.455023 16.3963C0.244948 16.1112 0.169922 15.781 0.169922 15.4359C0.169922 13.5527 0.169922 11.6621 0.169922 9.77891C0.169922 7.91075 0.169922 6.05009 0.169922 4.18193C0.169922 3.8368 0.237446 3.51419 0.432515 3.22909C0.680103 2.86896 1.02522 2.65138 1.46038 2.58386C1.58042 2.56885 1.62544 2.52384 1.61793 2.4038C1.61043 2.29876 1.61793 2.19372 1.63294 2.08118C1.68546 1.81109 1.91804 1.60101 2.19564 1.60101C2.63079 1.60101 3.07345 1.60101 3.5086 1.60101C3.81621 1.60101 4.0638 1.86361 4.0713 2.17121C4.0713 2.26875 4.0713 2.35878 4.0713 2.45632C4.0713 2.53134 4.09381 2.56885 4.17634 2.56885C5.11417 2.56885 6.0445 2.56885 6.98233 2.56885C7.04986 2.56885 7.08737 2.53884 7.10988 2.47882C7.19991 2.23124 7.29745 1.98365 7.38748 1.74356C7.50002 1.44346 7.68008 1.18837 7.91266 0.978292C8.16025 0.738207 8.45286 0.618164 8.79047 0.618164C11.1313 0.618164 13.4796 0.618164 15.8205 0.618164C16.4282 0.618164 16.9834 1.03831 17.201 1.66103C17.2835 1.90112 17.351 2.1412 17.426 2.38129C17.461 2.50133 17.5411 2.56135 17.6661 2.56135C19.4217 2.56135 21.1774 2.56135 22.933 2.56135C23.5707 2.56135 24.0284 2.87646 24.306 3.44667C24.411 3.65674 24.441 3.88182 24.441 4.1144C24.441 7.90324 24.441 11.6846 24.441 15.4734C24.441 16.2387 23.9458 16.8539 23.2256 16.9965C23.0905 17.0265 22.948 17.0265 22.8054 17.0265C19.3092 17.0265 15.8055 17.0265 12.3092 17.0265L12.3017 17.034ZM18.3038 9.89895C18.3264 6.63529 15.6629 3.91183 12.3317 3.89683C8.94803 3.88182 6.29959 6.6428 6.29959 9.89895C6.29959 13.1176 8.88801 15.9011 12.3017 15.9011C15.7154 15.9011 18.3188 13.1251 18.3038 9.90645V9.89895ZM23.4057 4.21944C23.4057 3.73927 23.008 3.34913 22.5278 3.34913C22.0552 3.34913 21.6575 3.74677 21.6575 4.21194C21.6575 4.69961 22.0552 5.09725 22.5353 5.09725C23.0155 5.09725 23.4057 4.69961 23.4057 4.21944Z" fill="#E6E6E6"/>
</svg>
