<svg width="416" height="257" viewBox="0 0 416 257" fill="none" xmlns="http://www.w3.org/2000/svg">
<g filter="url(#filter0_bdd_277_4128)">
<path d="M15.9902 223.169V29.4191C15.9902 22.1553 21.3418 16.2148 27.8861 16.2148H384.449C390.993 16.2148 396.345 22.1553 396.345 29.4191V223.169C396.345 230.432 390.993 236.373 384.449 236.373H27.8861C21.3418 236.373 15.9902 230.432 15.9902 223.169Z" fill="url(#paint0_linear_277_4128)"/>
<path d="M15.9902 223.169V29.4191C15.9902 22.1553 21.3418 16.2148 27.8861 16.2148H384.449C390.993 16.2148 396.345 22.1553 396.345 29.4191V223.169C396.345 230.432 390.993 236.373 384.449 236.373H27.8861C21.3418 236.373 15.9902 230.432 15.9902 223.169Z" fill="url(#paint1_linear_277_4128)" fill-opacity="0.3" style="mix-blend-mode:multiply"/>
<path d="M17.6414 223.169V29.4191C17.6414 22.9009 22.4116 17.866 27.8861 17.866H384.449C389.923 17.866 394.694 22.9009 394.694 29.4191V223.169C394.694 229.687 389.923 234.722 384.449 234.722H27.8861C22.4116 234.722 17.6414 229.687 17.6414 223.169Z" stroke="url(#paint2_linear_277_4128)" stroke-width="3.30237"/>
</g>
<path d="M99.7182 125.59H66.1492C61.6764 125.59 58.0198 122.756 58.0198 119.304V96.4913C58.0198 93.0392 61.6764 90.2056 66.1492 90.2056H99.7182C104.191 90.2056 107.848 93.0392 107.848 96.4913V119.304C107.848 122.756 104.191 125.59 99.7182 125.59Z" fill="#DFB874"/>
<path d="M99.7168 125.891H66.1478C61.4396 125.891 57.6104 122.928 57.6104 119.289V96.4762C57.6104 92.8371 61.4396 89.874 66.1478 89.874H99.7168C104.425 89.874 108.254 92.8371 108.254 96.4762V119.289C108.254 122.928 104.425 125.891 99.7168 125.891ZM66.1478 90.4925C61.8791 90.4925 58.4264 93.1679 58.4264 96.4618V119.274C58.4264 122.568 61.8948 125.244 66.1478 125.244H99.7168C103.985 125.244 107.438 122.568 107.438 119.274V96.4618C107.438 93.1679 103.97 90.4925 99.7168 90.4925H66.1478Z" fill="#261F1C"/>
<path d="M107.847 99.7278H58.0347V100.346H107.847V99.7278Z" fill="#261F1C"/>
<path d="M103.265 92.3052H62.6968V92.9237H103.265V92.3052Z" fill="#261F1C"/>
<path d="M103.265 122.008H62.6968V122.627H103.265V122.008Z" fill="#261F1C"/>
<path d="M103.658 90.6802H102.857V124.957H103.658V90.6802Z" fill="#261F1C"/>
<path d="M63.0884 90.6802H62.2874V124.957H63.0884V90.6802Z" fill="#261F1C"/>
<path d="M108.067 107.165H58.0198V107.783H108.067V107.165Z" fill="#261F1C"/>
<path d="M108.067 114.585H58.0198V115.204H108.067V114.585Z" fill="#261F1C"/>
<path d="M88.6852 118.786H78.0134C77.3386 118.786 76.7893 118.355 76.7893 117.837V97.0956C76.7893 96.5778 77.3386 96.1462 78.0134 96.1462H88.6852C89.36 96.1462 89.9093 96.5778 89.9093 97.0956V117.837C89.9093 118.355 89.36 118.786 88.6852 118.786Z" fill="#DFB874"/>
<path d="M88.686 119.102H78.0142C77.1197 119.102 76.3821 118.541 76.3821 117.85V97.1088C76.3821 96.4184 77.104 95.8574 78.0142 95.8574H88.686C89.5806 95.8574 90.3182 96.4184 90.3182 97.1088V117.85C90.3182 118.541 89.5963 119.102 88.686 119.102ZM78.0142 96.4759C77.5591 96.4759 77.1982 96.7636 77.1982 97.1088V117.85C77.1982 118.195 77.5591 118.483 78.0142 118.483H88.686C89.1411 118.483 89.5021 118.195 89.5021 117.85V97.1088C89.5021 96.7636 89.1411 96.4759 88.686 96.4759H78.0142Z" fill="#261F1C"/>
<g filter="url(#filter1_d_277_4128)">
<path d="M169.95 208.48C169.594 208.48 169.416 208.326 169.416 208.018V207.676C169.416 207.429 169.53 207.185 169.758 206.943L171.885 204.702C172.525 204.024 173.111 203.421 173.642 202.895C174.174 202.363 174.439 201.827 174.439 201.287C174.439 200.746 174.304 200.35 174.034 200.099C173.768 199.842 173.429 199.714 173.016 199.714C172.362 199.714 171.906 199.866 171.65 200.17C171.394 200.473 171.209 200.798 171.095 201.144C170.986 201.481 170.787 201.602 170.498 201.507L169.779 201.265C169.547 201.185 169.48 200.962 169.58 200.597C169.765 199.918 170.142 199.337 170.711 198.853C171.28 198.365 172.125 198.121 173.244 198.121C174.411 198.121 175.258 198.422 175.784 199.024C176.311 199.622 176.574 200.272 176.574 200.974C176.574 201.894 176.19 202.703 175.421 203.4C174.653 204.092 173.956 204.768 173.329 205.428L172.12 206.701V206.744C172.404 206.725 172.642 206.715 172.831 206.715H176.154C176.51 206.715 176.688 206.87 176.688 207.178V208.018C176.688 208.326 176.51 208.48 176.154 208.48H169.95ZM178.391 203.421C178.391 201.5 178.69 200.136 179.288 199.33C179.885 198.524 180.801 198.121 182.034 198.121C183.267 198.121 184.183 198.524 184.781 199.33C185.378 200.136 185.677 201.5 185.677 203.421C185.677 205.342 185.378 206.706 184.781 207.512C184.183 208.319 183.267 208.722 182.034 208.722C180.801 208.722 179.885 208.319 179.288 207.512C178.69 206.706 178.391 205.342 178.391 203.421ZM180.497 203.421C180.497 204.299 180.568 205.143 180.711 205.954C180.858 206.765 181.299 207.171 182.034 207.171C182.769 207.171 183.208 206.765 183.35 205.954C183.497 205.143 183.571 204.299 183.571 203.421C183.571 202.544 183.497 201.699 183.35 200.888C183.208 200.077 182.769 199.672 182.034 199.672C181.299 199.672 180.858 200.077 180.711 200.888C180.568 201.699 180.497 202.544 180.497 203.421ZM187.9 208.48C187.544 208.48 187.366 208.326 187.366 208.018V207.676C187.366 207.429 187.48 207.185 187.708 206.943L189.835 204.702C190.476 204.024 191.061 203.421 191.593 202.895C192.124 202.363 192.39 201.827 192.39 201.287C192.39 200.746 192.254 200.35 191.984 200.099C191.718 199.842 191.379 199.714 190.967 199.714C190.312 199.714 189.857 199.866 189.601 200.17C189.344 200.473 189.159 200.798 189.046 201.144C188.936 201.481 188.737 201.602 188.448 201.507L187.729 201.265C187.497 201.185 187.43 200.962 187.53 200.597C187.715 199.918 188.092 199.337 188.661 198.853C189.231 198.365 190.075 198.121 191.194 198.121C192.361 198.121 193.208 198.422 193.734 199.024C194.261 199.622 194.524 200.272 194.524 200.974C194.524 201.894 194.14 202.703 193.371 203.4C192.603 204.092 191.906 204.768 191.28 205.428L190.07 206.701V206.744C190.355 206.725 190.592 206.715 190.782 206.715H194.104C194.46 206.715 194.638 206.87 194.638 207.178V208.018C194.638 208.326 194.46 208.48 194.104 208.48H187.9ZM196.662 207.754C196.477 207.598 196.463 207.375 196.619 207.085L196.946 206.488C197.103 206.198 197.357 206.177 197.708 206.424C198.002 206.632 198.334 206.803 198.704 206.936C199.074 207.064 199.486 207.128 199.942 207.128C200.568 207.128 201.016 206.96 201.286 206.623C201.557 206.281 201.692 205.9 201.692 205.477C201.692 205.046 201.531 204.659 201.208 204.318C200.89 203.971 200.44 203.798 199.856 203.798H199.309C199 203.798 198.846 203.673 198.846 203.421V202.639C198.846 202.378 199 202.247 199.309 202.247H199.735C200.172 202.247 200.556 202.112 200.888 201.842C201.225 201.571 201.393 201.232 201.393 200.824C201.393 200.506 201.282 200.243 201.059 200.034C200.841 199.821 200.482 199.714 199.984 199.714C199.515 199.714 199.109 199.783 198.768 199.921C198.426 200.058 198.156 200.224 197.957 200.419C197.672 200.699 197.428 200.687 197.224 200.383L196.811 199.778C196.655 199.551 196.702 199.318 196.953 199.081C197.295 198.754 197.736 198.512 198.277 198.355C198.818 198.199 199.346 198.121 199.863 198.121C201.083 198.121 201.988 198.365 202.581 198.853C203.174 199.337 203.471 199.93 203.471 200.632C203.471 201.154 203.267 201.631 202.859 202.062C202.451 202.489 202.019 202.783 201.564 202.945V202.973C202.105 203.106 202.617 203.398 203.101 203.848C203.585 204.294 203.827 204.849 203.827 205.513C203.827 206.552 203.499 207.346 202.845 207.897C202.19 208.447 201.192 208.722 199.849 208.722C199.285 208.722 198.699 208.637 198.092 208.466C197.489 208.29 197.013 208.053 196.662 207.754ZM205.089 211.169C204.866 211.084 204.807 210.909 204.911 210.643L209.635 198.334C209.74 198.068 209.901 197.978 210.119 198.064L210.696 198.284C210.919 198.37 210.978 198.545 210.873 198.811L206.149 211.12C206.045 211.385 205.884 211.475 205.665 211.39L205.089 211.169ZM211.844 203.421C211.844 201.5 212.143 200.136 212.741 199.33C213.338 198.524 214.254 198.121 215.487 198.121C216.72 198.121 217.636 198.524 218.234 199.33C218.831 200.136 219.13 201.5 219.13 203.421C219.13 205.342 218.831 206.706 218.234 207.512C217.636 208.319 216.72 208.722 215.487 208.722C214.254 208.722 213.338 208.319 212.741 207.512C212.143 206.706 211.844 205.342 211.844 203.421ZM213.95 203.421C213.95 204.299 214.021 205.143 214.164 205.954C214.311 206.765 214.752 207.171 215.487 207.171C216.222 207.171 216.661 206.765 216.803 205.954C216.95 205.143 217.024 204.299 217.024 203.421C217.024 202.544 216.95 201.699 216.803 200.888C216.661 200.077 216.222 199.672 215.487 199.672C214.752 199.672 214.311 200.077 214.164 200.888C214.021 201.699 213.95 202.544 213.95 203.421ZM221.083 207.761C220.926 207.553 220.905 207.372 221.019 207.221L221.517 206.538C221.716 206.262 221.958 206.255 222.242 206.516C222.413 206.673 222.676 206.815 223.032 206.943C223.388 207.066 223.744 207.128 224.099 207.128C224.64 207.128 225.096 206.976 225.465 206.673C225.84 206.369 226.028 205.926 226.028 205.342C226.028 204.787 225.909 204.339 225.672 203.998C225.435 203.656 225.148 203.485 224.811 203.485C224.522 203.485 224.256 203.509 224.014 203.556C223.772 203.599 223.521 203.734 223.26 203.962C223.08 204.118 222.861 204.197 222.605 204.197H221.83C221.521 204.197 221.367 204.043 221.367 203.734V198.825C221.367 198.517 221.521 198.362 221.83 198.362H226.953C227.261 198.362 227.415 198.517 227.415 198.825V199.665C227.415 199.973 227.261 200.127 226.953 200.127H223.359V201.87C223.359 202.06 223.35 202.25 223.331 202.439H223.374C223.625 202.221 223.905 202.076 224.213 202.005C224.522 201.929 224.851 201.892 225.202 201.892C226.032 201.892 226.732 202.176 227.301 202.745C227.875 203.31 228.162 204.185 228.162 205.371C228.162 206.462 227.797 207.294 227.066 207.868C226.341 208.437 225.477 208.722 224.477 208.722C223.642 208.722 222.918 208.632 222.306 208.452C221.699 208.267 221.291 208.036 221.083 207.761ZM229.567 211.169C229.344 211.084 229.285 210.909 229.389 210.643L234.113 198.334C234.218 198.068 234.379 197.978 234.597 198.064L235.173 198.284C235.396 198.37 235.456 198.545 235.351 198.811L230.627 211.12C230.523 211.385 230.361 211.475 230.143 211.39L229.567 211.169ZM236.322 203.421C236.322 201.5 236.621 200.136 237.219 199.33C237.816 198.524 238.732 198.121 239.965 198.121C241.198 198.121 242.114 198.524 242.711 199.33C243.309 200.136 243.608 201.5 243.608 203.421C243.608 205.342 243.309 206.706 242.711 207.512C242.114 208.319 241.198 208.722 239.965 208.722C238.732 208.722 237.816 208.319 237.219 207.512C236.621 206.706 236.322 205.342 236.322 203.421ZM238.428 203.421C238.428 204.299 238.499 205.143 238.642 205.954C238.789 206.765 239.23 207.171 239.965 207.171C240.7 207.171 241.139 206.765 241.281 205.954C241.428 205.143 241.502 204.299 241.502 203.421C241.502 202.544 241.428 201.699 241.281 200.888C241.139 200.077 240.7 199.672 239.965 199.672C239.23 199.672 238.789 200.077 238.642 200.888C238.499 201.699 238.428 202.544 238.428 203.421ZM245.959 200.383C245.836 200.151 245.919 199.97 246.208 199.842C246.483 199.719 246.77 199.546 247.069 199.323C247.368 199.1 247.612 198.87 247.802 198.633C248.015 198.367 248.219 198.234 248.414 198.234H249.545C249.829 198.234 249.972 198.377 249.972 198.661V208.053C249.972 208.338 249.829 208.48 249.545 208.48H248.406C248.122 208.48 247.98 208.338 247.98 208.053V201.287C247.98 201.097 247.989 200.907 248.008 200.718H247.98C247.833 200.903 247.671 201.061 247.496 201.194C247.32 201.327 247.142 201.431 246.962 201.507C246.739 201.602 246.571 201.54 246.457 201.322L245.959 200.383Z" fill="white"/>
</g>
<g filter="url(#filter2_d_277_4128)">
<path d="M284.311 208.479C283.956 208.479 283.778 208.325 283.778 208.017V207.675C283.778 207.429 283.892 207.184 284.119 206.942L286.247 204.701C286.887 204.023 287.473 203.42 288.004 202.894C288.535 202.363 288.801 201.827 288.801 201.286C288.801 200.745 288.666 200.349 288.395 200.098C288.13 199.842 287.791 199.714 287.378 199.714C286.723 199.714 286.268 199.865 286.012 200.169C285.756 200.473 285.571 200.797 285.457 201.144C285.348 201.48 285.149 201.601 284.859 201.507L284.141 201.265C283.908 201.184 283.842 200.961 283.941 200.596C284.126 199.918 284.503 199.336 285.073 198.853C285.642 198.364 286.486 198.12 287.606 198.12C288.772 198.12 289.619 198.421 290.146 199.023C290.672 199.621 290.935 200.271 290.935 200.973C290.935 201.893 290.551 202.702 289.783 203.399C289.014 204.092 288.317 204.768 287.691 205.427L286.481 206.701V206.743C286.766 206.724 287.003 206.715 287.193 206.715H290.516C290.871 206.715 291.049 206.869 291.049 207.177V208.017C291.049 208.325 290.871 208.479 290.516 208.479H284.311ZM292.753 203.42C292.753 201.499 293.052 200.136 293.649 199.329C294.247 198.523 295.162 198.12 296.396 198.12C297.629 198.12 298.544 198.523 299.142 199.329C299.74 200.136 300.039 201.499 300.039 203.42C300.039 205.342 299.74 206.705 299.142 207.512C298.544 208.318 297.629 208.721 296.396 208.721C295.162 208.721 294.247 208.318 293.649 207.512C293.052 206.705 292.753 205.342 292.753 203.42ZM294.859 203.42C294.859 204.298 294.93 205.142 295.072 205.953C295.219 206.765 295.661 207.17 296.396 207.17C297.131 207.17 297.57 206.765 297.712 205.953C297.859 205.142 297.933 204.298 297.933 203.42C297.933 202.543 297.859 201.699 297.712 200.888C297.57 200.076 297.131 199.671 296.396 199.671C295.661 199.671 295.219 200.076 295.072 200.888C294.93 201.699 294.859 202.543 294.859 203.42ZM302.262 208.479C301.906 208.479 301.728 208.325 301.728 208.017V207.675C301.728 207.429 301.842 207.184 302.07 206.942L304.197 204.701C304.837 204.023 305.423 203.42 305.954 202.894C306.486 202.363 306.751 201.827 306.751 201.286C306.751 200.745 306.616 200.349 306.346 200.098C306.08 199.842 305.741 199.714 305.328 199.714C304.674 199.714 304.218 199.865 303.962 200.169C303.706 200.473 303.521 200.797 303.407 201.144C303.298 201.48 303.099 201.601 302.809 201.507L302.091 201.265C301.858 201.184 301.792 200.961 301.892 200.596C302.077 199.918 302.454 199.336 303.023 198.853C303.592 198.364 304.436 198.12 305.556 198.12C306.723 198.12 307.569 198.421 308.096 199.023C308.622 199.621 308.886 200.271 308.886 200.973C308.886 201.893 308.501 202.702 307.733 203.399C306.965 204.092 306.267 204.768 305.641 205.427L304.432 206.701V206.743C304.716 206.724 304.953 206.715 305.143 206.715H308.466C308.822 206.715 309 206.869 309 207.177V208.017C309 208.325 308.822 208.479 308.466 208.479H302.262ZM310.981 206.259C310.672 206.259 310.518 206.105 310.518 205.797V204.858C310.518 204.587 310.589 204.353 310.732 204.153L314.673 198.604C314.849 198.357 315.069 198.234 315.335 198.234H316.381C316.694 198.234 316.85 198.388 316.85 198.696V204.495H317.711C318.02 204.495 318.174 204.649 318.174 204.957V205.797C318.174 206.105 318.022 206.259 317.719 206.259H316.85V208.017C316.85 208.325 316.696 208.479 316.388 208.479H315.321C315.012 208.479 314.858 208.325 314.858 208.017V206.259H310.981ZM312.503 204.495H314.858V201.741C314.858 201.552 314.868 201.362 314.887 201.172H314.858L312.503 204.495ZM319.451 211.169C319.228 211.083 319.168 210.908 319.273 210.642L323.997 198.333C324.101 198.068 324.263 197.978 324.481 198.063L325.057 198.283C325.28 198.369 325.339 198.544 325.235 198.81L320.511 211.119C320.406 211.385 320.245 211.475 320.027 211.389L319.451 211.169ZM326.206 203.42C326.206 201.499 326.505 200.136 327.102 199.329C327.7 198.523 328.615 198.12 329.849 198.12C331.082 198.12 331.997 198.523 332.595 199.329C333.193 200.136 333.492 201.499 333.492 203.42C333.492 205.342 333.193 206.705 332.595 207.512C331.997 208.318 331.082 208.721 329.849 208.721C328.615 208.721 327.7 208.318 327.102 207.512C326.505 206.705 326.206 205.342 326.206 203.42ZM328.312 203.42C328.312 204.298 328.383 205.142 328.525 205.953C328.672 206.765 329.113 207.17 329.849 207.17C330.584 207.17 331.023 206.765 331.165 205.953C331.312 205.142 331.386 204.298 331.386 203.42C331.386 202.543 331.312 201.699 331.165 200.888C331.023 200.076 330.584 199.671 329.849 199.671C329.113 199.671 328.672 200.076 328.525 200.888C328.383 201.699 328.312 202.543 328.312 203.42ZM335.444 207.761C335.288 207.552 335.266 207.372 335.38 207.22L335.878 206.537C336.077 206.262 336.319 206.255 336.604 206.516C336.775 206.672 337.038 206.814 337.394 206.942C337.749 207.066 338.105 207.127 338.461 207.127C339.002 207.127 339.457 206.976 339.827 206.672C340.202 206.368 340.389 205.925 340.389 205.342C340.389 204.787 340.271 204.338 340.033 203.997C339.796 203.655 339.509 203.485 339.172 203.485C338.883 203.485 338.618 203.508 338.376 203.556C338.134 203.598 337.882 203.734 337.621 203.961C337.441 204.118 337.223 204.196 336.967 204.196H336.191C335.883 204.196 335.729 204.042 335.729 203.734V198.824C335.729 198.516 335.883 198.362 336.191 198.362H341.314C341.622 198.362 341.777 198.516 341.777 198.824V199.664C341.777 199.972 341.622 200.126 341.314 200.126H337.721V201.869C337.721 202.059 337.712 202.249 337.693 202.439H337.735C337.987 202.22 338.267 202.076 338.575 202.005C338.883 201.929 339.213 201.891 339.564 201.891C340.394 201.891 341.094 202.175 341.663 202.745C342.237 203.309 342.524 204.184 342.524 205.37C342.524 206.461 342.158 207.293 341.428 207.867C340.702 208.437 339.839 208.721 338.838 208.721C338.003 208.721 337.28 208.631 336.668 208.451C336.061 208.266 335.653 208.036 335.444 207.761ZM343.928 211.169C343.705 211.083 343.646 210.908 343.751 210.642L348.475 198.333C348.579 198.068 348.741 197.978 348.959 198.063L349.535 198.283C349.758 198.369 349.817 198.544 349.713 198.81L344.989 211.119C344.884 211.385 344.723 211.475 344.505 211.389L343.928 211.169ZM350.684 203.42C350.684 201.499 350.983 200.136 351.58 199.329C352.178 198.523 353.093 198.12 354.327 198.12C355.56 198.12 356.475 198.523 357.073 199.329C357.671 200.136 357.969 201.499 357.969 203.42C357.969 205.342 357.671 206.705 357.073 207.512C356.475 208.318 355.56 208.721 354.327 208.721C353.093 208.721 352.178 208.318 351.58 207.512C350.983 206.705 350.684 205.342 350.684 203.42ZM352.79 203.42C352.79 204.298 352.861 205.142 353.003 205.953C353.15 206.765 353.591 207.17 354.327 207.17C355.062 207.17 355.501 206.765 355.643 205.953C355.79 205.142 355.863 204.298 355.863 203.42C355.863 202.543 355.79 201.699 355.643 200.888C355.501 200.076 355.062 199.671 354.327 199.671C353.591 199.671 353.15 200.076 353.003 200.888C352.861 201.699 352.79 202.543 352.79 203.42ZM360.321 200.382C360.197 200.15 360.28 199.97 360.57 199.842C360.845 199.718 361.132 199.545 361.43 199.322C361.729 199.099 361.974 198.869 362.163 198.632C362.377 198.366 362.581 198.234 362.775 198.234H363.906C364.191 198.234 364.333 198.376 364.333 198.661V208.052C364.333 208.337 364.191 208.479 363.906 208.479H362.768C362.483 208.479 362.341 208.337 362.341 208.052V201.286C362.341 201.096 362.351 200.907 362.37 200.717H362.341C362.194 200.902 362.033 201.061 361.857 201.193C361.682 201.326 361.504 201.431 361.324 201.507C361.101 201.601 360.932 201.54 360.819 201.322L360.321 200.382Z" fill="white"/>
</g>
<g filter="url(#filter3_d_277_4128)">
<path d="M238.498 176.261C237.974 176.261 237.803 176.021 237.985 175.541L243.335 161.489C243.56 160.9 243.902 160.605 244.361 160.605H245.89C246.348 160.605 246.69 160.9 246.916 161.489L252.266 175.541C252.448 176.021 252.277 176.261 251.753 176.261H250.017C249.536 176.261 249.201 176.01 249.012 175.508L247.898 172.571H242.352L241.239 175.508C241.049 176.01 240.714 176.261 240.234 176.261H238.498ZM243.368 169.864H246.883L245.54 166.392C245.38 165.984 245.282 165.689 245.245 165.507C245.216 165.318 245.184 165.041 245.147 164.678H245.103C245.067 165.041 245.031 165.318 244.994 165.507C244.965 165.689 244.871 165.984 244.71 166.392L243.368 169.864ZM253.423 168.499C253.423 165.551 253.882 163.458 254.799 162.221C255.716 160.984 257.121 160.365 259.013 160.365C260.905 160.365 262.31 160.984 263.227 162.221C264.144 163.458 264.603 165.551 264.603 168.499C264.603 171.447 264.144 173.539 263.227 174.777C262.31 176.014 260.905 176.633 259.013 176.633C257.121 176.633 255.716 176.014 254.799 174.777C253.882 173.539 253.423 171.447 253.423 168.499ZM256.655 168.499C256.655 169.845 256.764 171.141 256.982 172.386C257.208 173.63 257.885 174.253 259.013 174.253C260.141 174.253 260.814 173.63 261.033 172.386C261.258 171.141 261.371 169.845 261.371 168.499C261.371 167.152 261.258 165.857 261.033 164.612C260.814 163.367 260.141 162.745 259.013 162.745C257.885 162.745 257.208 163.367 256.982 164.612C256.764 165.857 256.655 167.152 256.655 168.499ZM267.54 163.837C267.351 163.48 267.478 163.204 267.922 163.007C268.344 162.818 268.785 162.552 269.243 162.21C269.702 161.868 270.077 161.515 270.368 161.151C270.695 160.743 271.008 160.54 271.307 160.54H273.043C273.479 160.54 273.698 160.758 273.698 161.195V175.606C273.698 176.043 273.479 176.261 273.043 176.261H271.296C270.859 176.261 270.641 176.043 270.641 175.606V165.223C270.641 164.932 270.655 164.641 270.684 164.35H270.641C270.415 164.634 270.167 164.878 269.898 165.081C269.629 165.285 269.356 165.445 269.079 165.562C268.737 165.707 268.479 165.613 268.304 165.278L267.54 163.837ZM277.257 176.261C276.711 176.261 276.438 176.025 276.438 175.552V175.028C276.438 174.649 276.613 174.274 276.962 173.903L280.227 170.464C281.209 169.423 282.108 168.499 282.923 167.691C283.739 166.876 284.146 166.053 284.146 165.223C284.146 164.394 283.939 163.786 283.524 163.4C283.116 163.007 282.596 162.811 281.963 162.811C280.958 162.811 280.259 163.043 279.866 163.509C279.473 163.975 279.189 164.474 279.015 165.005C278.847 165.522 278.542 165.707 278.098 165.562L276.995 165.191C276.638 165.067 276.536 164.725 276.689 164.164C276.973 163.124 277.552 162.232 278.425 161.489C279.299 160.74 280.594 160.365 282.312 160.365C284.102 160.365 285.402 160.827 286.21 161.751C287.018 162.669 287.422 163.666 287.422 164.743C287.422 166.155 286.832 167.396 285.653 168.466C284.474 169.529 283.404 170.566 282.443 171.578L280.587 173.532V173.597C281.024 173.568 281.388 173.554 281.679 173.554H286.777C287.323 173.554 287.596 173.79 287.596 174.263V175.552C287.596 176.025 287.323 176.261 286.777 176.261H277.257ZM290.031 175.148C289.747 174.908 289.725 174.566 289.965 174.122L290.468 173.204C290.708 172.76 291.097 172.728 291.636 173.106C292.087 173.426 292.597 173.688 293.164 173.892C293.732 174.089 294.365 174.187 295.064 174.187C296.025 174.187 296.713 173.929 297.128 173.412C297.542 172.888 297.75 172.302 297.75 171.654C297.75 170.992 297.502 170.399 297.007 169.874C296.52 169.343 295.828 169.077 294.933 169.077H294.092C293.619 169.077 293.383 168.885 293.383 168.499V167.298C293.383 166.897 293.619 166.697 294.092 166.697H294.747C295.417 166.697 296.007 166.49 296.516 166.075C297.033 165.66 297.291 165.14 297.291 164.514C297.291 164.026 297.12 163.622 296.778 163.302C296.443 162.974 295.894 162.811 295.13 162.811C294.409 162.811 293.787 162.916 293.263 163.127C292.739 163.338 292.324 163.593 292.018 163.891C291.581 164.321 291.206 164.303 290.893 163.837L290.26 162.909C290.02 162.559 290.093 162.203 290.479 161.839C291.003 161.337 291.68 160.965 292.509 160.725C293.339 160.485 294.151 160.365 294.944 160.365C296.815 160.365 298.205 160.74 299.115 161.489C300.024 162.232 300.479 163.142 300.479 164.219C300.479 165.02 300.166 165.751 299.54 166.413C298.915 167.069 298.252 167.52 297.553 167.767V167.811C298.383 168.015 299.169 168.462 299.912 169.154C300.654 169.838 301.025 170.69 301.025 171.709C301.025 173.303 300.523 174.522 299.519 175.366C298.514 176.211 296.982 176.633 294.922 176.633C294.056 176.633 293.157 176.502 292.225 176.24C291.301 175.97 290.57 175.606 290.031 175.148ZM303.067 172.855C302.594 172.855 302.357 172.619 302.357 172.145V170.704C302.357 170.289 302.466 169.929 302.685 169.623L308.733 161.107C309.003 160.729 309.341 160.54 309.749 160.54H311.354C311.834 160.54 312.074 160.776 312.074 161.249V170.147H313.395C313.868 170.147 314.105 170.384 314.105 170.857V172.145C314.105 172.619 313.872 172.855 313.406 172.855H312.074V175.552C312.074 176.025 311.838 176.261 311.365 176.261H309.727C309.254 176.261 309.017 176.025 309.017 175.552V172.855H303.067ZM305.403 170.147H309.017V165.922C309.017 165.631 309.032 165.34 309.061 165.049H309.017L305.403 170.147ZM316.147 175.159C315.907 174.838 315.874 174.562 316.048 174.329L316.813 173.281C317.118 172.859 317.49 172.848 317.926 173.248C318.188 173.488 318.592 173.707 319.138 173.903C319.684 174.092 320.23 174.187 320.776 174.187C321.606 174.187 322.304 173.954 322.872 173.488C323.447 173.022 323.735 172.342 323.735 171.447C323.735 170.595 323.553 169.907 323.189 169.383C322.825 168.859 322.384 168.597 321.868 168.597C321.424 168.597 321.016 168.633 320.645 168.706C320.274 168.772 319.888 168.979 319.488 169.329C319.211 169.569 318.876 169.689 318.483 169.689H317.293C316.82 169.689 316.583 169.452 316.583 168.979V161.446C316.583 160.973 316.82 160.736 317.293 160.736H325.154C325.627 160.736 325.864 160.973 325.864 161.446V162.734C325.864 163.207 325.627 163.444 325.154 163.444H319.64V166.119C319.64 166.41 319.626 166.701 319.597 166.992H319.662C320.048 166.657 320.477 166.435 320.951 166.326C321.424 166.21 321.93 166.151 322.468 166.151C323.742 166.151 324.816 166.588 325.689 167.462C326.57 168.328 327.01 169.671 327.01 171.49C327.01 173.164 326.45 174.442 325.329 175.323C324.215 176.196 322.89 176.633 321.355 176.633C320.074 176.633 318.964 176.494 318.025 176.218C317.093 175.934 316.467 175.581 316.147 175.159ZM328.844 168.936C328.844 165.653 329.43 163.404 330.602 162.188C331.781 160.973 333.266 160.365 335.057 160.365C335.755 160.365 336.45 160.467 337.142 160.671C337.833 160.867 338.365 161.129 338.736 161.457C339.085 161.77 339.162 162.075 338.965 162.374L338.245 163.455C338.012 163.811 337.673 163.811 337.229 163.455C337.011 163.28 336.691 163.131 336.269 163.007C335.854 162.876 335.417 162.811 334.958 162.811C334.194 162.811 333.492 163.171 332.851 163.891C332.211 164.605 331.89 165.82 331.89 167.538H331.934C332.262 167.043 332.717 166.69 333.299 166.479C333.881 166.261 334.591 166.151 335.428 166.151C336.949 166.151 338.099 166.654 338.878 167.658C339.657 168.655 340.046 169.893 340.046 171.37C340.046 172.972 339.591 174.249 338.681 175.202C337.772 176.156 336.381 176.633 334.511 176.633C332.516 176.633 331.072 175.967 330.176 174.635C329.288 173.295 328.844 171.396 328.844 168.936ZM332.425 171.425C332.425 172.313 332.607 172.997 332.971 173.477C333.335 173.951 333.867 174.187 334.565 174.187C335.308 174.187 335.861 173.987 336.225 173.587C336.589 173.186 336.771 172.44 336.771 171.348C336.771 170.388 336.589 169.689 336.225 169.252C335.861 168.815 335.351 168.597 334.696 168.597C333.976 168.597 333.415 168.892 333.015 169.481C332.622 170.071 332.425 170.719 332.425 171.425ZM342.601 163.444C342.128 163.444 341.891 163.207 341.891 162.734V161.446C341.891 160.973 342.128 160.736 342.601 160.736H351.51C351.983 160.736 352.22 160.973 352.22 161.446V162.68C352.22 163.051 352.038 163.44 351.674 163.848C350.182 165.529 349.137 167.207 348.54 168.881C347.943 170.555 347.645 172.575 347.645 174.94V175.617C347.645 176.09 347.408 176.327 346.935 176.327H345.298C344.825 176.327 344.588 176.09 344.588 175.617V175.323C344.588 172.695 345.021 170.486 345.887 168.695C346.761 166.905 347.918 165.154 349.359 163.444V163.4C349.068 163.429 348.777 163.444 348.486 163.444H342.601ZM354.065 172.08C354.065 170.828 354.447 169.856 355.211 169.165C355.983 168.466 356.645 168.04 357.198 167.887V167.833C356.58 167.636 355.975 167.251 355.386 166.675C354.804 166.093 354.512 165.329 354.512 164.383C354.512 163.247 354.971 162.294 355.888 161.522C356.812 160.751 358.075 160.365 359.677 160.365C361.278 160.365 362.537 160.751 363.454 161.522C364.379 162.294 364.841 163.247 364.841 164.383C364.841 165.329 364.546 166.093 363.956 166.675C363.374 167.251 362.774 167.636 362.155 167.833V167.887C362.708 168.04 363.367 168.466 364.131 169.165C364.903 169.856 365.288 170.828 365.288 172.08C365.288 173.426 364.848 174.522 363.967 175.366C363.094 176.211 361.664 176.633 359.677 176.633C357.69 176.633 356.256 176.211 355.375 175.366C354.502 174.522 354.065 173.426 354.065 172.08ZM357.34 171.752C357.34 172.575 357.522 173.186 357.886 173.587C358.25 173.987 358.847 174.187 359.677 174.187C360.506 174.187 361.103 173.987 361.467 173.587C361.831 173.186 362.013 172.575 362.013 171.752C362.013 171.126 361.813 170.551 361.413 170.027C361.02 169.496 360.441 169.23 359.677 169.23C358.912 169.23 358.33 169.496 357.93 170.027C357.537 170.551 357.34 171.126 357.34 171.752ZM357.7 164.71C357.7 165.293 357.864 165.751 358.192 166.086C358.527 166.421 359.022 166.588 359.677 166.588C360.332 166.588 360.823 166.421 361.151 166.086C361.485 165.751 361.653 165.293 361.653 164.71C361.653 164.128 361.478 163.666 361.129 163.324C360.787 162.982 360.303 162.811 359.677 162.811C359.051 162.811 358.563 162.982 358.214 163.324C357.872 163.666 357.7 164.128 357.7 164.71ZM367.166 165.627C367.166 164.026 367.621 162.749 368.531 161.795C369.441 160.842 370.831 160.365 372.702 160.365C374.696 160.365 376.137 161.035 377.025 162.374C377.921 163.706 378.368 165.602 378.368 168.062C378.368 171.345 377.779 173.594 376.599 174.809C375.428 176.025 373.946 176.633 372.156 176.633C371.457 176.633 370.762 176.531 370.071 176.327C369.379 176.13 368.848 175.868 368.477 175.541C368.127 175.228 368.051 174.922 368.247 174.624L368.968 173.543C369.201 173.186 369.539 173.186 369.983 173.543C370.202 173.718 370.518 173.87 370.933 174.001C371.355 174.125 371.796 174.187 372.254 174.187C373.018 174.187 373.721 173.83 374.361 173.117C375.002 172.397 375.322 171.177 375.322 169.46H375.278C374.951 169.955 374.496 170.311 373.914 170.53C373.331 170.741 372.622 170.846 371.785 170.846C370.263 170.846 369.113 170.348 368.335 169.35C367.556 168.346 367.166 167.105 367.166 165.627ZM370.442 165.649C370.442 166.61 370.624 167.309 370.988 167.745C371.352 168.182 371.861 168.401 372.516 168.401C373.237 168.401 373.794 168.106 374.187 167.516C374.587 166.927 374.787 166.279 374.787 165.573C374.787 164.685 374.605 164.004 374.241 163.531C373.877 163.051 373.346 162.811 372.647 162.811C371.905 162.811 371.352 163.011 370.988 163.411C370.624 163.811 370.442 164.557 370.442 165.649Z" fill="white"/>
</g>
<g style="mix-blend-mode:screen">
<path d="M178.123 62.5873C176.46 62.5873 175.11 61.3503 175.11 59.8256C175.11 58.3009 176.46 57.064 178.123 57.064C179.787 57.064 181.137 58.3009 181.137 59.8256C181.137 61.3503 179.787 62.5873 178.123 62.5873Z" fill="#DBDCDC"/>
<path d="M170.903 57.0786C165.63 57.0786 161.346 61.0054 161.346 65.8384C161.346 66.7302 161.487 67.5788 161.754 68.3843C162.947 64.7883 166.588 62.602 170.903 62.602V57.0786Z" fill="#DBDCDC"/>
<path d="M170.903 79.919C165.63 79.919 161.346 75.9922 161.346 71.1593C161.346 70.2675 161.487 69.1312 161.754 68.3257C162.947 71.9216 166.588 73.8922 170.903 73.8922V79.9047V79.919Z" fill="#DBDCDC"/>
<path d="M170.903 85.4302C176.176 85.4302 180.46 81.5034 180.46 76.6705C180.46 75.7787 180.319 74.93 180.052 74.1245C178.859 77.7205 175.218 79.9068 170.903 79.9068V85.4302Z" fill="#DBDCDC"/>
<path d="M170.903 62.5869C176.176 62.5869 180.46 66.5137 180.46 71.3466C180.46 72.2384 180.319 73.3747 180.052 74.1802C178.859 70.5843 175.218 68.6137 170.903 68.6137V62.6013V62.5869Z" fill="#DBDCDC"/>
<path d="M229.834 76.6109C228.28 76.6109 227.088 76.2226 226.224 75.4314C225.361 74.6403 224.938 73.5328 224.938 72.1088V66.2402H227.166V71.9506C227.166 73.8493 228.061 74.7986 229.834 74.7986C231.607 74.7986 232.518 73.8493 232.518 71.9506V66.2402H234.746V72.1088C234.746 73.5472 234.322 74.6547 233.459 75.4314C232.596 76.2226 231.388 76.6109 229.818 76.6109H229.834Z" fill="#DBDCDC"/>
<path d="M238.088 76.3952V66.2402H241.697C242.968 66.2402 243.973 66.5279 244.695 67.1032C245.417 67.6786 245.793 68.4697 245.793 69.4766C245.793 70.0807 245.636 70.6129 245.307 71.0876C244.993 71.5622 244.522 71.9506 243.941 72.2382L246.908 76.3952H244.397L242.011 72.7417C241.556 72.7561 241.321 72.7704 241.289 72.7704H240.222V76.3952H238.088ZM240.222 67.88V71.1307H241.321C242.843 71.1307 243.612 70.5841 243.612 69.4909C243.612 68.3978 242.874 67.88 241.399 67.88H240.238H240.222Z" fill="#DBDCDC"/>
<path d="M249.31 76.3952V66.2402H251.287L257.094 73.3027V66.2402H259.212V76.3952H257.235L251.428 69.3615V76.3952H249.31Z" fill="#DBDCDC"/>
<path d="M197.598 71.6631C197.049 71.1596 196.107 70.7281 194.789 70.3397C194.004 70.124 193.486 69.9082 193.22 69.7212C192.953 69.5343 192.812 69.261 192.812 68.9014C192.812 68.1103 193.439 67.7075 194.695 67.7075C195.699 67.7075 196.688 67.952 197.63 68.4555V66.6287C196.751 66.226 195.746 66.0103 194.632 66.0103C193.424 66.0103 192.451 66.2835 191.729 66.8157C191.007 67.3479 190.662 68.0527 190.662 68.9158C190.662 69.7069 190.913 70.3398 191.431 70.8288C191.933 71.3035 192.796 71.7206 194.02 72.0658C194.883 72.3103 195.448 72.5405 195.762 72.7562C196.076 72.972 196.233 73.2453 196.233 73.6049C196.233 74.0076 196.045 74.3385 195.684 74.5542C195.323 74.7844 194.805 74.8994 194.13 74.8994C193.549 74.8994 192.953 74.8131 192.341 74.6549C191.713 74.4967 191.18 74.2809 190.709 73.9932V75.8632C191.07 76.0501 191.54 76.2227 192.137 76.3522C192.859 76.5104 193.549 76.5823 194.224 76.5823C195.542 76.5823 196.562 76.309 197.331 75.7768C198.085 75.2446 198.461 74.4967 198.461 73.5617C198.461 72.7706 198.179 72.1377 197.63 71.6343L197.598 71.6631Z" fill="#DBDCDC"/>
<path d="M207.234 72.2979C207.234 72.2979 206.497 72.1685 206.041 72.1685C203.562 72.1685 201.161 73.7219 200.156 76.613H202.385C203.06 74.513 205.225 72.6431 207.234 72.2979Z" fill="#DBDCDC"/>
<path d="M206.826 66.2402H204.457L201.898 72.1519H202.793C203.484 72.1519 204.111 71.7492 204.347 71.1595L205.571 68.067L207.203 72.1519L207.815 73.7342L208.866 76.4095H211.236L206.826 66.2546V66.2402Z" fill="#DBDCDC"/>
<path d="M221.83 73.9664C220.778 74.4698 219.695 74.7287 218.597 74.7287C217.498 74.7287 216.525 74.4266 215.835 73.8225C215.16 73.204 214.815 72.3841 214.815 71.3341C214.815 70.2841 215.16 69.4643 215.85 68.8458C216.541 68.2273 217.435 67.9108 218.534 67.9108C219.507 67.9108 220.527 68.1553 221.594 68.63V66.7169C221.233 66.5587 220.81 66.4149 220.355 66.2998C219.727 66.156 219.115 66.084 218.503 66.084C216.729 66.0697 215.285 66.5587 214.155 67.58C213.026 68.6012 212.476 69.8526 212.508 71.3629C212.508 72.9164 213.041 74.1821 214.155 75.1315C215.27 76.0808 216.682 76.5555 218.393 76.5411C219.695 76.5411 220.841 76.2965 221.814 75.8362V73.9664H221.83Z" fill="#DBDCDC"/>
<path opacity="0.6" d="M205.225 183.843C259.793 183.843 311.661 194.472 358.491 213.574C313.12 190.402 260.86 177.169 205.225 177.169C149.591 177.169 97.3305 190.387 51.9597 213.574C98.79 194.472 150.658 183.843 205.225 183.843Z" fill="#E5E5E6"/>
<g opacity="0.5">
<path d="M205.729 130.693L206.545 149.493C206.765 151.09 208.146 152.355 209.888 152.557L216.276 153.305L209.888 154.053C208.146 154.254 206.765 155.52 206.545 157.116L205.729 162.971L204.913 157.116C204.694 155.52 203.312 154.254 201.57 154.053L195.183 153.305L201.57 152.557C203.312 152.355 204.694 151.09 204.913 149.493L205.729 130.693Z" fill="#E5E5E6"/>
<path d="M202.356 148.027L206.012 152.356L211.489 150.199L206.766 153.55L209.12 158.584L205.463 154.255L199.986 156.412L204.71 153.061L202.356 148.027Z" fill="#E5E5E6"/>
<path d="M201.383 151.017L205.526 152.6L208.225 149.306L206.515 153.117L210.093 155.591L205.95 154.009L203.235 157.303L204.961 153.491L201.383 151.017Z" fill="#E5E5E6"/>
</g>
</g>
<path d="M291.513 150.96C291.278 150.96 291.161 150.843 291.161 150.608V145.159C291.161 144.925 291.278 144.807 291.513 144.807H292.438C292.673 144.807 292.79 144.925 292.79 145.159V145.499H292.813C292.927 145.249 293.118 145.052 293.388 144.907C293.657 144.762 293.909 144.69 294.143 144.69C294.612 144.69 294.975 144.8 295.233 145.018C295.495 145.237 295.675 145.481 295.772 145.751H295.796C296.136 145.309 296.442 145.022 296.716 144.889C296.993 144.757 297.347 144.69 297.776 144.69C298.354 144.69 298.841 144.882 299.235 145.264C299.634 145.647 299.833 146.346 299.833 147.362V150.608C299.833 150.843 299.716 150.96 299.481 150.96H298.544C298.309 150.96 298.192 150.843 298.192 150.608V147.784C298.192 146.932 298.134 146.395 298.016 146.173C297.903 145.95 297.7 145.839 297.407 145.839C297.134 145.839 296.884 145.999 296.657 146.319C296.43 146.639 296.317 147.3 296.317 148.3V150.608C296.317 150.843 296.2 150.96 295.966 150.96H295.028C294.794 150.96 294.677 150.843 294.677 150.608V147.784C294.677 146.932 294.618 146.395 294.501 146.173C294.388 145.95 294.184 145.839 293.891 145.839C293.618 145.839 293.368 145.999 293.141 146.319C292.915 146.635 292.802 147.296 292.802 148.3V150.608C292.802 150.843 292.684 150.96 292.45 150.96H291.513ZM301.763 148.405V145.159C301.763 144.925 301.88 144.807 302.115 144.807H303.052C303.287 144.807 303.404 144.925 303.404 145.159V147.983C303.404 148.835 303.462 149.372 303.58 149.594C303.697 149.817 303.943 149.928 304.318 149.928C304.716 149.928 305.019 149.77 305.226 149.454C305.433 149.134 305.537 148.471 305.537 147.468V145.159C305.537 144.925 305.654 144.807 305.888 144.807H306.826C307.06 144.807 307.177 144.925 307.177 145.159V150.608C307.177 150.843 307.06 150.96 306.826 150.96H305.9C305.665 150.96 305.548 150.843 305.548 150.608V150.268H305.525C305.345 150.577 305.117 150.79 304.839 150.907C304.562 151.02 304.234 151.077 303.855 151.077C303.257 151.077 302.759 150.885 302.361 150.503C301.962 150.12 301.763 149.421 301.763 148.405ZM309.008 150.55C308.817 150.413 308.764 150.266 308.85 150.11L309.149 149.565C309.254 149.37 309.418 149.346 309.641 149.495C309.863 149.643 310.125 149.753 310.426 149.823C310.731 149.893 311.008 149.928 311.258 149.928C311.434 149.928 311.598 149.911 311.75 149.876C311.902 149.841 312.031 149.772 312.137 149.671C312.242 149.569 312.295 149.421 312.295 149.225C312.295 149.108 312.264 149.009 312.201 148.927C312.139 148.844 312.059 148.782 311.961 148.739C311.863 148.696 311.76 148.661 311.65 148.634C311.506 148.598 311.297 148.54 311.024 148.458C310.754 148.376 310.494 148.28 310.244 148.171C310.037 148.081 309.834 147.956 309.635 147.796C309.44 147.632 309.295 147.45 309.201 147.251C309.111 147.052 309.067 146.805 309.067 146.512C309.067 146.118 309.18 145.772 309.406 145.475C309.637 145.178 309.934 144.973 310.297 144.86C310.66 144.747 311.113 144.69 311.656 144.69C312.024 144.69 312.381 144.743 312.729 144.848C313.076 144.954 313.324 145.053 313.473 145.147C313.707 145.296 313.766 145.454 313.649 145.622L313.291 146.143C313.182 146.3 313.006 146.311 312.764 146.178C312.58 146.077 312.399 145.995 312.219 145.932C312.043 145.87 311.846 145.839 311.627 145.839C311.479 145.839 311.336 145.854 311.199 145.885C311.063 145.917 310.945 145.975 310.848 146.061C310.754 146.147 310.707 146.26 310.707 146.401C310.707 146.55 310.75 146.667 310.836 146.753C310.926 146.835 311.027 146.895 311.141 146.934C311.258 146.973 311.369 147.01 311.475 147.046C311.693 147.116 311.914 147.184 312.137 147.251C312.359 147.313 312.586 147.389 312.817 147.479C313.016 147.557 313.209 147.669 313.397 147.813C313.584 147.958 313.721 148.141 313.807 148.364C313.893 148.587 313.936 148.841 313.936 149.126C313.936 149.505 313.822 149.856 313.596 150.18C313.369 150.505 313.07 150.735 312.699 150.872C312.328 151.009 311.897 151.077 311.404 151.077C310.854 151.077 310.385 151.038 309.998 150.96C309.611 150.882 309.281 150.745 309.008 150.55ZM315.737 150.96C315.503 150.96 315.385 150.843 315.385 150.608V142.663C315.385 142.428 315.503 142.311 315.737 142.311H316.675C316.909 142.311 317.026 142.428 317.026 142.663V146.969C317.026 147.126 317.018 147.282 317.003 147.438H317.026L318.884 145.048C319.009 144.887 319.161 144.807 319.341 144.807H320.302C320.661 144.807 320.721 144.952 320.483 145.241L318.714 147.38L320.764 150.526C320.952 150.815 320.891 150.96 320.583 150.96H319.581C319.385 150.96 319.225 150.858 319.1 150.655L317.77 148.516L317.026 149.413V150.608C317.026 150.843 316.909 150.96 316.675 150.96H315.737ZM321.693 153.45C321.458 153.45 321.341 153.352 321.341 153.157V152.571C321.341 152.376 321.458 152.278 321.693 152.278H328.314C328.548 152.278 328.665 152.376 328.665 152.571V153.157C328.665 153.352 328.548 153.45 328.314 153.45H321.693ZM329.711 150.96C329.375 150.96 329.305 150.817 329.5 150.532L331.439 147.719L329.729 145.235C329.533 144.95 329.604 144.807 329.939 144.807H331.047C331.223 144.807 331.355 144.885 331.445 145.042L332.354 146.624L333.262 145.042C333.352 144.885 333.484 144.807 333.66 144.807H334.768C335.107 144.807 335.178 144.95 334.979 145.235L333.256 147.719L335.207 150.532C335.406 150.817 335.336 150.96 334.996 150.96H333.889C333.717 150.96 333.584 150.882 333.49 150.725L332.354 148.815L331.217 150.725C331.123 150.882 330.99 150.96 330.818 150.96H329.711ZM336.751 150.96C336.516 150.96 336.399 150.843 336.399 150.608V142.663C336.399 142.428 336.516 142.311 336.751 142.311H337.688C337.923 142.311 338.04 142.428 338.04 142.663V145.03C338.04 145.186 338.032 145.343 338.016 145.499H338.051C338.231 145.19 338.46 144.979 338.737 144.866C339.014 144.749 339.348 144.69 339.739 144.69C340.348 144.69 340.852 144.882 341.251 145.264C341.649 145.647 341.848 146.346 341.848 147.362V150.608C341.848 150.843 341.731 150.96 341.497 150.96H340.559C340.325 150.96 340.208 150.843 340.208 150.608V147.784C340.208 146.932 340.149 146.395 340.032 146.173C339.915 145.95 339.663 145.839 339.276 145.839C338.866 145.839 338.557 145.999 338.35 146.319C338.143 146.635 338.04 147.296 338.04 148.3V150.608C338.04 150.843 337.923 150.96 337.688 150.96H336.751ZM343.462 147.884C343.462 146.887 343.718 146.106 344.23 145.54C344.745 144.973 345.511 144.69 346.527 144.69C347.542 144.69 348.306 144.973 348.818 145.54C349.333 146.106 349.591 146.887 349.591 147.884C349.591 148.88 349.333 149.661 348.818 150.227C348.306 150.794 347.542 151.077 346.527 151.077C345.511 151.077 344.745 150.794 344.23 150.227C343.718 149.661 343.462 148.88 343.462 147.884ZM345.197 147.884C345.197 148.626 345.31 149.153 345.536 149.466C345.767 149.774 346.097 149.928 346.527 149.928C346.956 149.928 347.284 149.774 347.511 149.466C347.742 149.153 347.857 148.626 347.857 147.884C347.857 147.141 347.742 146.616 347.511 146.307C347.284 145.995 346.956 145.839 346.527 145.839C346.097 145.839 345.767 145.995 345.536 146.307C345.31 146.616 345.197 147.141 345.197 147.884ZM351.568 150.96C351.334 150.96 351.217 150.843 351.217 150.608V143.688C351.217 143.512 351.258 143.352 351.34 143.208L351.791 142.417C351.877 142.268 351.978 142.194 352.096 142.194H352.506C352.74 142.194 352.857 142.311 352.857 142.546V150.608C352.857 150.843 352.74 150.96 352.506 150.96H351.568ZM354.483 147.884C354.483 147.024 354.669 146.278 355.04 145.645C355.415 145.009 356.061 144.69 356.979 144.69C357.331 144.69 357.631 144.741 357.881 144.843C358.131 144.944 358.358 145.163 358.561 145.499H358.585C358.569 145.343 358.561 145.186 358.561 145.03V142.663C358.561 142.428 358.678 142.311 358.913 142.311H359.85C360.085 142.311 360.202 142.428 360.202 142.663V150.608C360.202 150.843 360.085 150.96 359.85 150.96H358.924C358.729 150.96 358.624 150.843 358.608 150.608L358.585 150.268H358.561C358.358 150.604 358.131 150.823 357.881 150.925C357.631 151.026 357.331 151.077 356.979 151.077C356.061 151.077 355.415 150.76 355.04 150.128C354.669 149.491 354.483 148.743 354.483 147.884ZM356.217 147.884C356.217 148.509 356.297 149.007 356.458 149.378C356.622 149.745 356.967 149.928 357.495 149.928C357.788 149.928 358.038 149.764 358.245 149.436C358.456 149.104 358.561 148.675 358.561 148.147V147.62C358.561 147.093 358.456 146.665 358.245 146.337C358.038 146.005 357.788 145.839 357.495 145.839C356.967 145.839 356.622 146.024 356.458 146.395C356.297 146.762 356.217 147.259 356.217 147.884ZM362.507 150.96C362.273 150.96 362.155 150.843 362.155 150.608V145.159C362.155 144.925 362.273 144.807 362.507 144.807H363.445C363.679 144.807 363.796 144.925 363.796 145.159V150.608C363.796 150.843 363.679 150.96 363.445 150.96H362.507ZM362.507 143.905C362.273 143.905 362.155 143.788 362.155 143.553V142.803C362.155 142.569 362.273 142.452 362.507 142.452H363.445C363.679 142.452 363.796 142.569 363.796 142.803V143.553C363.796 143.788 363.679 143.905 363.445 143.905H362.507ZM366.101 150.96C365.867 150.96 365.75 150.843 365.75 150.608V145.159C365.75 144.925 365.867 144.807 366.101 144.807H367.027C367.262 144.807 367.379 144.925 367.379 145.159V145.499H367.402C367.582 145.19 367.81 144.979 368.088 144.866C368.365 144.749 368.699 144.69 369.09 144.69C369.699 144.69 370.203 144.882 370.601 145.264C371 145.647 371.199 146.346 371.199 147.362V150.608C371.199 150.843 371.082 150.96 370.848 150.96H369.91C369.676 150.96 369.558 150.843 369.558 150.608V147.784C369.558 146.932 369.5 146.395 369.383 146.173C369.265 145.95 369.014 145.839 368.627 145.839C368.217 145.839 367.908 145.999 367.701 146.319C367.494 146.635 367.39 147.296 367.39 148.3V150.608C367.39 150.843 367.273 150.96 367.039 150.96H366.101ZM372.813 147.884C372.813 147.024 372.999 146.278 373.37 145.645C373.745 145.009 374.391 144.69 375.309 144.69C375.661 144.69 375.961 144.741 376.211 144.843C376.461 144.944 376.688 145.163 376.891 145.499H376.915L376.938 145.159C376.954 144.925 377.059 144.807 377.254 144.807H378.18C378.415 144.807 378.532 144.925 378.532 145.159V150.895C378.532 151.852 378.274 152.512 377.758 152.876C377.243 153.239 376.497 153.421 375.52 153.421C375.106 153.421 374.723 153.399 374.372 153.356C374.02 153.313 373.665 153.206 373.305 153.034C373.118 152.944 373.086 152.774 373.211 152.524L373.422 152.102C373.508 151.93 373.651 151.891 373.85 151.985C374.01 152.059 374.208 152.126 374.442 152.184C374.68 152.243 374.981 152.272 375.344 152.272C375.844 152.272 376.227 152.178 376.493 151.991C376.758 151.807 376.891 151.403 376.891 150.778V150.678C376.891 150.522 376.899 150.366 376.915 150.21H376.891C376.688 150.546 376.461 150.764 376.211 150.866C375.961 150.968 375.661 151.018 375.309 151.018C374.391 151.018 373.745 150.702 373.37 150.069C372.999 149.432 372.813 148.704 372.813 147.884ZM374.547 147.884C374.547 148.469 374.627 148.948 374.788 149.319C374.952 149.686 375.297 149.87 375.825 149.87C376.118 149.87 376.368 149.706 376.575 149.378C376.786 149.046 376.891 148.616 376.891 148.089V147.62C376.891 147.093 376.786 146.665 376.575 146.337C376.368 146.005 376.118 145.839 375.825 145.839C375.297 145.839 374.952 146.024 374.788 146.395C374.627 146.762 374.547 147.259 374.547 147.884Z" fill="white"/>
<defs>
<filter id="filter0_bdd_277_4128" x="0.579169" y="0.803779" width="414.479" height="255.383" filterUnits="userSpaceOnUse" color-interpolation-filters="sRGB">
<feFlood flood-opacity="0" result="BackgroundImageFix"/>
<feGaussianBlur in="BackgroundImageFix" stdDeviation="2.75198"/>
<feComposite in2="SourceAlpha" operator="in" result="effect1_backgroundBlur_277_4128"/>
<feColorMatrix in="SourceAlpha" type="matrix" values="0 0 0 0 0 0 0 0 0 0 0 0 0 0 0 0 0 0 127 0" result="hardAlpha"/>
<feOffset dx="3.30237" dy="4.40316"/>
<feGaussianBlur stdDeviation="7.70553"/>
<feComposite in2="hardAlpha" operator="out"/>
<feColorMatrix type="matrix" values="0 0 0 0 0 0 0 0 0 0 0 0 0 0 0 0 0 0 0.25 0"/>
<feBlend mode="normal" in2="effect1_backgroundBlur_277_4128" result="effect2_dropShadow_277_4128"/>
<feColorMatrix in="SourceAlpha" type="matrix" values="0 0 0 0 0 0 0 0 0 0 0 0 0 0 0 0 0 0 127 0" result="hardAlpha"/>
<feOffset/>
<feGaussianBlur stdDeviation="7.70553"/>
<feComposite in2="hardAlpha" operator="out"/>
<feColorMatrix type="matrix" values="0 0 0 0 0 0 0 0 0 0 0 0 0 0 0 0 0 0 0.05 0"/>
<feBlend mode="normal" in2="effect2_dropShadow_277_4128" result="effect3_dropShadow_277_4128"/>
<feBlend mode="normal" in="SourceGraphic" in2="effect3_dropShadow_277_4128" result="shape"/>
</filter>
<filter id="filter1_d_277_4128" x="168.606" y="197.613" width="82.176" height="15.2031" filterUnits="userSpaceOnUse" color-interpolation-filters="sRGB">
<feFlood flood-opacity="0" result="BackgroundImageFix"/>
<feColorMatrix in="SourceAlpha" type="matrix" values="0 0 0 0 0 0 0 0 0 0 0 0 0 0 0 0 0 0 127 0" result="hardAlpha"/>
<feOffset dy="0.488131"/>
<feGaussianBlur stdDeviation="0.405149"/>
<feComposite in2="hardAlpha" operator="out"/>
<feColorMatrix type="matrix" values="0 0 0 0 0 0 0 0 0 0 0 0 0 0 0 0 0 0 0.5 0"/>
<feBlend mode="normal" in2="BackgroundImageFix" result="effect1_dropShadow_277_4128"/>
<feBlend mode="normal" in="SourceGraphic" in2="effect1_dropShadow_277_4128" result="shape"/>
</filter>
<filter id="filter2_d_277_4128" x="282.968" y="197.613" width="82.176" height="15.2031" filterUnits="userSpaceOnUse" color-interpolation-filters="sRGB">
<feFlood flood-opacity="0" result="BackgroundImageFix"/>
<feColorMatrix in="SourceAlpha" type="matrix" values="0 0 0 0 0 0 0 0 0 0 0 0 0 0 0 0 0 0 127 0" result="hardAlpha"/>
<feOffset dy="0.488131"/>
<feGaussianBlur stdDeviation="0.405149"/>
<feComposite in2="hardAlpha" operator="out"/>
<feColorMatrix type="matrix" values="0 0 0 0 0 0 0 0 0 0 0 0 0 0 0 0 0 0 0.6 0"/>
<feBlend mode="normal" in2="BackgroundImageFix" result="effect1_dropShadow_277_4128"/>
<feBlend mode="normal" in="SourceGraphic" in2="effect1_dropShadow_277_4128" result="shape"/>
</filter>
<filter id="filter3_d_277_4128" x="237.712" y="160.036" width="142.442" height="17.8963" filterUnits="userSpaceOnUse" color-interpolation-filters="sRGB">
<feFlood flood-opacity="0" result="BackgroundImageFix"/>
<feColorMatrix in="SourceAlpha" type="matrix" values="0 0 0 0 0 0 0 0 0 0 0 0 0 0 0 0 0 0 127 0" result="hardAlpha"/>
<feOffset dx="0.971433" dy="0.485717"/>
<feGaussianBlur stdDeviation="0.407176"/>
<feComposite in2="hardAlpha" operator="out"/>
<feColorMatrix type="matrix" values="0 0 0 0 0 0 0 0 0 0 0 0 0 0 0 0 0 0 0.3 0"/>
<feBlend mode="normal" in2="BackgroundImageFix" result="effect1_dropShadow_277_4128"/>
<feBlend mode="normal" in="SourceGraphic" in2="effect1_dropShadow_277_4128" result="shape"/>
</filter>
<linearGradient id="paint0_linear_277_4128" x1="87.0509" y1="16.2148" x2="285.641" y2="263.524" gradientUnits="userSpaceOnUse">
<stop stop-color="white"/>
<stop offset="0.473958" stop-color="white"/>
<stop offset="1" stop-color="#F7F7F7"/>
</linearGradient>
<linearGradient id="paint1_linear_277_4128" x1="130.146" y1="16.2148" x2="259.211" y2="246.402" gradientUnits="userSpaceOnUse">
<stop stop-color="#F1F1F1"/>
<stop offset="0.0001" stop-color="#E0E0E0"/>
<stop offset="0.0260417" stop-color="#F1F1F1"/>
<stop offset="0.59375" stop-color="#949494"/>
<stop offset="1" stop-color="#C8C8C8"/>
</linearGradient>
<linearGradient id="paint2_linear_277_4128" x1="59.3779" y1="16.2149" x2="325.636" y2="266.769" gradientUnits="userSpaceOnUse">
<stop stop-color="white"/>
<stop offset="0.598958" stop-color="white" stop-opacity="0"/>
<stop offset="1" stop-color="white"/>
</linearGradient>
</defs>
</svg>
