<svg width="416" height="256" viewBox="0 0 416 256" fill="none" xmlns="http://www.w3.org/2000/svg">
<g filter="url(#filter0_bdd_2301_4752)">
<path d="M16 222.954V29.2043C16 21.9405 21.3516 16 27.8959 16H384.459C391.003 16 396.355 21.9405 396.355 29.2043V222.954C396.355 230.218 391.003 236.158 384.459 236.158H27.8959C21.3516 236.158 16 230.218 16 222.954Z" fill="url(#paint0_linear_2301_4752)"/>
<path d="M16 222.954V29.2043C16 21.9405 21.3516 16 27.8959 16H384.459C391.003 16 396.355 21.9405 396.355 29.2043V222.954C396.355 230.218 391.003 236.158 384.459 236.158H27.8959C21.3516 236.158 16 230.218 16 222.954Z" fill="url(#paint1_linear_2301_4752)" fill-opacity="0.3" style="mix-blend-mode:multiply"/>
<path d="M17.6512 222.954V29.2043C17.6512 22.6861 22.4214 17.6512 27.8959 17.6512H384.459C389.933 17.6512 394.703 22.6861 394.703 29.2043V222.954C394.703 229.472 389.933 234.507 384.459 234.507H27.8959C22.4214 234.507 17.6512 229.472 17.6512 222.954Z" stroke="url(#paint2_linear_2301_4752)" stroke-width="3.30237"/>
</g>
<path d="M99.7282 125.374H66.1592C61.6864 125.374 58.0298 122.541 58.0298 119.089V96.2759C58.0298 92.8238 61.6864 89.9902 66.1592 89.9902H99.7282C104.201 89.9902 107.858 92.8238 107.858 96.2759V119.089C107.858 122.541 104.201 125.374 99.7282 125.374Z" fill="#DFB874"/>
<path d="M99.7266 125.676H66.1575C61.4494 125.676 57.6201 122.713 57.6201 119.074V96.2613C57.6201 92.6222 61.4494 89.6592 66.1575 89.6592H99.7266C104.435 89.6592 108.264 92.6222 108.264 96.2613V119.074C108.264 122.713 104.435 125.676 99.7266 125.676ZM66.1575 90.2777C61.8888 90.2777 58.4362 92.953 58.4362 96.2469V119.06C58.4362 122.354 61.9045 125.029 66.1575 125.029H99.7266C103.995 125.029 107.448 122.354 107.448 119.06V96.2469C107.448 92.953 103.98 90.2777 99.7266 90.2777H66.1575Z" fill="#261F1C"/>
<path d="M107.857 99.5127H58.0444V100.131H107.857V99.5127Z" fill="#261F1C"/>
<path d="M103.275 92.0898H62.7065V92.7083H103.275V92.0898Z" fill="#261F1C"/>
<path d="M103.275 121.793H62.7065V122.411H103.275V121.793Z" fill="#261F1C"/>
<path d="M103.668 90.4658H102.867V124.742H103.668V90.4658Z" fill="#261F1C"/>
<path d="M63.0979 90.4658H62.2969V124.742H63.0979V90.4658Z" fill="#261F1C"/>
<path d="M108.077 106.95H58.0298V107.569H108.077V106.95Z" fill="#261F1C"/>
<path d="M108.077 114.371H58.0298V114.99H108.077V114.371Z" fill="#261F1C"/>
<path d="M88.6952 118.572H78.0234C77.3486 118.572 76.7993 118.14 76.7993 117.622V96.881C76.7993 96.3632 77.3486 95.9316 78.0234 95.9316H88.6952C89.37 95.9316 89.9193 96.3632 89.9193 96.881V117.622C89.9193 118.14 89.37 118.572 88.6952 118.572Z" fill="#DFB874"/>
<path d="M88.6955 118.887H78.0238C77.1292 118.887 76.3916 118.326 76.3916 117.635V96.894C76.3916 96.2035 77.1135 95.6426 78.0238 95.6426H88.6955C89.5901 95.6426 90.3277 96.2035 90.3277 96.894V117.635C90.3277 118.326 89.6058 118.887 88.6955 118.887ZM78.0238 96.2611C77.5686 96.2611 77.2077 96.5487 77.2077 96.894V117.635C77.2077 117.981 77.5686 118.268 78.0238 118.268H88.6955C89.1507 118.268 89.5116 117.981 89.5116 117.635V96.894C89.5116 96.5487 89.1507 96.2611 88.6955 96.2611H78.0238Z" fill="#261F1C"/>
<g style="mix-blend-mode:screen">
<path d="M178.133 62.372C176.469 62.372 175.12 61.135 175.12 59.6103C175.12 58.0856 176.469 56.8486 178.133 56.8486C179.796 56.8486 181.146 58.0856 181.146 59.6103C181.146 61.135 179.796 62.372 178.133 62.372Z" fill="#DBDCDC"/>
<path d="M170.913 56.8633C165.64 56.8633 161.355 60.7901 161.355 65.623C161.355 66.5148 161.497 67.3635 161.763 68.169C162.956 64.573 166.597 62.3867 170.913 62.3867V56.8633Z" fill="#DBDCDC"/>
<path d="M170.913 79.7037C165.64 79.7037 161.355 75.7769 161.355 70.944C161.355 70.0522 161.497 68.9158 161.763 68.1104C162.956 71.7063 166.597 73.6769 170.913 73.6769V79.6893V79.7037Z" fill="#DBDCDC"/>
<path d="M170.912 85.2149C176.185 85.2149 180.47 81.2881 180.47 76.4551C180.47 75.5633 180.328 74.7147 180.062 73.9092C178.869 77.5051 175.228 79.6915 170.912 79.6915V85.2149Z" fill="#DBDCDC"/>
<path d="M170.912 62.3711C176.185 62.3711 180.47 66.2979 180.47 71.1308C180.47 72.0226 180.328 73.1589 180.062 73.9644C178.869 70.3685 175.228 68.3979 170.912 68.3979V62.3855V62.3711Z" fill="#DBDCDC"/>
<path d="M229.844 76.3951C228.29 76.3951 227.097 76.0067 226.234 75.2156C225.371 74.4245 224.947 73.317 224.947 71.893V66.0244H227.176V71.7348C227.176 73.6334 228.07 74.5827 229.844 74.5827C231.617 74.5827 232.527 73.6334 232.527 71.7348V66.0244H234.756V71.893C234.756 73.3314 234.332 74.4389 233.469 75.2156C232.606 76.0067 231.397 76.3951 229.828 76.3951H229.844Z" fill="#DBDCDC"/>
<path d="M238.097 76.1794V66.0244H241.707C242.978 66.0244 243.982 66.3121 244.704 66.8874C245.426 67.4628 245.803 68.2539 245.803 69.2608C245.803 69.8649 245.646 70.3971 245.316 70.8717C245.002 71.3464 244.532 71.7348 243.951 72.0224L246.917 76.1794H244.406L242.021 72.5259C241.565 72.5403 241.33 72.5546 241.299 72.5546H240.232V76.1794H238.097ZM240.232 67.6641V70.9149H241.33C242.852 70.9149 243.621 70.3683 243.621 69.2751C243.621 68.182 242.884 67.6641 241.409 67.6641H240.247H240.232Z" fill="#DBDCDC"/>
<path d="M249.319 76.1794V66.0244H251.297L257.103 73.0869V66.0244H259.222V76.1794H257.245L251.438 69.1457V76.1794H249.319Z" fill="#DBDCDC"/>
<path d="M197.608 71.4477C197.058 70.9443 196.117 70.5128 194.798 70.1244C194.014 69.9087 193.496 69.6929 193.229 69.5059C192.962 69.3189 192.821 69.0456 192.821 68.686C192.821 67.8949 193.449 67.4922 194.704 67.4922C195.709 67.4922 196.697 67.7367 197.639 68.2401V66.4134C196.76 66.0107 195.756 65.7949 194.641 65.7949C193.433 65.7949 192.46 66.0682 191.738 66.6004C191.016 67.1326 190.671 67.8374 190.671 68.7004C190.671 69.4915 190.922 70.1244 191.44 70.6135C191.942 71.0882 192.805 71.5053 194.029 71.8505C194.893 72.095 195.458 72.3252 195.771 72.5409C196.085 72.7567 196.242 73.03 196.242 73.3896C196.242 73.7923 196.054 74.1231 195.693 74.3389C195.332 74.569 194.814 74.6841 194.139 74.6841C193.559 74.6841 192.962 74.5978 192.35 74.4395C191.722 74.2813 191.189 74.0656 190.718 73.7779V75.6478C191.079 75.8348 191.55 76.0074 192.146 76.1369C192.868 76.2951 193.559 76.367 194.233 76.367C195.552 76.367 196.572 76.0937 197.341 75.5615C198.094 75.0293 198.471 74.2814 198.471 73.3464C198.471 72.5553 198.188 71.9224 197.639 71.419L197.608 71.4477Z" fill="#DBDCDC"/>
<path d="M207.243 72.0826C207.243 72.0826 206.506 71.9531 206.051 71.9531C203.571 71.9531 201.17 73.5066 200.166 76.3977H202.394C203.069 74.2977 205.235 72.4278 207.243 72.0826Z" fill="#DBDCDC"/>
<path d="M206.836 66.0244H204.466L201.908 71.9361H202.803C203.493 71.9361 204.121 71.5334 204.356 70.9436L205.581 67.8511L207.213 71.9361L207.825 73.5183L208.876 76.1937H211.246L206.836 66.0388V66.0244Z" fill="#DBDCDC"/>
<path d="M221.839 73.7508C220.788 74.2542 219.705 74.5131 218.607 74.5131C217.508 74.5131 216.535 74.2111 215.844 73.607C215.17 72.9884 214.824 72.1686 214.824 71.1185C214.824 70.0685 215.17 69.2487 215.86 68.6302C216.551 68.0117 217.445 67.6952 218.544 67.6952C219.517 67.6952 220.537 67.9398 221.604 68.4144V66.5014C221.243 66.3431 220.819 66.1993 220.364 66.0842C219.737 65.9404 219.124 65.8685 218.512 65.8685C216.739 65.8541 215.295 66.3431 214.165 67.3644C213.035 68.3856 212.486 69.637 212.517 71.1473C212.517 72.7008 213.051 73.9666 214.165 74.9159C215.279 75.8652 216.692 76.3399 218.403 76.3255C219.705 76.3255 220.851 76.081 221.824 75.6207V73.7508H221.839Z" fill="#DBDCDC"/>
<path opacity="0.6" d="M205.235 183.627C259.802 183.627 311.67 194.257 358.5 213.358C313.13 190.186 260.869 176.953 205.235 176.953C149.6 176.953 97.34 190.172 51.9692 213.358C98.7995 194.257 150.667 183.627 205.235 183.627Z" fill="#E5E5E6"/>
<g opacity="0.5">
<path d="M205.739 130.478L206.555 149.277C206.775 150.874 208.156 152.139 209.898 152.341L216.285 153.089L209.898 153.837C208.156 154.038 206.775 155.304 206.555 156.901L205.739 162.755L204.923 156.901C204.703 155.304 203.322 154.038 201.58 153.837L195.193 153.089L201.58 152.341C203.322 152.139 204.703 150.874 204.923 149.277L205.739 130.478Z" fill="#E5E5E6"/>
<path d="M202.365 147.811L206.022 152.14L211.499 149.983L206.775 153.334L209.129 158.368L205.473 154.039L199.996 156.196L204.719 152.845L202.365 147.811Z" fill="#E5E5E6"/>
<path d="M201.393 150.802L205.536 152.384L208.235 149.09L206.524 152.902L210.103 155.376L205.959 153.793L203.244 157.087L204.971 153.276L201.393 150.802Z" fill="#E5E5E6"/>
</g>
</g>
<defs>
<filter id="filter0_bdd_2301_4752" x="0.588935" y="0.588935" width="414.479" height="255.383" filterUnits="userSpaceOnUse" color-interpolation-filters="sRGB">
<feFlood flood-opacity="0" result="BackgroundImageFix"/>
<feGaussianBlur in="BackgroundImageFix" stdDeviation="2.75198"/>
<feComposite in2="SourceAlpha" operator="in" result="effect1_backgroundBlur_2301_4752"/>
<feColorMatrix in="SourceAlpha" type="matrix" values="0 0 0 0 0 0 0 0 0 0 0 0 0 0 0 0 0 0 127 0" result="hardAlpha"/>
<feOffset dx="3.30237" dy="4.40316"/>
<feGaussianBlur stdDeviation="7.70553"/>
<feComposite in2="hardAlpha" operator="out"/>
<feColorMatrix type="matrix" values="0 0 0 0 0 0 0 0 0 0 0 0 0 0 0 0 0 0 0.25 0"/>
<feBlend mode="normal" in2="effect1_backgroundBlur_2301_4752" result="effect2_dropShadow_2301_4752"/>
<feColorMatrix in="SourceAlpha" type="matrix" values="0 0 0 0 0 0 0 0 0 0 0 0 0 0 0 0 0 0 127 0" result="hardAlpha"/>
<feOffset/>
<feGaussianBlur stdDeviation="7.70553"/>
<feComposite in2="hardAlpha" operator="out"/>
<feColorMatrix type="matrix" values="0 0 0 0 0 0 0 0 0 0 0 0 0 0 0 0 0 0 0.05 0"/>
<feBlend mode="normal" in2="effect2_dropShadow_2301_4752" result="effect3_dropShadow_2301_4752"/>
<feBlend mode="normal" in="SourceGraphic" in2="effect3_dropShadow_2301_4752" result="shape"/>
</filter>
<linearGradient id="paint0_linear_2301_4752" x1="87.0607" y1="16" x2="285.65" y2="263.31" gradientUnits="userSpaceOnUse">
<stop stop-color="white"/>
<stop offset="0.473958" stop-color="white"/>
<stop offset="1" stop-color="#F7F7F7"/>
</linearGradient>
<linearGradient id="paint1_linear_2301_4752" x1="130.155" y1="16" x2="259.221" y2="246.187" gradientUnits="userSpaceOnUse">
<stop stop-color="#F1F1F1"/>
<stop offset="0.0001" stop-color="#E0E0E0"/>
<stop offset="0.0260417" stop-color="#F1F1F1"/>
<stop offset="0.59375" stop-color="#949494"/>
<stop offset="1" stop-color="#C8C8C8"/>
</linearGradient>
<linearGradient id="paint2_linear_2301_4752" x1="59.3877" y1="16" x2="325.645" y2="266.554" gradientUnits="userSpaceOnUse">
<stop stop-color="white"/>
<stop offset="0.598958" stop-color="white" stop-opacity="0"/>
<stop offset="1" stop-color="white"/>
</linearGradient>
</defs>
</svg>
