<svg width="193" height="39" viewBox="0 0 193 39" fill="none" xmlns="http://www.w3.org/2000/svg">
<g clip-path="url(#clip0_277_4131)">
<path d="M21.9684 7.60118C24.1133 7.60118 25.852 5.8996 25.852 3.80059C25.852 1.70158 24.1133 0 21.9684 0C19.8235 0 18.0847 1.70158 18.0847 3.80059C18.0847 5.8996 19.8235 7.60118 21.9684 7.60118Z" fill="#FFD600"/>
<path d="M12.6746 0C5.87254 0 0.361328 5.39333 0.361328 12.0499C0.361328 13.2691 0.546532 14.4444 0.888878 15.5539C2.42102 10.6054 7.11845 7.59569 12.6746 7.59569V0Z" fill="white"/>
<path d="M12.6746 31.4207C5.87254 31.4207 0.361328 26.0274 0.361328 19.3709C0.361328 18.1516 0.546532 16.5864 0.888878 15.4824C2.42102 20.4309 7.11845 23.144 12.6746 23.144V31.4262V31.4207Z" fill="#FFD600"/>
<path d="M12.6746 38.9999C19.4766 38.9999 24.9878 33.6066 24.9878 26.9501C24.9878 25.7308 24.8026 24.5555 24.4602 23.446C22.9281 28.3945 18.2307 31.4042 12.6746 31.4042V38.9999Z" fill="#FFD600"/>
<path d="M12.6746 7.57922C19.4766 7.57922 24.9878 12.9725 24.9878 19.6291C24.9878 20.8483 24.8026 22.4136 24.4602 23.5175C22.9281 18.5691 18.2307 15.8559 12.6746 15.8559V7.57373V7.57922Z" fill="white"/>
<path d="M126.266 32.3106C122.787 32.3106 120.087 31.366 118.162 29.4821C116.237 27.5983 115.277 24.9346 115.277 21.4855V7.39258H120.3V21.1066C120.3 25.6651 122.304 27.9443 126.305 27.9443C130.307 27.9443 132.344 25.6651 132.344 21.1066V7.39258H137.367V21.491C137.367 24.9401 136.402 27.6038 134.477 29.4876C132.552 31.3715 129.819 32.3161 126.272 32.3161L126.266 32.3106Z" fill="white"/>
<path d="M144.809 31.7998V7.39258H152.913C155.781 7.39258 158.031 8.08459 159.676 9.46313C161.314 10.8417 162.139 12.742 162.139 15.164C162.139 16.5975 161.78 17.8881 161.056 19.036C160.332 20.1839 159.305 21.1066 157.97 21.8151L164.631 31.7998H158.985L153.637 23.0343C152.632 23.0783 152.082 23.1002 151.998 23.1002H149.602V31.8053H144.809V31.7998ZM149.602 11.3415V19.1459H152.065C155.5 19.1459 157.217 17.8277 157.217 15.197C157.217 12.5662 155.556 11.3415 152.228 11.3415H149.602Z" fill="white"/>
<path d="M170.075 31.7998V7.39258H174.537L187.597 24.347V7.39258H192.356V31.7998H187.894L174.834 14.9059V31.7998H170.075Z" fill="white"/>
<path d="M53.7392 20.4309C52.4933 19.2336 50.3831 18.1736 47.403 17.251C45.652 16.7182 44.479 16.2239 43.8729 15.7736C43.2724 15.3232 42.9693 14.6696 42.9693 13.8128C42.9693 11.9071 44.378 10.9569 47.2009 10.9569C49.4739 10.9569 51.6739 11.5556 53.7953 12.7529V8.34813C51.8086 7.3815 49.5693 6.87622 47.0326 6.87622C44.2994 6.87622 42.1275 7.51881 40.5168 8.80398C38.9061 10.0891 38.1035 11.7698 38.1035 13.8458C38.1035 15.7296 38.6816 17.2619 39.8433 18.4373C40.9826 19.5961 42.9188 20.5902 45.652 21.425C47.577 22.0237 48.879 22.5839 49.5581 23.0946C50.2596 23.6109 50.6076 24.281 50.6076 25.1158C50.6076 26.0989 50.1979 26.8678 49.3785 27.4115C48.5591 27.9552 47.3918 28.2298 45.8821 28.2298C44.5913 28.2298 43.2443 28.0376 41.8469 27.6532C40.4438 27.2687 39.2204 26.7469 38.1709 26.0824V30.586C38.9846 31.0528 40.0453 31.4483 41.3867 31.7668C43.003 32.1293 44.5688 32.3105 46.0785 32.3105C49.0305 32.3105 51.354 31.6625 53.0545 30.3663C54.7494 29.0701 55.5968 27.3017 55.5968 25.0499C55.5968 23.166 54.9739 21.6227 53.728 20.4254L53.7392 20.4309Z" fill="white"/>
<path d="M74.4821 7.39258H69.1673L63.4036 21.5899H65.4127C66.9786 21.5899 68.3704 20.6342 68.9035 19.1953L71.6592 11.7644L75.3352 21.5899L76.7158 25.3795L79.0785 31.7998H84.3933L74.4821 7.39258Z" fill="white"/>
<path d="M108.245 25.9562C105.86 27.1754 103.435 27.7851 100.966 27.7851C98.4967 27.7851 96.3191 27.0601 94.7646 25.6047C93.2324 24.1273 92.4691 22.1336 92.4691 19.6292C92.4691 17.1247 93.2492 15.153 94.8151 13.6537C96.3809 12.1543 98.3957 11.4074 100.871 11.4074C103.059 11.4074 105.355 11.984 107.757 13.1429V8.56241C106.932 8.16698 106 7.83745 104.956 7.57382C103.548 7.22232 102.161 7.04657 100.803 7.04657C96.8186 7.00263 93.5579 8.20542 91.01 10.644C88.462 13.0825 87.2217 16.1142 87.2834 19.7335C87.261 23.4792 88.4957 26.4999 90.9931 28.7901C93.485 31.0804 96.6727 32.2063 100.545 32.1623C103.486 32.1623 106.045 31.5747 108.251 30.4543V25.9671L108.245 25.9562Z" fill="white"/>
<path d="M75.4248 21.9467C75.4248 21.9467 73.758 21.6501 72.731 21.6501C67.1356 21.6501 61.7366 25.3738 59.4973 32.316H64.5203C66.0468 27.2577 70.9126 22.7706 75.4248 21.9467Z" fill="#FFD600"/>
</g>
<defs>
<clipPath id="clip0_277_4131">
<rect width="192" height="39" fill="white" transform="translate(0.361328)"/>
</clipPath>
</defs>
</svg>
