<svg width="189" height="190" viewBox="0 0 189 190" fill="none" xmlns="http://www.w3.org/2000/svg">
<g clip-path="url(#clip0_277_13258)">
<path d="M188.362 44.0513C188.056 44.3505 187.757 44.657 187.443 44.9488C185.75 46.5369 183.5 46.5074 182.073 44.886C180.763 43.3939 180.892 41.1336 182.368 39.7559C183.965 38.2601 186.174 38.4448 187.716 40.2065C187.956 40.4835 188.144 40.8011 188.358 41.104V44.0513H188.362Z" fill="#005487"/>
<path d="M108.224 8.49898C107.468 28.8309 101.426 47.4343 90.0547 64.3019C88.583 66.4846 88.5683 66.4994 90.5158 68.1946C101.504 77.7604 111.806 88.0058 121.326 99.0415C122.2 100.054 122.934 100.22 124.148 99.6657C130.831 96.6187 137.825 94.6095 145.095 93.5717C147.573 93.2171 149.455 94.3658 149.838 96.5079C150.237 98.7461 148.857 100.519 146.249 100.925C140.285 101.852 134.494 103.366 128.899 105.656C127.644 106.17 127.464 106.591 128.297 107.717C131.587 112.164 134.638 116.766 136.755 121.922C138.05 125.076 138.917 128.297 138.802 131.757C138.673 135.694 138.076 136.655 134.453 138.091C99.7297 151.857 65.006 165.618 30.2823 179.379C22.6434 182.408 15.0045 185.448 7.36188 188.469C5.35164 189.263 3.28607 190.238 1.39017 188.288C-0.443021 186.397 0.582387 184.417 1.35329 182.467C16.9078 143.196 32.4549 103.924 48.0093 64.6527C49.3188 61.3435 50.7647 58.0786 51.9044 54.7102C52.7712 52.1507 54.5011 51.1757 56.9872 50.9762C61.347 50.6254 65.3638 51.8109 69.2552 53.6207C73.5007 55.5929 77.4769 58.0269 81.1986 60.8523C82.3752 61.7461 82.9765 61.6168 83.7953 60.4017C93.0867 46.5812 98.6748 31.4347 100.353 14.8368C100.626 12.1406 100.652 9.44448 100.763 6.74833C100.799 5.89147 100.829 5.01984 101.021 4.18884C101.452 2.28676 103.108 1.07534 104.908 1.23416C106.727 1.39297 108.114 2.85554 108.213 4.81671C108.276 6.0429 108.224 7.27279 108.224 8.50268V8.49898ZM56.0687 64.5419C54.5048 68.479 53.2175 72.1281 51.6093 75.6294C50.6097 77.8048 50.4733 79.5037 52.5093 81.0771C53.1253 81.5498 53.5421 82.2848 54.0401 82.909C57.5589 87.2708 60.554 91.9799 63.1249 96.9548C63.8773 98.41 64.0322 99.891 63.0068 101.302C62.081 102.572 60.7864 103.012 59.2741 102.716C57.7286 102.414 56.9429 101.235 56.2864 99.9464C54.1101 95.6621 51.495 91.6659 48.5552 87.8691C47.7032 86.7685 47.2938 86.5728 46.7331 88.0723C45.4421 91.5219 44.1216 94.9641 42.6315 98.3287C41.9011 99.976 42.2073 101.062 43.3028 102.439C55.3679 117.578 59.8753 134.738 56.7179 153.869C56.3048 156.362 55.6778 158.818 55.1024 161.515C57.1974 160.698 59.0085 159.956 60.8491 159.288C61.8855 158.915 62.6122 158.276 63.1986 157.349C76.5253 136.215 78.8343 113.893 70.6199 90.3437C67.3519 80.9773 60.8601 73.502 56.0687 64.5456V64.5419ZM114.344 113.161C112.695 113.132 111.481 112.485 110.854 111.06C110.212 109.593 110.334 108.124 111.559 106.993C112.407 106.21 113.362 105.498 114.377 104.951C115.738 104.22 115.557 103.529 114.657 102.569C112.308 100.065 110.017 97.5051 107.675 94.9936C100.6 87.4038 93.1162 80.2387 85.256 73.4688C84.6068 72.9111 84.1052 72.5676 83.1941 73.1955C81.383 74.4438 79.7748 74.4069 78.4839 73.2509C77.0232 71.9434 76.6691 70.3627 77.6208 68.612C78.0044 67.9029 77.8199 67.5262 77.2224 67.094C73.1429 64.132 68.9306 61.3989 64.2241 59.53C63.5749 59.2715 62.7339 58.603 62.1954 59.1533C61.6089 59.7516 62.4167 60.494 62.7302 61.096C65.0023 65.4579 67.6138 69.6092 70.513 73.5796C80.0404 86.6245 91.2867 98.085 103.267 108.833C111.09 115.85 119.408 122.225 128.762 127.129C129.323 127.425 129.994 128.141 130.566 127.658C131.16 127.155 130.533 126.387 130.308 125.8C128.301 120.526 125.121 115.946 121.846 111.411C120.846 110.026 120.116 109.974 118.774 110.875C117.379 111.809 116.099 113.095 114.344 113.161ZM33.9008 169.548C34.7196 169.828 35.236 169.393 35.7782 169.186C38.5262 168.133 41.2372 166.984 43.9999 165.976C45.2061 165.537 45.8884 164.794 46.3311 163.609C48.1753 158.637 49.4884 153.563 49.9716 148.255C51.2405 134.232 47.8507 121.482 39.7803 109.966C39.5073 109.579 39.3192 108.966 38.7622 109.006C38.1721 109.051 38.1684 109.719 37.9987 110.147C34.9372 117.844 31.9126 125.56 28.8254 133.246C28.3016 134.549 28.3385 135.609 29.0651 136.873C32.9602 143.661 34.9667 150.97 34.9999 158.833C35.0147 162.456 34.6938 166.028 33.9044 169.548H33.9008ZM80.9921 97.5938C81.8146 102.631 82.5375 107.599 82.7552 112.618C83.3564 126.498 80.7375 139.731 74.622 152.237C74.4191 152.651 73.9212 153.123 74.3085 153.559C74.7179 154.017 75.2269 153.526 75.6511 153.36C80.7892 151.343 85.9052 149.279 91.0543 147.292C92.2162 146.845 92.9982 146.161 93.592 145.076C98.0551 136.895 100.77 128.156 102.053 118.945C102.194 117.952 101.781 117.361 101.076 116.747C97.465 113.608 93.8576 110.458 90.4752 107.067C87.3179 103.902 84.1531 100.744 80.9921 97.5864V97.5938ZM24.5614 144.606C24.3032 144.994 24.1336 145.168 24.0524 145.375C19.8032 156.089 15.5651 166.807 11.3233 177.529C11.1942 177.861 10.925 178.231 11.2422 178.548C11.6332 178.94 12.0647 178.589 12.4336 178.445C16.0815 177.012 19.7037 175.505 23.3737 174.131C24.5393 173.695 25.1 172.975 25.5057 171.856C27.5086 166.309 27.8516 160.58 27.302 154.796C26.9737 151.343 26.1696 147.96 24.5577 144.61L24.5614 144.606ZM103.208 142.464C110.703 139.495 117.818 136.673 125.295 133.711C119.618 130.683 114.62 127.384 109.825 123.776C108.685 122.915 108.77 124.094 108.678 124.588C108.162 127.366 107.479 130.095 106.697 132.806C105.783 135.968 104.573 139.022 103.208 142.464Z" fill="#005487"/>
<path d="M82.0877 25.9798C82.0582 32.24 76.85 37.4439 70.5869 37.4661C64.3053 37.4882 59.0234 32.1661 59.0381 25.8283C59.0529 19.4573 64.368 14.1499 70.6459 14.2349C77.0196 14.3235 82.1172 19.5607 82.0877 25.9835V25.9798ZM74.5852 25.8468C74.5852 23.5163 72.8369 21.7213 70.5647 21.7213C68.2889 21.7213 66.5406 23.5126 66.5442 25.8431C66.5442 28.1995 68.2557 29.9427 70.5647 29.939C72.8885 29.939 74.5852 28.2105 74.5852 25.8431V25.8468Z" fill="#005487"/>
<path d="M166.426 64.9449C172.822 64.9264 178.081 70.0934 178.111 76.4238C178.137 82.721 172.844 88.0099 166.503 88.0173C160.166 88.0246 154.818 82.6804 154.895 76.4164C154.973 70.1193 160.155 64.967 166.429 64.9486L166.426 64.9449ZM170.594 76.3943C170.553 74.0712 168.816 72.4276 166.422 72.4535C164.109 72.4793 162.324 74.2854 162.379 76.5494C162.431 78.8356 164.235 80.5308 166.581 80.4939C168.93 80.4607 170.638 78.7137 170.594 76.3906V76.3943Z" fill="#005487"/>
<path d="M141.985 23.4833C135.715 23.4538 130.444 18.0726 130.499 11.7495C130.555 5.44128 135.818 0.392467 142.295 0.429401C148.64 0.466334 153.759 5.73306 153.697 12.1521C153.634 18.3126 148.26 23.5129 141.985 23.4833ZM141.978 15.9563C144.346 15.9858 146.15 14.3423 146.235 12.0672C146.32 9.83637 144.324 7.74224 142.118 7.74593C139.85 7.74593 138.039 9.54829 138.017 11.8234C137.995 14.1798 139.669 15.9267 141.978 15.9563Z" fill="#005487"/>
<path d="M136.696 54.1525C136.7 51.9845 137.607 50.9836 138.843 50.16C148.156 43.9625 158.303 39.8703 169.343 38.0384C170.247 37.887 171.158 37.7244 172.073 37.6949C174.171 37.6247 175.853 39.0319 176.067 40.9487C176.274 42.8176 175.086 44.4648 173.039 44.9486C171.494 45.3106 169.904 45.4805 168.344 45.7944C159.281 47.6042 150.912 51.0907 143.206 56.1949C141.89 57.0665 140.547 57.7941 138.928 57.0665C137.441 56.398 136.703 55.2125 136.692 54.1562L136.696 54.1525Z" fill="#005487"/>
<path d="M129.183 65.1997C129.146 66.9135 127.943 68.3871 126.243 68.738C125.767 68.834 125.269 68.8266 124.779 68.8377C123.092 68.8697 122.237 69.7007 122.215 71.3307C122.175 74.0712 120.839 75.7517 118.652 75.8071C116.502 75.8625 114.971 74.1857 114.761 71.5449C114.623 69.7992 113.693 68.8956 111.972 68.834C109.556 68.7454 107.959 67.3234 107.907 65.2182C107.859 63.0982 109.383 61.5655 111.758 61.3587C112.064 61.3328 112.374 61.3106 112.677 61.3402C114.145 61.4953 114.86 60.9376 114.761 59.3716C114.713 58.6514 114.838 57.8943 115.026 57.1926C115.498 55.453 117.25 54.2416 118.892 54.4299C120.588 54.622 122.016 56.1104 122.193 57.8758C122.211 58.0605 122.208 58.2452 122.215 58.4261C122.279 60.2556 123.249 61.2282 125.125 61.3439C127.626 61.499 129.231 63.0244 129.183 65.2034V65.1997Z" fill="#005487"/>
<path d="M20.7291 28.3734C20.766 26.4233 22.1602 24.9902 24.2148 24.7982C27.1766 24.5175 27.2061 24.5212 27.5897 21.5037C27.8221 19.6681 28.7074 18.3754 30.5147 17.9138C32.1119 17.5075 33.3955 18.1428 34.3545 19.4465C35.1033 20.4659 35.059 21.6625 34.9594 22.8149C34.8303 24.3624 35.461 24.9459 36.9623 24.7871C37.5672 24.7243 38.1942 24.7502 38.7955 24.8388C40.5364 25.0936 41.8163 26.4676 41.9307 28.1813C42.0524 30.0058 41.1782 31.2616 39.5258 31.8968C38.8028 32.1738 37.9545 32.3179 37.1873 32.244C35.3504 32.0704 34.786 32.8866 34.9631 34.5967C35.0922 35.845 34.9188 37.0564 33.9377 37.9945C32.8828 39.0065 31.6619 39.4202 30.2344 38.9585C28.7516 38.4784 27.9918 37.4036 27.634 35.9041C27.3611 34.7702 28.0471 33.3631 27.1877 32.5542C26.4057 31.8156 25.0631 32.4139 23.9824 32.1997C21.9205 31.7897 20.6885 30.3641 20.7254 28.3734H20.7291Z" fill="#005487"/>
<path d="M156.854 150.472C158.599 150.453 160.063 151.565 160.476 153.286C160.631 153.936 160.764 154.634 160.705 155.292C160.553 156.998 161.258 157.692 162.936 157.46C163.239 157.419 163.549 157.445 163.855 157.46C165.961 157.563 167.41 158.896 167.528 160.828C167.65 162.811 166.433 164.27 164.401 164.758C163.268 165.031 161.87 164.425 161.04 165.234C160.258 165.999 160.852 167.351 160.624 168.433C160.174 170.553 158.635 171.849 156.614 171.709C154.641 171.572 153.339 170.061 153.261 167.82C153.169 165.146 153.173 165.116 150.491 164.872C148.949 164.732 147.599 164.333 146.766 162.896C145.39 160.522 147.035 157.633 149.86 157.46C152 157.329 153.136 156.224 153.269 154.143C153.409 151.953 154.833 150.494 156.854 150.472Z" fill="#005487"/>
<path d="M52.4952 9.29686C52.4657 11.2469 50.5735 13.0752 48.6665 13.0013C46.7522 12.9274 45.0887 11.1952 45.085 9.26362C45.0776 7.22119 46.8297 5.54071 48.8731 5.62197C50.8612 5.69953 52.5247 7.38739 52.4952 9.29316V9.29686Z" fill="#005487"/>
<path d="M125.741 33.6434C125.793 35.5159 124.089 37.3441 122.2 37.4328C120.22 37.5288 118.394 35.8003 118.349 33.7911C118.305 31.7967 120.061 29.998 122.049 29.998C123.926 29.998 125.686 31.7339 125.738 33.6397L125.741 33.6434Z" fill="#005487"/>
<path d="M160.24 115.957C158.377 115.865 156.636 114.011 156.681 112.168C156.725 110.225 158.654 108.423 160.568 108.526C162.567 108.637 164.26 110.532 164.105 112.482C163.954 114.365 162.084 116.05 160.244 115.957H160.24Z" fill="#005487"/>
<path d="M172.405 143.868C170.539 143.75 168.827 141.877 168.905 140.042C168.993 138.007 170.768 136.4 172.818 136.493C174.788 136.581 176.363 138.295 176.286 140.263C176.208 142.269 174.353 143.99 172.402 143.868H172.405Z" fill="#005487"/>
<path d="M60.8271 111.363C60.8271 109.353 62.4206 107.743 64.4271 107.721C66.5075 107.699 68.1415 109.376 68.0972 111.481C68.0566 113.416 66.3046 115.111 64.3939 115.067C62.4169 115.023 60.8271 113.368 60.8271 111.363Z" fill="#005487"/>
</g>
<defs>
<clipPath id="clip0_277_13258">
<rect width="188" height="189" fill="white" transform="translate(0.361328 0.429199)"/>
</clipPath>
</defs>
</svg>
