<svg width="55" height="55" viewBox="0 0 55 55" fill="none" xmlns="http://www.w3.org/2000/svg">
<g id="Group 1720">
<path id="Vector" d="M25.5612 0.920654H29.1465C30.3166 1.13047 31.5017 1.20541 32.6867 1.43022C43.4725 3.52841 52.1581 12.4307 53.9432 23.2364C54.0932 24.1806 54.2132 25.1398 54.3482 26.0989V29.6809C54.2132 30.64 54.0932 31.5842 53.9432 32.5434C52.1581 43.3641 43.4275 52.2814 32.6417 54.3496C31.4567 54.5744 30.2416 54.6643 29.0565 54.8592H25.6812C25.5312 54.8292 25.3812 54.7842 25.2162 54.7692C23.9711 54.6793 22.7411 54.4845 21.526 54.2147C10.9952 51.9666 2.54966 43.1542 0.794539 32.5884C0.629527 31.6292 0.524522 30.655 0.374512 29.6809C0.374512 28.4819 0.374512 27.2979 0.374512 26.0989C0.584526 24.9449 0.659526 23.7759 0.884541 22.6219C2.89468 12.071 11.5803 3.40851 22.141 1.43022C23.2811 1.2204 24.4362 1.13047 25.5762 0.935641L25.5612 0.920654ZM27.3914 4.78732C14.6405 4.74236 4.28978 15.0385 4.22978 27.7925C4.16977 40.5765 14.4905 50.9475 27.3164 50.9925C40.0822 51.0374 50.448 40.7113 50.478 27.9274C50.508 15.1584 40.2022 4.81729 27.3914 4.78732Z" fill="#F9F7F1"/>
<path id="Vector_2" d="M17.806 16.4174C18.406 16.4474 18.8711 16.7022 19.2911 17.1218C21.8413 19.6846 24.4064 22.2324 26.9566 24.7952C27.2566 25.0949 27.3917 25.0799 27.6767 24.7952C30.2568 22.1874 32.867 19.5947 35.4622 17.0019C35.9722 16.4774 36.5723 16.1926 37.3073 16.3275C38.0574 16.4624 38.5824 16.912 38.8224 17.6464C39.0625 18.3957 38.8824 19.0701 38.3274 19.6247C36.9323 21.0334 35.5222 22.4272 34.1271 23.836C32.927 25.035 31.7269 26.2639 30.4969 27.4329C30.1518 27.7626 30.0918 27.9425 30.4819 28.3172C33.047 30.835 35.5822 33.3978 38.1324 35.9306C38.7174 36.5151 38.9574 37.2045 38.7024 37.9988C38.4624 38.7482 37.9074 39.1978 37.1423 39.3177C36.4373 39.4226 35.8822 39.1378 35.4022 38.6582C33.2121 36.4551 31.0069 34.267 28.8018 32.0639C28.4717 31.7342 28.0967 31.4195 27.7967 31.0598C27.4817 30.6851 27.2866 30.6551 26.9116 31.0448C24.3914 33.5926 21.8563 36.1104 19.3211 38.6582C18.9761 39.0029 18.616 39.2877 18.121 39.3776C17.281 39.5275 16.4709 39.1528 16.0509 38.4334C15.6308 37.6991 15.7209 36.7849 16.3359 36.1404C17.281 35.1663 18.241 34.2221 19.2011 33.2629C20.8962 31.5694 22.5763 29.8758 24.2714 28.2122C24.5415 27.9575 24.5265 27.8076 24.2714 27.5528C21.6913 24.99 19.1261 22.4272 16.5459 19.8495C15.8709 19.175 15.6758 18.3807 16.0059 17.6014C16.3059 16.897 17.0409 16.4174 17.806 16.4324V16.4174Z" fill="#F9F7F1"/>
</g>
</svg>
