<svg width="76" height="55" viewBox="0 0 76 55" fill="none" xmlns="http://www.w3.org/2000/svg">
<g id="Group 1718">
<path id="Vector" d="M34.1478 17.2078C45.0759 17.2078 56.0265 17.2078 66.9546 17.2078C67.1795 17.2078 67.4044 17.2078 67.6292 17.2078C67.8991 17.2078 68.0115 17.2976 68.0115 17.5897C68.0115 19.0499 68.0115 20.4876 68.0115 21.9479C68.0115 22.8015 68.0115 23.6552 68.0115 24.4864C68.0115 24.8009 67.9665 24.8459 67.6742 24.7111C66.0327 23.9922 64.3238 23.5878 62.5249 23.453C58.9946 23.1834 55.6667 23.8799 52.6087 25.6995C48.831 27.946 46.2901 31.181 45.0084 35.4044C44.4688 37.1566 44.2889 38.9538 44.3339 40.7735C44.3788 42.4134 44.6487 44.0084 45.1883 45.5585C45.1883 45.6259 45.2333 45.6933 45.2558 45.7383C45.3457 45.9404 45.3008 46.0752 45.0534 46.0303C45.0084 46.0303 44.986 46.0303 44.941 46.0303C31.3145 46.0303 17.6881 46.0303 4.06167 46.0303C2.35274 46.0303 0.778731 44.7947 0.396471 43.1323C0.329013 42.8178 0.306528 42.4808 0.306528 42.1439C0.306528 34.0789 0.306528 26.014 0.306528 17.9266C0.306528 17.7919 0.306528 17.6571 0.306528 17.5223C0.23907 17.2527 0.396471 17.1853 0.62133 17.1853C0.958618 17.1853 1.27342 17.1853 1.61071 17.1853C12.4714 17.1853 23.3096 17.1853 34.1702 17.1853L34.1478 17.2078ZM20.3414 38.4821C22.7249 38.4821 25.1084 38.4821 27.5144 38.4821C29.1784 38.4821 30.8423 38.4821 32.5063 38.4821C32.7761 38.4821 32.8886 38.4147 32.8886 38.1226C32.8661 37.561 32.8886 36.9994 32.8886 36.4602C32.8886 36.1757 32.7461 36.0334 32.4613 36.0334C25.1534 36.0334 17.8455 36.0334 10.5601 36.0334C9.77308 36.0334 8.98607 36.0334 8.22155 36.0334C7.99669 36.0334 7.92924 36.1008 7.92924 36.3254C7.92924 36.9095 7.92924 37.4711 7.92924 38.0552C7.92924 38.4821 7.92924 38.5045 8.35647 38.5045C12.3814 38.5045 16.4064 38.5045 20.4089 38.5045L20.3414 38.4821ZM15.3271 30.9563C15.3271 30.9563 15.5295 30.9563 15.6419 30.9563C17.913 30.9563 20.184 30.9563 22.4551 30.9563C22.7474 30.9563 22.8374 30.8665 22.8149 30.5969C22.8149 30.0802 22.8149 29.586 22.8149 29.0693C22.8149 28.7098 22.6425 28.5301 22.2977 28.5301C19.1947 28.5301 16.0691 28.5301 12.9661 28.5301C11.4145 28.5301 9.86302 28.5301 8.33398 28.5301C7.86178 28.5301 7.86178 28.5301 7.86178 28.9794C7.86178 29.541 7.86178 30.1026 7.86178 30.6418C7.86178 30.8889 7.92924 30.9338 8.1541 30.9338C10.5601 30.9338 12.9436 30.9338 15.3496 30.9338L15.3271 30.9563Z" fill="#F9F7F1"/>
<path id="Vector_2" d="M34.1704 9.77184C23.2422 9.77184 12.2916 9.77184 1.36348 9.77184C1.07116 9.77184 0.80133 9.77184 0.509013 9.74938C0.351612 9.74938 0.306641 9.68198 0.306641 9.52473C0.306641 7.90725 0.306641 6.28978 0.306641 4.64984C0.306641 2.80771 1.72325 1.2127 3.56709 0.965585C3.83692 0.920655 4.10675 0.920654 4.37658 0.920654C24.1192 0.920654 43.8618 0.920654 63.6044 0.920654C64.4138 0.920654 65.2233 0.965582 65.9654 1.39242C67.2695 2.15622 67.9666 3.30194 67.9891 4.78462C68.0341 6.33471 67.9891 7.88479 67.9891 9.45733C67.9891 9.70445 67.8992 9.77184 67.6743 9.77184C67.2695 9.77184 66.8423 9.77184 66.4376 9.77184C55.6893 9.77184 44.9186 9.77184 34.1704 9.77184Z" fill="#F9F7F1"/>
<path id="Vector_3" d="M47.5269 40.8409C47.5269 33.1804 53.9354 26.8902 61.5806 26.9576C69.2483 27.0025 75.4319 33.3825 75.4319 40.9308C75.4319 48.2993 69.3607 54.8815 61.4457 54.859C53.6656 54.859 47.4595 48.4341 47.5269 40.8409ZM55.7343 38.7517C55.7343 38.7517 55.5993 38.8191 55.5319 38.864C54.4076 39.7401 53.2833 40.6387 52.159 41.5149C51.9791 41.6496 52.0016 41.7395 52.159 41.8968C53.0135 42.7055 53.8679 43.5367 54.6999 44.3454C55.9366 45.5361 57.1509 46.7267 58.3876 47.9174C58.6574 48.1645 58.6574 48.1645 58.9048 47.8724C59.1071 47.6253 59.3095 47.3557 59.5119 47.0862C61.0634 45.1991 62.7049 43.3794 64.3688 41.6047C66.46 39.3582 68.5737 37.1342 70.8448 35.0674C70.9797 34.9551 70.9347 34.8652 70.8448 34.7529C70.6199 34.4384 70.3726 34.1463 70.1477 33.8318C70.0353 33.6971 69.9453 33.6521 69.7879 33.7644C69.5181 33.9442 69.2483 34.1014 68.9784 34.2811C65.5606 36.5052 62.2776 38.9089 59.1746 41.5598C58.9947 41.717 58.9048 41.717 58.7249 41.5598C57.803 40.6612 56.8585 39.8075 55.9366 38.9089C55.8692 38.8415 55.8242 38.7741 55.7343 38.7741V38.7517Z" fill="#F9F7F1"/>
</g>
</svg>
