<svg width="59" height="55" viewBox="0 0 59 55" fill="none" xmlns="http://www.w3.org/2000/svg">
<g id="Group 1719">
<path id="Vector" d="M10.0613 40.9921C8.25954 43.1487 5.94045 43.2913 3.53216 42.8457C1.9088 42.5427 1.28442 41.7051 1.14171 40.0654C0.784927 35.788 0.410307 31.5105 0.0356845 27.2331C-0.0891897 25.7539 0.392466 24.9162 1.9088 24.2211C2.30126 24.0429 2.51533 23.8468 2.62236 23.3834C4.7809 14.5435 9.5618 7.61047 17.9284 3.70733C28.1324 -1.05129 37.7834 0.356689 46.5067 7.37878C51.6266 11.4958 54.6592 16.9851 56.1042 23.3656C56.1934 23.7755 56.3361 24.0072 56.7464 24.1676C58.3519 24.8805 58.7979 25.6113 58.6909 27.3757C58.4054 31.6888 58.0843 36.0018 57.8167 40.3149C57.7454 41.3664 57.1924 42.1328 56.3004 42.5071C54.1776 43.416 52.0547 43.2734 50.0567 42.0971C49.5215 41.7763 49.1291 41.2951 48.8436 40.6713C45.0439 49.0658 39.1391 54.769 29.5773 54.8581C20.0155 54.9472 13.9859 49.3688 10.0791 41.01L10.0613 40.9921ZM13.6113 41.1347C14.4676 42.9526 15.5201 44.5567 16.8759 46.0003C22.2098 51.7213 30.2731 53.2541 37.052 49.6539C42.0648 46.9984 45.1331 42.7209 46.7208 37.3563C47.809 33.6849 47.8982 29.96 47.1489 26.1994C46.9348 25.1122 46.9349 25.0766 45.9002 25.3083C43.92 25.7539 41.922 25.8786 39.8884 25.7717C38.7288 25.7182 37.6763 25.3618 36.713 24.738C35.5178 23.9716 34.7329 22.8666 33.9479 21.7438C33.6447 21.316 33.502 21.1913 33.1095 21.6903C31.3256 24.0785 28.8638 25.2905 25.9738 25.8073C21.5319 26.6093 17.1434 26.2172 12.7728 25.2905C11.9879 25.1301 11.7739 25.3439 11.6311 26.0568C11.0781 28.9263 10.9711 31.8135 11.4349 34.7008C11.5063 35.0929 11.649 35.378 11.9522 35.6454C14.9849 38.2653 18.41 40.2436 22.1384 41.6872C23.0125 42.0259 23.9223 42.3823 24.7964 41.4555C25.1354 41.0991 25.7419 40.9565 26.2949 40.9209C28.6319 40.7783 30.9688 40.707 33.3057 40.9209C35.0718 41.0813 36.5881 42.4001 36.9628 43.8794C37.5158 46.125 35.8211 48.3885 33.2344 48.6202C31.0223 48.8163 28.7746 48.8341 26.5447 48.638C24.7251 48.4776 23.3693 47.5509 22.7628 45.7329C22.6379 45.3765 22.4417 45.1805 22.0671 45.0557C20.2118 44.4141 18.3922 43.7012 16.6618 42.8101C15.645 42.2932 14.6638 41.6872 13.6648 41.1169L13.6113 41.1347ZM8.68768 24.9697C8.68768 24.9697 8.81255 24.9162 8.81255 24.8984C8.88391 24.6667 8.93743 24.435 9.00878 24.2033C10.2932 19.4447 12.5945 15.3098 16.305 12.0305C22.4595 6.57677 30.6655 5.38265 37.819 8.94717C42.9924 11.5136 46.4175 15.6841 48.6296 20.9418C49.1826 22.2785 49.5394 23.6686 49.9675 25.1301C50.6276 24.4528 51.3054 23.9894 52.1439 23.829C52.7326 23.7221 52.7504 23.4369 52.6077 22.9379C51.7336 19.8011 50.3956 16.8782 48.4333 14.2939C43.9914 8.43031 38.1401 4.95491 30.7547 4.56281C21.96 4.09943 15.0563 7.7887 9.90074 14.8643C8.11683 17.3238 6.9216 20.0685 6.11884 22.9914C6.04748 23.2587 5.7799 23.633 6.35075 23.7399C7.26055 23.9181 8.04547 24.3459 8.68768 24.9697Z" fill="#F9F7F1"/>
</g>
</svg>
