<svg xmlns="http://www.w3.org/2000/svg" width="205" height="135" viewBox="0 0 205 135" fill="none">
  <g filter="url(#filter0_dd_277_4387)">
    <mask id="mask0_277_4387" style="mask-type:luminance" maskUnits="userSpaceOnUse" x="5" y="5" width="194" height="123">
      <path d="M5.28369 119.796V12.3646C5.28369 8.33689 8.00337 5.04297 11.3292 5.04297H192.535C195.861 5.04297 198.581 8.33689 198.581 12.3646V119.796C198.581 123.824 195.861 127.118 192.535 127.118H11.3292C8.00337 127.118 5.28369 123.824 5.28369 119.796Z" fill="white"/>
    </mask>
    <g mask="url(#mask0_277_4387)">
      <path d="M202.194 1.64844H2.10986V130.51H202.194V1.64844Z" fill="#205584"/>
      <path d="M87.6761 30.7619C86.8307 30.7619 86.1448 30.076 86.1448 29.2306C86.1448 28.3852 86.8307 27.6992 87.6761 27.6992C88.5215 27.6992 89.2074 28.3852 89.2074 29.2306C89.2074 30.076 88.5215 30.7619 87.6761 30.7619Z" fill="#B2C2D5"/>
      <path d="M84.0134 27.6992C81.3336 27.6992 79.1562 29.8766 79.1562 32.5564C79.1562 33.0509 79.228 33.5215 79.3636 33.9681C79.9698 31.9742 81.8201 30.7619 84.0134 30.7619V27.6992Z" fill="#B2C2D5"/>
      <path d="M84.0134 40.3639C81.3336 40.3639 79.1562 38.1866 79.1562 35.5068C79.1562 35.0123 79.228 34.3822 79.3636 33.9355C79.9698 35.9294 81.8201 37.0221 84.0134 37.0221V40.3559V40.3639Z" fill="#B2C2D5"/>
      <path d="M84.0127 43.4192C86.6925 43.4192 88.8698 41.2418 88.8698 38.562C88.8698 38.0676 88.7981 37.597 88.6625 37.1504C88.0563 39.1443 86.206 40.3566 84.0127 40.3566V43.4192Z" fill="#B2C2D5"/>
      <path d="M84.0127 30.7539C86.6925 30.7539 88.8698 32.9313 88.8698 35.6111C88.8698 36.1056 88.7981 36.7356 88.6625 37.1822C88.0563 35.1883 86.206 34.0957 84.0127 34.0957V30.7619V30.7539Z" fill="#B2C2D5"/>
      <path d="M113.959 38.5297C113.169 38.5297 112.563 38.3144 112.124 37.8757C111.686 37.4371 111.47 36.8229 111.47 36.0334V32.7793H112.603V35.9456C112.603 36.9984 113.058 37.5248 113.959 37.5248C114.86 37.5248 115.323 36.9984 115.323 35.9456V32.7793H116.455V36.0334C116.455 36.8309 116.24 37.445 115.801 37.8757C115.363 38.3144 114.748 38.5297 113.951 38.5297H113.959Z" fill="#B2C2D5"/>
      <path d="M118.147 38.4101V32.7793H119.981C120.627 32.7793 121.138 32.9388 121.505 33.2579C121.872 33.5769 122.063 34.0155 122.063 34.5738C122.063 34.9088 121.983 35.2039 121.816 35.4671C121.656 35.7303 121.417 35.9456 121.122 36.1052L122.629 38.4101H121.353L120.141 36.3843C119.91 36.3923 119.79 36.4003 119.774 36.4003H119.232V38.4101H118.147ZM119.232 33.6885V35.491H119.79C120.564 35.491 120.954 35.1879 120.954 34.5818C120.954 33.9756 120.58 33.6885 119.83 33.6885H119.24H119.232Z" fill="#B2C2D5"/>
      <path d="M123.86 38.4101V32.7793H124.865L127.816 36.6953V32.7793H128.892V38.4101H127.888L124.937 34.51V38.4101H123.86Z" fill="#B2C2D5"/>
      <path d="M97.5794 35.7848C97.3003 35.5057 96.8217 35.2664 96.1518 35.0511C95.753 34.9314 95.4898 34.8118 95.3542 34.7081C95.2186 34.6044 95.1469 34.4529 95.1469 34.2535C95.1469 33.8148 95.4659 33.5915 96.1039 33.5915C96.6144 33.5915 97.1168 33.7271 97.5954 34.0063V32.9933C97.1487 32.77 96.6383 32.6504 96.072 32.6504C95.4579 32.6504 94.9634 32.8019 94.5965 33.097C94.2297 33.3921 94.0542 33.7829 94.0542 34.2615C94.0542 34.7001 94.1818 35.051 94.445 35.3222C94.7002 35.5854 95.1389 35.8167 95.761 36.0081C96.1996 36.1437 96.4868 36.2713 96.6463 36.391C96.8058 36.5106 96.8855 36.6621 96.8855 36.8615C96.8855 37.0848 96.7898 37.2683 96.6064 37.3879C96.423 37.5155 96.1598 37.5793 95.8168 37.5793C95.5217 37.5793 95.2186 37.5315 94.9076 37.4437C94.5886 37.356 94.3174 37.2364 94.0781 37.0768V38.1137C94.2616 38.2173 94.5008 38.3131 94.8039 38.3849C95.1708 38.4726 95.5217 38.5124 95.8647 38.5124C96.5346 38.5124 97.053 38.3609 97.4438 38.0658C97.8267 37.7707 98.0181 37.356 98.0181 36.8376C98.0181 36.3989 97.8745 36.048 97.5954 35.7688L97.5794 35.7848Z" fill="#B2C2D5"/>
      <path d="M102.477 36.1382C102.477 36.1382 102.102 36.0664 101.871 36.0664C100.611 36.0664 99.3903 36.9278 98.8799 38.5309H100.012C100.355 37.3665 101.456 36.3296 102.477 36.1382Z" fill="#B2C2D5"/>
      <path d="M102.258 32.7793H101.053L99.7534 36.0573H100.208C100.559 36.0573 100.878 35.834 100.998 35.507L101.62 33.7922L102.449 36.0573L102.76 36.9346L103.295 38.4181H104.499L102.258 32.7873V32.7793Z" fill="#B2C2D5"/>
      <path d="M109.886 37.0622C109.351 37.3413 108.801 37.4849 108.243 37.4849C107.684 37.4849 107.19 37.3174 106.839 36.9825C106.496 36.6395 106.321 36.1849 106.321 35.6027C106.321 35.0205 106.496 34.5658 106.847 34.2229C107.198 33.8799 107.652 33.7045 108.211 33.7045C108.705 33.7045 109.224 33.8401 109.766 34.1033V33.0425C109.583 32.9548 109.367 32.875 109.136 32.8112C108.817 32.7315 108.506 32.6916 108.195 32.6916C107.294 32.6836 106.56 32.9548 105.986 33.521C105.411 34.0873 105.132 34.7812 105.148 35.6186C105.148 36.48 105.419 37.1818 105.986 37.7082C106.552 38.2346 107.27 38.4978 108.139 38.4899C108.801 38.4899 109.383 38.3543 109.878 38.0991V37.0622H109.886Z" fill="#B2C2D5"/>
      <path d="M101.707 68.5273L102.122 78.9515C102.233 79.8368 102.935 80.5386 103.82 80.6503L107.066 81.065L103.82 81.4797C102.935 81.5914 102.233 82.2932 102.122 83.1785L101.707 86.4246L101.292 83.1785C101.18 82.2932 100.479 81.5914 99.5932 81.4797L96.3472 81.065L99.5932 80.6503C100.479 80.5386 101.18 79.8368 101.292 78.9515L101.707 68.5273Z" fill="#B2C2D5"/>
      <path d="M99.9853 78.1309L101.844 80.5395L104.635 79.3431L102.234 81.1935L103.431 83.9849L101.572 81.5843L98.781 82.7806L101.182 80.9223L99.9853 78.1309Z" fill="#B2C2D5"/>
      <path d="M99.4912 79.7888L101.605 80.6661L102.977 78.8477L102.099 80.9532L103.926 82.325L101.812 81.4557L100.44 83.2741L101.318 81.1686L99.4912 79.7888Z" fill="#B2C2D5"/>
      <path d="M101.446 97.9878C129.177 97.9878 155.537 103.882 179.336 114.473C156.279 101.625 129.72 94.2871 101.446 94.2871C73.1727 94.2871 46.6139 101.617 23.5564 114.473C47.3556 103.882 73.715 97.9878 101.446 97.9878Z" fill="#B2C2D5"/>
      <path d="M201.969 1.64844H1.88452V130.51H201.969V1.64844Z" stroke="#CB2B1A" stroke-width="0.45461" stroke-miterlimit="22.93"/>
    </g>
  </g>
  <defs>
    <filter id="filter0_dd_277_4387" x="0.846455" y="0.605733" width="203.946" height="133.611" filterUnits="userSpaceOnUse" color-interpolation-filters="sRGB">
      <feFlood flood-opacity="0" result="BackgroundImageFix"/>
      <feColorMatrix in="SourceAlpha" type="matrix" values="0 0 0 0 0 0 0 0 0 0 0 0 0 0 0 0 0 0 127 0" result="hardAlpha"/>
      <feOffset dx="0.887447" dy="0.887447"/>
      <feGaussianBlur stdDeviation="2.66234"/>
      <feComposite in2="hardAlpha" operator="out"/>
      <feColorMatrix type="matrix" values="0 0 0 0 0 0 0 0 0 0 0 0 0 0 0 0 0 0 0.25 0"/>
      <feBlend mode="normal" in2="BackgroundImageFix" result="effect1_dropShadow_277_4387"/>
      <feColorMatrix in="SourceAlpha" type="matrix" values="0 0 0 0 0 0 0 0 0 0 0 0 0 0 0 0 0 0 127 0" result="hardAlpha"/>
      <feOffset dx="1.77489" dy="3.54979"/>
      <feGaussianBlur stdDeviation="1.77489"/>
      <feComposite in2="hardAlpha" operator="out"/>
      <feColorMatrix type="matrix" values="0 0 0 0 0 0 0 0 0 0 0 0 0 0 0 0 0 0 0.39 0"/>
      <feBlend mode="normal" in2="effect1_dropShadow_277_4387" result="effect2_dropShadow_277_4387"/>
      <feBlend mode="normal" in="SourceGraphic" in2="effect2_dropShadow_277_4387" result="shape"/>
    </filter>
  </defs>
</svg>