<svg xmlns="http://www.w3.org/2000/svg" width="204" height="135" viewBox="0 0 204 135" fill="none">
  <g filter="url(#filter0_dd_277_4359)">
    <mask id="mask0_277_4359" style="mask-type:luminance" maskUnits="userSpaceOnUse" x="4" y="5" width="194" height="123">
      <path d="M4.42896 119.796V12.3646C4.42896 8.33691 7.14864 5.04297 10.4745 5.04297H191.68C195.006 5.04297 197.726 8.33691 197.726 12.3646V119.796C197.726 123.824 195.006 127.118 191.68 127.118H10.4745C7.14864 127.118 4.42896 123.824 4.42896 119.796Z" fill="white"/>
    </mask>
    <g mask="url(#mask0_277_4359)">
      <path d="M201.342 1.64844H1.25806V130.51H201.342V1.64844Z" fill="#B3B4B4"/>
      <path d="M86.8157 30.7619C85.9703 30.7619 85.2844 30.0759 85.2844 29.2305C85.2844 28.3851 85.9703 27.6992 86.8157 27.6992C87.6612 27.6992 88.3471 28.3851 88.3471 29.2305C88.3471 30.0759 87.6612 30.7619 86.8157 30.7619Z" fill="#DDDDDD"/>
      <path d="M83.153 27.6992C80.4732 27.6992 78.2959 29.8766 78.2959 32.5564C78.2959 33.0509 78.3677 33.5214 78.5033 33.968C79.1094 31.9741 80.9597 30.7619 83.153 30.7619V27.6992Z" fill="#DDDDDD"/>
      <path d="M83.153 40.3639C80.4732 40.3639 78.2959 38.1865 78.2959 35.5067C78.2959 35.0123 78.3677 34.3822 78.5033 33.9355C79.1094 35.9294 80.9597 37.0221 83.153 37.0221V40.3559V40.3639Z" fill="#DDDDDD"/>
      <path d="M83.1523 43.4192C85.8321 43.4192 88.0095 41.2419 88.0095 38.5621C88.0095 38.0676 87.9377 37.597 87.8021 37.1504C87.196 39.1443 85.3456 40.3566 83.1523 40.3566V43.4192Z" fill="#DDDDDD"/>
      <path d="M83.1523 30.7539C85.8321 30.7539 88.0095 32.9312 88.0095 35.6111C88.0095 36.1055 87.9377 36.7356 87.8021 37.1822C87.196 35.1883 85.3456 34.0957 83.1523 34.0957V30.7619V30.7539Z" fill="#DDDDDD"/>
      <path d="M113.101 38.5297C112.312 38.5297 111.705 38.3144 111.267 37.8757C110.828 37.437 110.613 36.8229 110.613 36.0333V32.7793H111.745V35.9456C111.745 36.9984 112.2 37.5248 113.101 37.5248C114.002 37.5248 114.465 36.9984 114.465 35.9456V32.7793H115.598V36.0333C115.598 36.8309 115.382 37.445 114.944 37.8757C114.505 38.3144 113.891 38.5297 113.093 38.5297H113.101Z" fill="#DDDDDD"/>
      <path d="M117.29 38.4101V32.7793H119.124C119.77 32.7793 120.281 32.9388 120.648 33.2578C121.014 33.5769 121.206 34.0155 121.206 34.5738C121.206 34.9088 121.126 35.2039 120.959 35.4671C120.799 35.7303 120.56 35.9456 120.265 36.1051L121.772 38.4101H120.496L119.284 36.3843C119.052 36.3922 118.933 36.4002 118.917 36.4002H118.374V38.4101H117.29ZM118.374 33.6885V35.491H118.933C119.706 35.491 120.097 35.1879 120.097 34.5818C120.097 33.9756 119.722 33.6885 118.973 33.6885H118.382H118.374Z" fill="#DDDDDD"/>
      <path d="M123.002 38.4101V32.7793H124.007L126.958 36.6953V32.7793H128.035V38.4101H127.03L124.079 34.51V38.4101H123.002Z" fill="#DDDDDD"/>
      <path d="M96.722 35.7848C96.4429 35.5057 95.9643 35.2664 95.2944 35.0511C94.8956 34.9314 94.6324 34.8118 94.4968 34.7081C94.3612 34.6044 94.2894 34.4529 94.2894 34.2535C94.2894 33.8148 94.6085 33.5915 95.2465 33.5915C95.757 33.5915 96.2594 33.7271 96.738 34.0062V32.9933C96.2913 32.77 95.7809 32.6504 95.2146 32.6504C94.6005 32.6504 94.106 32.8019 93.7391 33.097C93.3722 33.3921 93.1968 33.7829 93.1968 34.2615C93.1968 34.7001 93.3244 35.0511 93.5876 35.3222C93.8428 35.5854 94.2815 35.8167 94.9036 36.0081C95.3422 36.1437 95.6293 36.2713 95.7889 36.391C95.9484 36.5106 96.0281 36.6621 96.0281 36.8615C96.0281 37.0848 95.9324 37.2683 95.749 37.3879C95.5655 37.5155 95.3023 37.5793 94.9594 37.5793C94.6643 37.5793 94.3612 37.5315 94.0502 37.4437C93.7311 37.356 93.46 37.2364 93.2207 37.0768V38.1137C93.4041 38.2174 93.6434 38.3131 93.9465 38.3849C94.3134 38.4726 94.6643 38.5125 95.0072 38.5125C95.6772 38.5125 96.1956 38.3609 96.5864 38.0658C96.9692 37.7707 97.1607 37.356 97.1607 36.8376C97.1607 36.3989 97.0171 36.048 96.738 35.7689L96.722 35.7848Z" fill="#DDDDDD"/>
      <path d="M101.619 36.1382C101.619 36.1382 101.244 36.0664 101.013 36.0664C99.7529 36.0664 98.5327 36.9278 98.0222 38.5309H99.1548C99.4977 37.3664 100.598 36.3296 101.619 36.1382Z" fill="#DDDDDD"/>
      <path d="M101.4 32.7793H100.196L98.896 36.0573H99.3506C99.7015 36.0573 100.021 35.8339 100.14 35.5069L100.762 33.7922L101.592 36.0573L101.903 36.9346L102.437 38.418H103.641L101.4 32.7873V32.7793Z" fill="#DDDDDD"/>
      <path d="M109.028 37.0622C108.494 37.3414 107.943 37.4849 107.385 37.4849C106.827 37.4849 106.332 37.3174 105.981 36.9825C105.638 36.6395 105.463 36.1849 105.463 35.6027C105.463 35.0205 105.638 34.5659 105.989 34.2229C106.34 33.88 106.795 33.7045 107.353 33.7045C107.848 33.7045 108.366 33.8401 108.908 34.1033V33.0425C108.725 32.9548 108.51 32.875 108.278 32.8112C107.959 32.7315 107.648 32.6916 107.337 32.6916C106.436 32.6836 105.702 32.9548 105.128 33.521C104.554 34.0873 104.274 34.7812 104.29 35.6186C104.29 36.48 104.562 37.1819 105.128 37.7082C105.694 38.2346 106.412 38.4978 107.281 38.4899C107.943 38.4899 108.525 38.3543 109.02 38.099V37.0622H109.028Z" fill="#DDDDDD"/>
      <path d="M100.853 68.5273L101.268 78.9515C101.38 79.8368 102.082 80.5386 102.967 80.6503L106.213 81.065L102.967 81.4798C102.082 81.5914 101.38 82.2933 101.268 83.1786L100.853 86.4246L100.439 83.1786C100.327 82.2933 99.625 81.5914 98.7397 81.4798L95.4937 81.065L98.7397 80.6503C99.625 80.5386 100.327 79.8368 100.439 78.9515L100.853 68.5273Z" fill="#DDDDDD"/>
      <path d="M99.1318 78.1309L100.99 80.5395L103.782 79.3432L101.381 81.1935L102.577 83.985L100.719 81.5843L97.9275 82.7807L100.328 80.9223L99.1318 78.1309Z" fill="#DDDDDD"/>
      <path d="M98.6377 79.7888L100.751 80.6661L102.123 78.8477L101.246 80.9532L103.072 82.325L100.959 81.4557L99.5868 83.2741L100.464 81.1686L98.6377 79.7888Z" fill="#DDDDDD"/>
      <path d="M100.592 97.9878C128.323 97.9878 154.682 103.882 178.482 114.473C155.424 101.625 128.865 94.2871 100.592 94.2871C72.3182 94.2871 45.7594 101.617 22.7019 114.473C46.5011 103.882 72.8605 97.9878 100.592 97.9878Z" fill="#DDDDDD"/>
      <path d="M201.117 1.64844H1.03296V130.51H201.117V1.64844Z" stroke="#CB2B1A" stroke-width="0.45461" stroke-miterlimit="22.93"/>
    </g>
  </g>
  <defs>
    <filter id="filter0_dd_277_4359" x="-0.00828093" y="0.605733" width="203.946" height="133.611" filterUnits="userSpaceOnUse" color-interpolation-filters="sRGB">
      <feFlood flood-opacity="0" result="BackgroundImageFix"/>
      <feColorMatrix in="SourceAlpha" type="matrix" values="0 0 0 0 0 0 0 0 0 0 0 0 0 0 0 0 0 0 127 0" result="hardAlpha"/>
      <feOffset dx="0.887447" dy="0.887447"/>
      <feGaussianBlur stdDeviation="2.66234"/>
      <feComposite in2="hardAlpha" operator="out"/>
      <feColorMatrix type="matrix" values="0 0 0 0 0 0 0 0 0 0 0 0 0 0 0 0 0 0 0.25 0"/>
      <feBlend mode="normal" in2="BackgroundImageFix" result="effect1_dropShadow_277_4359"/>
      <feColorMatrix in="SourceAlpha" type="matrix" values="0 0 0 0 0 0 0 0 0 0 0 0 0 0 0 0 0 0 127 0" result="hardAlpha"/>
      <feOffset dx="1.77489" dy="3.54979"/>
      <feGaussianBlur stdDeviation="1.77489"/>
      <feComposite in2="hardAlpha" operator="out"/>
      <feColorMatrix type="matrix" values="0 0 0 0 0 0 0 0 0 0 0 0 0 0 0 0 0 0 0.33 0"/>
      <feBlend mode="normal" in2="effect1_dropShadow_277_4359" result="effect2_dropShadow_277_4359"/>
      <feBlend mode="normal" in="SourceGraphic" in2="effect2_dropShadow_277_4359" result="shape"/>
    </filter>
  </defs>
</svg>