<svg xmlns="http://www.w3.org/2000/svg" width="205" height="135" viewBox="0 0 205 135" fill="none">
  <g filter="url(#filter0_dd_277_4329)">
    <mask id="mask0_277_4329" style="mask-type:luminance" maskUnits="userSpaceOnUse" x="4" y="5" width="194" height="123">
      <path d="M4.57056 119.796V12.3646C4.57056 8.3369 7.29024 5.04297 10.6161 5.04297H191.822C195.148 5.04297 197.867 8.3369 197.867 12.3646V119.796C197.867 123.824 195.148 127.118 191.822 127.118H10.6161C7.29024 127.118 4.57056 123.824 4.57056 119.796Z" fill="white"/>
    </mask>
    <g mask="url(#mask0_277_4329)">
      <path d="M201.481 1.64648H1.39697V130.508H201.481V1.64648Z" fill="#F7F7F7"/>
      <path d="M86.9637 30.7599C86.1183 30.7599 85.4324 30.074 85.4324 29.2286C85.4324 28.3832 86.1183 27.6973 86.9637 27.6973C87.8091 27.6973 88.495 28.3832 88.495 29.2286C88.495 30.074 87.8091 30.7599 86.9637 30.7599Z" fill="#DCDCDC"/>
      <path d="M83.301 27.6973C80.6212 27.6973 78.4438 29.8746 78.4438 32.5544C78.4438 33.0489 78.5156 33.5195 78.6512 33.9661C79.2574 31.9722 81.1077 30.7599 83.301 30.7599V27.6973Z" fill="#DCDCDC"/>
      <path d="M83.301 40.3619C80.6212 40.3619 78.4438 38.1846 78.4438 35.5048C78.4438 35.0103 78.5156 34.3802 78.6512 33.9336C79.2574 35.9275 81.1077 37.0202 83.301 37.0202V40.354V40.3619Z" fill="#DCDCDC"/>
      <path d="M83.3003 43.4173C85.9801 43.4173 88.1574 41.2399 88.1574 38.5601C88.1574 38.0656 88.0857 37.5951 87.9501 37.1484C87.3439 39.1423 85.4936 40.3546 83.3003 40.3546V43.4173Z" fill="#DCDCDC"/>
      <path d="M83.3003 30.752C85.9801 30.752 88.1574 32.9293 88.1574 35.6091C88.1574 36.1036 88.0857 36.7337 87.9501 37.1803C87.3439 35.1864 85.4936 34.0937 83.3003 34.0937V30.7599V30.752Z" fill="#DCDCDC"/>
      <path d="M113.249 38.5356C112.459 38.5356 111.853 38.3202 111.415 37.8816C110.976 37.4429 110.76 36.8288 110.76 36.0392V32.7852H111.893V35.9515C111.893 37.0043 112.348 37.5306 113.249 37.5306C114.15 37.5306 114.613 37.0043 114.613 35.9515V32.7852H115.745V36.0392C115.745 36.8368 115.53 37.4509 115.091 37.8816C114.653 38.3202 114.038 38.5356 113.241 38.5356H113.249Z" fill="#DCDCDC"/>
      <path d="M117.437 38.4159V32.7852H119.271C119.917 32.7852 120.428 32.9447 120.795 33.2637C121.162 33.5827 121.353 34.0214 121.353 34.5797C121.353 34.9146 121.273 35.2097 121.106 35.4729C120.946 35.7361 120.707 35.9515 120.412 36.111L121.919 38.4159H120.643L119.431 36.3901C119.2 36.3981 119.08 36.4061 119.064 36.4061H118.522V38.4159H117.437ZM118.522 33.6944V35.4969H119.08C119.854 35.4969 120.244 35.1938 120.244 34.5876C120.244 33.9815 119.87 33.6944 119.12 33.6944H118.53H118.522Z" fill="#DCDCDC"/>
      <path d="M123.15 38.4159V32.7852H124.155L127.106 36.7012V32.7852H128.183V38.4159H127.178L124.227 34.5159V38.4159H123.15Z" fill="#DCDCDC"/>
      <path d="M96.8695 35.7907C96.5903 35.5115 96.1118 35.2722 95.4418 35.0569C95.043 34.9373 94.7799 34.8176 94.6443 34.714C94.5087 34.6103 94.4369 34.4587 94.4369 34.2593C94.4369 33.8207 94.7559 33.5974 95.394 33.5974C95.9044 33.5974 96.4069 33.733 96.8854 34.0121V32.9992C96.4388 32.7759 95.9283 32.6562 95.3621 32.6562C94.748 32.6562 94.2535 32.8078 93.8866 33.1029C93.5197 33.398 93.3442 33.7888 93.3442 34.2673C93.3442 34.706 93.4719 35.0569 93.735 35.3281C93.9903 35.5913 94.4289 35.8226 95.051 36.014C95.4897 36.1496 95.7768 36.2772 95.9363 36.3968C96.0958 36.5164 96.1756 36.668 96.1756 36.8674C96.1756 37.0907 96.0799 37.2741 95.8964 37.3938C95.713 37.5214 95.4498 37.5852 95.1069 37.5852C94.8118 37.5852 94.5087 37.5373 94.1976 37.4496C93.8786 37.3619 93.6074 37.2422 93.3682 37.0827V38.1195C93.5516 38.2232 93.7909 38.3189 94.0939 38.3907C94.4608 38.4784 94.8118 38.5183 95.1547 38.5183C95.8247 38.5183 96.3431 38.3668 96.7339 38.0717C97.1167 37.7766 97.3081 37.3619 97.3081 36.8434C97.3081 36.4048 97.1646 36.0539 96.8854 35.7747L96.8695 35.7907Z" fill="#DCDCDC"/>
      <path d="M101.767 36.1421C101.767 36.1421 101.392 36.0703 101.161 36.0703C99.9006 36.0703 98.6804 36.9317 98.1699 38.5348H99.3025C99.6454 37.3703 100.746 36.3335 101.767 36.1421Z" fill="#DCDCDC"/>
      <path d="M101.548 32.7773H100.343L99.0435 36.0553H99.4981C99.849 36.0553 100.168 35.832 100.288 35.505L100.91 33.7902L101.739 36.0553L102.05 36.9326L102.585 38.4161H103.789L101.548 32.7853V32.7773Z" fill="#DCDCDC"/>
      <path d="M109.176 37.0681C108.641 37.3472 108.091 37.4908 107.533 37.4908C106.974 37.4908 106.48 37.3233 106.129 36.9883C105.786 36.6454 105.611 36.1908 105.611 35.6085C105.611 35.0263 105.786 34.5717 106.137 34.2288C106.488 33.8858 106.942 33.7103 107.501 33.7103C107.995 33.7103 108.514 33.8459 109.056 34.1091V33.0484C108.873 32.9606 108.657 32.8809 108.426 32.8171C108.107 32.7373 107.796 32.6974 107.485 32.6974C106.584 32.6895 105.85 32.9606 105.276 33.5269C104.701 34.0932 104.422 34.787 104.438 35.6245C104.438 36.4859 104.709 37.1877 105.276 37.7141C105.842 38.2405 106.56 38.5037 107.429 38.4957C108.091 38.4957 108.673 38.3601 109.168 38.1049V37.0681H109.176Z" fill="#DCDCDC"/>
      <mask id="mask1_277_4329" style="mask-type:luminance" maskUnits="userSpaceOnUse" x="0" y="1" width="202" height="130">
        <path d="M201.043 1.64844H0.958984V130.51H201.043V1.64844Z" fill="white"/>
      </mask>
      <g mask="url(#mask1_277_4329)">
        <path d="M100.739 97.9937C128.47 97.9937 154.829 103.888 178.629 114.479C155.571 101.631 129.012 94.293 100.739 94.293C72.4652 94.293 45.9064 101.623 22.8489 114.479C46.6481 103.888 73.0075 97.9937 100.739 97.9937Z" fill="#E5E5E6"/>
      </g>
      <path d="M101 68.5215L101.415 78.9456C101.527 79.8309 102.228 80.5328 103.114 80.6444L106.36 81.0591L103.114 81.4739C102.228 81.5855 101.527 82.2874 101.415 83.1727L101 86.4188L100.586 83.1727C100.474 82.2874 99.772 81.5855 98.8867 81.4739L95.6406 81.0591L98.8867 80.6444C99.772 80.5328 100.474 79.8309 100.586 78.9456L101 68.5215Z" fill="#DCDCDC"/>
      <path d="M99.2788 78.1328L101.137 80.5335L103.929 79.3371L101.528 81.1954L102.724 83.9869L100.866 81.5863L98.0745 82.7746L100.475 80.9243L99.2788 78.1328Z" fill="#DCDCDC"/>
      <path d="M98.7847 79.7909L100.898 80.6602L102.27 78.8418L101.393 80.9474L103.219 82.3271L101.106 81.4498L99.7338 83.2683L100.611 81.1627L98.7847 79.7909Z" fill="#DCDCDC"/>
      <path d="M201.259 1.64648H1.17529V130.508H201.259V1.64648Z" stroke="#CB2B1A" stroke-width="0.45461" stroke-miterlimit="22.93"/>
    </g>
  </g>
  <defs>
    <filter id="filter0_dd_277_4329" x="0.133321" y="0.605733" width="203.946" height="133.611" filterUnits="userSpaceOnUse" color-interpolation-filters="sRGB">
      <feFlood flood-opacity="0" result="BackgroundImageFix"/>
      <feColorMatrix in="SourceAlpha" type="matrix" values="0 0 0 0 0 0 0 0 0 0 0 0 0 0 0 0 0 0 127 0" result="hardAlpha"/>
      <feOffset dx="0.887447" dy="0.887447"/>
      <feGaussianBlur stdDeviation="2.66234"/>
      <feComposite in2="hardAlpha" operator="out"/>
      <feColorMatrix type="matrix" values="0 0 0 0 0 0 0 0 0 0 0 0 0 0 0 0 0 0 0.25 0"/>
      <feBlend mode="normal" in2="BackgroundImageFix" result="effect1_dropShadow_277_4329"/>
      <feColorMatrix in="SourceAlpha" type="matrix" values="0 0 0 0 0 0 0 0 0 0 0 0 0 0 0 0 0 0 127 0" result="hardAlpha"/>
      <feOffset dx="1.77489" dy="3.54979"/>
      <feGaussianBlur stdDeviation="1.77489"/>
      <feComposite in2="hardAlpha" operator="out"/>
      <feColorMatrix type="matrix" values="0 0 0 0 0 0 0 0 0 0 0 0 0 0 0 0 0 0 0.33 0"/>
      <feBlend mode="normal" in2="effect1_dropShadow_277_4329" result="effect2_dropShadow_277_4329"/>
      <feBlend mode="normal" in="SourceGraphic" in2="effect2_dropShadow_277_4329" result="shape"/>
    </filter>
  </defs>
</svg>