<svg width="57" height="63" viewBox="0 0 57 63" fill="none" xmlns="http://www.w3.org/2000/svg">
<path d="M44.3258 16.4937C44.3258 25.1861 37.2794 32.2325 28.5871 32.2325C19.8947 32.2325 12.8483 25.1861 12.8483 16.4937C12.8483 7.80133 19.8947 0.754883 28.5871 0.754883C37.2794 0.754883 44.3258 7.80133 44.3258 16.4937Z" fill="white"/>
<path d="M37.7586 33.7979C35.094 35.2883 31.9521 36.1479 28.587 36.1479C25.222 36.1479 22.0801 35.2883 19.4155 33.7979C10.5787 36.5868 3.48655 43.3022 0.180054 51.8959C7.69831 58.6826 17.6599 62.8157 28.587 62.8157C39.5142 62.8157 49.4758 58.6826 56.994 51.8959C53.6875 43.3022 46.5954 36.5868 37.7586 33.7979Z" fill="white"/>
</svg>
