<svg width="126" height="85" viewBox="0 0 126 85" fill="none" xmlns="http://www.w3.org/2000/svg">
<g id="Ecoland&#233;&#138;&#128;&#229;&#141;&#161;" filter="url(#filter0_dd_412_8054)">
<mask id="mask0_412_8054" style="mask-type:luminance" maskUnits="userSpaceOnUse" x="4" y="5" width="116" height="73">
<g id="clippath-4">
<path id="Vector" d="M4.80859 73.2658V9.73409C4.80859 7.35224 6.41693 5.4043 8.38373 5.4043H115.543C117.51 5.4043 119.119 7.35224 119.119 9.73409V73.2658C119.119 75.6477 117.51 77.5956 115.543 77.5956H8.38373C6.41693 77.5956 4.80859 75.6477 4.80859 73.2658Z" fill="white"/>
</g>
</mask>
<g mask="url(#mask0_412_8054)">
<g id="Group">
<g id="Group_2">
<path id="Vector_2" d="M121.258 3.39453H2.93408V79.5996H121.258V3.39453Z" fill="#B3B4B4"/>
<g id="Group_3">
<g id="Group_4">
<g id="Group_5">
<path id="Vector_3" d="M53.5311 20.61C53.0311 20.61 52.6255 20.2043 52.6255 19.7044C52.6255 19.2044 53.0311 18.7988 53.5311 18.7988C54.031 18.7988 54.4366 19.2044 54.4366 19.7044C54.4366 20.2043 54.031 20.61 53.5311 20.61Z" fill="#DDDDDD"/>
<path id="Vector_4" d="M51.365 18.7988C49.7803 18.7988 48.4927 20.0864 48.4927 21.6712C48.4927 21.9636 48.5351 22.2419 48.6153 22.506C48.9738 21.3269 50.068 20.61 51.365 20.61V18.7988Z" fill="#DDDDDD"/>
<path id="Vector_5" d="M51.365 26.2888C49.7803 26.2888 48.4927 25.0012 48.4927 23.4165C48.4927 23.124 48.5351 22.7514 48.6153 22.4873C48.9738 23.6664 50.068 24.3126 51.365 24.3126V26.2841V26.2888Z" fill="#DDDDDD"/>
<path id="Vector_6" d="M51.3652 28.0949C52.95 28.0949 54.2376 26.8073 54.2376 25.2225C54.2376 24.9301 54.1952 24.6518 54.115 24.3877C53.7565 25.5668 52.6623 26.2838 51.3652 26.2838V28.0949Z" fill="#DDDDDD"/>
<path id="Vector_7" d="M51.3652 20.6055C52.95 20.6055 54.2376 21.8931 54.2376 23.4778C54.2376 23.7703 54.1952 24.1429 54.115 24.407C53.7565 23.2279 52.6623 22.5817 51.3652 22.5817V20.6102V20.6055Z" fill="#DDDDDD"/>
</g>
<path id="Vector_8" d="M69.0756 25.2034C68.6086 25.2034 68.2502 25.076 67.9908 24.8166C67.7314 24.5572 67.604 24.194 67.604 23.7271V21.8027H68.2738V23.6752C68.2738 24.2978 68.5426 24.6091 69.0756 24.6091C69.6085 24.6091 69.8821 24.2978 69.8821 23.6752V21.8027H70.5518V23.7271C70.5518 24.1987 70.4245 24.5619 70.1651 24.8166C69.9057 25.076 69.5425 25.2034 69.0708 25.2034H69.0756Z" fill="#DDDDDD"/>
<path id="Vector_9" d="M71.5527 25.1326V21.8027H72.6375C73.0196 21.8027 73.3214 21.8971 73.5384 22.0857C73.7554 22.2744 73.8686 22.5338 73.8686 22.864C73.8686 23.062 73.8214 23.2366 73.7223 23.3922C73.628 23.5479 73.4865 23.6752 73.312 23.7695L74.2034 25.1326H73.4488L72.7319 23.9346C72.5951 23.9393 72.5243 23.944 72.5149 23.944H72.1942V25.1326H71.5527ZM72.1942 22.3404V23.4064H72.5243C72.9818 23.4064 73.213 23.2271 73.213 22.8687C73.213 22.5102 72.9913 22.3404 72.5479 22.3404H72.1989H72.1942Z" fill="#DDDDDD"/>
<path id="Vector_10" d="M74.9312 25.1326V21.8027H75.5254L77.2706 24.1186V21.8027H77.9073V25.1326H77.313L75.5679 22.8262V25.1326H74.9312Z" fill="#DDDDDD"/>
<path id="Vector_11" d="M59.3894 23.5811C59.2243 23.4161 58.9413 23.2746 58.5451 23.1472C58.3093 23.0765 58.1537 23.0057 58.0735 22.9444C57.9933 22.8831 57.9509 22.7935 57.9509 22.6756C57.9509 22.4162 58.1395 22.2841 58.5168 22.2841C58.8187 22.2841 59.1158 22.3643 59.3988 22.5293V21.9303C59.1347 21.7983 58.8328 21.7275 58.498 21.7275C58.1348 21.7275 57.8424 21.8172 57.6254 21.9917C57.4085 22.1662 57.3047 22.3973 57.3047 22.6803C57.3047 22.9397 57.3802 23.1472 57.5358 23.3076C57.6867 23.4632 57.9461 23.6 58.314 23.7132C58.5734 23.7934 58.7432 23.8688 58.8376 23.9396C58.9319 24.0103 58.9791 24.1 58.9791 24.2179C58.9791 24.3499 58.9225 24.4584 58.814 24.5292C58.7055 24.6046 58.5499 24.6424 58.347 24.6424C58.1725 24.6424 57.9933 24.6141 57.8094 24.5622C57.6207 24.5103 57.4603 24.4395 57.3188 24.3452V24.9584C57.4273 25.0197 57.5688 25.0763 57.748 25.1187C57.965 25.1706 58.1725 25.1942 58.3753 25.1942C58.7715 25.1942 59.0781 25.1046 59.3092 24.9301C59.5356 24.7556 59.6488 24.5103 59.6488 24.2037C59.6488 23.9443 59.5639 23.7368 59.3988 23.5717L59.3894 23.5811Z" fill="#DDDDDD"/>
<path id="Vector_12" d="M62.2854 23.7885C62.2854 23.7885 62.0637 23.7461 61.9269 23.7461C61.1817 23.7461 60.4601 24.2555 60.1582 25.2035H60.828C61.0308 24.5149 61.6816 23.9017 62.2854 23.7885Z" fill="#DDDDDD"/>
<path id="Vector_13" d="M62.1563 21.8027H61.4441L60.6753 23.7412H60.9441C61.1517 23.7412 61.3403 23.6092 61.4111 23.4158L61.779 22.4017L62.2695 23.7412L62.4534 24.26L62.7694 25.1373H63.4816L62.1563 21.8074V21.8027Z" fill="#DDDDDD"/>
<path id="Vector_14" d="M66.6672 24.3357C66.3512 24.5008 66.0258 24.5857 65.6956 24.5857C65.3655 24.5857 65.073 24.4867 64.8655 24.2886C64.6627 24.0858 64.5589 23.8169 64.5589 23.4726C64.5589 23.1283 64.6627 22.8595 64.8702 22.6567C65.0778 22.4538 65.3466 22.3501 65.6768 22.3501C65.9692 22.3501 66.2758 22.4303 66.5965 22.5859V21.9586C66.488 21.9067 66.3607 21.8596 66.2239 21.8218C66.0352 21.7747 65.8513 21.7511 65.6673 21.7511C65.1344 21.7464 64.7004 21.9067 64.3609 22.2416C64.0213 22.5765 63.8562 22.9868 63.8656 23.4821C63.8656 23.9914 64.026 24.4065 64.3609 24.7178C64.6957 25.0291 65.1202 25.1847 65.6343 25.18C66.0258 25.18 66.3701 25.0998 66.6625 24.9489V24.3357H66.6672Z" fill="#DDDDDD"/>
</g>
<g id="Group_6">
<path id="Vector_15" d="M61.8326 42.9434L62.0779 49.1079C62.1439 49.6314 62.5589 50.0465 63.0825 50.1125L65.0021 50.3578L63.0825 50.603C62.5589 50.6691 62.1439 51.0841 62.0779 51.6077L61.8326 53.5273L61.5873 51.6077C61.5213 51.0841 61.1063 50.6691 60.5827 50.603L58.6631 50.3578L60.5827 50.1125C61.1063 50.0465 61.5213 49.6314 61.5873 49.1079L61.8326 42.9434Z" fill="#DDDDDD"/>
<path id="Vector_16" d="M60.8142 48.6221L61.9132 50.0465L63.564 49.339L62.1443 50.4332L62.8518 52.084L61.7528 50.6643L60.1021 51.3718L61.5217 50.2729L60.8142 48.6221Z" fill="#DDDDDD"/>
<path id="Vector_17" d="M60.5225 49.6034L61.7723 50.1222L62.5836 49.0469L62.0648 50.292L63.1449 51.1033L61.895 50.5892L61.0837 51.6646L61.6025 50.4194L60.5225 49.6034Z" fill="#DDDDDD"/>
</g>
<path id="Vector_18" d="M61.6777 60.3662C78.0771 60.3662 93.6652 63.8517 107.739 70.1153C94.1039 62.5169 78.3978 58.1777 61.6777 58.1777C44.9575 58.1777 29.2515 62.5122 15.616 70.1153C29.6901 63.8517 45.2783 60.3662 61.6777 60.3662Z" fill="#DDDDDD"/>
</g>
<path id="Vector_19" d="M121.125 3.39453H2.80078V79.5996H121.125V3.39453Z" stroke="#CB2B1A" stroke-width="0.464701" stroke-miterlimit="22.93"/>
</g>
</g>
</g>
</g>
<defs>
<filter id="filter0_dd_412_8054" x="0.272858" y="0.868561" width="125.196" height="83.9843" filterUnits="userSpaceOnUse" color-interpolation-filters="sRGB">
<feFlood flood-opacity="0" result="BackgroundImageFix"/>
<feColorMatrix in="SourceAlpha" type="matrix" values="0 0 0 0 0 0 0 0 0 0 0 0 0 0 0 0 0 0 127 0" result="hardAlpha"/>
<feOffset dx="0.907147" dy="0.907147"/>
<feGaussianBlur stdDeviation="2.72144"/>
<feComposite in2="hardAlpha" operator="out"/>
<feColorMatrix type="matrix" values="0 0 0 0 0 0 0 0 0 0 0 0 0 0 0 0 0 0 0.25 0"/>
<feBlend mode="normal" in2="BackgroundImageFix" result="effect1_dropShadow_412_8054"/>
<feColorMatrix in="SourceAlpha" type="matrix" values="0 0 0 0 0 0 0 0 0 0 0 0 0 0 0 0 0 0 127 0" result="hardAlpha"/>
<feOffset dx="1.81429" dy="3.62859"/>
<feGaussianBlur stdDeviation="1.81429"/>
<feComposite in2="hardAlpha" operator="out"/>
<feColorMatrix type="matrix" values="0 0 0 0 0 0 0 0 0 0 0 0 0 0 0 0 0 0 0.33 0"/>
<feBlend mode="normal" in2="effect1_dropShadow_412_8054" result="effect2_dropShadow_412_8054"/>
<feBlend mode="normal" in="SourceGraphic" in2="effect2_dropShadow_412_8054" result="shape"/>
</filter>
</defs>
</svg>
