<svg width="72" height="71" viewBox="0 0 72 71" fill="none" xmlns="http://www.w3.org/2000/svg">
<path d="M19.9858 30.2532C20.7277 30.2863 21.1371 30.6913 21.555 31.0963C24.3352 33.8157 27.1325 36.5103 29.8786 39.2544C30.467 39.8413 30.7741 39.8826 31.3966 39.2792C37.6137 33.204 43.865 27.1619 50.1077 21.1114C51.4381 19.822 52.0436 19.8303 53.3825 21.1114C54.1927 21.8967 55.0029 22.6736 55.8046 23.4589C56.9303 24.5665 56.9388 25.2525 55.8046 26.3601C49.2975 32.675 42.7819 38.9817 36.2663 45.2966C34.8676 46.6521 33.4775 48.0077 32.0789 49.355C30.9787 50.413 30.2709 50.413 29.1707 49.3467C24.7275 45.0156 20.2843 40.6844 15.8496 36.3449C14.8688 35.3861 14.8773 34.634 15.8496 33.6752C16.7962 32.7411 17.7599 31.8237 18.7065 30.8896C19.0903 30.5177 19.5082 30.2615 19.9772 30.2532H19.9858Z" fill="#FFD600"/>
<rect x="2.38477" y="2.14746" width="67" height="66" rx="33" stroke="#FFD600" stroke-width="4"/>
</svg>
