<svg xmlns="http://www.w3.org/2000/svg" width="17" height="16" viewBox="0 0 17 16" fill="none">
<path d="M8.3514 0.171173C9.31926 0.171173 10.2841 0.180107 11.249 0.165217C11.6332 0.159261 11.7702 0.302206 11.7642 0.686371C11.7463 1.80611 11.7761 2.92882 11.7493 4.04856C11.7374 4.51015 11.8625 4.71266 12.3479 4.66799C12.7351 4.63225 13.1252 4.65607 13.5153 4.66501C13.6463 4.66501 13.828 4.6114 13.8875 4.7752C13.9352 4.90623 13.7893 4.98961 13.7089 5.07895C12.4938 6.39226 11.2788 7.70557 10.0608 9.01888C9.65876 9.45367 9.25077 9.87953 8.85767 10.3233C8.66112 10.5436 8.50626 10.5704 8.28589 10.3471C6.52885 8.58111 4.76289 6.82407 3.00288 5.06406C2.92247 4.98366 2.77357 4.90623 2.84504 4.76031C2.91056 4.62927 3.06542 4.66501 3.18454 4.66501C3.60444 4.65905 4.02434 4.65012 4.44424 4.66501C4.78671 4.67692 4.91477 4.53695 4.91179 4.19746C4.89988 3.05985 4.90583 1.92523 4.91179 0.787624C4.91179 0.197975 4.93859 0.174151 5.51037 0.171173C6.46036 0.168195 7.41035 0.171173 8.36034 0.171173H8.3514Z" fill="#005487"/>
<path d="M8.36112 15.1069C5.93106 15.1069 3.50099 15.1069 1.06795 15.1069C0.457454 15.1069 0.44852 15.0979 0.44852 14.4725C0.44852 13.3349 0.460432 12.1973 0.442564 11.0597C0.436608 10.6607 0.576575 10.4879 0.981586 10.5028C1.43127 10.5207 1.88393 10.5118 2.33659 10.5058C2.66715 10.4999 2.822 10.6368 2.81009 10.9823C2.7952 11.435 2.822 11.8876 2.80414 12.3373C2.79222 12.6708 2.90241 12.8108 3.25679 12.8108C6.59218 12.8019 9.92459 12.8078 13.26 12.8019C13.8675 12.8019 13.9241 12.7274 13.927 12.1259C13.927 11.7208 13.933 11.3158 13.93 10.9108C13.93 10.6398 14.0611 10.5088 14.3291 10.5118C14.8592 10.5118 15.3893 10.5118 15.9193 10.5118C16.1695 10.5118 16.2827 10.6339 16.2797 10.89C16.2737 12.1676 16.2708 13.4451 16.2797 14.7227C16.2797 15.1337 16.0117 15.1069 15.7407 15.1069C13.2778 15.1069 10.818 15.1069 8.35517 15.1069H8.36112Z" fill="#005487"/>
</svg>