<svg width="52" height="47" viewBox="0 0 52 47" fill="none" xmlns="http://www.w3.org/2000/svg">
<g filter="url(#filter0_d_1696_6163)">
<path d="M20.4887 30.212C20.4887 29.9515 20.4797 29.6892 20.4923 29.4305C20.4995 29.267 20.4276 29.2059 20.2785 29.1808C18.8862 28.958 17.591 28.4658 16.3765 27.7561C15.7765 27.404 15.4531 26.8489 15.5052 26.177C15.5627 25.4494 15.9687 24.8871 16.6855 24.6302C17.176 24.4542 17.6754 24.4937 18.1335 24.7506C18.791 25.1171 19.4539 25.4764 20.1743 25.7045C21.3456 26.0764 22.5331 26.2884 23.7458 25.8752C24.017 25.7836 24.2613 25.647 24.4679 25.444C25.0285 24.8979 24.9835 24.0751 24.3602 23.5937C23.9452 23.2739 23.4655 23.0906 22.9661 22.9559C21.8522 22.6559 20.7079 22.4762 19.5976 22.1547C18.6868 21.8888 17.8065 21.5564 17.0394 20.9672C15.516 19.7959 15.1208 17.6347 15.8178 15.9747C16.4089 14.568 17.458 13.6626 18.8719 13.1488C19.3407 12.9781 19.8204 12.8344 20.3126 12.7518C20.46 12.7266 20.4923 12.6602 20.4905 12.529C20.4869 12.0368 20.4797 11.5445 20.4941 11.0541C20.5103 10.4702 20.7043 9.96722 21.1911 9.59714C22.1954 8.83363 23.6739 9.42108 23.8661 10.6661C23.9559 11.2517 23.9056 11.841 23.9092 12.4284C23.9092 12.6368 23.9649 12.7069 24.1859 12.7554C25.3734 13.0231 26.5519 13.3356 27.5561 14.0668C28.4939 14.7495 28.546 15.8849 27.7034 16.6322C27.2561 17.0292 26.5609 17.1406 26.0345 16.864C25.2997 16.4795 24.5542 16.122 23.7314 15.9675C22.8313 15.7986 21.9241 15.7448 21.0241 15.9442C20.4725 16.0663 19.9767 16.3124 19.7629 16.8981C19.6228 17.2808 19.6875 17.6329 19.9803 17.9293C20.2965 18.2491 20.6809 18.4575 21.1031 18.5958C21.9834 18.885 22.8996 19.0162 23.7996 19.2228C24.8237 19.4581 25.8387 19.7186 26.7621 20.254C27.7412 20.8217 28.3753 21.6445 28.6879 22.7259C29.076 24.0661 29.0221 25.365 28.3125 26.592C27.6531 27.7292 26.6345 28.4244 25.4165 28.8538C24.9943 29.0029 24.5632 29.1215 24.1194 29.1808C23.9667 29.2005 23.911 29.276 23.9128 29.4359C23.92 29.964 23.9272 30.494 23.9092 31.0222C23.8751 31.9815 23.0613 32.7378 22.1181 32.7037C21.2378 32.6714 20.5408 31.9384 20.4995 30.9916C20.4887 30.7311 20.4995 30.4706 20.4995 30.2102C20.4995 30.2102 20.4977 30.2102 20.4959 30.2102L20.4887 30.212Z" fill="#005487"/>
<rect x="5.84521" y="4.61914" width="32.7229" height="32.7229" rx="16.3615" stroke="#005487" stroke-width="3"/>
</g>
<defs>
<filter id="filter0_d_1696_6163" x="0.345215" y="0.119141" width="51.0996" height="46.127" filterUnits="userSpaceOnUse" color-interpolation-filters="sRGB">
<feFlood flood-opacity="0" result="BackgroundImageFix"/>
<feColorMatrix in="SourceAlpha" type="matrix" values="0 0 0 0 0 0 0 0 0 0 0 0 0 0 0 0 0 0 127 0" result="hardAlpha"/>
<feOffset dy="1"/>
<feGaussianBlur stdDeviation="2"/>
<feComposite in2="hardAlpha" operator="out"/>
<feColorMatrix type="matrix" values="0 0 0 0 0 0 0 0 0 0 0 0 0 0 0 0 0 0 0.2 0"/>
<feBlend mode="normal" in2="BackgroundImageFix" result="effect1_dropShadow_1696_6163"/>
<feBlend mode="normal" in="SourceGraphic" in2="effect1_dropShadow_1696_6163" result="shape"/>
</filter>
</defs>
</svg>
