<svg width="88" height="87" viewBox="0 0 88 87" fill="none" xmlns="http://www.w3.org/2000/svg">
<g id="Vector" filter="url(#filter0_dd_113_14736)">
<path d="M43.7236 17.9998C29.6394 17.9998 18.2236 29.4155 18.2236 43.4998C18.2236 57.584 29.6394 68.9998 43.7236 68.9998C57.8079 68.9998 69.2236 57.584 69.2236 43.4998C69.2236 29.4155 57.805 17.9998 43.7236 17.9998ZM52.2618 51.4252C51.3398 53.0172 49.914 53.9878 48.2132 54.5862C47.6234 54.7952 47.0221 54.9613 46.3979 55.0443C46.1832 55.073 46.1058 55.1789 46.1087 55.3994C46.1202 56.1381 46.1288 56.8797 46.103 57.6184C46.0572 58.9612 44.9176 60.0178 43.5977 59.9691C42.3665 59.9233 41.3901 58.8983 41.3328 57.5754C41.3157 57.2118 41.3328 56.8453 41.3328 56.4817H41.3271C41.3271 56.118 41.3157 55.7516 41.3328 55.3879C41.3443 55.1589 41.2412 55.073 41.0351 55.0386C39.0881 54.7265 37.2756 54.0393 35.5806 53.0458C34.7417 52.5533 34.2893 51.7774 34.3608 50.8382C34.441 49.8218 35.0079 49.0344 36.0101 48.6736C36.6944 48.4274 37.393 48.4818 38.0372 48.8397C38.9563 49.3522 39.884 49.8561 40.8919 50.174C42.5297 50.6951 44.1903 50.9929 45.8854 50.4145C46.2633 50.2856 46.6069 50.0938 46.8961 49.8103C47.6806 49.0459 47.6176 47.8948 46.7444 47.2248C46.1631 46.7782 45.4931 46.5205 44.7945 46.3344C43.2369 45.9163 41.6363 45.6644 40.0845 45.2148C38.8103 44.8455 37.5791 44.3788 36.5083 43.5542C34.3723 41.9135 33.8197 38.8928 34.7961 36.5707C35.6235 34.6037 37.0895 33.3381 39.0651 32.6195C39.7208 32.3789 40.3908 32.1814 41.0809 32.064C41.287 32.0296 41.33 31.9351 41.33 31.7519C41.3242 31.0647 41.3157 30.3747 41.3328 29.6875C41.3557 28.8686 41.6249 28.1671 42.3063 27.6489C43.7093 26.5809 45.7794 27.4026 46.0457 29.1435C46.1717 29.9624 46.1001 30.787 46.1058 31.6087C46.1058 31.9008 46.186 31.9981 46.4924 32.0668C48.1531 32.4419 49.8023 32.88 51.2053 33.9022C52.5166 34.8556 52.5882 36.4447 51.4114 37.4898C50.7844 38.0453 49.8137 38.1999 49.075 37.8162C48.0471 37.2779 47.0049 36.7797 45.8539 36.5621C44.5969 36.3273 43.3256 36.25 42.0687 36.5306C41.2956 36.7024 40.6027 37.046 40.3049 37.8649C40.1102 38.4003 40.199 38.8928 40.6084 39.3051C41.0494 39.7518 41.5877 40.0438 42.1803 40.2385C43.4115 40.6422 44.6943 40.8255 45.9512 41.1147C47.3829 41.444 48.803 41.8076 50.0943 42.5578C51.4658 43.3509 52.3506 44.5019 52.7858 46.0165C53.3269 47.8891 53.2554 49.7073 52.2589 51.4223L52.2618 51.4252Z" fill="#FFD600"/>
</g>
<defs>
<filter id="filter0_dd_113_14736" x="0.223633" y="-0.000244141" width="87" height="87" filterUnits="userSpaceOnUse" color-interpolation-filters="sRGB">
<feFlood flood-opacity="0" result="BackgroundImageFix"/>
<feColorMatrix in="SourceAlpha" type="matrix" values="0 0 0 0 0 0 0 0 0 0 0 0 0 0 0 0 0 0 127 0" result="hardAlpha"/>
<feOffset dy="3"/>
<feGaussianBlur stdDeviation="7"/>
<feComposite in2="hardAlpha" operator="out"/>
<feColorMatrix type="matrix" values="0 0 0 0 0 0 0 0 0 0 0 0 0 0 0 0 0 0 0.45 0"/>
<feBlend mode="normal" in2="BackgroundImageFix" result="effect1_dropShadow_113_14736"/>
<feColorMatrix in="SourceAlpha" type="matrix" values="0 0 0 0 0 0 0 0 0 0 0 0 0 0 0 0 0 0 127 0" result="hardAlpha"/>
<feOffset/>
<feGaussianBlur stdDeviation="9"/>
<feComposite in2="hardAlpha" operator="out"/>
<feColorMatrix type="matrix" values="0 0 0 0 0 0 0 0 0 0.329412 0 0 0 0 0.529412 0 0 0 0.2 0"/>
<feBlend mode="normal" in2="effect1_dropShadow_113_14736" result="effect2_dropShadow_113_14736"/>
<feBlend mode="normal" in="SourceGraphic" in2="effect2_dropShadow_113_14736" result="shape"/>
</filter>
</defs>
</svg>
