<svg width="37" height="37" viewBox="0 0 37 37" fill="none" xmlns="http://www.w3.org/2000/svg">
<rect x="1.69746" y="1.56367" width="33.1109" height="33.1109" rx="16.5555" stroke="#005487" stroke-width="2.88906"/>
<path d="M16.5346 27.3506C16.5346 27.0901 16.5256 26.8278 16.5382 26.5691C16.5454 26.4057 16.4735 26.3446 16.3244 26.3194C14.9321 26.0967 13.6369 25.6044 12.4224 24.8948C11.8224 24.5427 11.499 23.9876 11.5511 23.3157C11.6086 22.5881 12.0146 22.0258 12.7314 21.7689C13.2219 21.5928 13.7213 21.6324 14.1794 21.8893C14.8369 22.2558 15.4998 22.6151 16.2202 22.8432C17.3915 23.2151 18.579 23.4271 19.7917 23.0139C20.0629 22.9223 20.3072 22.7857 20.5138 22.5827C21.0744 22.0366 21.0294 21.2138 20.4061 20.7323C19.9911 20.4125 19.5114 20.2293 19.012 20.0946C17.8981 19.7946 16.7538 19.6149 15.6435 19.2933C14.7327 19.0274 13.8524 18.6951 13.0853 18.1058C11.5619 16.9345 11.1667 14.7733 11.8637 13.1134C12.4548 11.7067 13.5039 10.8013 14.9178 10.2875C15.3866 10.1168 15.8663 9.9731 16.3585 9.89046C16.5059 9.86531 16.5382 9.79884 16.5364 9.66769C16.5328 9.17545 16.5256 8.68321 16.54 8.19277C16.5562 7.60891 16.7502 7.10589 17.237 6.73581C18.2413 5.9723 19.7198 6.55975 19.912 7.80472C20.0018 8.39038 19.9515 8.97963 19.9551 9.56709C19.9551 9.77548 20.0108 9.84555 20.2318 9.89405C21.4193 10.1617 22.5978 10.4743 23.602 11.2055C24.5398 11.8882 24.5919 13.0236 23.7493 13.7709C23.302 14.1679 22.6068 14.2793 22.0804 14.0026C21.3456 13.6182 20.6001 13.2607 19.7773 13.1062C18.8772 12.9373 17.97 12.8834 17.07 13.0828C16.5184 13.205 16.0226 13.4511 15.8088 14.0368C15.6687 14.4194 15.7334 14.7715 16.0262 15.068C16.3424 15.3877 16.7268 15.5961 17.149 15.7345C18.0293 16.0237 18.9455 16.1548 19.8455 16.3614C20.8696 16.5968 21.8846 16.8573 22.808 17.3926C23.7871 17.9603 24.4212 18.7831 24.7338 19.8646C25.1219 21.2048 25.068 22.5037 24.3584 23.7307C23.699 24.8679 22.6804 25.5631 21.4624 25.9925C21.0402 26.1416 20.6091 26.2601 20.1653 26.3194C20.0126 26.3392 19.9569 26.4146 19.9587 26.5745C19.9659 27.1027 19.9731 27.6327 19.9551 28.1608C19.921 29.1202 19.1072 29.8765 18.164 29.8424C17.2837 29.81 16.5867 29.0771 16.5454 28.1303C16.5346 27.8698 16.5454 27.6093 16.5454 27.3488C16.5454 27.3488 16.5436 27.3488 16.5418 27.3488L16.5346 27.3506Z" fill="#005487"/>
</svg>
