<svg width="37" height="37" viewBox="0 0 37 37" fill="none" xmlns="http://www.w3.org/2000/svg">
<path d="M16.8637 27.823C16.8637 27.5625 16.8547 27.3003 16.8673 27.0416C16.8745 26.8781 16.8026 26.817 16.6535 26.7918C15.2612 26.5691 13.966 26.0768 12.7515 25.3672C12.1515 25.0151 11.8281 24.46 11.8802 23.7881C11.9377 23.0605 12.3437 22.4982 13.0605 22.2413C13.551 22.0653 14.0504 22.1048 14.5085 22.3617C15.166 22.7282 15.8289 23.0875 16.5493 23.3156C17.7206 23.6875 18.9081 23.8995 20.1208 23.4863C20.392 23.3947 20.6363 23.2581 20.8429 23.0551C21.4035 22.509 21.3585 21.6862 20.7352 21.2047C20.3202 20.885 19.8405 20.7017 19.3411 20.567C18.2272 20.267 17.0829 20.0873 15.9726 19.7657C15.0618 19.4999 14.1815 19.1675 13.4144 18.5783C11.891 17.4069 11.4958 15.2458 12.1928 13.5858C12.7839 12.1791 13.833 11.2737 15.2469 10.7599C15.7157 10.5892 16.1954 10.4455 16.6876 10.3629C16.835 10.3377 16.8673 10.2712 16.8655 10.1401C16.8619 9.64786 16.8547 9.15562 16.8691 8.66518C16.8853 8.08132 17.0793 7.5783 17.5661 7.20822C18.5704 6.44471 20.0489 7.03216 20.2411 8.27714C20.3309 8.8628 20.2806 9.45205 20.2842 10.0395C20.2842 10.2479 20.3399 10.318 20.5609 10.3665C21.7484 10.6341 22.9269 10.9467 23.9311 11.6779C24.8689 12.3606 24.921 13.496 24.0784 14.2433C23.6311 14.6403 22.9359 14.7517 22.4095 14.4751C21.6747 14.0906 20.9292 13.7331 20.1064 13.5786C19.2063 13.4097 18.2991 13.3558 17.3991 13.5552C16.8475 13.6774 16.3517 13.9235 16.1379 14.5092C15.9978 14.8918 16.0625 15.244 16.3553 15.5404C16.6715 15.8602 17.0559 16.0685 17.4781 16.2069C18.3584 16.4961 19.2746 16.6273 20.1747 16.8339C21.1987 17.0692 22.2137 17.3297 23.1371 17.865C24.1162 18.4327 24.7503 19.2555 25.0629 20.337C25.451 21.6772 25.3971 22.9761 24.6875 24.2031C24.0281 25.3403 23.0095 26.0355 21.7915 26.4649C21.3693 26.614 20.9382 26.7326 20.4944 26.7918C20.3417 26.8116 20.286 26.8871 20.2878 27.0469C20.295 27.5751 20.3022 28.1051 20.2842 28.6333C20.2501 29.5926 19.4363 30.3489 18.4931 30.3148C17.6128 30.2824 16.9158 29.5495 16.8745 28.6027C16.8637 28.3422 16.8745 28.0817 16.8745 27.8212C16.8745 27.8212 16.8727 27.8212 16.8709 27.8212L16.8637 27.823Z" fill="#005487"/>
<rect x="2.02607" y="2.03584" width="33.1109" height="33.1109" rx="16.5555" stroke="#005487" stroke-width="2.88906"/>
</svg>
