<svg width="53" height="53" viewBox="0 0 53 53" fill="none" xmlns="http://www.w3.org/2000/svg">
<g filter="url(#filter0_dd_1754_5814)">
<rect x="8.70435" y="8.47034" width="36" height="36" rx="18" fill="white" fill-opacity="0.8" shape-rendering="crispEdges"/>
<rect x="10.1489" y="9.91487" width="33.1109" height="33.1109" rx="16.5555" stroke="#005487" stroke-width="2.88906" shape-rendering="crispEdges"/>
<path d="M24.9865 35.7019C24.9865 35.4415 24.9775 35.1792 24.9901 34.9205C24.9973 34.757 24.9254 34.6959 24.7763 34.6708C23.384 34.448 22.0887 33.9557 20.8743 33.2461C20.2743 32.894 19.9509 32.3389 20.003 31.667C20.0605 30.9394 20.4665 30.3771 21.1833 30.1202C21.6738 29.9442 22.1732 29.9837 22.6313 30.2406C23.2888 30.6071 23.9517 30.9664 24.6721 31.1945C25.8434 31.5664 27.0309 31.7784 28.2436 31.3652C28.5148 31.2736 28.7591 31.137 28.9657 30.934C29.5262 30.3879 29.4813 29.5651 28.858 29.0836C28.443 28.7639 27.9633 28.5806 27.4639 28.4459C26.35 28.1459 25.2057 27.9662 24.0954 27.6446C23.1846 27.3788 22.3043 27.0464 21.5372 26.4572C20.0138 25.2858 19.6186 23.1247 20.3156 21.4647C20.9067 20.058 21.9558 19.1526 23.3697 18.6388C23.8385 18.4681 24.3182 18.3244 24.8104 18.2418C24.9578 18.2166 24.9901 18.1502 24.9883 18.019C24.9847 17.5268 24.9775 17.0345 24.9919 16.5441C25.0081 15.9602 25.2021 15.4572 25.6889 15.0871C26.6932 14.3236 28.1717 14.9111 28.3639 16.156C28.4537 16.7417 28.4034 17.331 28.407 17.9184C28.407 18.1268 28.4627 18.1969 28.6837 18.2454C29.8712 18.513 31.0497 18.8256 32.0539 19.5568C32.9917 20.2395 33.0438 21.3749 32.2012 22.1222C31.7539 22.5192 31.0587 22.6306 30.5323 22.354C29.7975 21.9695 29.052 21.612 28.2292 21.4575C27.3291 21.2886 26.4219 21.2347 25.5219 21.4342C24.9703 21.5563 24.4745 21.8024 24.2607 22.3881C24.1206 22.7707 24.1853 23.1229 24.4781 23.4193C24.7943 23.7391 25.1787 23.9475 25.6009 24.0858C26.4812 24.375 27.3974 24.5062 28.2974 24.7128C29.3214 24.9481 30.3365 25.2086 31.2599 25.744C32.239 26.3116 32.8731 27.1344 33.1857 28.2159C33.5738 29.5561 33.5199 30.855 32.8102 32.082C32.1509 33.2192 31.1323 33.9144 29.9143 34.3438C29.4921 34.4929 29.061 34.6115 28.6172 34.6708C28.4645 34.6905 28.4088 34.766 28.4106 34.9259C28.4178 35.454 28.425 35.984 28.407 36.5122C28.3729 37.4715 27.5591 38.2278 26.6159 38.1937C25.7356 38.1614 25.0386 37.4284 24.9973 36.4816C24.9865 36.2211 24.9973 35.9606 24.9973 35.7001C24.9973 35.7001 24.9955 35.7001 24.9937 35.7001L24.9865 35.7019Z" fill="#005487"/>
</g>
<defs>
<filter id="filter0_dd_1754_5814" x="0.704353" y="0.470337" width="52" height="52" filterUnits="userSpaceOnUse" color-interpolation-filters="sRGB">
<feFlood flood-opacity="0" result="BackgroundImageFix"/>
<feColorMatrix in="SourceAlpha" type="matrix" values="0 0 0 0 0 0 0 0 0 0 0 0 0 0 0 0 0 0 127 0" result="hardAlpha"/>
<feOffset dy="1"/>
<feGaussianBlur stdDeviation="2"/>
<feComposite in2="hardAlpha" operator="out"/>
<feColorMatrix type="matrix" values="0 0 0 0 0 0 0 0 0 0 0 0 0 0 0 0 0 0 0.35 0"/>
<feBlend mode="normal" in2="BackgroundImageFix" result="effect1_dropShadow_1754_5814"/>
<feColorMatrix in="SourceAlpha" type="matrix" values="0 0 0 0 0 0 0 0 0 0 0 0 0 0 0 0 0 0 127 0" result="hardAlpha"/>
<feOffset/>
<feGaussianBlur stdDeviation="4"/>
<feComposite in2="hardAlpha" operator="out"/>
<feColorMatrix type="matrix" values="0 0 0 0 0 0 0 0 0 0.329412 0 0 0 0 0.529412 0 0 0 0.2 0"/>
<feBlend mode="normal" in2="effect1_dropShadow_1754_5814" result="effect2_dropShadow_1754_5814"/>
<feBlend mode="normal" in="SourceGraphic" in2="effect2_dropShadow_1754_5814" result="shape"/>
</filter>
</defs>
</svg>
