<svg width="60" height="55" viewBox="0 0 60 55" fill="none" xmlns="http://www.w3.org/2000/svg">
<g filter="url(#filter0_dd_1933_11)">
<rect x="10.404" y="9.5" width="32.7229" height="32.7229" rx="16.3615" fill="#FFD600"/>
<rect x="10.404" y="9.5" width="32.7229" height="32.7229" rx="16.3615" stroke="#FFD600" stroke-width="3"/>
<mask id="path-2-inside-1_1933_11" fill="white">
<path d="M16.0054 23.4332C16.2116 22.7897 16.6682 22.5346 17.3199 22.4902C18.3324 22.4236 19.3375 22.309 20.35 22.2166C21.1784 22.1389 22.0068 22.0538 22.8353 21.9984C23.1261 21.9799 23.2881 21.8837 23.4059 21.5953C24.1423 19.8166 24.9045 18.0489 25.6592 16.2776C25.8617 15.8005 26.2078 15.5047 26.7454 15.501C27.294 15.4973 27.6474 15.7895 27.8573 16.2813C28.6121 18.06 29.3742 19.835 30.118 21.6175C30.2321 21.8874 30.3831 21.9799 30.6592 22.0021C31.7122 22.0834 32.7615 22.187 33.8145 22.2831C34.6503 22.3571 35.4861 22.4421 36.3219 22.505C37.2387 22.5716 37.7725 23.3888 37.4117 24.1802C37.2607 24.5056 36.9662 24.6979 36.7121 24.9235C35.7254 25.7999 34.735 26.6652 33.7483 27.538C33.3764 27.8671 33.0082 28.2036 32.6253 28.5216C32.4928 28.6326 32.4559 28.7361 32.4927 28.8988C32.8536 30.4668 33.207 32.0384 33.5605 33.6063C33.6489 34.002 33.7446 34.4014 33.8256 34.8008C33.925 35.2889 33.7704 35.6994 33.3727 35.9878C32.9677 36.2837 32.5259 36.2985 32.0914 36.0359C30.3794 35.0116 28.6636 33.9835 26.9552 32.9518C26.819 32.8667 26.7196 32.863 26.576 32.9481C24.8787 33.9724 23.174 34.9894 21.4767 36.01C21.0312 36.28 20.582 36.3059 20.1586 35.9952C19.7315 35.6846 19.5916 35.2482 19.7094 34.7305C20.107 32.9777 20.5047 31.2211 20.9023 29.4683C20.9502 29.2575 20.9943 29.043 21.0459 28.8322C21.0717 28.725 21.0459 28.6473 20.9612 28.5734C19.4516 27.2532 17.9494 25.9293 16.4399 24.6091C16.23 24.4279 16.1085 24.195 16.0091 23.9472V23.4406L16.0054 23.4332Z"/>
</mask>
<path d="M16.0054 23.4332L13.6375 22.6744L13.3292 23.6367L13.7795 24.5413L16.0054 23.4332ZM17.3199 22.4902L17.1567 20.009L17.1509 20.0094L17.3199 22.4902ZM20.35 22.2166L20.5761 24.6928L20.5821 24.6922L20.35 22.2166ZM22.8353 21.9984L22.6775 19.5168L22.6691 19.5174L22.8353 21.9984ZM23.4059 21.5953L21.1085 20.6442L21.1041 20.655L23.4059 21.5953ZM25.6592 16.2776L27.9467 17.2523L27.9481 17.2492L25.6592 16.2776ZM26.7454 15.501L26.7286 13.0146L26.7283 13.0146L26.7454 15.501ZM27.8573 16.2813L30.1463 15.31L30.1443 15.3054L27.8573 16.2813ZM30.118 21.6175L27.8232 22.575L27.8277 22.5858L30.118 21.6175ZM30.6592 22.0021L30.46 24.4806L30.4677 24.4812L30.6592 22.0021ZM33.8145 22.2831L33.5884 24.7593L33.5954 24.76L33.8145 22.2831ZM36.3219 22.505L36.1354 24.9845L36.1418 24.985L36.3219 22.505ZM37.4117 24.1802L39.6673 25.2265L39.6708 25.2191L39.6741 25.2117L37.4117 24.1802ZM36.7121 24.9235L35.0612 23.0641L35.0609 23.0644L36.7121 24.9235ZM33.7483 27.538L32.1009 25.6754L32.1003 25.676L33.7483 27.538ZM32.6253 28.5216L31.0366 26.6088L31.0294 26.6148L32.6253 28.5216ZM32.4927 28.8988L30.0675 29.4476L30.0696 29.4564L32.4927 28.8988ZM33.5605 33.6063L35.9872 33.0644L35.9861 33.0595L33.5605 33.6063ZM33.8256 34.8008L31.3887 35.295L31.3891 35.297L33.8256 34.8008ZM33.3727 35.9878L31.9127 33.9751L31.906 33.98L33.3727 35.9878ZM32.0914 36.0359L33.3775 33.9078L33.3681 33.9022L32.0914 36.0359ZM26.9552 32.9518L25.6384 35.061L25.654 35.0707L25.6698 35.0803L26.9552 32.9518ZM26.576 32.9481L25.3088 30.8087L25.3 30.8139L25.2912 30.8192L26.576 32.9481ZM21.4767 36.01L20.1953 33.8791L20.1881 33.8835L21.4767 36.01ZM20.1586 35.9952L21.6294 33.9904L21.6211 33.9843L20.1586 35.9952ZM19.7094 34.7305L22.1339 35.2823L22.1343 35.2806L19.7094 34.7305ZM20.9023 29.4683L18.4775 28.9177L18.4774 28.9182L20.9023 29.4683ZM21.0459 28.8322L23.4612 29.4229L23.4636 29.4133L21.0459 28.8322ZM20.9612 28.5734L19.3243 30.4451L19.3255 30.4462L20.9612 28.5734ZM16.4399 24.6091L18.0768 22.7374L18.0709 22.7322L18.0649 22.7271L16.4399 24.6091ZM16.0091 23.9472H13.5226V24.4274L13.7014 24.8731L16.0091 23.9472ZM16.0091 23.4406H18.4956V22.8559L18.2351 22.3324L16.0091 23.4406ZM18.3734 24.192C18.3579 24.2403 18.3182 24.3414 18.2315 24.4631C18.1418 24.5891 18.0247 24.7046 17.8889 24.7965C17.6241 24.9757 17.4254 24.9753 17.4888 24.971L17.1509 20.0094C16.5626 20.0495 15.8098 20.1989 15.1022 20.6776C14.3518 21.1853 13.8838 21.9057 13.6375 22.6744L18.3734 24.192ZM17.483 24.9714C18.5344 24.9022 19.6408 24.7782 20.5761 24.6928L20.1239 19.7403C19.0342 19.8398 18.1303 19.945 17.1567 20.009L17.483 24.9714ZM20.5821 24.6922C21.4404 24.6118 22.2164 24.5319 23.0014 24.4793L22.6691 19.5174C21.7973 19.5758 20.9164 19.666 20.1179 19.7409L20.5821 24.6922ZM22.993 24.4799C23.3576 24.4567 23.9753 24.3688 24.5856 23.9529C25.2142 23.5247 25.5367 22.9546 25.7078 22.5355L21.1041 20.655C21.1574 20.5244 21.34 20.1467 21.7854 19.8432C22.2125 19.5522 22.6038 19.5216 22.6775 19.5169L22.993 24.4799ZM25.7034 22.5464C26.4332 20.7834 27.1864 19.0367 27.9467 17.2523L23.3717 15.3029C22.6225 17.0611 21.8514 18.8497 21.1085 20.6442L25.7034 22.5464ZM27.9481 17.2492C27.9259 17.3015 27.8264 17.508 27.567 17.7022C27.2821 17.9155 26.975 17.986 26.7625 17.9875L26.7283 13.0146C25.9782 13.0197 25.2293 13.24 24.5863 13.7214C23.9689 14.1837 23.5951 14.7767 23.3704 15.306L27.9481 17.2492ZM26.7621 17.9875C26.5641 17.9888 26.2545 17.9275 25.9599 17.7119C25.6909 17.515 25.5899 17.3032 25.5703 17.2572L30.1443 15.3054C29.9148 14.7676 29.5322 14.1637 28.8968 13.6988C28.2359 13.215 27.4752 13.0095 26.7286 13.0146L26.7621 17.9875ZM25.5683 17.2526C26.3287 19.0445 27.0832 20.8016 27.8232 22.575L32.4127 20.66C31.6652 18.8685 30.8954 17.0755 30.1463 15.31L25.5683 17.2526ZM27.8277 22.5858C27.9962 22.9842 28.3105 23.5323 28.9168 23.9501C29.5074 24.3571 30.1048 24.4521 30.46 24.4806L30.8583 19.5235C30.9374 19.5299 31.3213 19.5675 31.7388 19.8553C32.1721 20.1539 32.3539 20.5207 32.4082 20.6492L27.8277 22.5858ZM30.4677 24.4812C31.4976 24.5608 32.5114 24.661 33.5884 24.7593L34.0406 19.8069C33.0117 19.7129 31.9268 19.6061 30.8507 19.5229L30.4677 24.4812ZM33.5954 24.76C34.3849 24.8298 35.2805 24.9202 36.1354 24.9845L36.5084 20.0255C35.6917 19.9641 34.9157 19.8843 34.0337 19.8063L33.5954 24.76ZM36.1418 24.985C35.8885 24.9666 35.5172 24.819 35.2625 24.428C34.9951 24.0177 34.9809 23.5178 35.1493 23.1486L39.6741 25.2117C40.2033 24.0512 40.1025 22.747 39.4293 21.7135C38.7687 20.6995 37.672 20.11 36.5019 20.025L36.1418 24.985ZM35.1561 23.1338C35.2101 23.0173 35.2702 22.9281 35.3181 22.8671C35.3414 22.8374 35.3612 22.8152 35.3746 22.8008C35.3879 22.7866 35.3961 22.7789 35.3964 22.7786C35.3966 22.7784 35.3912 22.7835 35.377 22.7958C35.3623 22.8086 35.3434 22.8245 35.3141 22.849C35.2985 22.862 35.2856 22.8727 35.2664 22.8887C35.249 22.9032 35.229 22.9199 35.2081 22.9375C35.1666 22.9724 35.1158 23.0157 35.0612 23.0641L38.3631 26.7828C38.39 26.759 38.415 26.7384 38.5007 26.6669C38.57 26.609 38.6845 26.5131 38.8047 26.4C39.0507 26.1685 39.4073 25.7872 39.6673 25.2265L35.1561 23.1338ZM35.0609 23.0644C34.0694 23.9451 33.1101 24.7828 32.1009 25.6754L35.3956 29.4005C36.3599 28.5476 37.3815 27.6547 38.3634 26.7826L35.0609 23.0644ZM32.1003 25.676C31.6886 26.0403 31.3795 26.324 31.0366 26.6088L34.214 30.4344C34.6369 30.0831 35.0642 29.6938 35.3962 29.3999L32.1003 25.676ZM31.0294 26.6148C30.7692 26.8326 30.373 27.2324 30.1503 27.8646C29.923 28.5096 29.9854 29.0846 30.0675 29.4476L34.918 28.35C34.9633 28.5503 35.0256 28.9922 34.8407 29.517C34.6604 30.029 34.3488 30.3216 34.2212 30.4284L31.0294 26.6148ZM30.0696 29.4564C30.4289 31.0177 30.7809 32.583 31.1348 34.1531L35.9861 33.0595C35.6332 31.4938 35.2783 29.9158 34.9159 28.3412L30.0696 29.4564ZM31.1337 34.1483C31.2337 34.596 31.3139 34.9261 31.3887 35.295L36.2625 34.3066C36.1753 33.8767 36.064 33.4081 35.9872 33.0644L31.1337 34.1483ZM31.3891 35.297C31.3598 35.1534 31.3451 34.8911 31.4614 34.5854C31.579 34.276 31.7719 34.0772 31.9127 33.9751L34.8327 38.0006C35.3712 37.61 35.8402 37.0618 36.1097 36.353C36.3778 35.6479 36.3907 34.9364 36.2621 34.3046L31.3891 35.297ZM31.906 33.98C32.045 33.8785 32.3032 33.7492 32.6525 33.7364C32.9979 33.7238 33.2516 33.8317 33.3775 33.9078L30.8054 38.164C31.3657 38.5027 32.0576 38.7345 32.8338 38.7061C33.6138 38.6777 34.2954 38.3931 34.8394 37.9957L31.906 33.98ZM33.3681 33.9022C31.6566 32.8782 29.9445 31.8523 28.2407 30.8233L25.6698 35.0803C27.3828 36.1148 29.1022 37.145 30.8148 38.1697L33.3681 33.9022ZM28.2721 30.8426C28.0014 30.6736 27.4935 30.4106 26.8068 30.3999C26.1182 30.3893 25.598 30.6374 25.3088 30.8087L27.8432 35.0875C27.6977 35.1737 27.2989 35.3812 26.73 35.3724C26.1629 35.3636 25.7728 35.1449 25.6384 35.061L28.2721 30.8426ZM25.2912 30.8192C23.5929 31.8442 21.9059 32.8505 20.1953 33.8791L22.758 38.141C24.4421 37.1283 26.1645 36.1007 27.8608 35.077L25.2912 30.8192ZM20.1881 33.8835C20.2455 33.8487 20.4579 33.736 20.7937 33.7339C21.1594 33.7316 21.4543 33.862 21.6294 33.9904L18.6877 38.0001C19.2862 38.4392 20.0175 38.7119 20.8249 38.7068C21.6025 38.7019 22.2624 38.4413 22.7653 38.1366L20.1881 33.8835ZM21.6211 33.9843C21.7657 34.0895 21.9663 34.3008 22.0792 34.6269C22.1874 34.9391 22.156 35.1854 22.1339 35.2823L17.2848 34.1788C17.145 34.7934 17.1246 35.5167 17.38 36.2542C17.6402 37.0056 18.1243 37.5903 18.696 38.0061L21.6211 33.9843ZM22.1343 35.2806C22.3332 34.4039 22.532 33.5263 22.7309 32.649C22.9297 31.7716 23.1284 30.8945 23.3272 30.0184L18.4774 28.9182C18.2785 29.7949 18.0796 30.6726 17.8808 31.5499C17.682 32.4273 17.4832 33.3043 17.2845 34.1804L22.1343 35.2806ZM23.3271 30.0189C23.3914 29.7355 23.4145 29.6141 23.4612 29.4229L18.6305 28.2416C18.5742 28.472 18.5089 28.7795 18.4775 28.9177L23.3271 30.0189ZM23.4636 29.4133C23.5536 29.0385 23.6011 28.5049 23.4075 27.9149C23.216 27.3315 22.869 26.9383 22.5969 26.7006L19.3255 30.4462C19.1381 30.2825 18.8463 29.9651 18.6825 29.4658C18.5164 28.9599 18.5639 28.5188 18.6282 28.2512L23.4636 29.4133ZM22.5981 26.7017C21.8454 26.0434 21.0942 25.3839 20.341 24.7227C19.5884 24.0619 18.8337 23.3993 18.0768 22.7374L14.803 26.4809C15.5557 27.1391 16.3068 27.7986 17.0601 28.4599C17.8127 29.1206 18.5674 29.7832 19.3243 30.4451L22.5981 26.7017ZM18.0649 22.7271C18.305 22.9344 18.3653 23.1422 18.3168 23.0213L13.7014 24.8731C13.8517 25.2478 14.155 25.9215 14.8149 26.4912L18.0649 22.7271ZM18.4956 23.9472V23.4406H13.5226V23.9472H18.4956ZM18.2351 22.3324L18.2314 22.325L13.7795 24.5413L13.7832 24.5487L18.2351 22.3324Z" fill="white" mask="url(#path-2-inside-1_1933_11)"/>
<rect x="35.598" y="29.721" width="15.4056" height="15.4056" rx="7.70281" fill="#FFD600"/>
<rect x="35.598" y="29.721" width="15.4056" height="15.4056" rx="7.70281" stroke="white" stroke-width="2"/>
<path d="M39.3638 38.4191V36.4284H47.2377V38.4191H39.3638Z" fill="white"/>
</g>
<defs>
<filter id="filter0_dd_1933_11" x="0.903961" y="0" width="59.0996" height="54.1266" filterUnits="userSpaceOnUse" color-interpolation-filters="sRGB">
<feFlood flood-opacity="0" result="BackgroundImageFix"/>
<feColorMatrix in="SourceAlpha" type="matrix" values="0 0 0 0 0 0 0 0 0 0 0 0 0 0 0 0 0 0 127 0" result="hardAlpha"/>
<feOffset dy="1"/>
<feGaussianBlur stdDeviation="2"/>
<feComposite in2="hardAlpha" operator="out"/>
<feColorMatrix type="matrix" values="0 0 0 0 0 0 0 0 0 0 0 0 0 0 0 0 0 0 0.35 0"/>
<feBlend mode="normal" in2="BackgroundImageFix" result="effect1_dropShadow_1933_11"/>
<feColorMatrix in="SourceAlpha" type="matrix" values="0 0 0 0 0 0 0 0 0 0 0 0 0 0 0 0 0 0 127 0" result="hardAlpha"/>
<feOffset/>
<feGaussianBlur stdDeviation="4"/>
<feComposite in2="hardAlpha" operator="out"/>
<feColorMatrix type="matrix" values="0 0 0 0 0 0 0 0 0 0.329412 0 0 0 0 0.529412 0 0 0 0.2 0"/>
<feBlend mode="normal" in2="effect1_dropShadow_1933_11" result="effect2_dropShadow_1933_11"/>
<feBlend mode="normal" in="SourceGraphic" in2="effect2_dropShadow_1933_11" result="shape"/>
</filter>
</defs>
</svg>
