<svg width="35" height="26" viewBox="0 0 35 26" fill="none" xmlns="http://www.w3.org/2000/svg">
<path d="M29.72 12.3238C29.7221 12.3238 29.7231 12.3264 29.7215 12.3278C29.0932 12.8895 28.4216 13.4054 27.6994 13.8694C27.4719 14.0155 27.102 14.0602 26.8379 14.0021C26.0102 13.8294 25.2682 13.511 24.5876 13.0685C24.2749 12.8635 23.8334 12.9336 23.6494 13.1872C23.4287 13.4732 23.5145 13.8024 23.8395 14.0237C24.5248 14.5061 24.5914 15.5428 23.7891 15.785C23.207 15.9607 22.6057 16.0907 21.9878 16.1822C21.9019 16.193 21.7854 16.1606 21.7547 16.2469C21.7241 16.3441 21.859 16.3495 21.9264 16.3926C23.0363 17.051 24.2136 17.6068 25.3847 18.1734C26.8011 18.8641 28.2605 19.4631 29.7198 20.0783C30.8971 20.5748 32.056 21.0982 33.1352 21.7404C33.2701 21.8213 33.4173 21.8915 33.5338 21.994C33.6135 22.0641 33.7913 22.1235 33.6871 22.2692C33.6012 22.3987 33.4725 22.3933 33.313 22.3447C32.9022 22.2206 32.4914 22.1127 32.0744 21.9994C30.9523 21.6972 29.8057 21.4921 28.6591 21.2763C28.6354 21.2715 28.6112 21.2683 28.5866 21.2662C28.3511 21.2459 28.128 21.1794 27.8926 21.1576C26.8931 21.0442 25.8937 20.9525 24.8881 20.9039C24.422 20.8823 23.9499 20.8716 23.4778 20.8284C22.8018 20.7635 22.0979 20.6953 21.4252 20.6019C21.061 20.5514 20.695 20.5116 20.3322 20.456C19.9438 20.3955 19.5436 20.3731 19.1885 20.2275C19.0146 20.1562 18.8691 20.0224 18.7012 19.938C17.3522 19.2419 16.1565 18.3947 15.1938 17.3046C14.4641 16.479 13.9307 15.5508 13.4156 14.6119C12.4223 12.8257 11.337 11.0935 9.68753 9.69583C9.45706 9.50111 9.22351 9.30911 8.97144 9.13815C8.50887 8.82443 8.04691 8.35632 7.87868 7.82332C7.85551 7.75535 7.82991 7.68739 7.80341 7.61942C7.78096 7.56184 7.82349 7.49183 7.88481 7.49954C8.32016 7.57509 8.60222 7.47256 8.73099 7.18655C8.86588 6.88976 8.75551 6.61455 8.41214 6.41488C8.14847 6.25839 7.86641 6.12888 7.60888 5.96699C7.15922 5.68914 7.09618 5.19287 7.55924 4.93797C8.63027 4.34836 9.82813 4.0946 11.1469 4.2132C12.6921 4.3535 13.7222 5.17374 14.4273 6.34473C14.8259 7.00848 15.0896 7.72618 15.4084 8.4223C15.576 8.78056 15.7598 9.18388 15.9195 9.54575C16.0636 9.8723 16.2593 10.1819 16.4018 10.5107C16.4815 10.6941 16.5857 10.6834 16.7451 10.5862C18.2903 9.64726 19.8907 8.80004 21.5524 8.02837C23.1466 7.28908 24.7716 6.61455 26.3965 5.94541C26.9562 5.71277 27.5431 5.53219 28.1134 5.32115C28.7592 5.08216 29.445 4.92074 30.0981 4.7024C30.2706 4.64473 30.4417 4.58367 30.6151 4.53158C31.1485 4.36969 31.7004 4.27795 32.2461 4.15384C32.7407 4.03909 33.2583 4.03459 33.7725 4.00845C34.0704 3.9933 34.3309 4.2269 34.3309 4.52519V4.63383C34.3309 4.79074 34.2168 4.94806 34.196 5.10358C34.1663 5.28763 34.1292 5.46964 34.0856 5.64987C33.7429 7.06519 32.3568 8.07996 30.9422 7.73448C30.8021 7.70028 30.6625 7.65991 30.5231 7.61286C30.1675 7.49414 29.8363 7.59127 29.6708 7.83411C29.4133 8.21185 29.5911 8.56261 30.1184 8.74608C30.2309 8.78381 30.3444 8.81696 30.4586 8.84625C31.3851 9.08385 31.9264 10.0571 31.293 10.7739C31.0741 11.0217 30.7558 11.1724 30.4252 11.167C29.5259 11.1523 28.6612 10.977 27.8313 10.6186C27.6044 10.5215 27.353 10.5377 27.1384 10.678C26.7337 10.9424 26.8073 11.428 27.2733 11.6547C28.0336 12.027 28.8674 12.1997 29.7197 12.3238C29.7198 12.3238 29.7199 12.3238 29.72 12.3238ZM10.7667 7.06783C11.1653 7.06783 11.4841 6.77104 11.4657 6.41488C11.4473 6.08571 11.1469 5.84288 10.7422 5.83748C10.3498 5.83748 10.08 6.08031 10.0738 6.44726C10.0738 6.80881 10.362 7.06783 10.7606 7.06783H10.7667Z" fill="#80D34A"/>
<path d="M29.0708 4.91972C29.0716 4.91901 29.0707 4.91774 29.0697 4.91823C28.2191 5.35319 27.2774 5.58498 26.3967 5.951C24.7656 6.62553 23.1407 7.29468 21.5526 8.03397C19.8909 8.80564 18.2905 9.65286 16.7453 10.5918C16.5859 10.6889 16.4817 10.6997 16.402 10.5163C15.9716 9.52336 16.2009 8.516 17.0447 7.83852C17.1718 7.73652 17.2975 7.63321 17.4198 7.52672C17.9533 7.06263 18.5665 6.6795 19.0815 6.19923C19.3575 5.9456 19.7376 5.77832 20.0565 5.54088C21.3135 4.60732 22.6011 3.70074 23.9685 2.8967C25.3604 2.07646 26.7646 1.25622 28.4017 0.840707C28.5673 0.797537 28.7267 0.846104 28.8861 0.792141C28.9843 0.759763 29.0026 0.840707 29.0149 0.910859C29.0456 1.07814 29.113 1.24543 29.113 1.41811C29.113 1.91457 29.2847 2.40563 29.1621 2.91288C29.0824 3.25825 29.1743 3.6252 29.0824 3.98135C29.0272 4.1972 29.0333 4.41845 28.9965 4.6397C28.9782 4.74733 28.9964 4.83886 29.0695 4.91964C29.0698 4.92001 29.0704 4.92004 29.0708 4.91972Z" fill="#66A53D"/>
<path d="M8.11319 8.78905C8.08428 8.75088 8.17862 8.72571 8.2233 8.74296C8.79246 8.96266 9.24329 9.32445 9.68291 9.70102C11.3323 11.0987 12.4177 12.8309 13.411 14.617C13.9322 15.5506 14.4595 16.4788 15.1892 17.3098C16.1519 18.3998 17.3476 19.2471 18.6965 19.9432C18.8424 20.0165 18.8129 20.1697 18.6517 20.1437C18.572 20.1308 18.4954 20.1036 18.4267 20.0835C16.6301 19.5223 14.8826 18.8531 13.2822 17.9196C11.4121 16.8349 10.1918 15.297 9.35793 13.4892C8.91032 12.5179 8.72636 11.498 8.55468 10.4673C8.4627 9.90069 8.46883 9.30709 8.11319 8.78905Z" fill="#FEEC9C"/>
<path d="M22.4424 20.7936C22.4424 20.7949 22.4437 20.7958 22.445 20.7954C22.7875 20.6781 23.1361 20.7963 23.4725 20.8286C23.9385 20.8718 24.4168 20.8826 24.8828 20.9042C25.8884 20.9582 26.8879 21.0445 27.8873 21.1578C28.1219 21.1796 28.3164 21.3505 28.495 21.5042C29.0742 22.0029 29.655 22.4998 30.2174 23.0087C30.8428 23.5754 31.4131 24.1851 31.9465 24.8165C32.0385 24.9298 32.1734 25.0755 32.0079 25.1996C31.8668 25.3076 31.689 25.2374 31.548 25.1565C31.0268 24.8435 30.524 24.5143 29.9967 24.2067C28.8378 23.5268 27.6421 22.9008 26.4035 22.345C25.1166 21.7626 23.793 21.2502 22.4449 20.7917C22.4437 20.7913 22.4424 20.7922 22.4424 20.7936Z" fill="#66A53D"/>
<path d="M6.70804 5.50314C6.70593 5.50314 6.70497 5.50576 6.70658 5.50713C6.96373 5.72524 7.31682 5.79561 7.60327 5.97262C7.8608 6.13451 8.14286 6.26941 8.40652 6.42051C8.7499 6.62017 8.86027 6.89538 8.72537 7.19218C8.59661 7.47818 8.30842 7.58071 7.8792 7.50517C7.87198 7.50426 7.86476 7.50366 7.85754 7.50328C7.79844 7.50022 7.74699 7.44488 7.68978 7.42975C7.67048 7.42465 7.65015 7.41765 7.63431 7.40552C7.13572 7.0239 6.52093 6.82624 5.94771 6.55542C5.56754 6.37194 5.15058 6.24783 4.73363 6.12911C3.97943 5.91866 3.19457 5.83231 2.44036 5.65963C1.96209 5.55171 1.48382 5.63805 1.00554 5.5679C0.606982 5.50314 0.331055 5.33046 0.331055 4.99589C0.331055 4.58038 0.52727 4.38611 0.99328 4.38611C2.06633 4.38611 3.11485 4.55879 4.16338 4.74766C4.96663 4.89876 5.69631 5.21174 6.45664 5.44918C6.54248 5.47616 6.61606 5.51393 6.70804 5.50314Z" fill="#66A53D"/>
<path d="M29.921 12.1744C29.8011 12.2711 29.6402 12.3117 29.488 12.2874C28.7195 12.1647 27.974 11.9872 27.2789 11.6545C26.8129 11.4278 26.7454 10.9422 27.144 10.6777C27.3586 10.5374 27.61 10.5212 27.8369 10.6184C28.3743 10.8519 28.9283 11.0093 29.4989 11.0942C30.0245 11.1724 30.3347 11.8409 29.921 12.1744Z" fill="#66A53D"/>
<path d="M32.528 9.10876C32.5248 9.11161 32.5205 9.11303 32.5162 9.11272C31.7091 9.05364 30.8959 9.01535 30.1255 8.75166C29.592 8.57358 29.4203 8.21743 29.6778 7.83969C29.8434 7.60225 30.1684 7.49972 30.5301 7.61844C30.9677 7.76715 31.4111 7.84791 31.8598 7.87807C32.4805 7.9198 32.9513 8.55735 32.5732 9.05126C32.559 9.06983 32.5446 9.08831 32.53 9.10669C32.5294 9.10744 32.5287 9.10813 32.528 9.10876Z" fill="#66A53D"/>
<path d="M25.7621 14.9632C25.7628 14.9632 25.7629 14.9623 25.7623 14.9621C25.0828 14.7141 24.4216 14.4337 23.8339 14.0296C23.5089 13.803 23.4292 13.4792 23.6438 13.1932C23.8339 12.9449 24.2692 12.8748 24.5819 13.0745C25.2626 13.517 26.0045 13.8353 26.8323 14.008C26.8957 14.0214 26.9654 14.0163 27.0328 14.0176C27.1902 14.0206 27.1698 14.199 27.0354 14.281C26.6274 14.53 26.2158 14.7777 25.7619 14.9621C25.7613 14.9623 25.7615 14.9632 25.7621 14.9632Z" fill="#66A53D"/>
<path d="M7.67513 7.47578C7.64618 7.45461 7.6902 7.41712 7.72111 7.43532C7.75678 7.45632 7.70854 7.50022 7.67513 7.47578Z" fill="#80D34A"/>
<path d="M10.7669 7.06809C10.3622 7.06809 10.074 6.80907 10.0802 6.44751C10.0802 6.08057 10.3561 5.83234 10.7485 5.83773C11.1532 5.83773 11.4598 6.08596 11.4721 6.41514C11.4905 6.77129 11.1716 7.06809 10.7731 7.06809H10.7669Z" fill="#282928"/>
</svg>
