<svg width="13" height="12" viewBox="0 0 13 12" fill="none" xmlns="http://www.w3.org/2000/svg">
<path d="M2.08462 11.6458C1.72435 11.5795 1.38902 11.4622 1.10357 11.243C0.6269 10.8759 0.35531 10.4068 0.35531 9.82817C0.352539 7.74542 0.352539 5.66013 0.352539 3.57738C0.352539 2.60867 1.22274 1.7929 2.27584 1.75976C3.16821 1.73172 4.06058 1.75466 4.95294 1.74702C5.21068 1.74702 5.44624 1.80055 5.6042 2.00959C5.76494 2.21608 5.78988 2.43787 5.66517 2.66475C5.54046 2.89163 5.32984 3.0089 5.05548 3.0089C4.18528 3.01145 3.31786 3.0089 2.44766 3.0089C1.97654 3.0089 1.71049 3.25363 1.71049 3.68955C1.71049 5.69837 1.71049 7.70463 1.71049 9.71345C1.71049 10.1519 1.97931 10.3967 2.45875 10.3967C4.63701 10.3967 6.81527 10.3967 8.99354 10.3967C9.48129 10.3967 9.7418 10.1545 9.7418 9.70325C9.7418 8.90788 9.7418 8.11252 9.7418 7.3146C9.7418 7.05202 9.88036 6.85573 10.1409 6.74611C10.4014 6.6365 10.648 6.67473 10.8697 6.84044C11.0388 6.9679 11.1108 7.1438 11.1108 7.34009C11.1108 8.22723 11.1496 9.11437 11.0914 9.99897C11.0415 10.7586 10.3709 11.4266 9.54226 11.6025C9.48406 11.6152 9.42864 11.6279 9.37044 11.6381H2.08462V11.6458Z" fill="#FFD600"/>
<path d="M12.4437 5.00248C12.3523 5.24976 12.1832 5.41801 11.8922 5.469C11.4848 5.54038 11.0941 5.25231 11.0913 4.86737C11.0885 4.18417 11.0913 3.50097 11.0913 2.81522C11.0913 2.77443 11.0913 2.73619 11.0913 2.68776C11.0331 2.7005 11.0082 2.73874 10.9777 2.76678C9.1791 4.42125 7.37774 6.07572 5.57914 7.73274C5.3131 7.97747 4.97777 8.02081 4.68955 7.85001C4.33205 7.63842 4.27108 7.18465 4.55652 6.89658C4.58978 6.86089 4.62858 6.8303 4.66461 6.79716C6.44657 5.15799 8.22853 3.51882 10.0105 1.87709C10.041 1.84905 10.0798 1.82866 10.0909 1.78532C10.0493 1.76238 10.005 1.77512 9.96338 1.77512C9.22067 1.77512 8.47795 1.77512 7.73247 1.77512C7.42762 1.77512 7.16711 1.59158 7.08398 1.3239C7.00084 1.05623 7.11446 0.773265 7.36665 0.622859C7.4775 0.559127 7.59113 0.523438 7.71584 0.523438C9.07656 0.523438 10.4373 0.523438 11.798 0.523438C12.0613 0.523438 12.2497 0.6509 12.3772 0.85739C12.4022 0.898178 12.4216 0.941516 12.4437 0.984853V4.99994V5.00248Z" fill="#FFD600"/>
</svg>
