<svg width="44" height="40" viewBox="0 0 44 40" fill="none" xmlns="http://www.w3.org/2000/svg">
<path d="M17.3369 9.2002C17.1658 9.6017 16.9944 10.003 16.8229 10.4043C16.238 11.7734 15.6531 13.1423 15.0836 14.5179M17.3369 9.2002L8.99753 15.4128M17.3369 9.2002C17.5394 8.72316 17.8855 8.42732 18.4231 8.42362M17.3369 9.2002L27.9995 15.4276C27.4424 15.3857 26.8852 15.3339 26.328 15.2821C26.0494 15.2563 25.7708 15.2304 25.4922 15.2057C25.223 15.1811 24.954 15.1561 24.6852 15.131C23.9024 15.0581 23.1207 14.9852 22.3369 14.9247C22.0607 14.9025 21.9098 14.81 21.7956 14.5401C21.2699 13.2801 20.7349 12.0238 20.1999 10.7672C19.9781 10.2463 19.7562 9.72523 19.535 9.20389M15.0836 14.5179C14.9658 14.8063 14.8038 14.9025 14.5129 14.921M15.0836 14.5179L16.2346 14.988C16.2341 14.9891 16.2337 14.9901 16.2333 14.9912M15.0836 14.5179L16.2323 14.9934C16.2326 14.9927 16.233 14.9919 16.2333 14.9912M14.5129 14.921C13.8502 14.9654 13.1875 15.0287 12.5247 15.092C12.3591 15.1078 12.1934 15.1236 12.0277 15.1392C11.7042 15.1687 11.3814 15.2005 11.0589 15.2323C10.3721 15.3 9.68652 15.3675 8.99753 15.4128M14.5129 14.921L14.596 16.1615C14.5954 16.1615 14.5948 16.1615 14.5943 16.1616M14.5129 14.921L14.5918 16.1617C14.5926 16.1617 14.5935 16.1616 14.5943 16.1616M8.99753 15.4128L9.07908 16.6534C9.07961 16.6534 9.08015 16.6533 9.08068 16.6533C9.08111 16.6533 9.08155 16.6532 9.08199 16.6532L8.99753 15.4128ZM7.69438 16.3594L7.68311 16.3558L8.79607 15.8017L8.79975 15.8091L8.93005 16.0708V16.3632V16.5898C8.93085 16.5909 8.93152 16.5918 8.93207 16.5925L8.93603 16.5959L8.93602 16.5959C8.96044 16.6173 8.98485 16.6386 9.00927 16.66L7.68679 16.3632V16.8698L8.39742 16.5847L7.70619 16.3632L7.69438 16.3594ZM7.69438 16.3594V16.3594ZM19.535 9.20389C19.3251 8.71206 18.9717 8.41992 18.4231 8.42362M19.535 9.20389L18.5002 9.64542M19.535 9.20389L18.5019 9.64227C18.5108 9.62532 18.5173 9.61564 18.5203 9.6116C18.5212 9.61043 18.5216 9.60989 18.5216 9.60988C18.5216 9.60987 18.5147 9.6182 18.4995 9.6296C18.4903 9.63652 18.4795 9.64337 18.4676 9.64952C18.4557 9.65566 18.4446 9.66012 18.4352 9.66316C18.4349 9.66326 18.4346 9.66335 18.4343 9.66344C18.4334 9.66315 18.4325 9.66286 18.4316 9.66254M18.4231 8.42362L18.4316 9.66254M18.4231 8.42362L18.4314 9.66249C18.4236 9.65983 18.4146 9.65617 18.4048 9.65129C18.3927 9.64524 18.3815 9.63834 18.3718 9.63122C18.3556 9.61936 18.3483 9.61053 18.3482 9.61054C18.3482 9.61055 18.3487 9.61109 18.3495 9.61227C18.3522 9.61579 18.3574 9.62351 18.3647 9.63649C18.3651 9.6372 18.3655 9.63792 18.3659 9.63866C18.3728 9.65121 18.3814 9.66831 18.391 9.69085C18.4057 9.72542 18.4204 9.75999 18.4351 9.79455C18.2781 10.1628 18.1211 10.5301 17.9644 10.897C17.3803 12.2641 16.7995 13.6235 16.2333 14.9912M18.4316 9.66254L14.5943 16.1616M16.2333 14.9912C16.1181 15.2722 15.9219 15.6037 15.5632 15.8481C15.2134 16.0864 14.8492 16.1451 14.5943 16.1616" stroke="#005487" stroke-width="2.48652"/>
<rect x="2.08154" y="2.42261" width="32.7229" height="32.7229" rx="16.3615" stroke="#005487" stroke-width="3"/>
<rect x="27.2754" y="22.6436" width="15.4056" height="15.4056" rx="7.70281" fill="#DBE0E0"/>
<path d="M33.9826 34.2834V26.4094H35.9734V34.2834H33.9826ZM31.041 31.3418V29.351H38.915V31.3418H31.041Z" fill="#005487"/>
<rect x="27.2754" y="22.6436" width="15.4056" height="15.4056" rx="7.70281" stroke="#005487" stroke-width="2"/>
</svg>
