<svg width="75" height="68" viewBox="0 0 75 68" fill="none" xmlns="http://www.w3.org/2000/svg">
<g filter="url(#filter0_dd_113_12622)">
<path d="M8.37162 35.1698V32.5597C8.43357 32.4961 8.41622 32.4155 8.42118 32.3397C8.48065 31.24 8.61941 30.1475 8.8325 29.0673C9.83357 23.9888 12.19 19.6093 15.8623 15.9263C18.0378 13.7414 20.5479 12.0111 23.3678 10.7256C25.8902 9.57449 28.5341 8.83642 31.3019 8.53826C31.8347 8.48205 32.3674 8.42828 32.9002 8.37207C33.7823 8.37207 34.6644 8.37207 35.5466 8.37207C35.6407 8.44539 35.7522 8.41606 35.8563 8.42339C37.0135 8.48694 38.1582 8.63113 39.2931 8.85841C44.5561 9.92397 49.0708 12.3459 52.8149 16.1487C55.7041 19.0838 57.7533 22.5151 58.9675 26.4254C60.0255 29.8347 60.3229 33.3149 59.9116 36.8561C59.8942 37.0028 59.9041 37.103 60.0627 37.1812C61.2174 37.7579 62.2482 38.5058 63.1328 39.4394C65.7346 42.1766 66.7951 45.4221 66.2797 49.132C65.8981 51.8741 64.627 54.1934 62.5282 56.0312C59.7555 58.458 56.5045 59.3916 52.8372 58.8564C50.6641 58.5387 48.7487 57.6369 47.0786 56.2316C46.9646 56.1363 46.8878 56.1241 46.7491 56.1974C46.1965 56.4882 45.6439 56.7791 45.074 57.0381C40.822 58.9688 36.3618 59.6849 31.7058 59.2572C28.5218 58.9639 25.4987 58.1061 22.6467 56.6862C18.3699 54.5551 14.9355 51.4928 12.3684 47.5019C10.2573 44.2221 8.98366 40.6442 8.54011 36.7828C8.47817 36.2476 8.42613 35.7124 8.36914 35.1771L8.37162 35.1698ZM43.2106 45.0286C43.2503 44.8942 43.2751 44.8258 43.2924 44.7549C44.7866 38.7819 50.5699 35.0305 56.7052 36.0594C56.9108 36.0936 56.9455 36.0521 56.9629 35.8614C57.1289 33.9356 57.062 32.0196 56.7275 30.1133C55.8231 24.9713 53.4071 20.6357 49.4846 17.1458C45.9487 13.9956 41.7883 12.1284 37.0506 11.5467C33.8988 11.1582 30.7841 11.3732 27.7487 12.2995C21.2516 14.2791 16.4941 18.2993 13.5677 24.3505C11.3649 28.906 10.8619 33.6986 11.9299 38.6255C12.9681 43.423 15.3791 47.4652 19.1083 50.7108C23.4421 54.4842 28.5341 56.3611 34.3101 56.3734C37.9328 56.3807 41.3696 55.5498 44.6057 53.927C44.851 53.8048 44.8535 53.7266 44.7197 53.5115C43.4113 51.4073 42.8315 49.1198 43.0025 46.6538C43.0099 46.5341 43.0025 46.4143 43.0025 46.2799C42.165 47.018 41.7264 47.062 40.7823 46.5048C38.7331 45.295 36.6839 44.0877 34.6421 42.8657C34.3423 42.6873 34.1069 42.6776 33.8096 42.8657C33.1926 43.2592 32.5557 43.6185 31.9264 43.99C30.4495 44.8649 28.9727 45.7374 27.4959 46.6123C26.9458 46.9373 26.3908 46.9911 25.8456 46.605C25.3055 46.2213 25.0973 45.7056 25.2435 45.0604C25.7837 42.6971 26.3164 40.3338 26.8764 37.9754C26.9731 37.5673 26.9111 37.3156 26.5741 37.0321C24.7306 35.4728 22.9118 33.8843 21.0881 32.3031C20.4364 31.7385 20.3398 30.844 20.8527 30.2331C21.1674 29.8591 21.5936 29.7076 22.0644 29.6612C22.4361 29.6245 22.8078 29.605 23.177 29.5707C25.1766 29.3899 27.1763 29.2017 29.1784 29.0331C29.5798 28.9989 29.8276 28.84 29.9763 28.4734C30.3083 27.6596 30.6577 26.8531 31.0071 26.0442C31.6018 24.6584 32.2014 23.2752 32.8011 21.8919C32.9795 21.4813 33.2223 21.1245 33.6758 20.9705C34.5009 20.6871 35.2542 21.0194 35.6011 21.8235C36.56 24.0426 37.5165 26.2617 38.463 28.4832C38.6142 28.8376 38.8446 29.0062 39.2336 29.038C41.6347 29.2408 44.0358 29.4486 46.4344 29.671C47.1083 29.732 47.6386 30.0522 47.8468 30.7194C48.045 31.3573 47.8269 31.8949 47.3264 32.33C47.2075 32.4326 47.086 32.5279 46.9696 32.6306C45.2574 34.1189 43.5501 35.6122 41.8255 37.0883C41.548 37.3253 41.4736 37.5453 41.5579 37.8923C41.9395 39.4785 42.2963 41.0719 42.663 42.6629C42.8414 43.4327 43.0174 44.2026 43.2082 45.0335L43.2106 45.0286ZM54.2793 38.5938C49.4797 38.7379 45.2103 42.9513 45.7406 48.3548C46.1915 52.947 50.4138 56.7962 55.6595 56.2658C60.1693 55.8088 64.1587 51.8032 63.6358 46.5316C63.17 41.854 59.027 38.3518 54.2793 38.5938ZM34.2258 26.269C34.149 26.4352 34.097 26.5476 34.0474 26.6625C33.6188 27.6669 33.1975 28.6738 32.7639 29.6758C32.2311 30.91 31.3094 31.697 29.9639 31.9463C29.4658 32.0391 28.9504 32.0465 28.4449 32.0929C27.5727 32.1735 26.7005 32.2542 25.8258 32.3324C25.8382 32.4375 25.9051 32.4693 25.9547 32.5132C26.926 33.354 27.8998 34.1922 28.8687 35.0354C29.4782 35.5657 29.8375 36.2329 29.9738 37.0247C30.0927 37.7164 29.8945 38.3665 29.7458 39.0239C29.5104 40.0674 29.2676 41.1086 29.0272 42.1595C29.166 42.1546 29.2428 42.0764 29.332 42.025C30.3306 41.436 31.3292 40.8422 32.3278 40.2507C33.594 39.498 34.8602 39.4882 36.1289 40.2507C36.4956 40.4707 36.8648 40.6906 37.234 40.9082C37.9551 41.3358 38.6736 41.7611 39.3947 42.1863C39.4368 42.1081 39.4096 42.0544 39.3972 42.0006C39.1221 40.8055 38.8397 39.6129 38.5696 38.4153C38.2648 37.0541 38.6216 35.8908 39.6772 34.9572C40.4205 34.2998 41.1813 33.6619 41.9296 33.0069C42.165 32.8016 42.4301 32.6232 42.6407 32.3446C42.1352 32.2982 41.6694 32.2493 41.2036 32.2102C40.4329 32.1442 39.6598 32.0953 38.8917 32.0147C37.2736 31.8461 36.2032 30.9736 35.6011 29.4974C35.1674 28.4343 34.7016 27.381 34.2258 26.2641V26.269Z" fill="#FFD600"/>
<path d="M53.3136 44.1316C53.3136 43.5817 53.3186 43.0294 53.3111 42.4795C53.3087 42.262 53.3756 42.1691 53.6134 42.1715C54.3295 42.1838 55.0432 42.1838 55.7593 42.1715C56.0145 42.1667 56.074 42.2718 56.074 42.4966C56.0665 43.5499 56.0715 44.6033 56.0715 45.6566C56.0715 45.9548 56.2276 46.1038 56.5398 46.1038C57.5979 46.1038 58.6559 46.1087 59.714 46.0989C59.9519 46.0989 60.0411 46.1552 60.0361 46.4044C60.0212 47.101 60.0212 47.795 60.0361 48.4916C60.0411 48.7311 59.9618 48.8117 59.7189 48.8093C58.6113 48.7995 57.5037 48.8142 56.3986 48.7995C56.1334 48.7971 56.0665 48.8826 56.069 49.1319C56.0814 50.2048 56.0665 51.2776 56.0789 52.3481C56.0814 52.6243 55.9996 52.7171 55.7147 52.7073C55.0283 52.6878 54.3419 52.6878 53.658 52.7073C53.3756 52.7147 53.3111 52.612 53.3136 52.3579C53.3235 51.285 53.3111 50.2121 53.3235 49.1416C53.326 48.8753 53.2442 48.7946 52.9741 48.7995C51.8963 48.8142 50.8184 48.7971 49.7405 48.8093C49.4555 48.8117 49.3391 48.7482 49.3515 48.4427C49.3738 47.7779 49.3688 47.1083 49.3515 46.4435C49.3465 46.1845 49.4134 46.0941 49.6934 46.0965C50.7911 46.1112 51.8888 46.0965 52.984 46.1087C53.2393 46.1112 53.331 46.0403 53.321 45.7812C53.3037 45.2314 53.3161 44.679 53.3161 44.1291L53.3136 44.1316Z" fill="#FFD600"/>
</g>
<defs>
<filter id="filter0_dd_113_12622" x="0.369141" y="0.37207" width="74.0376" height="67.0046" filterUnits="userSpaceOnUse" color-interpolation-filters="sRGB">
<feFlood flood-opacity="0" result="BackgroundImageFix"/>
<feColorMatrix in="SourceAlpha" type="matrix" values="0 0 0 0 0 0 0 0 0 0 0 0 0 0 0 0 0 0 127 0" result="hardAlpha"/>
<feOffset dy="1"/>
<feGaussianBlur stdDeviation="2"/>
<feComposite in2="hardAlpha" operator="out"/>
<feColorMatrix type="matrix" values="0 0 0 0 0 0 0 0 0 0 0 0 0 0 0 0 0 0 0.35 0"/>
<feBlend mode="normal" in2="BackgroundImageFix" result="effect1_dropShadow_113_12622"/>
<feColorMatrix in="SourceAlpha" type="matrix" values="0 0 0 0 0 0 0 0 0 0 0 0 0 0 0 0 0 0 127 0" result="hardAlpha"/>
<feOffset/>
<feGaussianBlur stdDeviation="4"/>
<feComposite in2="hardAlpha" operator="out"/>
<feColorMatrix type="matrix" values="0 0 0 0 0 0 0 0 0 0.329412 0 0 0 0 0.529412 0 0 0 0.2 0"/>
<feBlend mode="normal" in2="effect1_dropShadow_113_12622" result="effect2_dropShadow_113_12622"/>
<feBlend mode="normal" in="SourceGraphic" in2="effect2_dropShadow_113_12622" result="shape"/>
</filter>
</defs>
</svg>
