<svg width="44" height="40" viewBox="0 0 44 40" fill="none" xmlns="http://www.w3.org/2000/svg">
<rect x="2.09033" y="2.42261" width="32.7229" height="32.7229" rx="16.3615" fill="#005487"/>
<path d="M17.3457 9.2002C17.1746 9.6017 17.0032 10.003 16.8317 10.4043C16.2467 11.7734 15.6619 13.1423 15.0924 14.5179M17.3457 9.2002L9.00631 15.4128M17.3457 9.2002C17.5482 8.72316 17.8943 8.42732 18.4318 8.42362M17.3457 9.2002L28.0083 15.4276C27.4512 15.3857 26.894 15.3339 26.3368 15.2821C26.0582 15.2563 25.7796 15.2304 25.501 15.2057C25.2318 15.1811 24.9628 15.1561 24.694 15.131C23.9112 15.0581 23.1295 14.9852 22.3457 14.9247C22.0695 14.9025 21.9186 14.81 21.8044 14.5401C21.2787 13.2801 20.7437 12.0238 20.2087 10.7672C19.9868 10.2463 19.765 9.72523 19.5438 9.20389M15.0924 14.5179C14.9746 14.8063 14.8126 14.9025 14.5217 14.921M15.0924 14.5179L16.2434 14.988C16.2429 14.9891 16.2425 14.9901 16.2421 14.9912M15.0924 14.5179L16.2411 14.9934C16.2414 14.9927 16.2417 14.9919 16.2421 14.9912M14.5217 14.921C13.859 14.9654 13.1963 15.0287 12.5335 15.092C12.3678 15.1078 12.2022 15.1236 12.0365 15.1392C11.713 15.1687 11.3902 15.2005 11.0677 15.2323C10.3809 15.3 9.69531 15.3675 9.00631 15.4128M14.5217 14.921L14.6048 16.1615C14.6042 16.1615 14.6036 16.1615 14.6031 16.1616M14.5217 14.921L14.6006 16.1617C14.6014 16.1617 14.6022 16.1616 14.6031 16.1616M9.00631 15.4128L9.08787 16.6534C9.0884 16.6534 9.08893 16.6533 9.08947 16.6533C9.0899 16.6533 9.09034 16.6532 9.09078 16.6532L9.00631 15.4128ZM7.70317 16.3594L7.69189 16.3558L8.80486 15.8017L8.80854 15.8091L8.93883 16.0708V16.3632V16.5898C8.93964 16.5909 8.94031 16.5918 8.94086 16.5925L8.94482 16.5959L8.9448 16.5959C8.96922 16.6173 8.99364 16.6386 9.01806 16.66L7.69558 16.3632V16.8698L8.40621 16.5847L7.71497 16.3632L7.70317 16.3594ZM7.70317 16.3594V16.3594ZM19.5438 9.20389C19.3339 8.71206 18.9804 8.41992 18.4318 8.42362M19.5438 9.20389L18.509 9.64542M19.5438 9.20389L18.5107 9.64227C18.5196 9.62532 18.5261 9.61564 18.5291 9.6116C18.53 9.61043 18.5304 9.60989 18.5304 9.60988C18.5304 9.60987 18.5235 9.6182 18.5083 9.6296C18.4991 9.63652 18.4883 9.64337 18.4764 9.64952C18.4645 9.65566 18.4534 9.66012 18.4439 9.66316C18.4437 9.66326 18.4434 9.66335 18.4431 9.66344C18.4422 9.66315 18.4413 9.66286 18.4404 9.66254M18.4318 8.42362L18.4404 9.66254M18.4318 8.42362L18.4402 9.66249C18.4324 9.65983 18.4233 9.65617 18.4136 9.65129C18.4015 9.64524 18.3903 9.63834 18.3806 9.63122C18.3644 9.61936 18.3571 9.61053 18.357 9.61054C18.357 9.61055 18.3575 9.61109 18.3583 9.61227C18.3609 9.61579 18.3662 9.62351 18.3735 9.63649C18.3739 9.6372 18.3743 9.63792 18.3747 9.63866C18.3816 9.65121 18.3902 9.66831 18.3998 9.69085C18.4145 9.72542 18.4292 9.75999 18.4439 9.79455C18.2869 10.1628 18.1299 10.5301 17.9732 10.897C17.3891 12.2641 16.8083 13.6235 16.2421 14.9912M18.4404 9.66254L14.6031 16.1616M16.2421 14.9912C16.1268 15.2722 15.9307 15.6037 15.572 15.8481C15.2222 16.0864 14.858 16.1451 14.6031 16.1616" stroke="#DDEAEC" stroke-width="2.48652"/>
<rect x="2.09033" y="2.42261" width="32.7229" height="32.7229" rx="16.3615" stroke="#005487" stroke-width="3"/>
<rect x="27.2842" y="22.6436" width="15.4056" height="15.4056" rx="7.70281" fill="#005487"/>
<path d="M31.0498 31.3418V29.3511H38.9238V31.3418H31.0498Z" fill="#DDEAEC"/>
<rect x="27.2842" y="22.6436" width="15.4056" height="15.4056" rx="7.70281" stroke="#DCE8E9" stroke-width="2"/>
</svg>
