<svg width="35" height="32" viewBox="0 0 35 32" fill="none" xmlns="http://www.w3.org/2000/svg">
<path d="M12.1761 31.6105C12.1734 31.6115 12.1708 31.6087 12.1721 31.606C12.3359 31.2653 12.709 31.0326 12.9463 30.727C13.7037 29.7667 14.1776 28.7326 14.4813 27.6369C14.6839 26.9106 14.8216 26.1781 14.9714 25.4487C15.1497 24.59 14.7932 23.8083 14.1857 23.0881C14.1087 22.9958 14.0277 22.9034 13.9508 22.8111C13.7901 22.5738 13.6203 22.34 13.4262 22.1186C13.2949 21.9689 13.172 21.8125 13.0516 21.6539C12.5453 21.0106 12.0349 20.3674 11.5367 19.7211C11.2654 19.3702 11.2856 19.1548 11.6056 18.9424C11.958 18.7054 12.687 18.5485 13.0313 18.7639C13.4202 19.0071 13.6834 19.3179 13.9994 19.6011C14.7082 20.2351 15.3846 20.8906 16.0772 21.5369C16.1744 21.6293 16.2838 21.7431 16.4741 21.6939C16.6361 21.6539 16.7496 21.5585 16.7658 21.4261C16.8427 20.7152 17.1424 20.0319 17.2356 19.321C17.3085 18.7639 17.4341 18.2069 17.6001 17.659C17.7419 17.1912 17.7338 16.9234 18.6937 16.9696C18.8275 16.9781 18.9267 17.1294 18.9185 17.2632C18.9135 17.3439 18.9129 17.4252 18.8962 17.5051C18.7302 18.2869 18.5641 19.0686 18.3981 19.8473C18.1834 20.8475 17.9566 21.8478 17.7621 22.8511C17.6487 23.4297 17.4179 24.0022 17.4422 24.5931C17.4827 25.5256 17.6487 26.4489 17.8918 27.363C18.1996 28.5233 18.6613 29.6436 19.5119 30.6531C19.8302 31.0286 19.5631 31.6103 19.0709 31.6103H12.1773C12.1769 31.6103 12.1765 31.6103 12.1761 31.6105Z" fill="#BF6101"/>
<path d="M20.3178 31.6136C20.3194 31.6136 20.3202 31.6117 20.3192 31.6105C20.0487 31.2915 19.7741 30.9755 19.5036 30.6564C18.6571 29.6469 18.1913 28.5266 17.8835 27.3664C17.6405 26.4523 17.4744 25.529 17.4339 24.5964C17.4096 24.0055 17.6405 23.4361 17.7539 22.8544C17.9483 21.8511 18.1792 20.8509 18.3898 19.8506C18.5559 19.0689 18.7179 18.2871 18.888 17.5085C18.9535 17.1933 19.2254 16.9773 19.4808 17.1732C19.65 17.3029 19.6914 17.4883 19.6373 17.7608C19.4631 18.6411 19.2971 19.5244 19.1391 20.4077C19.1108 20.5585 19.0743 20.737 19.3133 20.8293C19.5563 20.9216 19.7021 20.7924 19.852 20.6754C20.3704 20.263 20.8848 19.8475 21.4073 19.4413C21.626 19.272 22.1404 19.2135 22.4037 19.3212C22.7034 19.4413 22.7844 19.6505 22.7601 19.8906C22.748 20.0076 22.6629 20.0999 22.586 20.1953C22.0343 20.8931 21.4218 21.5644 20.871 22.2634C20.6717 22.5162 20.4445 22.7464 20.2364 22.9919C19.9677 23.309 19.7819 23.659 19.6495 24.0301C19.4712 24.5318 19.6697 25.0181 19.7143 25.5136C19.7791 26.1937 19.9249 26.8678 20.1031 27.5325C20.3866 28.582 20.8443 29.5885 21.5693 30.521C21.9279 30.9838 21.664 31.6136 21.0785 31.6136H20.3178Z" fill="#9A4D01"/>
<path d="M20.5811 23.376C20.5814 23.3758 20.5816 23.3755 20.5818 23.3752C21.2015 22.4236 21.9385 21.5379 22.5905 20.6071C22.6674 20.4994 22.7525 20.3952 22.7647 20.2632C22.789 19.9923 22.7079 19.7561 22.4082 19.6206C22.1449 19.499 21.6306 19.565 21.4118 19.7561C20.8893 20.2146 20.3749 20.6835 19.8565 21.149C19.7107 21.281 19.5649 21.4269 19.3178 21.3227C19.0748 21.2185 19.1153 21.017 19.1436 20.8468C19.3016 19.8499 19.4677 18.8564 19.6418 17.8594C19.7142 17.4477 19.6156 17.2122 19.2682 17.0676C19.0866 16.992 18.8861 16.9842 18.69 16.9702C17.73 16.9146 17.7381 17.2203 17.5964 17.7483C17.4303 18.3666 17.3007 18.9953 17.2319 19.6241C17.1427 20.4265 16.843 21.1976 16.762 22.0001C16.7458 22.1494 16.6324 22.2536 16.4704 22.3023C16.28 22.3579 16.1707 22.2293 16.0735 22.1251C15.3808 21.3991 14.7044 20.6592 13.9956 19.9402C13.6797 19.6206 13.4164 19.2663 13.0276 18.9953C12.6833 18.7522 11.9542 18.9293 11.6018 19.1968C11.2859 19.4365 11.2616 19.6796 11.533 20.0756C12.0312 20.8051 12.5456 21.5276 13.0478 22.2571C13.1661 22.4329 13.2031 22.6601 13.0417 22.7975C13.0316 22.8061 13.0215 22.8147 13.0114 22.8233C12.5294 23.2402 11.9421 23.5215 11.3264 23.7647C11.2387 23.7995 11.1501 23.833 11.061 23.8655C10.376 24.1157 9.6224 24.1968 8.93113 23.9647C7.85252 23.6025 7.02044 22.9647 6.53889 21.9375C6.47408 21.7986 6.39308 21.743 6.20271 21.7291C4.9957 21.6319 3.894 21.2845 2.92191 20.6488C1.98628 20.0409 1.26936 19.2836 0.823824 18.3562C0.5565 17.7969 0.418788 17.2098 0.353982 16.5915C0.240572 15.5251 0.5565 14.5629 1.1114 13.6458C1.74731 12.6003 2.70724 11.8222 3.95071 11.315C4.24233 11.1969 4.22208 11.0823 4.09652 10.8704C3.8616 10.4674 3.62668 10.0297 3.65908 9.5851C3.69958 9.0432 3.57807 8.50825 3.74009 7.95941C4.07627 6.82351 4.67572 5.86825 5.75312 5.12488C6.25941 4.77403 6.80621 4.49961 7.40972 4.3294C8.26435 4.08972 9.14328 3.98203 10.0546 4.11403C10.6136 4.19393 11.1644 4.27382 11.6748 4.49614C11.7801 4.5413 11.8327 4.51698 11.8732 4.39888C12.1243 3.6833 12.5577 3.04066 13.1572 2.51266C13.9065 1.85266 14.7773 1.30382 15.8831 1.14055C16.0248 1.11971 16.1545 1.03982 16.3043 1.07455C17.8151 1.39066 18.9816 2.1375 19.8848 3.20393C20.5215 3.95507 21.2987 4.45734 22.3463 4.51508C22.6751 4.5332 22.9996 4.45855 23.3136 4.35947C23.5856 4.27366 23.8599 4.19582 24.1497 4.15879C24.2646 4.1441 24.3776 4.16984 24.4901 4.1974C25.685 4.45793 26.7097 4.98593 27.4671 5.80919C28.8969 7.36541 29.1642 9.08836 28.2772 10.9225C28.1759 11.1344 28.2205 11.2143 28.4392 11.308C29.3019 11.6693 30.027 12.1695 30.6386 12.8156C32.2223 14.4899 32.5058 16.8416 31.3514 18.7348C30.3024 20.4543 28.6255 21.4651 26.3371 21.6805C26.1386 21.6979 25.9482 21.7222 25.851 21.9445C25.5675 22.6045 25.0693 23.1221 24.3889 23.5285C23.9761 23.7763 23.5186 23.9216 23.0651 24.0749C22.8193 24.158 22.5562 24.1891 22.3027 24.1336C21.6693 23.9951 21.0862 23.7592 20.5813 23.382C20.5793 23.3805 20.5792 23.3776 20.5811 23.376ZM20.2593 8.09296C20.26 8.0936 20.2612 8.09295 20.261 8.09198C20.2207 7.8741 20.1884 7.65624 20.136 7.44183C19.7998 6.03151 18.0338 4.73235 16.2476 4.80877C14.8745 4.86782 13.8052 5.3194 13.0073 6.25383C12.6063 6.72277 12.6306 6.7332 12.0231 6.47962C10.2288 5.73277 8.06993 6.33372 7.05734 7.68499C6.26347 8.74446 6.17031 9.87689 6.81432 11.0267C6.93178 11.2386 6.86697 11.2976 6.62395 11.3358C6.0569 11.4227 5.5587 11.6415 5.10911 11.9472C4.01551 12.694 3.51327 13.691 3.58212 14.8616C3.64693 16.001 4.35169 16.8833 5.44124 17.5016C6.17031 17.915 7.01278 18.1443 7.89171 17.9671C8.58838 17.8282 9.19188 17.4704 9.78728 17.13C10.9983 16.4422 12.1365 15.6779 13.2463 14.8755C14.6153 13.889 15.9438 12.8712 17.1995 11.7839C17.564 11.4678 17.9204 11.1483 18.2566 10.8113C18.9209 10.1478 19.6094 9.49825 20.059 8.69931C20.1639 8.50894 20.2649 8.31512 20.2576 8.0938C20.2575 8.09289 20.2586 8.09237 20.2593 8.09296Z" fill="#129B12"/>
<path d="M22.7037 24.209C22.7021 24.2076 22.7026 24.2051 22.7046 24.2044C23.2784 23.9933 23.8721 23.8439 24.3973 23.5286C25.0778 23.1222 25.576 22.6011 25.8595 21.9446C25.9567 21.7223 26.1471 21.698 26.3455 21.6806C28.634 21.4687 30.3108 20.4544 31.3599 18.7349C32.5183 16.8417 32.2307 14.49 30.647 12.8157C30.0354 12.1696 29.3104 11.6694 28.4477 11.3081C28.2249 11.2144 28.1803 11.1345 28.2856 10.9226C29.1686 9.08846 28.9013 7.36203 27.4756 5.80929C26.7182 4.98603 25.6934 4.45803 24.4986 4.1975C24.4347 4.18185 24.4323 4.09669 24.4945 4.07519C24.6248 4.03011 24.758 4.0112 24.936 4.04813C25.2155 4.10371 25.5395 4.11761 25.8392 4.02034C26.0904 3.94045 26.305 4.10371 26.5318 4.14887C28.9175 4.62129 30.489 6.02814 30.9872 8.0394C31.2181 8.9773 31.0156 9.89783 30.6308 10.7836C30.4566 11.1831 30.4445 11.1796 30.89 11.3811C32.1375 11.9508 33.1096 12.7671 33.7091 13.8683C34.2316 14.8339 34.4301 15.8448 34.2842 16.9286C34.1222 18.1235 33.5349 19.1205 32.6236 19.9924C31.8297 20.7531 30.8212 21.2707 29.6749 21.5243C29.2577 21.6146 28.8284 21.7292 28.3869 21.7362C28.2411 21.7362 28.2087 21.8195 28.1641 21.9099C27.4027 23.473 25.9364 24.133 24.0571 24.2893C23.5915 24.3275 23.1502 24.3067 22.7049 24.2096C22.7045 24.2095 22.7041 24.2093 22.7037 24.209Z" fill="#097C09"/>
<path d="M22.8488 4.5036C22.8488 4.50525 22.8475 4.50662 22.8459 4.50674C21.5432 4.59951 20.6246 4.06472 19.892 3.20042C19.2593 2.45329 18.4992 1.86303 17.5799 1.46784C17.2385 1.32105 17.2573 0.923784 17.6279 0.952939C18.3732 1.00852 19.1063 1.12315 19.7867 1.41494C21.3176 2.07139 22.3423 3.09943 22.8486 4.50253C22.8487 4.50288 22.8488 4.50324 22.8488 4.5036Z" fill="#097C09"/>
<path d="M10.0216 24.2267C10.0208 24.2267 10.0206 24.2257 10.0213 24.2254C10.4576 24.0731 10.9058 23.9344 11.3339 23.7647C11.9456 23.5216 12.5329 23.2402 13.0189 22.8234C13.1216 22.7352 13.3754 22.71 13.4576 22.8176C13.5472 22.9349 13.6317 23.0552 13.7126 23.1775C13.8374 23.3661 13.7328 23.6235 13.5247 23.7121C13.27 23.8206 13.0244 23.949 12.7516 24.0322C11.8565 24.2997 10.9573 24.4386 10.0217 24.2267C10.0217 24.2267 10.0216 24.2267 10.0216 24.2267Z" fill="#097C09"/>
<path d="M20.2678 8.09616C20.2671 8.09557 20.2661 8.09609 20.2661 8.097C20.2734 8.31832 20.1765 8.51214 20.0675 8.70251C19.622 9.50146 18.9294 10.151 18.2651 10.8145C17.9289 11.1515 17.5725 11.471 17.208 11.7871C15.9524 12.8744 14.6238 13.8922 13.2548 14.8787C12.141 15.6812 11.0069 16.4454 9.79581 17.1332C9.20041 17.4701 8.5969 17.8279 7.90024 17.9703C7.02131 18.1475 6.17884 17.9182 5.44977 17.5048C4.36022 16.8865 3.65546 16.0042 3.59065 14.8648C3.5218 13.6977 4.02809 12.6973 5.11764 11.9504C5.56723 11.6447 6.06543 11.4259 6.63248 11.339C6.8755 11.3008 6.9403 11.2418 6.82284 11.0299C6.17884 9.88009 6.27199 8.74767 7.06587 7.68819C8.07846 6.33693 10.2333 5.73598 12.0316 6.48282C12.6392 6.7364 12.6149 6.72598 13.0159 6.25703C13.8138 5.32261 14.879 4.87103 16.2561 4.81197C18.0424 4.73208 19.8083 6.03124 20.1445 7.44503C20.1969 7.65945 20.2293 7.87731 20.2695 8.09518C20.2697 8.09615 20.2686 8.0968 20.2678 8.09616Z" fill="#28A528"/>
</svg>
