<svg width="35" height="27" viewBox="0 0 35 27" fill="none" xmlns="http://www.w3.org/2000/svg">
<path d="M15.1179 7.83435H19.5448C22.7379 7.83435 25.3317 10.117 25.3317 12.9271V13.6611C25.3317 16.0684 23.3802 18.0199 20.9729 18.0199H13.6898C11.2825 18.0199 9.33105 16.0684 9.33105 13.6611V12.9271C9.33105 10.117 11.9248 7.83435 15.1179 7.83435Z" fill="#9CD2FC"/>
<path d="M17.3334 0.192505H17.329C14.5161 0.192505 12.2358 2.47261 12.2358 5.28526V5.28969C12.2358 8.10234 14.5161 10.3824 17.329 10.3824H17.3334C20.1462 10.3824 22.4265 8.10234 22.4265 5.28969V5.28526C22.4265 2.47261 20.1462 0.192505 17.3334 0.192505Z" fill="#E3A76F"/>
<path d="M24.1174 16.1711H28.5444C31.7374 16.1711 34.3312 18.4538 34.3312 21.2639V21.9979C34.3312 24.4052 32.3797 26.3566 29.9724 26.3566H22.6893C20.282 26.3566 18.3306 24.4052 18.3306 21.9979V21.2639C18.3306 18.4538 20.9243 16.1711 24.1174 16.1711Z" fill="#E06A50"/>
<path d="M26.3339 8.52954H26.3294C23.5166 8.52954 21.2363 10.8096 21.2363 13.6223V13.6267C21.2363 16.4394 23.5166 18.7195 26.3294 18.7195H26.3339C29.1467 18.7195 31.427 16.4394 31.427 13.6267V13.6223C31.427 10.8096 29.1467 8.52954 26.3339 8.52954Z" fill="#864927"/>
<path d="M6.11786 16.1711H10.5448C13.7379 16.1711 16.3317 18.4538 16.3317 21.2639V21.9979C16.3317 24.4052 14.3802 26.3566 11.9729 26.3566H4.6898C2.28253 26.3566 0.331055 24.4052 0.331055 21.9979V21.2639C0.331055 18.4538 2.92479 16.1711 6.11786 16.1711Z" fill="#A0BE28"/>
<path d="M8.33339 8.52954H8.32896C5.51611 8.52954 3.23584 10.8096 3.23584 13.6223V13.6267C3.23584 16.4394 5.51611 18.7195 8.32896 18.7195H8.33339C11.1462 18.7195 13.4265 16.4394 13.4265 13.6267V13.6223C13.4265 10.8096 11.1462 8.52954 8.33339 8.52954Z" fill="#B35F30"/>
</svg>
