<svg width="259" height="64" viewBox="0 0 259 64" fill="none" xmlns="http://www.w3.org/2000/svg">
<path d="M36.2035 42.9886C36.7558 42.029 37.282 41.1197 37.8051 40.2081C41.1703 34.3358 44.5347 28.4636 47.8991 22.5906C51.6599 16.0257 55.4199 9.46006 59.1807 2.89519C59.5263 2.29234 59.8874 1.69799 60.2161 1.08662C60.4212 0.705099 60.6962 0.530201 61.1356 0.531748C64.1559 0.542583 67.1762 0.528653 70.1965 0.542583C71.0906 0.546452 71.3587 1.04561 70.8985 1.88373C70.0198 3.48567 69.1034 5.06672 68.2016 6.65628C64.3932 13.3721 60.5841 20.0878 56.7757 26.8036C53.3229 32.8925 49.8725 38.983 46.4197 45.0719C43.2972 50.5789 40.174 56.0851 37.0508 61.5921C36.987 61.7043 36.934 61.8219 36.8634 61.9295C36.447 62.5664 35.7964 62.5648 35.3962 61.9039C34.9569 61.178 34.5513 60.4305 34.128 59.6945C30.8673 54.0297 27.6058 48.3648 24.3443 42.7C23.163 40.6484 21.9808 38.5968 20.8063 36.5414C20.2786 35.6174 20.3247 35.5307 21.3986 35.5338C24.3927 35.5431 27.3823 35.3535 30.3765 35.3488C31.1953 35.3473 31.6186 35.6452 32.008 36.3139C33.174 38.3144 34.3954 40.2824 35.6021 42.2589C35.7465 42.4949 35.8533 42.7681 36.2035 42.9879V42.9886Z" fill="white"/>
<path d="M28.7498 0.572808C37.6033 0.572808 46.4575 0.578999 55.311 0.567391C56.7974 0.565843 56.474 0.793365 55.9562 1.69958C54.8463 3.64281 53.7494 5.59455 52.6763 7.55867C52.4182 8.03151 52.0895 8.23891 51.5702 8.19016C51.3674 8.17159 51.1608 8.18784 50.9565 8.18784C35.961 8.18784 20.9663 8.18784 5.97082 8.18784C5.76573 8.18784 5.55987 8.16926 5.35708 8.19093C4.77254 8.25207 4.41996 7.99514 4.13268 7.47896C3.13181 5.6789 2.09022 3.90438 1.06476 2.11903C0.975659 1.96348 0.873498 1.80948 0.81512 1.64154C0.647667 1.15941 0.853526 0.743063 1.34974 0.635493C1.67005 0.565843 2.01033 0.57513 2.3414 0.574356C11.1442 0.57126 19.947 0.572034 28.7498 0.572034V0.572808Z" fill="white"/>
<path d="M28.5343 12.194C35.2647 12.194 41.9951 12.1917 48.7254 12.201C49.0911 12.201 49.5873 12.0191 49.7855 12.4161C49.9498 12.745 49.5819 13.0724 49.4106 13.3804C48.3974 15.2021 47.3781 17.0192 46.3604 18.8378C46.2597 19.0174 46.146 19.1907 46.0585 19.3765C45.8242 19.8772 45.4455 20.1132 44.8925 20.0668C44.7143 20.0521 44.5345 20.066 44.3555 20.066C33.8122 20.066 23.2688 20.0536 12.7254 20.0869C11.7568 20.09 11.1868 19.7998 10.7229 18.9353C9.66514 16.9635 8.50757 15.0458 7.39147 13.1057C7.3016 12.9493 7.20943 12.7938 7.13645 12.6297C7.04197 12.4169 7.12877 12.2645 7.34923 12.2366C7.62729 12.2018 7.90996 12.1956 8.19033 12.1956C14.9722 12.1933 21.7532 12.194 28.5351 12.194H28.5343Z" fill="white"/>
<path d="M28.58 24.0764C33.135 24.0764 37.69 24.0749 42.2443 24.081C42.5416 24.081 42.9364 23.9448 43.11 24.2242C43.3143 24.5523 42.9694 24.8387 42.8142 25.1188C41.7911 26.9638 40.758 28.8033 39.7264 30.6436C39.5881 30.8905 39.4368 31.1296 39.2977 31.3765C39.1295 31.676 38.8691 31.8067 38.5388 31.8153C38.3084 31.8214 38.0787 31.8261 37.8483 31.8261C31.6809 31.8261 25.5144 31.8261 19.347 31.8261C19.2188 31.8261 19.0905 31.8168 18.963 31.8261C18.4168 31.8694 18.0719 31.6373 17.7954 31.1458C16.6225 29.0602 15.4127 26.9963 14.2167 24.9238C14.1399 24.7899 14.0592 24.6576 13.9939 24.5183C13.8818 24.2776 13.9379 24.1112 14.2236 24.0919C14.4533 24.0756 14.6837 24.0772 14.9141 24.0772C19.4692 24.0772 24.0242 24.0772 28.5785 24.0772L28.58 24.0764Z" fill="white"/>
<path d="M187.374 0.556641C189.537 0.589918 192.04 1.68961 193.836 4.21789C194.527 5.19067 194.517 5.22007 193.517 5.84769C193.061 6.13403 192.614 6.43585 192.153 6.7129C191.646 7.01704 191.413 6.96596 191.037 6.5024C190.94 6.38245 190.861 6.24934 190.766 6.12784C189.333 4.29141 187.452 3.68468 185.236 4.20396C183.082 4.70854 181.773 6.15725 181.283 8.28621C180.761 10.5545 181.135 12.6494 182.856 14.3496C184.957 16.4252 189.107 16.4306 190.962 13.6237C191.033 13.5161 191.1 13.4062 191.182 13.3072C191.484 12.9419 191.71 12.8684 192.114 13.1114C192.795 13.5208 193.45 13.9727 194.114 14.4092C194.475 14.6475 194.345 14.9161 194.167 15.2024C193.306 16.5931 192.159 17.685 190.697 18.3924C187.307 20.033 182.469 19.6143 179.563 16.4677C177.633 14.3782 176.933 11.8577 177.138 9.05932C177.265 7.33046 177.798 5.73006 178.816 4.31308C180.583 1.85599 183.252 0.552771 187.375 0.557415L187.374 0.556641Z" fill="white"/>
<path d="M88.1698 44.4033C85.9046 44.3615 83.8268 43.4073 82.3627 41.2536C81.9426 40.6353 81.9556 40.595 82.5671 40.1601C83.0479 39.8181 83.5242 39.469 84.0142 39.1417C84.5826 38.7617 84.8392 38.8012 85.234 39.3553C85.5966 39.8637 85.9914 40.3311 86.5299 40.6531C87.5092 41.2381 88.5431 41.3589 89.627 40.9928C91.0157 40.5238 91.5696 38.747 90.3045 37.6574C89.5525 37.0096 88.6722 36.6041 87.7834 36.2056C86.7081 35.7242 85.6258 35.2599 84.671 34.5448C83.0571 33.336 82.4311 31.7248 82.7261 29.739C82.9288 28.3731 83.6839 27.367 84.8146 26.6427C87.2588 25.0763 91.502 25.1839 93.7687 27.8004C94.5131 28.6594 94.5253 28.7012 93.6136 29.3791C93.2018 29.6856 92.7924 29.9951 92.3707 30.2869C91.8883 30.6212 91.6356 30.6049 91.2493 30.1453C90.6639 29.4488 89.9734 28.9837 89.0578 28.8428C88.5032 28.7577 87.9839 28.8173 87.4793 29.02C86.3194 29.4851 86.0943 30.916 87.0645 31.7023C87.6037 32.1396 88.2174 32.4638 88.8473 32.7563C89.8689 33.23 90.912 33.6618 91.8776 34.2523C92.8278 34.8335 93.6919 35.5044 94.2434 36.512C95.2474 38.3438 95.03 41.4703 92.5766 43.1721C91.3322 44.035 89.945 44.401 88.1698 44.4033Z" fill="white"/>
<path d="M90.1089 13.6519C91.0575 10.869 92.0945 8.15348 93.0508 5.40928C93.4825 4.16952 93.9465 2.94059 94.3628 1.69541C94.5279 1.20012 94.8068 0.999686 95.3214 1.01362C96.2416 1.03915 97.1634 1.00897 98.0836 1.026C98.682 1.03761 98.765 1.1622 98.5414 1.73488C97.867 3.46141 97.1749 5.18099 96.4913 6.90288C95.0196 10.6113 93.5486 14.3198 92.0761 18.0283C91.9908 18.2434 91.9009 18.457 91.808 18.669C91.7058 18.9043 91.5261 19.0304 91.2688 19.0312C90.5014 19.0343 89.734 19.0335 88.9674 19.0351C88.674 19.0351 88.492 18.8834 88.3867 18.618C88.3107 18.4268 88.2247 18.2395 88.1486 18.0484C86.0401 12.7372 83.9316 7.42603 81.8246 2.11485C81.4113 1.07398 81.4428 1.02445 82.5228 1.02058C83.2387 1.01749 83.9554 1.01671 84.6713 1.02058C85.5754 1.026 85.5915 1.02832 85.8972 1.86412C86.6661 3.96754 87.4273 6.07405 88.1839 8.18211C88.8346 9.9961 89.5443 11.79 90.1104 13.6519H90.1089Z" fill="white"/>
<path d="M163.985 17.6431C163.641 17.7081 163.527 17.9302 163.359 18.078C161.043 20.1203 157.126 19.7078 155.775 16.4513C154.684 13.8201 154.726 11.202 156.49 8.82309C158.178 6.54632 161.559 6.41476 163.396 8.33013C163.535 8.47484 163.644 8.6629 163.872 8.72636C164.072 8.5414 163.984 8.2984 163.984 8.08249C163.986 5.83899 163.981 3.5955 163.978 1.35201C163.978 1.22277 163.984 1.0943 163.985 0.965062C163.988 0.626101 164.147 0.421021 164.491 0.417926C165.31 0.410187 166.128 0.409413 166.947 0.420247C167.257 0.424117 167.4 0.624553 167.413 0.924047C167.423 1.1299 167.426 1.33653 167.426 1.54238C167.426 6.93172 167.428 12.3218 167.426 17.7112C167.426 18.8542 167.423 18.855 166.261 18.8573C165.8 18.8581 165.339 18.865 164.879 18.8542C164.154 18.8379 164.106 18.7869 164.031 18.0702C164.018 17.9449 164.004 17.8195 163.985 17.6423V17.6431ZM158.604 13.1243C158.641 13.5345 158.642 13.7945 158.691 14.0453C158.894 15.1009 159.389 15.9096 160.503 16.1974C161.976 16.5782 163.362 15.8275 163.837 14.3688C164.117 13.5082 164.091 12.6414 163.784 11.7971C163.338 10.5767 162.261 9.91737 160.956 10.0311C159.787 10.1325 158.956 10.9265 158.708 12.2057C158.641 12.5563 158.627 12.9185 158.604 13.1243Z" fill="white"/>
<path d="M176.781 33.8628C176.953 33.5192 176.896 33.2584 176.897 33.0077C176.902 30.8671 176.9 28.7273 176.9 26.5867C176.9 26.4064 176.907 26.2261 176.907 26.045C176.909 25.7099 177.056 25.4948 177.404 25.4909C178.223 25.4832 179.042 25.4824 179.861 25.4932C180.164 25.4971 180.325 25.6782 180.335 25.9854C180.342 26.1658 180.347 26.3461 180.347 26.5264C180.347 31.9668 180.347 37.408 180.347 42.8484C180.347 42.9776 180.351 43.1069 180.343 43.2353C180.311 43.8127 180.236 43.904 179.659 43.9218C179.02 43.9419 178.379 43.9419 177.739 43.9218C177.129 43.9032 177.069 43.8258 177.038 43.175C177.029 42.997 177.036 42.819 177.036 42.5837C176.642 42.6402 176.503 42.9474 176.296 43.1371C174.573 44.7158 171.908 44.8303 170.075 43.3917C169.497 42.9382 169.048 42.3717 168.763 41.7015C167.726 39.2661 167.673 36.8384 168.997 34.4897C170.307 32.1665 173.218 31.3933 175.459 32.7151C175.949 33.0046 176.307 33.4488 176.781 33.862L176.781 33.8628ZM171.539 38.2244C171.565 38.5324 171.569 38.8443 171.62 39.1477C171.835 40.4052 172.593 41.2047 173.767 41.3416C174.715 41.4523 176.012 41.1466 176.585 39.8906C177.144 38.6655 177.119 37.4227 176.39 36.2673C175.796 35.3239 174.883 34.9927 173.801 35.1157C172.776 35.2326 172.146 35.8502 171.769 36.7788C171.58 37.2431 171.556 37.7315 171.539 38.2244Z" fill="white"/>
<path d="M139.884 42.6859C139.595 42.699 139.475 42.9598 139.297 43.1239C137.62 44.6701 135.049 44.8265 133.2 43.4946C132.535 43.0148 132.051 42.3763 131.73 41.6411C130.692 39.2568 130.707 36.8694 131.945 34.5647C133.219 32.1943 136.199 31.3794 138.446 32.7152C138.935 33.0054 139.301 33.4403 139.723 33.8218C139.971 33.6175 139.883 33.3714 139.883 33.1578C139.886 30.9662 139.879 28.7738 139.876 26.5821C139.876 26.4018 139.883 26.2215 139.883 26.0404C139.884 25.703 140.036 25.4933 140.383 25.4902C141.202 25.4824 142.021 25.4824 142.84 25.4925C143.138 25.4964 143.314 25.6627 143.326 25.9746C143.335 26.1805 143.34 26.3871 143.34 26.5929C143.34 31.9823 143.341 37.3716 143.34 42.7617C143.34 43.5382 142.959 43.9277 142.198 43.9303C141.687 43.9318 141.174 43.9442 140.663 43.9218C140.129 43.8986 140.07 43.8196 140.012 43.2795C139.992 43.0837 140.074 42.8631 139.884 42.6859ZM137.189 35.0933C136.019 35.0871 135.179 35.6621 134.778 36.7711C134.453 37.6719 134.441 38.5944 134.704 39.5091C135.027 40.6343 135.823 41.3254 136.901 41.3602C138.109 41.3997 139.119 40.9354 139.608 39.8364C140.095 38.7391 140.079 37.6224 139.542 36.5474C139.064 35.5894 138.263 35.1018 137.189 35.0933Z" fill="white"/>
<path d="M222.749 17.5951C222.554 17.804 222.63 18.0215 222.609 18.2188C222.554 18.7311 222.497 18.8248 222.022 18.8418C221.306 18.8673 220.588 18.8681 219.872 18.8418C219.396 18.824 219.324 18.7195 219.288 18.2149C219.275 18.0354 219.282 17.8543 219.282 17.6732C219.282 12.3079 219.282 6.94331 219.282 1.57796C219.282 0.79634 219.66 0.40398 220.416 0.400885C220.928 0.399337 221.441 0.391598 221.952 0.404754C222.622 0.42178 222.702 0.506133 222.729 1.16239C222.737 1.3427 222.733 1.52379 222.733 1.70411C222.733 3.7936 222.731 5.88309 222.735 7.9718C222.735 8.2179 222.683 8.47715 222.813 8.71473C223.129 8.65592 223.256 8.4075 223.429 8.23492C225.264 6.40778 229.365 6.34974 230.823 9.64262C232.01 12.3257 231.964 15.0397 230.169 17.4898C228.53 19.7256 225.324 19.9376 223.317 18.0408C223.153 17.8853 223.028 17.6748 222.75 17.5951H222.749ZM228.07 13.2373C228.068 12.7606 228.047 12.3783 227.95 11.9983C227.686 10.9582 227.106 10.2331 226.009 10.0613C224.851 9.87943 223.846 10.1882 223.219 11.2376C222.474 12.4836 222.461 13.7961 223.179 15.0598C223.717 16.0047 224.623 16.3607 225.661 16.2748C226.751 16.1835 227.515 15.5899 227.868 14.5189C228.013 14.0747 228.087 13.6181 228.069 13.2381L228.07 13.2373Z" fill="white"/>
<path d="M239.15 7.02358C242.017 7.02822 244.179 8.41657 245.167 10.8056C246.563 14.1766 244.684 18.0785 241.184 19.0343C238.828 19.6774 236.64 19.3036 234.807 17.6397C233.043 16.0401 232.476 13.9777 233.023 11.6661C233.543 9.46132 234.962 8.03737 237.087 7.3192C237.798 7.07852 238.532 6.99727 239.15 7.0228V7.02358ZM242.08 13.0893C242.073 12.9941 242.073 12.7612 242.043 12.5321C241.868 11.1592 240.835 10.1478 239.515 10.0448C238.058 9.93184 236.88 10.7336 236.495 12.1204C236.32 12.7511 236.319 13.4004 236.458 14.0334C236.724 15.2407 237.753 16.1206 238.943 16.2073C240.769 16.3404 242.05 15.1223 242.079 13.0901L242.08 13.0893Z" fill="white"/>
<path d="M105.342 13.7651C104.242 13.7651 103.142 13.7597 102.042 13.7667C101.218 13.7721 101.054 14.012 101.305 14.8091C101.907 16.7198 104.412 17.3002 105.77 15.7408C106.41 15.0072 106.922 14.9917 107.659 15.3771C107.998 15.5543 108.377 15.648 108.728 15.8051C109.256 16.0427 109.302 16.1758 108.975 16.6788C108.418 17.5363 107.707 18.2544 106.768 18.6568C104.309 19.7116 101.927 19.6087 99.7244 17.9743C98.6252 17.1586 97.9885 16.0009 97.7511 14.6706C97.3563 12.4627 97.6551 10.3933 99.3012 8.7186C100.351 7.64987 101.645 7.08261 103.145 7.03231C104.015 7.0029 104.879 7.00909 105.723 7.30471C107.995 8.10027 109.18 9.75561 109.514 12.0989C109.553 12.3791 109.56 12.6639 109.573 12.9471C109.605 13.6312 109.501 13.752 108.795 13.7589C107.645 13.7705 106.493 13.762 105.342 13.762V13.7636V13.7651ZM103.624 11.835V11.8381C104.236 11.8381 104.849 11.8505 105.46 11.8343C106.052 11.8188 106.12 11.7027 105.928 11.1231C105.599 10.1302 104.719 9.54666 103.616 9.59154C102.53 9.63566 101.599 10.3678 101.35 11.3475C101.262 11.6919 101.374 11.8343 101.711 11.8343C102.348 11.8343 102.986 11.8343 103.623 11.8343L103.624 11.835Z" fill="white"/>
<path d="M149.491 13.7657C148.314 13.7657 147.136 13.7572 145.959 13.7695C145.435 13.775 145.394 13.8415 145.446 14.3701C145.632 16.2553 147.891 17.2683 149.495 16.1856C149.838 15.9534 150.131 15.6679 150.375 15.3312C150.561 15.0743 150.806 14.9667 151.112 15.0851C151.781 15.3436 152.449 15.6067 153.115 15.8737C153.496 16.0262 153.425 16.2901 153.261 16.5617C152.672 17.5376 151.874 18.3006 150.83 18.7332C148.725 19.6054 146.638 19.5721 144.615 18.4454C143.743 17.9586 143.055 17.2706 142.595 16.3791C141.587 14.4258 141.525 12.3967 142.391 10.4078C143.344 8.21536 145.131 7.14817 147.481 7.03132C148.325 6.98953 149.16 7.03983 149.984 7.30914C152.663 8.18441 153.898 10.8025 153.779 13.1435C153.754 13.648 153.657 13.7471 153.102 13.7548C151.899 13.7711 150.695 13.7595 149.492 13.7595V13.7641L149.491 13.7657ZM147.822 11.8348V11.8371C148.46 11.8371 149.098 11.8495 149.735 11.8333C150.253 11.8201 150.306 11.728 150.175 11.218C149.924 10.2422 149.009 9.57972 147.93 9.59056C146.801 9.60216 145.81 10.3281 145.57 11.3186C145.476 11.7087 145.543 11.8147 145.986 11.8294C146.597 11.8495 147.209 11.8348 147.822 11.8348H147.822Z" fill="white"/>
<path d="M250.983 8.75101C251.212 8.69916 251.299 8.52504 251.419 8.39812C252.651 7.08793 254.179 6.7838 255.859 7.13978C257.437 7.4741 258.304 8.55831 258.647 10.0953C258.759 10.596 258.817 11.1106 258.815 11.6299C258.81 13.693 258.814 15.7562 258.813 17.8194C258.813 17.9486 258.816 18.0779 258.803 18.2056C258.751 18.7171 258.654 18.8301 258.132 18.8456C257.416 18.8672 256.698 18.8672 255.982 18.8463C255.429 18.8301 255.334 18.7163 255.293 18.1452C255.278 17.9401 255.285 17.7327 255.284 17.5261C255.284 16.0046 255.285 14.4832 255.283 12.9609C255.283 12.6259 255.279 12.29 255.256 11.9557C255.183 10.9109 254.795 10.3413 254.017 10.1131C253.153 9.85922 252.167 10.1904 251.623 10.9388C251.152 11.5873 250.978 12.331 250.979 13.125C250.981 14.6209 250.98 16.1169 250.978 17.6128C250.976 18.8487 250.97 18.8541 249.734 18.8556C249.171 18.8556 248.607 18.8696 248.044 18.8448C247.564 18.8239 247.478 18.7194 247.436 18.2381C247.423 18.0841 247.429 17.9285 247.429 17.7737C247.429 14.7045 247.429 11.6353 247.429 8.56683C247.429 8.43759 247.425 8.30835 247.434 8.17989C247.472 7.5987 247.547 7.50815 248.121 7.49268C248.786 7.47488 249.452 7.47642 250.117 7.49035C250.797 7.50428 250.828 7.5484 250.878 8.25418C250.889 8.40509 250.854 8.56451 250.983 8.74869V8.75101Z" fill="white"/>
<path d="M121.345 33.8148C121.612 33.7622 121.723 33.5037 121.899 33.335C123.293 32.0023 124.925 31.8065 126.68 32.3668C127.687 32.688 128.368 33.4077 128.756 34.4029C129.021 35.0832 129.15 35.7905 129.151 36.5187C129.156 38.6338 129.153 40.7488 129.153 42.863C129.153 43.0178 129.146 43.1726 129.14 43.3266C129.126 43.7406 128.905 43.9264 128.502 43.9248C127.811 43.9225 127.119 43.9395 126.429 43.9248C125.742 43.9109 125.639 43.8118 125.632 43.0937C125.616 41.5977 125.627 40.1018 125.624 38.6059C125.622 38.0905 125.631 37.5735 125.6 37.0589C125.535 35.9724 125.124 35.3881 124.312 35.176C123.436 34.9462 122.468 35.3006 121.937 36.0583C121.493 36.6921 121.324 37.4118 121.322 38.1772C121.32 39.6731 121.321 41.169 121.319 42.6649C121.317 43.5049 120.909 43.9264 120.096 43.9295C119.609 43.9302 119.122 43.9372 118.636 43.9264C117.905 43.9093 117.82 43.8157 117.792 43.0588C117.788 42.9559 117.79 42.8522 117.79 42.7493C117.79 39.7319 117.788 36.7138 117.79 33.6964C117.791 32.5711 117.801 32.5642 118.889 32.5603C119.375 32.5588 119.862 32.5549 120.348 32.5619C121.143 32.5742 121.163 32.599 121.22 33.3744C121.231 33.5207 121.173 33.6894 121.345 33.8132V33.8148Z" fill="white"/>
<path d="M110.535 32.1185C111.046 32.1062 111.555 32.1162 112.058 32.24C113.663 32.6347 114.666 33.7538 114.898 35.4045C115.024 36.3014 115.023 37.2014 115.021 38.103C115.018 39.1338 115.009 40.1646 115.031 41.1947C115.042 41.7495 115.123 41.8006 115.663 41.806C116.159 41.8107 116.219 41.8618 116.26 42.3725C116.279 42.6031 116.271 42.8361 116.269 43.0675C116.26 43.9776 116.139 44.1292 115.223 44.2283C114.768 44.2778 114.305 44.26 113.845 44.2678C113.162 44.2786 112.61 44.0116 112.165 43.4861C111.785 43.0357 111.767 43.035 111.274 43.4026C110.215 44.1904 109.02 44.4914 107.729 44.3777C106.785 44.2949 105.937 43.9644 105.339 43.1619C104.594 42.1612 104.565 40.1283 105.954 39.0572C106.719 38.4675 107.589 38.0976 108.505 37.8445C109.244 37.6402 109.998 37.4924 110.747 37.3245C111.453 37.1658 111.535 37.0582 111.467 36.3269C111.382 35.4045 110.863 34.9339 109.939 34.978C109.018 35.0222 108.292 35.4842 107.673 36.1373C107.131 36.7077 107.126 36.7139 106.471 36.2759C106.173 36.0762 105.874 35.8773 105.584 35.666C104.986 35.2311 104.962 35.1382 105.402 34.5702C106.53 33.1107 108.027 32.312 109.846 32.1216C110.073 32.0976 110.306 32.1185 110.535 32.1185H110.535ZM111.486 40.3148C111.486 40.0184 111.5 39.7862 111.483 39.5564C111.451 39.1253 111.388 39.0673 110.949 39.1524C110.323 39.2739 109.707 39.4472 109.13 39.7305C108.779 39.9023 108.481 40.1437 108.293 40.4959C107.968 41.1064 108.191 41.8246 108.808 42.0312C109.568 42.2858 110.253 42.0096 110.921 41.6451C111.501 41.3285 111.525 40.8085 111.486 40.3155V40.3148Z" fill="white"/>
<path d="M205.836 13.2922C205.836 14.3353 205.824 15.1866 205.84 16.0371C205.851 16.6849 205.9 16.7406 206.542 16.7034C206.927 16.681 207.058 16.8543 207.066 17.1879C207.077 17.6004 207.068 18.0128 207.072 18.4253C207.075 18.755 206.927 18.9578 206.604 19.0359C205.745 19.2449 204.881 19.2836 204.019 19.0831C203.613 18.9887 203.279 18.748 203.004 18.4215C202.619 17.9633 202.608 17.9641 202.106 18.3294C201.089 19.07 199.948 19.3826 198.707 19.3099C197.982 19.2673 197.29 19.0878 196.709 18.6087C195.307 17.4541 195.296 15.247 196.689 14.066C197.244 13.5947 197.879 13.2697 198.56 13.0228C199.575 12.6545 200.625 12.4262 201.68 12.2149C202.378 12.0756 202.431 11.9804 202.318 11.2746C202.141 10.1718 201.518 9.72222 200.422 9.92962C199.664 10.0728 199.057 10.4845 198.535 11.0471C198.009 11.6151 197.956 11.6167 197.318 11.1941C196.997 10.9821 196.678 10.7654 196.365 10.541C195.813 10.144 195.794 10.0666 196.227 9.50321C197.371 8.01503 198.883 7.19161 200.743 7.04303C201.226 7.00433 201.716 7.01749 202.201 7.04999C204.026 7.17226 205.306 8.29672 205.698 10.089C205.943 11.2135 205.774 12.3527 205.835 13.2914L205.836 13.2922ZM202.38 15.1309C202.38 14.8461 202.377 14.6395 202.38 14.4336C202.385 14.0985 202.244 13.9647 201.904 14.0389C201.151 14.203 200.41 14.3973 199.738 14.7927C199.34 15.0257 199.067 15.3491 198.994 15.8158C198.915 16.3196 199.161 16.804 199.607 16.9317C200.396 17.1569 201.108 16.9441 201.802 16.5293C202.4 16.1718 202.417 15.6347 202.38 15.1309Z" fill="white"/>
<path d="M155.325 38.4799C155.325 39.3304 155.315 40.1816 155.328 41.0321C155.341 41.7542 155.39 41.8076 156.118 41.7843C156.456 41.7735 156.594 41.9306 156.623 42.2208C156.652 42.5017 156.652 42.7873 156.65 43.0698C156.642 43.9706 156.537 44.1029 155.676 44.2229C155.092 44.3041 154.5 44.3018 153.914 44.2461C153.359 44.1934 152.889 43.9574 152.529 43.5078C152.148 43.0303 152.133 43.0233 151.651 43.3878C150.379 44.3482 148.959 44.5943 147.433 44.2639C146.378 44.0356 145.585 43.4227 145.331 42.347C145.067 41.2279 145.168 40.1422 146.082 39.2762C146.735 38.6586 147.529 38.3119 148.345 38.0055C149.163 37.6982 150.018 37.5318 150.874 37.3724C151.798 37.1999 151.84 37.1697 151.866 36.6752C151.907 35.8734 151.565 35.2783 150.94 35.0655C150.591 34.9463 150.236 34.9587 149.879 35.0291C149.145 35.1738 148.57 35.584 148.061 36.1141C147.489 36.7092 147.444 36.7084 146.787 36.2449C146.452 36.0081 146.106 35.7852 145.781 35.5352C145.396 35.2404 145.368 35.1034 145.656 34.7025C146.141 34.0269 146.751 33.4813 147.455 33.041C148.971 32.093 150.624 31.8833 152.332 32.2361C154.185 32.6184 155.225 33.9271 155.3 35.8541C155.334 36.7293 155.305 37.6069 155.305 38.483C155.312 38.483 155.319 38.483 155.326 38.483L155.325 38.4799ZM151.869 40.2544C151.869 39.9688 151.863 39.763 151.871 39.5571C151.887 39.1616 151.686 39.0634 151.339 39.1377C150.636 39.2878 149.949 39.4867 149.315 39.838C149.067 39.9758 148.852 40.1607 148.704 40.4107C148.278 41.1265 148.593 41.9314 149.395 42.0947C150.177 42.2541 150.839 41.9252 151.475 41.5027C151.989 41.1614 151.844 40.6483 151.87 40.2544H151.869Z" fill="white"/>
<path d="M130.661 18.8564C130.353 18.8564 130.046 18.8649 129.74 18.8549C129.068 18.8316 128.983 18.7581 128.973 18.0934C128.959 17.1399 128.968 16.1865 128.968 15.2323C128.968 13.8409 128.972 12.4486 128.966 11.0572C128.962 10.2469 128.933 10.2229 128.16 10.2067C127.369 10.1897 126.973 9.79318 126.971 9.01723C126.971 8.70768 126.96 8.39735 126.981 8.09012C127.016 7.60102 127.092 7.53215 127.594 7.49655C127.823 7.48029 128.054 7.49655 128.285 7.48649C128.887 7.4625 128.95 7.41065 128.963 6.82094C128.978 6.15153 128.972 5.48058 128.971 4.81039C128.969 4.08371 129.083 3.37174 129.27 2.67369C129.638 1.30082 130.496 0.452643 131.904 0.184879C132.83 0.00843315 133.736 0.105943 134.64 0.325726C134.945 0.400019 135.167 0.560213 135.148 0.902271C135.111 1.59645 135.063 2.28985 134.997 2.9817C134.97 3.26726 134.767 3.35316 134.495 3.3137C134.193 3.26959 133.888 3.20767 133.583 3.21C133.045 3.21464 132.76 3.41895 132.618 3.92274C132.325 4.95743 132.435 6.01997 132.457 7.07401C132.463 7.35493 132.669 7.47101 132.928 7.4772C133.363 7.48803 133.799 7.47565 134.233 7.49809C134.765 7.52518 134.841 7.60334 134.865 8.15125C134.885 8.5885 134.882 9.02807 134.869 9.46531C134.849 10.1084 134.78 10.1765 134.162 10.2028C133.855 10.216 133.548 10.2028 133.241 10.2082C132.471 10.2214 132.441 10.2493 132.434 11.0595C132.428 11.7808 132.433 12.5028 132.433 13.2248C132.433 14.7974 132.437 16.3691 132.43 17.9417C132.427 18.7922 132.365 18.8456 131.504 18.8595C131.223 18.8641 130.941 18.8595 130.66 18.8595V18.858L130.661 18.8564Z" fill="white"/>
<path d="M100.756 30.3636C100.756 30.879 100.743 31.3952 100.76 31.9098C100.777 32.4654 100.846 32.5382 101.383 32.5552C101.971 32.5738 102.56 32.549 103.149 32.5699C103.671 32.5877 103.768 32.6821 103.794 33.2161C103.818 33.7044 103.818 34.1966 103.791 34.6842C103.763 35.1764 103.667 35.2677 103.184 35.287C102.622 35.3095 102.059 35.287 101.495 35.2994C100.836 35.3133 100.766 35.3683 100.76 35.9905C100.747 37.2535 100.758 38.5165 100.761 39.7794C100.761 39.8824 100.769 39.9861 100.781 40.0882C100.897 41.0308 101.42 41.4487 102.362 41.3427C102.539 41.3226 102.712 41.2699 102.887 41.2305C103.569 41.078 103.668 41.119 103.743 41.7869C103.807 42.348 103.799 42.9175 103.813 43.484C103.821 43.8114 103.645 44.0126 103.337 44.1C101.866 44.5156 100.396 44.593 98.9952 43.8872C97.8599 43.3145 97.3476 42.293 97.3199 41.0471C97.2854 39.5016 97.3069 37.9546 97.3038 36.4076C97.3038 36.2018 97.3 35.9951 97.2923 35.7893C97.2807 35.479 97.1148 35.318 96.8091 35.3087C96.5026 35.2986 96.1954 35.2917 95.8889 35.2901C95.5163 35.2878 95.3159 35.1168 95.3166 34.7298C95.3174 34.2144 95.2967 33.6982 95.3189 33.1836C95.3405 32.6868 95.4288 32.6109 95.9127 32.5699C96.0909 32.5544 96.2707 32.5653 96.4496 32.5614C97.2546 32.5436 97.2946 32.5034 97.3038 31.6598C97.3092 31.17 97.3176 30.6801 97.3038 30.191C97.2938 29.8211 97.4167 29.5425 97.7409 29.3552C98.3838 28.983 99.0206 28.5999 99.6673 28.2338C99.7964 28.1611 99.9554 28.1224 100.104 28.1085C100.544 28.0675 100.719 28.2037 100.74 28.6633C100.767 29.2291 100.747 29.7971 100.747 30.3643C100.75 30.3643 100.754 30.3643 100.758 30.3643L100.756 30.3636Z" fill="white"/>
<path d="M114.782 8.99038C115.116 8.61581 115.331 8.36275 115.559 8.12208C116.309 7.32807 117.22 6.95815 118.317 7.02471C119.476 7.09513 120.465 7.8961 120.767 9.03216C120.837 9.29451 120.797 9.48798 120.558 9.62264C119.844 10.0266 119.129 10.429 118.416 10.8338C118.121 11.0009 117.909 10.915 117.678 10.6736C117.007 9.97166 116.372 10.0111 115.748 10.7633C115.34 11.2555 115.166 11.8514 115.067 12.4651C114.965 13.1005 114.904 13.7413 114.914 14.389C114.931 15.5235 114.921 16.658 114.918 17.7925C114.914 18.8381 114.898 18.852 113.828 18.8574C113.47 18.859 113.111 18.8574 112.753 18.8574C111.898 18.8564 111.47 18.4369 111.469 17.5991C111.468 14.9176 111.469 12.236 111.469 9.55454C111.469 9.14206 111.462 8.72958 111.472 8.31709C111.49 7.58113 111.558 7.50684 112.256 7.49136C112.819 7.47898 113.382 7.47975 113.945 7.49136C114.632 7.50529 114.689 7.56797 114.731 8.23661C114.743 8.43705 114.758 8.63671 114.781 8.9896L114.782 8.99038Z" fill="white"/>
<path d="M161.53 33.9967C161.805 33.6949 162.036 33.4341 162.275 33.1811C163.051 32.3631 164.006 32.0365 165.12 32.1054C166.247 32.175 167.114 33.041 167.476 34.1422C167.565 34.4139 167.46 34.5903 167.234 34.7188C166.519 35.1212 165.805 35.5236 165.089 35.9229C164.829 36.0684 164.627 36.0042 164.411 35.7875C163.668 35.0415 163.023 35.0933 162.383 35.9237C162.01 36.4074 161.847 36.9754 161.762 37.5675C161.671 38.2051 161.611 38.8444 161.619 39.4921C161.633 40.7288 161.631 41.9662 161.616 43.2037C161.609 43.805 161.52 43.904 160.966 43.9218C160.25 43.9443 159.533 43.9443 158.817 43.9218C158.293 43.9056 158.216 43.8057 158.178 43.2671C158.167 43.1131 158.173 42.9583 158.173 42.8036C158.173 39.7622 158.172 36.7208 158.174 33.6795C158.174 33.4481 158.181 33.2159 158.203 32.9853C158.226 32.7516 158.364 32.5929 158.598 32.589C159.391 32.5759 160.184 32.5728 160.976 32.5821C161.294 32.586 161.398 32.8104 161.427 33.0998C161.455 33.3722 161.383 33.6578 161.529 33.9975L161.53 33.9967Z" fill="white"/>
<path d="M212.012 8.78581C212.281 8.74634 212.362 8.50102 212.509 8.33309C213.361 7.35335 214.415 6.89676 215.715 7.03992C216.743 7.15291 217.717 8.02353 217.928 9.02339C217.982 9.28342 217.937 9.49082 217.708 9.62238C216.976 10.0434 216.242 10.4613 215.501 10.8668C215.228 11.0161 215.032 10.8691 214.836 10.6617C214.203 9.99307 213.477 10.0263 212.907 10.7623C212.331 11.5068 212.169 12.4014 212.149 13.3107C212.118 14.7788 212.137 16.2476 212.133 17.7157C212.131 18.4751 211.742 18.8556 210.966 18.8572C210.48 18.8579 209.994 18.8649 209.508 18.8541C208.76 18.837 208.698 18.7697 208.686 17.9896C208.678 17.5005 208.683 17.0107 208.683 16.5216C208.683 13.9198 208.683 11.318 208.683 8.71616C208.683 8.51031 208.676 8.3029 208.692 8.09782C208.732 7.61028 208.808 7.51741 209.3 7.49961C209.938 7.4764 210.578 7.47717 211.217 7.49806C211.749 7.51509 211.798 7.59093 211.857 8.14581C211.88 8.36327 211.779 8.61633 212.012 8.78658V8.78581Z" fill="white"/>
<path d="M136.379 13.095C136.379 11.5248 136.372 9.95538 136.382 8.38517C136.387 7.56253 136.457 7.49907 137.252 7.48978C137.916 7.48282 138.581 7.47662 139.245 7.4952C139.771 7.51068 139.854 7.60509 139.899 8.13365C139.914 8.31242 139.907 8.49351 139.907 8.67382C139.907 11.6595 139.907 14.6451 139.907 17.63C139.907 17.8103 139.914 17.9914 139.898 18.1702C139.851 18.7258 139.756 18.8318 139.188 18.8489C138.524 18.869 137.86 18.8659 137.195 18.852C136.5 18.8373 136.394 18.7421 136.386 18.0355C136.37 16.569 136.38 15.1017 136.379 13.6344C136.379 13.4541 136.379 13.2738 136.379 13.0943V13.095Z" fill="white"/>
<path d="M125.519 13.1884C125.519 14.7354 125.522 16.2824 125.518 17.8294C125.516 18.8277 125.49 18.8502 124.468 18.8571C124.007 18.8602 123.547 18.8602 123.086 18.8571C122.098 18.8502 122.074 18.8254 122.069 17.7946C122.066 17.2018 122.069 16.6082 122.069 16.0154C122.069 13.5661 122.069 11.1167 122.07 8.66739C122.07 8.43522 122.072 8.20306 122.088 7.97166C122.11 7.66675 122.281 7.50269 122.585 7.50114C123.379 7.4965 124.172 7.49882 124.965 7.49805C125.355 7.49805 125.512 7.71473 125.512 8.08388C125.512 8.28973 125.519 8.49636 125.519 8.70221C125.519 10.1974 125.519 11.6933 125.519 13.1884Z" fill="white"/>
<path d="M110.227 59.5001C110.227 58.4948 110.218 57.4887 110.23 56.4835C110.238 55.7607 110.321 55.6717 111.021 55.6616C111.942 55.6484 112.868 55.6028 113.783 55.6763C116.05 55.8589 116.622 58.039 115.8 59.3677C115.606 59.6812 115.35 59.9334 115.036 60.1153C114.719 60.2995 114.704 60.5053 114.878 60.8126C115.222 61.4154 115.541 62.0338 115.856 62.6529C116.141 63.2124 116.034 63.4035 115.428 63.443C115.25 63.4546 115.068 63.4299 114.891 63.4515C114.352 63.5173 114.038 63.2728 113.818 62.7868C113.543 62.1777 113.217 61.5911 112.9 61.0022C112.783 60.7855 112.686 60.4666 112.357 60.5696C112.038 60.6694 112.134 60.996 112.126 61.239C112.11 61.7281 112.134 62.2195 112.111 62.7078C112.083 63.3076 111.964 63.4136 111.368 63.4446C111.215 63.4523 111.06 63.4531 110.907 63.4446C110.342 63.4128 110.241 63.33 110.232 62.7488C110.216 61.6662 110.228 60.5835 110.228 59.5008H110.225L110.227 59.5001ZM113.074 57.4052C112.86 57.4152 112.683 57.4183 112.507 57.4322C112.343 57.4454 112.228 57.5282 112.164 57.6876C111.883 58.3857 112.202 58.8957 112.936 58.9049C113.163 58.908 113.395 58.9158 113.617 58.8794C114.026 58.8129 114.242 58.5358 114.233 58.1388C114.224 57.7457 114.001 57.5298 113.642 57.4531C113.446 57.4114 113.24 57.4175 113.074 57.4052H113.074Z" fill="white"/>
<path d="M118.351 59.5282C118.351 58.4966 118.341 57.465 118.355 56.4342C118.364 55.7779 118.466 55.6742 119.123 55.6634C120.044 55.6487 120.968 55.627 121.887 55.6719C123.354 55.7439 124.373 56.9124 124.265 58.3441C124.211 59.0615 123.853 59.5986 123.287 60.0188C122.763 60.4081 122.77 60.4143 123.084 61.0016C123.399 61.5913 123.731 62.1741 124.022 62.7761C124.239 63.2242 124.131 63.3883 123.655 63.4417C123.605 63.4471 123.552 63.4409 123.502 63.4479C122.641 63.5763 122.03 63.3233 121.719 62.4233C121.527 61.8684 121.205 61.3584 120.934 60.8321C120.85 60.6689 120.736 60.5164 120.519 60.5582C120.294 60.6008 120.259 60.7919 120.256 60.9738C120.242 61.5147 120.254 62.0572 120.237 62.5982C120.214 63.3372 120.107 63.434 119.371 63.4487C119.244 63.451 119.115 63.4541 118.987 63.444C118.473 63.4038 118.37 63.3194 118.359 62.7785C118.339 61.825 118.351 60.8708 118.35 59.9166C118.35 59.7874 118.35 59.6589 118.35 59.5297H118.351V59.5282ZM121.261 58.9067C121.334 58.9021 121.541 58.9098 121.74 58.8719C122.136 58.7968 122.351 58.5507 122.363 58.2033C122.376 57.8264 122.143 57.5052 121.739 57.4495C121.388 57.4007 121.027 57.4232 120.67 57.4301C120.434 57.4348 120.314 57.578 120.262 57.8101C120.084 58.6018 120.319 58.9029 121.261 58.9075V58.9067Z" fill="white"/>
<path d="M102.869 59.5614C102.869 58.5569 102.859 57.5524 102.872 56.5479C102.881 55.7926 102.989 55.6718 103.701 55.6625C104.851 55.6478 106.002 55.6556 107.152 55.661C107.43 55.6625 107.763 55.6293 107.881 55.9566C108.031 56.3737 108.056 56.8195 107.845 57.2289C107.738 57.4363 107.498 57.4224 107.295 57.4247C106.655 57.4309 106.016 57.4185 105.377 57.4363C104.863 57.451 104.768 57.5562 104.77 58.0097C104.771 58.4625 104.87 58.5685 105.376 58.5902C105.81 58.6087 106.245 58.5847 106.679 58.6041C107.274 58.6304 107.367 58.7403 107.39 59.3547C107.394 59.4577 107.394 59.5614 107.388 59.6635C107.358 60.2439 107.278 60.3376 106.714 60.3623C106.229 60.3832 105.743 60.3755 105.257 60.3763C104.834 60.3763 104.763 60.6448 104.764 60.9946C104.765 61.517 104.836 61.647 105.275 61.6648C105.913 61.6911 106.553 61.6733 107.192 61.681C107.474 61.6841 107.804 61.664 107.898 62.0069C108.013 62.4278 108.067 62.8713 107.807 63.2722C107.715 63.413 107.546 63.4339 107.394 63.4339C106.09 63.4385 104.786 63.4525 103.482 63.4316C103.011 63.4238 102.889 63.2714 102.878 62.7281C102.858 61.6725 102.872 60.6162 102.872 59.5598H102.867L102.869 59.5614Z" fill="white"/>
<path d="M132.08 63.4478C131.579 63.5383 131.168 63.3325 130.955 62.7529C130.857 62.4859 130.643 62.3559 130.355 62.3566C129.715 62.3582 129.075 62.3605 128.435 62.3551C128.111 62.3528 127.917 62.5215 127.785 62.8032C127.665 63.0585 127.551 63.3457 127.234 63.4021C126.805 63.478 126.367 63.4896 125.939 63.3905C125.765 63.3503 125.704 63.1901 125.741 63.0245C125.78 62.8504 125.841 62.6778 125.915 62.5153C126.897 60.3871 127.882 58.2612 128.869 56.1354C128.933 55.9968 129.002 55.849 129.107 55.7438C129.342 55.507 129.63 55.5936 129.826 55.9845C130.115 56.5595 130.374 57.1492 130.645 57.7334C131.358 59.2758 132.071 60.8189 132.784 62.362C132.795 62.3853 132.808 62.4077 132.818 62.4309C133.219 63.3162 133.134 63.4478 132.079 63.447L132.08 63.4478ZM129.316 59.3981C129.166 59.7192 129.034 59.9909 128.913 60.2671C128.858 60.3941 128.864 60.5457 129.015 60.5829C129.284 60.6502 129.595 60.7214 129.82 60.5334C130.015 60.3685 129.804 60.1572 129.729 59.9816C129.651 59.7982 129.6 59.5908 129.316 59.3981H129.316Z" fill="white"/>
<path d="M170.157 63.4431C169.723 63.4431 169.288 63.4601 168.855 63.4385C168.351 63.4129 168.245 63.2945 168.19 62.7861C168.179 62.6839 168.18 62.5802 168.18 62.4773C168.18 60.5209 168.173 58.5645 168.183 56.6074C168.186 55.7731 168.295 55.6702 169.109 55.6594C169.773 55.6509 170.439 55.6362 171.101 55.6648C172.955 55.7445 174.568 57.1592 174.802 58.8842C175.069 60.8599 174.053 62.6096 172.282 63.2558C171.586 63.5097 170.869 63.4307 170.157 63.4423V63.4431ZM170.591 56.9394C170.487 56.9394 170.309 56.9417 170.131 56.9394C169.753 56.934 169.564 57.1205 169.564 57.5005C169.564 58.912 169.564 60.3244 169.564 61.7359C169.564 62.1291 169.774 62.2807 170.144 62.2769C170.708 62.2715 171.268 62.2204 171.803 62.0447C172.466 61.8272 172.93 61.3699 173.216 60.7245C174.013 58.9337 172.802 56.7707 170.591 56.9394Z" fill="white"/>
<path d="M194.849 63.4416C194.439 63.4416 194.029 63.4609 193.622 63.4361C193.149 63.4075 193.064 63.3038 193.02 62.8201C193.011 62.718 193.014 62.6143 193.014 62.5114C193.014 60.5279 193.009 58.5444 193.016 56.5609C193.019 55.7491 193.099 55.671 193.89 55.6594C194.555 55.6493 195.221 55.6393 195.884 55.6632C197.755 55.7298 199.319 57.1553 199.62 59.049C199.895 60.7763 198.757 62.6274 197.053 63.2527C196.332 63.5166 195.588 63.4292 194.85 63.4423L194.849 63.4416ZM194.313 59.6155H194.315C194.315 60.2857 194.303 60.9566 194.319 61.6268C194.333 62.1863 194.406 62.2482 194.94 62.2761C195.353 62.2978 195.757 62.2335 196.159 62.1515C197.484 61.883 198.325 60.7755 198.243 59.4088C198.159 57.9965 197.175 57.0098 195.774 56.9386C195.545 56.927 195.314 56.9285 195.084 56.934C194.394 56.9518 194.33 57.0067 194.317 57.6808C194.305 58.3254 194.314 58.9701 194.314 59.6147L194.313 59.6155Z" fill="white"/>
<path d="M160.446 58.1905C160.172 58.6332 160.246 58.8963 160.243 59.1447C160.233 60.3566 160.249 61.5685 160.23 62.7804C160.222 63.3376 159.978 63.5117 159.45 63.4313C159.183 63.3902 159.031 63.2471 158.999 62.9863C158.974 62.7827 158.964 62.5753 158.963 62.3695C158.961 60.4355 158.955 58.5016 158.967 56.5677C158.97 56.2287 158.838 55.786 159.29 55.6305C159.69 55.4927 159.878 55.8704 160.087 56.1111C161.215 57.4112 162.33 58.7222 163.452 60.0285C163.617 60.2204 163.744 60.4541 163.999 60.5702C164.231 60.4386 164.142 60.2103 164.144 60.0277C164.154 58.8158 164.142 57.6039 164.157 56.392C164.164 55.8696 164.29 55.728 164.671 55.6769C165.15 55.6135 165.414 55.8015 165.43 56.2945C165.458 57.0931 165.444 57.8925 165.444 58.692C165.446 59.8783 165.444 61.0639 165.444 62.2503C165.444 62.4306 165.45 62.6117 165.44 62.792C165.425 63.0683 165.481 63.3972 165.129 63.5063C164.793 63.61 164.615 63.3376 164.435 63.1279C164.082 62.7193 163.744 62.2983 163.4 61.8835C162.495 60.7969 161.589 59.7127 160.689 58.6231C160.607 58.5248 160.561 58.3971 160.445 58.1897L160.446 58.1905Z" fill="white"/>
<path d="M184.927 59.4676C184.927 58.4878 184.916 57.5073 184.931 56.5276C184.941 55.7808 185.05 55.6732 185.779 55.6608C186.573 55.6477 187.367 55.6438 188.16 55.6639C189.101 55.6871 189.837 56.1066 190.309 56.9331C190.844 57.8703 190.697 58.9266 189.943 59.709C189.8 59.8561 189.651 60.0062 189.479 60.1114C189.159 60.308 189.173 60.5386 189.334 60.8281C189.572 61.2553 189.795 61.6909 190.025 62.1228C190.085 62.2365 190.163 62.3426 190.209 62.4617C190.322 62.7519 190.655 63.0499 190.287 63.354C189.976 63.611 189.207 63.4384 188.995 63.0615C188.654 62.4563 188.326 61.8395 188.056 61.2003C187.816 60.633 187.44 60.4342 186.854 60.4899C186.308 60.5417 186.227 60.5835 186.209 61.1214C186.19 61.6368 186.211 62.153 186.199 62.6684C186.184 63.2999 186.076 63.4299 185.601 63.4392C185.095 63.4492 184.942 63.2929 184.932 62.6405C184.915 61.5834 184.927 60.5255 184.927 59.4683H184.926L184.927 59.4676ZM187.452 59.3345C187.706 59.3345 187.965 59.3646 188.214 59.3283C188.827 59.2393 189.303 58.6798 189.284 58.1102C189.266 57.5607 188.814 57.0631 188.222 56.9641C188.022 56.9308 187.816 56.9362 187.612 56.9339C186.738 56.9241 186.302 57.3531 186.303 58.2208C186.305 58.9777 186.687 59.3489 187.452 59.3345Z" fill="white"/>
<path d="M97.5896 59.4251C98.1519 58.5089 98.4684 57.5523 98.9078 56.6562C98.9869 56.4944 99.056 56.3273 99.1236 56.1601C99.2527 55.8421 99.4754 55.6602 99.8264 55.6641C100.159 55.6679 100.493 55.6548 100.823 55.6873C101.142 55.719 101.265 55.9256 101.162 56.236C101.089 56.4557 101.002 56.6717 100.905 56.8814C99.9947 58.8424 99.0806 60.8019 98.1673 62.7621C98.1235 62.8558 98.0797 62.9486 98.0329 63.0407C97.9292 63.2474 97.8439 63.4989 97.5766 63.5151C97.2601 63.5337 97.1595 63.2528 97.0535 63.0229C96.038 60.8266 95.021 58.6311 94.0209 56.4279C93.762 55.8575 93.8811 55.7028 94.5179 55.6617C94.6707 55.6517 94.8259 55.6695 94.978 55.6555C95.5418 55.6029 95.879 55.8537 96.0941 56.3815C96.4444 57.2389 96.843 58.077 97.2225 58.9221C97.2947 59.0831 97.3584 59.2526 97.5904 59.4251H97.5896Z" fill="white"/>
<path d="M156.483 63.4436C156.114 63.497 155.848 63.2896 155.706 62.9128C155.272 61.7628 155.248 61.8734 153.979 61.8657C153.468 61.8626 152.956 61.8819 152.446 61.8626C152.007 61.8456 151.713 62.0096 151.558 62.4329C151.479 62.6496 151.37 62.8555 151.27 63.0644C151.163 63.2912 150.988 63.4173 150.732 63.4382C149.963 63.5024 149.799 63.2564 150.087 62.6311C151.077 60.4843 152.041 58.3252 153.016 56.1707C153.038 56.1235 153.06 56.0778 153.084 56.0321C153.195 55.8278 153.295 55.6042 153.58 55.6197C153.828 55.6336 153.91 55.8402 153.996 56.0244C154.331 56.7472 154.661 57.4723 154.988 58.199C155.619 59.6059 156.247 61.0144 156.876 62.4221C156.918 62.5157 156.966 62.6078 157.001 62.7038C157.201 63.2409 157.083 63.4274 156.483 63.4436H156.483ZM153.494 58.0883C153.138 58.9002 152.841 59.5734 152.548 60.249C152.435 60.5083 152.457 60.7141 152.799 60.7203C153.281 60.7288 153.764 60.7327 154.245 60.7149C154.563 60.7033 154.628 60.5052 154.507 60.2374C154.203 59.5672 153.962 58.8661 153.494 58.0883Z" fill="white"/>
<path d="M182.417 63.4424C182.074 63.4796 181.825 63.2977 181.679 62.951C181.17 61.7414 181.22 61.8753 179.811 61.8652C179.325 61.8621 178.84 61.8792 178.355 61.8637C177.944 61.8505 177.679 62.0223 177.524 62.4039C177.428 62.6414 177.305 62.8682 177.188 63.0965C177.072 63.3225 176.881 63.4169 176.631 63.4409C175.958 63.5066 175.756 63.2768 176.028 62.6561C176.657 61.2206 177.315 59.799 177.961 58.3711C178.257 57.7157 178.556 57.0617 178.854 56.407C178.918 56.2669 178.98 56.1246 179.057 55.9914C179.361 55.4737 179.665 55.4644 179.93 55.993C180.229 56.5897 180.49 57.2057 180.763 57.8147C181.458 59.3609 182.15 60.9087 182.844 62.4557C182.886 62.5493 182.934 62.6414 182.968 62.7382C183.153 63.2605 183.018 63.4432 182.415 63.4424H182.417ZM179.437 58.0763C179.079 58.909 178.764 59.6264 178.466 60.3507C178.377 60.5659 178.492 60.7098 178.713 60.7152C179.221 60.7268 179.731 60.7315 180.239 60.7114C180.507 60.7005 180.59 60.5156 180.477 60.2788C180.152 59.5923 179.915 58.8618 179.437 58.0763Z" fill="white"/>
<path d="M88.8736 63.4437C88.5087 63.4917 88.2514 63.292 88.0916 62.9159C87.6084 61.7768 87.6707 61.8704 86.3595 61.865C85.8486 61.8627 85.3378 61.8812 84.8278 61.8619C84.3854 61.8449 84.0996 62.0244 83.9421 62.4392C83.8692 62.6304 83.777 62.8161 83.6764 62.9949C83.4459 63.4058 83.0012 63.5637 82.5703 63.405C82.3705 63.3315 82.2845 63.1914 82.3367 62.9863C82.3744 62.8378 82.4305 62.6923 82.4934 62.553C83.4482 60.448 84.4038 58.343 85.3663 56.2412C85.4792 55.9951 85.5306 55.6538 85.8786 55.6313C86.2765 55.6066 86.3487 55.9664 86.4724 56.2388C87.3934 58.2749 88.3105 60.3126 89.2277 62.3502C89.2906 62.4903 89.3552 62.6319 89.4028 62.7774C89.5656 63.2766 89.452 63.4306 88.872 63.4429L88.8736 63.4437ZM85.9278 58.0815C85.4615 58.884 85.2103 59.6083 84.8969 60.3017C84.7825 60.554 84.9077 60.7049 85.165 60.7142C85.622 60.7305 86.0806 60.7413 86.5377 60.7212C86.9609 60.7018 87.0293 60.5974 86.8595 60.1826C86.5899 59.524 86.2842 58.8793 85.9278 58.0815Z" fill="white"/>
<path d="M140.497 63.5909C139.616 63.5739 138.946 63.3379 138.338 62.9324C137.879 62.6259 137.829 62.3806 138.093 61.9743C138.338 61.5966 138.51 61.561 138.987 61.8435C139.48 62.1345 139.975 62.3852 140.571 62.321C140.949 62.2807 141.274 62.1577 141.418 61.7684C141.574 61.3513 141.415 61.0116 141.117 60.7268C140.872 60.4938 140.565 60.3576 140.268 60.2075C139.834 59.9885 139.381 59.7997 138.973 59.5404C138.188 59.0428 137.824 58.3076 137.96 57.372C138.091 56.4665 138.735 55.8606 139.692 55.6408C140.534 55.4473 141.319 55.6122 142.064 55.9999C142.535 56.2452 142.62 56.4867 142.436 56.8574C142.221 57.29 141.987 57.3689 141.504 57.1375C141.108 56.9487 140.716 56.7684 140.264 56.7862C139.795 56.8047 139.429 57.0439 139.302 57.4184C139.185 57.7651 139.316 58.1219 139.69 58.4283C140.032 58.7085 140.442 58.8625 140.842 59.032C141.267 59.2123 141.674 59.4174 142.039 59.7115C142.75 60.2857 143.026 61.0247 142.822 61.9046C142.63 62.7304 142.038 63.2024 141.259 63.454C140.966 63.5484 140.664 63.6049 140.497 63.5902V63.5909Z" fill="white"/>
<path d="M146.307 60.1116C146.307 59.2619 146.319 58.4121 146.303 57.5632C146.292 57.0184 146.21 56.9503 145.672 56.917C145.417 56.9007 145.159 56.9216 144.907 56.8914C144.457 56.838 144.335 56.674 144.338 56.236C144.341 55.8475 144.539 55.6679 144.906 55.6672C146.26 55.6633 147.615 55.6525 148.968 55.6733C149.412 55.6803 149.571 55.8908 149.566 56.3025C149.562 56.7026 149.404 56.8597 148.934 56.9007C148.68 56.9224 148.423 56.9162 148.168 56.9185C147.787 56.9216 147.613 57.1174 147.615 57.4958C147.617 57.9849 147.611 58.474 147.61 58.9631C147.608 60.199 147.618 61.4341 147.601 62.6693C147.594 63.245 147.468 63.3882 147.054 63.4339C146.542 63.4904 146.333 63.3364 146.32 62.814C146.299 61.914 146.315 61.0124 146.315 60.1116H146.307Z" fill="white"/>
<path d="M123.846 0.821086C124.735 0.803287 125.394 1.20493 125.77 1.99043C126.106 2.69157 126.034 3.40045 125.53 4.02188C124.902 4.79653 124.062 4.91726 123.163 4.70831C122.223 4.4893 121.702 3.7131 121.736 2.6877C121.767 1.76677 122.329 1.0873 123.238 0.889188C123.436 0.845851 123.643 0.842755 123.846 0.820312V0.821086Z" fill="white"/>
<path d="M138.213 4.78745C136.797 4.77198 135.9 3.80307 136.051 2.54706C136.14 1.79639 136.53 1.25389 137.247 0.98226C137.791 0.775633 138.353 0.77099 138.904 0.93428C139.822 1.20746 140.322 2.00688 140.242 3.01913C140.175 3.85957 139.484 4.61178 138.637 4.75572C138.462 4.78513 138.28 4.78281 138.213 4.78745Z" fill="white"/>
</svg>
