<svg width="38" height="41" viewBox="0 0 38 41" fill="none" xmlns="http://www.w3.org/2000/svg">
<g id="Group">
<path id="Vector" d="M18.5723 0.257812C19.1483 0.395692 19.7403 0.441385 20.317 0.588083C24.2521 1.59092 27.2951 4.88961 27.8671 8.91378C28.3647 12.4129 27.2463 15.3829 24.7568 17.8744C23.0145 19.6187 20.8722 20.353 18.4835 20.531C18.1547 20.5558 17.8235 20.5718 17.494 20.563C14.4501 20.4805 11.7166 21.4336 9.2575 23.1603C5.98964 25.4538 3.96573 28.5913 3.20096 32.5265C3.05376 33.2857 2.97857 34.0544 2.96417 34.8288C2.93697 36.2757 3.88173 37.2641 5.32087 37.2826C8.35034 37.3203 11.3806 37.3531 14.4101 37.39C15.6548 37.4052 16.9004 37.4229 18.1451 37.4429C18.8635 37.4541 19.3443 37.964 19.3411 38.7031C19.3379 39.451 18.8075 40.0257 18.1035 40.0177C13.8173 39.9688 9.53109 39.9279 5.24567 39.8574C2.71698 39.8157 0.897856 38.2189 0.432275 35.701C0.424276 35.6593 0.401077 35.6208 0.384277 35.5807C0.384277 35.0508 0.384277 34.5202 0.384277 33.9903C0.454674 33.4676 0.501872 32.9402 0.598668 32.4223C1.75062 26.2706 5.20407 21.9306 10.875 19.3454C11.3198 19.1425 11.7822 18.979 12.275 18.781C12.1086 18.672 11.9798 18.5894 11.8542 18.5037C11.7182 18.4107 11.5734 18.3265 11.4518 18.2167C8.80712 15.827 7.55917 12.873 7.91196 9.29536C8.31514 5.20225 11.3814 1.61978 15.3356 0.571247C15.858 0.432565 16.3956 0.388478 16.918 0.257812H18.5715H18.5723ZM25.552 10.4729C25.564 6.30048 22.1602 2.85428 18.0155 2.84306C13.8837 2.83184 10.4383 6.23875 10.4287 10.3471C10.4183 14.5853 13.8029 17.9866 18.0395 17.9954C22.0922 18.0034 25.54 14.5508 25.552 10.4729Z" fill="#68A362"/>
<path id="Vector_2" d="M37.0259 25.5387C37.0259 26.8326 37.1027 28.1328 37.0091 29.4202C36.8491 31.6079 36.6339 33.8051 35.278 35.6673C33.7804 37.7235 31.8045 39.1327 29.4102 39.9536C29.1862 40.0306 28.8902 40.0426 28.6702 39.9648C25.8552 38.9644 23.5809 37.2994 22.2001 34.5683C21.6753 33.531 21.3722 32.4223 21.2858 31.268C21.177 29.8106 21.0826 28.3492 21.057 26.8887C21.0442 26.172 21.2282 25.453 21.2682 24.7323C21.2938 24.273 21.5634 24.1038 21.9265 24.0028C22.9377 23.7206 23.9528 23.4497 24.9664 23.1771C26.0704 22.8797 27.1863 22.6232 28.2735 22.2745C28.8566 22.0877 29.355 22.1655 29.9214 22.3314C31.8453 22.8966 33.7924 23.3824 35.7228 23.9283C36.9131 24.2649 36.9091 24.2946 37.0267 25.5387H37.0259ZM29.0342 30.9433C29.0998 30.9778 29.1654 31.0419 29.231 31.0419C30.567 31.0475 31.9037 31.0459 33.4069 31.0459C33.4069 29.7753 33.414 28.5432 33.3956 27.3119C33.394 27.1885 33.2549 26.9897 33.1421 26.9568C31.8133 26.568 30.4782 26.2041 29.091 25.8185C29.091 26.2858 29.095 26.6923 29.091 27.0987C29.075 28.3797 29.0558 29.6607 29.0382 30.9417C28.8614 30.9778 28.6854 31.0427 28.5087 31.0443C27.3247 31.0531 26.1408 31.0491 24.9584 31.0491C24.8992 33.0572 26.5367 35.1895 29.035 36.2292V30.9417L29.0342 30.9433Z" fill="#005487"/>
<path id="Vector_3" d="M28.9838 30.9123C29.0086 29.1664 29.035 27.4196 29.0566 25.6737C29.0638 25.1198 29.0574 24.565 29.0574 23.9277C30.9485 24.4528 32.7692 24.949 34.5803 25.4789C34.7347 25.5238 34.9243 25.7947 34.9267 25.9631C34.9523 27.6417 34.9427 29.3211 34.9427 31.0526C32.8932 31.0526 31.0717 31.0542 29.2502 31.047C29.1606 31.047 29.071 30.9596 28.9814 30.9123H28.9846H28.9838Z" fill="white"/>
<path id="Vector_4" d="M28.9806 30.9129V38.1203C25.5751 36.7023 23.3424 33.7964 23.4232 31.0588C25.0352 31.0588 26.6487 31.0652 28.2622 31.0524C28.503 31.0508 28.7438 30.961 28.9838 30.9121H28.9798L28.9806 30.9129Z" fill="#FEFEFE"/>
</g>
</svg>
