<svg width="43" height="41" viewBox="0 0 43 41" fill="none" xmlns="http://www.w3.org/2000/svg">
<g id="Group">
<path id="Vector" d="M18.5511 0.257812C19.1153 0.392893 19.6953 0.437658 20.2604 0.581377C24.1155 1.56385 27.0968 4.79557 27.6571 8.73804C28.1446 12.1661 27.049 15.0758 24.61 17.5167C22.9031 19.2256 20.8043 19.945 18.4641 20.1194C18.1419 20.1437 17.8175 20.1594 17.4946 20.1508C14.5125 20.0699 11.8345 21.0037 9.42537 22.6953C6.22386 24.9422 4.24103 28.0161 3.49179 31.8714C3.34759 32.6151 3.27392 33.3682 3.25981 34.1269C3.23316 35.5444 4.15874 36.5128 5.56866 36.5308C8.53662 36.5678 11.5054 36.6 14.4733 36.6361C15.6928 36.651 16.9131 36.6683 18.1325 36.6879C18.8363 36.6989 19.3073 37.1984 19.3042 37.9225C19.3011 38.6552 18.7815 39.2183 18.0918 39.2105C13.8926 39.1626 9.6934 39.1225 5.49499 39.0534C3.01764 39.0126 1.23545 37.4481 0.779323 34.9813C0.771486 34.9405 0.748758 34.9028 0.7323 34.8635C0.7323 34.3444 0.7323 33.8245 0.7323 33.3054C0.801268 32.7934 0.847507 32.2766 0.942338 31.7693C2.0709 25.7425 5.45424 21.4906 11.0101 18.9578C11.4458 18.7591 11.8988 18.5989 12.3816 18.4049C12.2186 18.2981 12.0924 18.2172 11.9693 18.1332C11.8361 18.0421 11.6942 17.9596 11.5751 17.852C8.98413 15.5109 7.76152 12.6169 8.10714 9.11187C8.50214 5.10186 11.5062 1.59212 15.3801 0.564885C15.8927 0.429019 16.4193 0.385039 16.9311 0.257812H18.5511ZM25.389 10.2655C25.4008 6.17779 22.0661 2.80157 18.0056 2.79057C13.9576 2.77958 10.5821 6.11732 10.5727 10.1422C10.5626 14.2944 13.8785 17.6266 18.0291 17.6353C21.9994 17.6431 25.3773 14.2606 25.389 10.2655Z" fill="#68A362"/>
<g id="Group_2">
<path id="Vector_2" d="M27.6173 40.0177C27.2168 39.6525 26.7026 39.4727 26.2551 39.1829C25.984 39.007 25.6924 38.864 25.4134 38.6999C24.7261 38.297 24.4165 37.5219 24.6305 36.7522C24.7943 36.1648 24.9283 35.5805 24.6994 34.9742C24.3734 34.1119 23.6257 33.5142 22.7088 33.5291C22.0113 33.5401 21.4595 33.0077 21.273 32.3935C20.8608 31.0411 20.9305 29.6864 21.2291 28.3262C21.3177 27.9217 21.4062 27.5243 21.7033 27.2102C21.9588 26.9392 22.2558 26.7775 22.6398 26.7743C24.3146 26.7625 25.3296 25.3905 24.8523 23.7711C24.6595 23.1185 24.741 22.5358 25.1783 22.0088C25.2833 21.8824 25.4071 21.7826 25.5537 21.7072C26.4354 21.2533 27.2991 20.7585 28.2035 20.3548C28.7584 20.1067 29.3023 20.3195 29.7623 20.7004C30.1792 21.0444 30.6134 21.3617 31.079 21.6381C31.5186 21.8996 31.9544 21.9098 32.3948 21.6475C32.7851 21.4151 33.1668 21.1724 33.4693 20.8245C33.6598 20.6054 33.9035 20.4585 34.1856 20.4122C34.7609 20.3164 35.322 20.2622 35.8628 20.6211C36.4373 21.002 37.0408 21.346 37.6575 21.6523C38.2986 21.9711 38.7038 22.8758 38.4703 23.6478C38.3464 24.0586 38.232 24.4772 38.2908 24.9209C38.4287 25.9717 39.2367 26.7594 40.2901 26.8521C41.3465 26.9455 41.7486 27.3492 41.892 28.4236C41.9641 28.9654 42.019 29.5152 42.2611 30.0186V30.6681C42.1561 31.1951 42.0597 31.7236 41.9437 32.2482C41.8027 32.8859 41.2376 33.5228 40.4554 33.4718C39.8151 33.4302 39.2532 33.7098 38.83 34.2037C38.2351 34.8972 38.1521 35.692 38.4115 36.5457C38.6748 37.4111 38.3425 38.1886 37.54 38.6151C36.8644 38.9748 36.1724 39.3077 35.5235 39.7106C34.7562 40.1865 33.7499 39.9423 33.2311 39.2834C32.8996 38.8617 32.4552 38.5711 31.9638 38.3551C31.6495 38.2169 31.3392 38.2216 31.0241 38.3551C30.528 38.5672 30.1048 38.8931 29.756 39.2881C29.3618 39.735 28.8892 39.8983 28.3226 39.8881C28.1431 39.885 27.9558 39.8693 27.8116 40.0169H27.6173V40.0177ZM39.935 30.6799C39.888 30.2087 39.8238 29.6613 39.7822 29.1123C39.765 28.8901 39.6756 28.8147 39.457 28.766C36.8558 28.1895 35.6199 25.3874 36.3895 23.501C36.4577 23.3337 36.3895 23.2709 36.2594 23.2002C35.8134 22.9591 35.3636 22.7227 34.931 22.4588C34.7288 22.3355 34.5814 22.3551 34.4137 22.4965C33.9827 22.8593 33.5187 23.1703 32.9975 23.3934C32.2859 23.6973 31.5625 23.7806 30.8227 23.5167C30.1346 23.2716 29.517 22.8986 28.97 22.4156C28.8234 22.286 28.7152 22.2656 28.5475 22.3583C28.0843 22.6127 27.6172 22.8601 27.1439 23.0942C26.9871 23.1719 26.9864 23.2481 27.0357 23.3973C27.3955 24.4921 27.2191 25.5413 26.6846 26.5261C26.0569 27.6814 25.049 28.334 23.7699 28.5798C23.6587 28.601 23.545 28.5798 23.5199 28.7597C23.4196 29.4995 23.3365 30.2314 23.4408 30.9854C23.4894 31.3356 23.6116 31.4354 23.9259 31.5092C25.8962 31.9757 27.3061 34.0349 27.0561 35.9991C27.0138 36.3328 26.6783 36.6847 26.9252 36.98C27.1415 37.2383 27.5154 37.3648 27.821 37.5478C28.006 37.6585 28.1894 37.8446 28.3798 37.8541C28.593 37.8643 28.7004 37.5745 28.8869 37.4535C28.959 37.4064 29.0162 37.3381 29.0875 37.2894C30.0343 36.636 31.0523 36.248 32.2224 36.5009C33.0688 36.6839 33.7922 37.0931 34.3604 37.7551C34.5132 37.9334 34.6426 38.0009 34.8753 37.8643C35.3119 37.6082 35.7672 37.3828 36.2218 37.1582C36.3785 37.0805 36.4036 37.0019 36.3534 36.8347C35.7045 34.6687 36.9718 32.3857 39.1474 31.7629C39.3841 31.6953 39.7195 31.7676 39.8371 31.5233C39.9421 31.3042 39.9037 31.0152 39.9366 30.6791L39.935 30.6799Z" fill="#005487"/>
<path id="Vector_3" d="M35.4741 30.3332C35.4898 32.3861 33.8079 34.1013 31.7561 34.1233C29.5233 34.1476 27.7607 32.4018 27.7544 30.1612C27.749 28.0454 29.43 26.269 31.452 26.254C33.7484 26.2368 35.4553 27.9685 35.4741 30.3332ZM31.6441 31.9329C32.6112 31.9251 33.4419 31.0887 33.4396 30.125C33.4372 29.1457 32.5751 28.2818 31.619 28.3007C30.6205 28.3203 29.8078 29.1433 29.8101 30.1321C29.8125 31.1154 30.6542 31.9416 31.6433 31.9337L31.6441 31.9329Z" fill="#005487"/>
</g>
</g>
</svg>
