<svg width="36" height="41" viewBox="0 0 36 41" fill="none" xmlns="http://www.w3.org/2000/svg">
<g id="Group">
<path id="Vector" d="M18.8487 0.257812C19.4246 0.395692 20.0166 0.441385 20.5934 0.588083C24.5284 1.59092 27.5715 4.88962 28.1435 8.91378C28.641 12.4129 27.5227 15.3829 25.0332 17.8744C23.2909 19.6187 21.1486 20.353 18.7599 20.531C18.4311 20.5558 18.0999 20.5719 17.7703 20.563C14.7264 20.4805 11.9929 21.4336 9.53384 23.1603C6.26598 25.4538 4.24207 28.5913 3.4773 32.5265C3.33011 33.2857 3.25491 34.0544 3.24051 34.8288C3.21331 36.2757 4.15808 37.2641 5.59721 37.2826C8.62669 37.3203 11.657 37.3531 14.6864 37.39C15.9312 37.4052 17.1767 37.4229 18.4215 37.4429C19.1398 37.4541 19.6206 37.964 19.6174 38.7031C19.6142 39.451 19.0838 40.0257 18.3799 40.0177C14.0937 39.9688 9.80744 39.9279 5.52202 39.8574C2.99332 39.8157 1.1742 38.2189 0.708623 35.701C0.700623 35.6593 0.677421 35.6208 0.660622 35.5807C0.660622 35.0508 0.660622 34.5202 0.660622 33.9903C0.731019 33.4676 0.778216 32.9402 0.875012 32.4223C2.02696 26.2706 5.48041 21.9306 11.1514 19.3454C11.5962 19.1425 12.0585 18.979 12.5513 18.781C12.3849 18.672 12.2561 18.5894 12.1305 18.5037C11.9945 18.4107 11.8498 18.3265 11.7282 18.2167C9.08347 15.827 7.83552 12.873 8.18831 9.29536C8.59149 5.20225 11.6578 1.61978 15.612 0.571249C16.1352 0.432567 16.6727 0.387676 17.1951 0.257812H18.8487ZM25.8284 10.4729C25.8404 6.30048 22.4365 2.85428 18.2919 2.84306C14.16 2.83184 10.7146 6.23875 10.705 10.3471C10.6946 14.5853 14.0793 17.9866 18.3159 17.9954C22.3685 18.0034 25.8164 14.5508 25.8284 10.4729Z" fill="#68A362"/>
<path id="Vector_2" d="M19.2813 0.257813C19.8037 0.387676 20.3413 0.432567 20.8637 0.571249C24.8179 1.62058 27.8842 5.20225 28.2874 9.29536C28.6393 12.8738 27.3922 15.827 24.7475 18.2167C24.6259 18.3265 24.4811 18.4107 24.3451 18.5037C24.2195 18.5894 24.0907 18.672 23.9243 18.781C24.4171 18.9782 24.8795 19.1425 25.3243 19.3454C30.9952 21.9306 34.4487 26.2714 35.6006 32.4223C35.6974 32.9402 35.7446 33.4676 35.815 33.9903C35.815 34.5202 35.815 35.0508 35.815 35.5807C35.799 35.6208 35.775 35.6593 35.767 35.701C35.3015 38.2189 33.4823 39.8157 30.9536 39.8574C26.6682 39.9287 22.382 39.9688 18.0958 40.0177C17.3918 40.0257 16.8614 39.451 16.8582 38.7031C16.855 37.964 17.3358 37.4541 18.0542 37.4429C19.2989 37.4229 20.5445 37.4052 21.7892 37.39C24.8187 37.3531 27.849 37.3211 30.8785 37.2826C32.3184 37.2641 33.2623 36.2765 33.2351 34.8288C33.2208 34.0544 33.1456 33.2857 32.9984 32.5265C32.2336 28.5913 30.2105 25.4538 26.9418 23.1603C24.4827 21.4344 21.7492 20.4813 18.7054 20.563C18.3758 20.5719 18.0446 20.555 17.7158 20.531C15.3271 20.353 13.1848 19.6187 11.4425 17.8744C8.95297 15.3829 7.83542 12.4129 8.3322 8.91378C8.90418 4.88962 11.948 1.59092 15.8823 0.588083C16.4583 0.441385 17.0502 0.395692 17.627 0.257812C18.1782 0.257812 18.7294 0.257812 19.2805 0.257812L19.2813 0.257813ZM18.1606 17.9946C22.3972 17.9858 25.7827 14.5845 25.7715 10.3463C25.7611 6.23795 22.3164 2.83104 18.1846 2.84226C14.04 2.85348 10.6353 6.29968 10.6481 10.4721C10.6601 14.55 14.108 18.0026 18.1606 17.9946Z" fill="#68A362"/>
</g>
</svg>
