<svg width="65" height="49" viewBox="0 0 65 49" fill="none" xmlns="http://www.w3.org/2000/svg">
<g filter="url(#filter0_dd_1394_9825)">
<path fill-rule="evenodd" clip-rule="evenodd" d="M46.0283 9.62109H18.0283C13.3339 9.62109 9.52832 13.4267 9.52832 18.1211V30.1211C9.52832 34.8155 13.3339 38.6211 18.0283 38.6211H46.0283C50.7227 38.6211 54.5283 34.8155 54.5283 30.1211V18.1211C54.5283 13.4267 50.7227 9.62109 46.0283 9.62109ZM18.0283 8.12109C12.5055 8.12109 8.02832 12.5982 8.02832 18.1211V30.1211C8.02832 35.6439 12.5055 40.1211 18.0283 40.1211H46.0283C51.5512 40.1211 56.0283 35.6439 56.0283 30.1211V18.1211C56.0283 12.5982 51.5512 8.12109 46.0283 8.12109H18.0283Z" fill="#888888"/>
</g>
<rect x="41.0283" y="29.1211" width="15.8043" height="15.8043" rx="7.90217" fill="#FFD600"/>
<rect x="41.0283" y="29.1211" width="15.8043" height="15.8043" rx="7.90217" stroke="#888888" stroke-width="2"/>
<path d="M47.9353 40.9599V33.0859H49.926V40.9599H47.9353ZM44.9937 38.0183V36.0276H52.8676V38.0183H44.9937Z" fill="#888888"/>
<path d="M30.9219 14.5364C30.7508 14.9379 30.5793 15.3392 30.4079 15.7405C29.8229 17.1096 29.238 18.4785 28.6686 19.8541M30.9219 14.5364L22.5825 20.749M30.9219 14.5364C31.1244 14.0593 31.4705 13.7635 32.008 13.7598M30.9219 14.5364L41.5845 20.7638C41.0273 20.7219 40.4701 20.6701 39.913 20.6183C39.6344 20.5924 39.3558 20.5666 39.0772 20.5419C38.808 20.5173 38.539 20.4923 38.2701 20.4672C37.4874 20.3943 36.7056 20.3214 35.9218 20.2609C35.6457 20.2387 35.4947 20.1462 35.3806 19.8763C34.8548 18.6163 34.3199 17.36 33.7849 16.1034C33.563 15.5824 33.3412 15.0614 33.1199 14.5401M28.6686 19.8541C28.5508 20.1425 28.3888 20.2387 28.0979 20.2572M28.6686 19.8541L29.8195 20.3242C29.8191 20.3253 29.8187 20.3263 29.8182 20.3274M28.6686 19.8541L29.8173 20.3296C29.8176 20.3289 29.8179 20.3281 29.8182 20.3274M28.0979 20.2572C27.4352 20.3015 26.7724 20.3648 26.1097 20.4282C25.944 20.444 25.7783 20.4598 25.6126 20.4753C25.2891 20.5049 24.9664 20.5367 24.6439 20.5685C23.9571 20.6361 23.2715 20.7037 22.5825 20.749M28.0979 20.2572L28.181 21.4976C28.1804 21.4977 28.1798 21.4977 28.1792 21.4978M28.0979 20.2572L28.1768 21.4979C28.1776 21.4979 28.1784 21.4978 28.1792 21.4978M22.5825 20.749L22.664 21.9896C22.6646 21.9895 22.6651 21.9895 22.6656 21.9895C22.6661 21.9894 22.6665 21.9894 22.6669 21.9894L22.5825 20.749ZM21.2793 21.6956L21.2681 21.692L22.381 21.1379L22.3847 21.1453L22.515 21.407V21.6994V21.926C22.5158 21.9271 22.5165 21.928 22.517 21.9286L22.521 21.9321L22.521 21.9321C22.5454 21.9534 22.5698 21.9748 22.5942 21.9961L21.2717 21.6994V22.206L21.9824 21.9209L21.2911 21.6994L21.2793 21.6956ZM21.2793 21.6956V21.6956ZM33.1199 14.5401C32.9101 14.0482 32.5566 13.7561 32.008 13.7598M33.1199 14.5401L32.0852 14.9816M33.1199 14.5401L32.0868 14.9785C32.0958 14.9615 32.1023 14.9518 32.1053 14.9478C32.1061 14.9466 32.1066 14.9461 32.1066 14.9461C32.1065 14.9461 32.0997 14.9544 32.0845 14.9658C32.0752 14.9727 32.0645 14.9796 32.0526 14.9857C32.0407 14.9918 32.0296 14.9963 32.0201 14.9993C32.0198 14.9994 32.0195 14.9995 32.0192 14.9996C32.0184 14.9993 32.0175 14.999 32.0165 14.9987M32.008 13.7598L32.0165 14.9987M32.008 13.7598L32.0164 14.9987C32.0086 14.996 31.9995 14.9923 31.9898 14.9875C31.9777 14.9814 31.9665 14.9745 31.9568 14.9674C31.9406 14.9555 31.9332 14.9467 31.9332 14.9467C31.9332 14.9467 31.9336 14.9473 31.9345 14.9484C31.9371 14.952 31.9424 14.9597 31.9497 14.9727C31.9501 14.9734 31.9505 14.9741 31.9509 14.9748C31.9578 14.9874 31.9664 15.0045 31.976 15.027C31.9907 15.0616 32.0054 15.0962 32.02 15.1307C31.863 15.499 31.7061 15.8663 31.5494 16.2331C30.9653 17.6003 30.3844 18.9597 29.8182 20.3274M32.0165 14.9987L28.1792 21.4978M29.8182 20.3274C29.703 20.6083 29.5069 20.9399 29.1482 21.1843C28.7984 21.4226 28.4341 21.4813 28.1792 21.4978" stroke="#888888" stroke-width="2.48652"/>
<defs>
<filter id="filter0_dd_1394_9825" x="0.0283203" y="0.121094" width="64" height="48" filterUnits="userSpaceOnUse" color-interpolation-filters="sRGB">
<feFlood flood-opacity="0" result="BackgroundImageFix"/>
<feColorMatrix in="SourceAlpha" type="matrix" values="0 0 0 0 0 0 0 0 0 0 0 0 0 0 0 0 0 0 127 0" result="hardAlpha"/>
<feOffset dy="1"/>
<feGaussianBlur stdDeviation="2"/>
<feComposite in2="hardAlpha" operator="out"/>
<feColorMatrix type="matrix" values="0 0 0 0 0 0 0 0 0 0 0 0 0 0 0 0 0 0 0.35 0"/>
<feBlend mode="normal" in2="BackgroundImageFix" result="effect1_dropShadow_1394_9825"/>
<feColorMatrix in="SourceAlpha" type="matrix" values="0 0 0 0 0 0 0 0 0 0 0 0 0 0 0 0 0 0 127 0" result="hardAlpha"/>
<feOffset/>
<feGaussianBlur stdDeviation="4"/>
<feComposite in2="hardAlpha" operator="out"/>
<feColorMatrix type="matrix" values="0 0 0 0 0 0 0 0 0 0.329412 0 0 0 0 0.529412 0 0 0 0.2 0"/>
<feBlend mode="normal" in2="effect1_dropShadow_1394_9825" result="effect2_dropShadow_1394_9825"/>
<feBlend mode="normal" in="SourceGraphic" in2="effect2_dropShadow_1394_9825" result="shape"/>
</filter>
</defs>
</svg>
