<svg
    xmlns="http://www.w3.org/2000/svg"
    width="18"
    height="23"
    className="min-[1500px]:w-4.5 w-3 min-[1500px]:h-5.7 h-4"
    viewBox="0 0 18 23"
    fill="none"
  >
    <g clip-path="url(#clip0_113_13833)">
      <path
        d="M12.6614 22.0792H5.97184C4.46769 22.0792 3.19608 20.9511 3.01796 19.4568L1.45443 6.74571C1.42969 6.54285 1.49401 6.33504 1.6276 6.18166C1.76614 6.02827 1.95911 5.93921 2.16692 5.93921H16.4613C16.6692 5.93921 16.8621 6.02827 17.0007 6.18166C17.1392 6.33504 17.2035 6.54285 17.1738 6.74571L15.6103 19.4568C15.4322 20.9511 14.1655 22.0742 12.6564 22.0742L12.6614 22.0792ZM3.59191 8.01732L4.91794 18.774C5.00206 19.4766 5.59086 20.0011 6.29345 20.0011H12.3398C13.0424 20.0011 13.6312 19.4766 13.7153 18.779L15.0413 8.01732H3.59191Z"
        fill="#888888"
      />
      <path
        d="M2.90917 2.56958H15.7588C16.8671 2.56958 17.7627 3.46515 17.7627 4.57347C17.7627 4.88024 17.5153 5.12763 17.2085 5.12763H1.45944C1.15267 5.12763 0.905273 4.88024 0.905273 4.57347C0.905273 3.47009 1.80084 2.56958 2.90917 2.56958Z"
        fill="#888888"
      />
      <path
        d="M8.73277 0.719116H9.93511C10.707 0.719116 11.3403 1.3475 11.3403 2.11937V3.27717H7.33252V2.11937C7.33252 1.3475 7.9609 0.719116 8.73277 0.719116Z"
        fill="#888888"
      />
    </g>
    <defs>
      <clipPath id="clip0_113_13833">
        <rect
          width="16.8574"
          height="21.36"
          fill="#888888"
          transform="translate(0.905273 0.719116)"
          color="#888888"
        />
      </clipPath>
    </defs>
  </svg>