<svg
    xmlns="http://www.w3.org/2000/svg"
    
    viewBox="0 0 13 22"
    fill="none"
  >
    <path
      d="M5.39699 19.3385C5.39699 19.106 5.38897 18.8719 5.4002 18.6409C5.40662 18.495 5.34247 18.4405 5.20936 18.418C3.96652 18.2192 2.81027 17.7798 1.72618 17.1463C1.19055 16.832 0.901893 16.3364 0.9484 15.7367C0.999717 15.0872 1.36215 14.5852 2.00201 14.3559C2.43982 14.1988 2.88564 14.234 3.29458 14.4634C3.88152 14.7905 4.47328 15.1112 5.11635 15.3149C6.16195 15.6469 7.22197 15.8361 8.30445 15.4673C8.54661 15.3855 8.76471 15.2636 8.94913 15.0824C9.44948 14.5949 9.40939 13.8604 8.85291 13.4306C8.48246 13.1451 8.05428 12.9816 7.60846 12.8613C6.61418 12.5935 5.59264 12.4331 4.60157 12.146C3.78851 11.9087 3.00271 11.612 2.31794 11.086C0.958022 10.0404 0.605213 8.1112 1.22744 6.62941C1.75505 5.37373 2.69159 4.56548 3.95369 4.10683C4.37224 3.95448 4.80043 3.82618 5.23983 3.75241C5.37133 3.72996 5.4002 3.67063 5.3986 3.55356C5.39539 3.11415 5.38897 2.67474 5.4018 2.23694C5.41624 1.71575 5.58943 1.26672 6.02403 0.936361C6.92048 0.254799 8.24031 0.779201 8.4119 1.89055C8.49208 2.41335 8.44718 2.93935 8.45039 3.46375C8.45039 3.64978 8.5001 3.71232 8.69735 3.75562C9.75738 3.99457 10.8094 4.27361 11.7058 4.9263C12.543 5.5357 12.5895 6.54922 11.8374 7.21635C11.438 7.57076 10.8174 7.67019 10.3475 7.42322C9.69163 7.08004 9.02611 6.76091 8.29163 6.62299C7.48818 6.47225 6.67833 6.42414 5.87489 6.60214C5.38256 6.71119 4.93995 6.9309 4.74911 7.45369C4.62402 7.79528 4.68175 8.1096 4.94315 8.3742C5.2254 8.65966 5.56859 8.84568 5.94545 8.96917C6.73125 9.22736 7.54912 9.34443 8.35256 9.52885C9.26666 9.73893 10.1727 9.97146 10.997 10.4494C11.871 10.9561 12.4371 11.6906 12.7162 12.656C13.0626 13.8524 13.0144 15.0118 12.381 16.1071C11.7924 17.1222 10.8832 17.7429 9.79587 18.1261C9.41901 18.2593 9.03413 18.3651 8.63802 18.418C8.50171 18.4357 8.45199 18.503 8.4536 18.6457C8.46001 19.1172 8.46643 19.5903 8.45039 20.0618C8.41992 20.9181 7.69345 21.5933 6.85153 21.5628C6.06572 21.534 5.4435 20.8797 5.40661 20.0345C5.39699 19.802 5.40661 19.5695 5.40661 19.3369H5.40341L5.39699 19.3385Z"
      fill="#888888"
    />
  </svg>