<svg width="91" height="41" viewBox="0 0 91 41" fill="none" xmlns="http://www.w3.org/2000/svg">
<g filter="url(#filter0_d_1394_9832)">
<rect x="4.75" y="5.23145" width="81.5" height="30.5" rx="9.25" stroke="#888888" stroke-width="1.5" shape-rendering="crispEdges"/>
<path d="M43.9663 28.7224C43.9663 28.4899 43.9583 28.2558 43.9695 28.0248C43.976 27.8789 43.9118 27.8244 43.7787 27.8019C42.5359 27.6031 41.3796 27.1637 40.2955 26.5302C39.7599 26.2159 39.4712 25.7204 39.5177 25.1206C39.5691 24.4711 39.9315 23.9691 40.5713 23.7398C41.0092 23.5827 41.455 23.6179 41.8639 23.8473C42.4509 24.1744 43.0426 24.4952 43.6857 24.6988C44.7313 25.0308 45.7913 25.22 46.8738 24.8512C47.1159 24.7694 47.334 24.6475 47.5185 24.4663C48.0188 23.9788 47.9787 23.2443 47.4222 22.8145C47.0518 22.529 46.6236 22.3655 46.1778 22.2452C45.1835 21.9774 44.162 21.817 43.1709 21.53C42.3578 21.2926 41.572 20.9959 40.8873 20.4699C39.5274 19.4243 39.1745 17.4951 39.7968 16.0133C40.3244 14.7576 41.2609 13.9494 42.523 13.4907C42.9416 13.3384 43.3698 13.2101 43.8092 13.1363C43.9407 13.1139 43.9695 13.0545 43.9679 12.9375C43.9647 12.4981 43.9583 12.0587 43.9711 11.6209C43.9856 11.0997 44.1588 10.6506 44.5934 10.3203C45.4898 9.63871 46.8096 10.1631 46.9812 11.2745C47.0614 11.7973 47.0165 12.3233 47.0197 12.8477C47.0197 13.0337 47.0694 13.0962 47.2667 13.1395C48.3267 13.3785 49.3787 13.6575 50.2752 14.3102C51.1123 14.9196 51.1588 15.9331 50.4067 16.6003C50.0074 16.9547 49.3867 17.0541 48.9169 16.8071C48.261 16.4639 47.5954 16.1448 46.861 16.0069C46.0575 15.8562 45.2477 15.808 44.4442 15.9861C43.9519 16.0951 43.5093 16.3148 43.3184 16.8376C43.1934 17.1792 43.2511 17.4935 43.5125 17.7581C43.7947 18.0436 44.1379 18.2296 44.5148 18.3531C45.3006 18.6113 46.1185 18.7283 46.9219 18.9128C47.836 19.1228 48.7421 19.3554 49.5664 19.8333C50.4404 20.34 51.0065 21.0745 51.2855 22.0399C51.6319 23.2363 51.5838 24.3957 50.9503 25.491C50.3618 26.5062 49.4525 27.1268 48.3652 27.5101C47.9883 27.6432 47.6035 27.749 47.2074 27.8019C47.071 27.8196 47.0213 27.8869 47.0229 28.0297C47.0293 28.5011 47.0358 28.9742 47.0197 29.4457C46.9893 30.3021 46.2628 30.9772 45.4209 30.9467C44.6351 30.9179 44.0128 30.2636 43.976 29.4184C43.9663 29.1859 43.976 28.9534 43.976 28.7208H43.9727L43.9663 28.7224Z" fill="#888888"/>
</g>
<defs>
<filter id="filter0_d_1394_9832" x="0" y="0.481445" width="91" height="40" filterUnits="userSpaceOnUse" color-interpolation-filters="sRGB">
<feFlood flood-opacity="0" result="BackgroundImageFix"/>
<feColorMatrix in="SourceAlpha" type="matrix" values="0 0 0 0 0 0 0 0 0 0 0 0 0 0 0 0 0 0 127 0" result="hardAlpha"/>
<feOffset/>
<feGaussianBlur stdDeviation="2"/>
<feComposite in2="hardAlpha" operator="out"/>
<feColorMatrix type="matrix" values="0 0 0 0 0 0 0 0 0 0 0 0 0 0 0 0 0 0 0.35 0"/>
<feBlend mode="normal" in2="BackgroundImageFix" result="effect1_dropShadow_1394_9832"/>
<feBlend mode="normal" in="SourceGraphic" in2="effect1_dropShadow_1394_9832" result="shape"/>
</filter>
</defs>
</svg>
