<svg width="44" height="39" viewBox="0 0 44 39" fill="none" xmlns="http://www.w3.org/2000/svg">
<g id="Group 2155">
<g id="Price_A">
<rect x="1.52231" y="1.96222" width="32.7229" height="32.7229" rx="16.3615" fill="#005487"/>
<rect x="1.52231" y="1.96222" width="32.7229" height="32.7229" rx="16.3615" stroke="#005487" stroke-width="3"/>
</g>
<g id="Vector">
<mask id="path-2-inside-1_1687_5744" fill="white">
<path d="M7.12376 15.8954C7.32995 15.252 7.7865 14.9968 8.43818 14.9524C9.45069 14.8859 10.4558 14.7712 11.4683 14.6788C12.2968 14.6011 13.1252 14.5161 13.9536 14.4606C14.2445 14.4421 14.4065 14.346 14.5243 14.0575C15.2606 12.2788 16.0228 10.5111 16.7776 8.73981C16.9801 8.26277 17.3262 7.96693 17.8637 7.96323C18.4123 7.95953 18.7658 8.25167 18.9756 8.74351C19.7304 10.5222 20.4926 12.2973 21.2363 14.0797C21.3504 14.3496 21.5014 14.4421 21.7775 14.4643C22.8305 14.5456 23.8799 14.6492 24.9329 14.7453C25.7686 14.8193 26.6044 14.9043 27.4402 14.9672C28.357 15.0338 28.8909 15.851 28.53 16.6424C28.3791 16.9678 28.0845 17.1601 27.8305 17.3857C26.8437 18.2621 25.8533 19.1274 24.8666 20.0002C24.4947 20.3293 24.1265 20.6658 23.7436 20.9838C23.6111 21.0948 23.5743 21.1983 23.6111 21.361C23.9719 22.929 24.3254 24.5006 24.6788 26.0686C24.7672 26.4642 24.8629 26.8636 24.9439 27.263C25.0433 27.7511 24.8887 28.1616 24.491 28.4501C24.086 28.7459 23.6442 28.7607 23.2098 28.4981C21.4977 27.4738 19.782 26.4458 18.0736 25.414C17.9374 25.329 17.8379 25.3253 17.6944 25.4103C15.997 26.4347 14.2923 27.4516 12.595 28.4723C12.1495 28.7422 11.7003 28.7681 11.2769 28.4575C10.8498 28.1468 10.7099 27.7105 10.8277 27.1927C11.2253 25.4399 11.623 23.6834 12.0206 21.9305C12.0685 21.7197 12.1127 21.5052 12.1642 21.2945C12.19 21.1872 12.1642 21.1096 12.0795 21.0356C10.57 19.7154 9.06778 18.3915 7.55822 17.0714C7.34836 16.8902 7.22686 16.6572 7.12745 16.4094V15.9028L7.12376 15.8954Z"/>
</mask>
<path d="M7.12376 15.8954C7.32995 15.252 7.7865 14.9968 8.43818 14.9524C9.45069 14.8859 10.4558 14.7712 11.4683 14.6788C12.2968 14.6011 13.1252 14.5161 13.9536 14.4606C14.2445 14.4421 14.4065 14.346 14.5243 14.0575C15.2606 12.2788 16.0228 10.5111 16.7776 8.73981C16.9801 8.26277 17.3262 7.96693 17.8637 7.96323C18.4123 7.95953 18.7658 8.25167 18.9756 8.74351C19.7304 10.5222 20.4926 12.2973 21.2363 14.0797C21.3504 14.3496 21.5014 14.4421 21.7775 14.4643C22.8305 14.5456 23.8799 14.6492 24.9329 14.7453C25.7686 14.8193 26.6044 14.9043 27.4402 14.9672C28.357 15.0338 28.8909 15.851 28.53 16.6424C28.3791 16.9678 28.0845 17.1601 27.8305 17.3857C26.8437 18.2621 25.8533 19.1274 24.8666 20.0002C24.4947 20.3293 24.1265 20.6658 23.7436 20.9838C23.6111 21.0948 23.5743 21.1983 23.6111 21.361C23.9719 22.929 24.3254 24.5006 24.6788 26.0686C24.7672 26.4642 24.8629 26.8636 24.9439 27.263C25.0433 27.7511 24.8887 28.1616 24.491 28.4501C24.086 28.7459 23.6442 28.7607 23.2098 28.4981C21.4977 27.4738 19.782 26.4458 18.0736 25.414C17.9374 25.329 17.8379 25.3253 17.6944 25.4103C15.997 26.4347 14.2923 27.4516 12.595 28.4723C12.1495 28.7422 11.7003 28.7681 11.2769 28.4575C10.8498 28.1468 10.7099 27.7105 10.8277 27.1927C11.2253 25.4399 11.623 23.6834 12.0206 21.9305C12.0685 21.7197 12.1127 21.5052 12.1642 21.2945C12.19 21.1872 12.1642 21.1096 12.0795 21.0356C10.57 19.7154 9.06778 18.3915 7.55822 17.0714C7.34836 16.8902 7.22686 16.6572 7.12745 16.4094V15.9028L7.12376 15.8954Z" stroke="#DDEAEC" stroke-width="4.97303" mask="url(#path-2-inside-1_1687_5744)"/>
</g>
<g id="Price_A_2">
<rect x="26.7163" y="22.1832" width="15.4056" height="15.4056" rx="7.70281" fill="#005487"/>
<path id="+" d="M30.4821 30.8814V28.8907H38.3561V30.8814H30.4821Z" fill="#DDEAEC"/>
<rect x="26.7163" y="22.1832" width="15.4056" height="15.4056" rx="7.70281" stroke="#DCE8E9" stroke-width="2"/>
</g>
</g>
</svg>
