<svg width="53" height="50" viewBox="0 0 53 50" fill="none" xmlns="http://www.w3.org/2000/svg">
<g filter="url(#filter0_dd_1605_4959)">
<rect x="6.65479" y="7" width="35.7229" height="35.7229" rx="17.8615" fill="#005487" shape-rendering="crispEdges"/>
<mask id="path-3-inside-1_1605_4959" fill="white">
<path d="M13.7563 22.4332C13.9625 21.7897 14.4191 21.5346 15.0708 21.4902C16.0833 21.4236 17.0884 21.309 18.1009 21.2166C18.9293 21.1389 19.7578 21.0538 20.5862 20.9984C20.877 20.9799 21.039 20.8837 21.1569 20.5953C21.8932 18.8166 22.6554 17.0489 23.4102 15.2776C23.6127 14.8005 23.9588 14.5047 24.4963 14.501C25.0449 14.4973 25.3984 14.7895 25.6082 15.2813C26.363 17.06 27.1251 18.835 27.8689 20.6175C27.983 20.8874 28.134 20.9799 28.4101 21.0021C29.4631 21.0834 30.5124 21.187 31.5654 21.2831C32.4012 21.3571 33.237 21.4421 34.0728 21.505C34.9896 21.5716 35.5234 22.3888 35.1626 23.1802C35.0117 23.5056 34.7171 23.6979 34.4631 23.9235C33.4763 24.7999 32.4859 25.6652 31.4992 26.538C31.1273 26.8671 30.7591 27.2036 30.3762 27.5216C30.2437 27.6326 30.2068 27.7361 30.2437 27.8988C30.6045 29.4668 30.9579 31.0384 31.3114 32.6063C31.3998 33.002 31.4955 33.4014 31.5765 33.8008C31.6759 34.2889 31.5213 34.6994 31.1236 34.9878C30.7186 35.2837 30.2768 35.2985 29.8423 35.0359C28.1303 34.0116 26.4145 32.9835 24.7062 31.9518C24.5699 31.8667 24.4705 31.863 24.3269 31.9481C22.6296 32.9724 20.9249 33.9894 19.2276 35.01C18.7821 35.28 18.3329 35.3059 17.9095 34.9952C17.4824 34.6846 17.3425 34.2482 17.4603 33.7305C17.8579 31.9777 18.2556 30.2211 18.6532 28.4683C18.7011 28.2575 18.7453 28.043 18.7968 27.8322C18.8226 27.725 18.7968 27.6473 18.7121 27.5734C17.2026 26.2532 15.7004 24.9293 14.1908 23.6091C13.9809 23.4279 13.8594 23.195 13.76 22.9472V22.4406L13.7563 22.4332Z"/>
</mask>
<path d="M13.7563 22.4332L11.3884 21.6744L11.0801 22.6367L11.5304 23.5413L13.7563 22.4332ZM15.0708 21.4902L14.9077 19.009L14.9018 19.0094L15.0708 21.4902ZM18.1009 21.2166L18.327 23.6928L18.333 23.6922L18.1009 21.2166ZM20.5862 20.9984L20.4284 18.5168L20.4201 18.5174L20.5862 20.9984ZM21.1569 20.5953L18.8594 19.6442L18.855 19.655L21.1569 20.5953ZM23.4102 15.2776L25.6977 16.2523L25.699 16.2492L23.4102 15.2776ZM24.4963 14.501L24.4795 12.0146L24.4792 12.0146L24.4963 14.501ZM25.6082 15.2813L27.8972 14.31L27.8952 14.3054L25.6082 15.2813ZM27.8689 20.6175L25.5741 21.575L25.5787 21.5858L27.8689 20.6175ZM28.4101 21.0021L28.211 23.4806L28.2186 23.4812L28.4101 21.0021ZM31.5654 21.2831L31.3394 23.7593L31.3463 23.76L31.5654 21.2831ZM34.0728 21.505L33.8863 23.9845L33.8927 23.985L34.0728 21.505ZM35.1626 23.1802L37.4183 24.2265L37.4217 24.2191L37.4251 24.2117L35.1626 23.1802ZM34.4631 23.9235L32.8121 22.0641L32.8118 22.0644L34.4631 23.9235ZM31.4992 26.538L29.8518 24.6754L29.8512 24.676L31.4992 26.538ZM30.3762 27.5216L28.7875 25.6088L28.7803 25.6148L30.3762 27.5216ZM30.2437 27.8988L27.8184 28.4476L27.8205 28.4564L30.2437 27.8988ZM31.3114 32.6063L33.7381 32.0644L33.737 32.0595L31.3114 32.6063ZM31.5765 33.8008L29.1396 34.295L29.14 34.297L31.5765 33.8008ZM31.1236 34.9878L29.6636 32.9751L29.6569 32.98L31.1236 34.9878ZM29.8423 35.0359L31.1284 32.9078L31.119 32.9022L29.8423 35.0359ZM24.7062 31.9518L23.3893 34.061L23.4049 34.0707L23.4207 34.0803L24.7062 31.9518ZM24.3269 31.9481L23.0597 29.8087L23.0509 29.8139L23.0422 29.8192L24.3269 31.9481ZM19.2276 35.01L17.9462 32.8791L17.939 32.8835L19.2276 35.01ZM17.9095 34.9952L19.3803 32.9904L19.372 32.9843L17.9095 34.9952ZM17.4603 33.7305L19.8848 34.2823L19.8852 34.2806L17.4603 33.7305ZM18.6532 28.4683L16.2284 27.9177L16.2283 27.9182L18.6532 28.4683ZM18.7968 27.8322L21.2122 28.4229L21.2145 28.4133L18.7968 27.8322ZM18.7121 27.5734L17.0752 29.4451L17.0765 29.4462L18.7121 27.5734ZM14.1908 23.6091L15.8277 21.7374L15.8218 21.7322L15.8158 21.7271L14.1908 23.6091ZM13.76 22.9472H11.2735V23.4274L11.4523 23.8731L13.76 22.9472ZM13.76 22.4406H16.2465V21.8559L15.986 21.3324L13.76 22.4406ZM16.1243 23.192C16.1088 23.2403 16.0691 23.3414 15.9824 23.4631C15.8927 23.5891 15.7756 23.7046 15.6398 23.7965C15.375 23.9757 15.1763 23.9753 15.2397 23.971L14.9018 19.0094C14.3136 19.0495 13.5607 19.1989 12.8532 19.6776C12.1027 20.1853 11.6348 20.9057 11.3884 21.6744L16.1243 23.192ZM15.2339 23.9714C16.2853 23.9022 17.3917 23.7782 18.327 23.6928L17.8748 18.7403C16.7851 18.8398 15.8812 18.945 14.9077 19.009L15.2339 23.9714ZM18.333 23.6922C19.1913 23.6118 19.9673 23.5319 20.7523 23.4793L20.4201 18.5174C19.5482 18.5758 18.6674 18.666 17.8689 18.7409L18.333 23.6922ZM20.7439 23.4799C21.1085 23.4567 21.7262 23.3688 22.3365 22.9529C22.9651 22.5247 23.2876 21.9546 23.4588 21.5355L18.855 19.655C18.9083 19.5244 19.0909 19.1467 19.5363 18.8432C19.9634 18.5522 20.3547 18.5216 20.4284 18.5169L20.7439 23.4799ZM23.4543 21.5464C24.1841 19.7834 24.9373 18.0367 25.6977 16.2523L21.1226 14.3029C20.3734 16.0611 19.6023 17.8497 18.8594 19.6442L23.4543 21.5464ZM25.699 16.2492C25.6768 16.3015 25.5773 16.508 25.3179 16.7022C25.033 16.9155 24.7259 16.986 24.5134 16.9875L24.4792 12.0146C23.7292 12.0197 22.9802 12.24 22.3372 12.7214C21.7198 13.1837 21.346 13.7767 21.1213 14.306L25.699 16.2492ZM24.5131 16.9875C24.315 16.9888 24.0054 16.9275 23.7108 16.7119C23.4418 16.515 23.3408 16.3032 23.3212 16.2572L27.8952 14.3054C27.6657 13.7676 27.2831 13.1637 26.6478 12.6988C25.9868 12.215 25.2262 12.0095 24.4795 12.0146L24.5131 16.9875ZM23.3193 16.2526C24.0796 18.0445 24.8341 19.8016 25.5741 21.575L30.1636 19.66C29.4161 17.8685 28.6464 16.0755 27.8972 14.31L23.3193 16.2526ZM25.5787 21.5858C25.7471 21.9842 26.0615 22.5323 26.6677 22.9501C27.2583 23.3571 27.8557 23.4521 28.211 23.4806L28.6093 18.5235C28.6883 18.5299 29.0722 18.5675 29.4898 18.8553C29.923 19.1539 30.1048 19.5207 30.1591 19.6492L25.5787 21.5858ZM28.2186 23.4812C29.2485 23.5608 30.2623 23.661 31.3394 23.7593L31.7915 18.8069C30.7626 18.7129 29.6777 18.6061 28.6016 18.5229L28.2186 23.4812ZM31.3463 23.76C32.1358 23.8298 33.0314 23.9202 33.8863 23.9845L34.2593 19.0255C33.4426 18.9641 32.6666 18.8843 31.7846 18.8063L31.3463 23.76ZM33.8927 23.985C33.6394 23.9666 33.2681 23.819 33.0134 23.428C32.7461 23.0177 32.7318 22.5178 32.9002 22.1486L37.4251 24.2117C37.9542 23.0512 37.8535 21.747 37.1802 20.7135C36.5196 19.6995 35.423 19.11 34.2529 19.025L33.8927 23.985ZM32.907 22.1338C32.961 22.0173 33.0212 21.9281 33.069 21.8671C33.0924 21.8374 33.1121 21.8152 33.1255 21.8008C33.1388 21.7866 33.147 21.7789 33.1474 21.7786C33.1475 21.7784 33.1421 21.7835 33.1279 21.7958C33.1132 21.8086 33.0943 21.8245 33.065 21.849C33.0494 21.862 33.0365 21.8727 33.0173 21.8887C32.9999 21.9032 32.9799 21.9199 32.959 21.9375C32.9175 21.9724 32.8667 22.0157 32.8121 22.0641L36.114 25.7828C36.1409 25.759 36.1659 25.7384 36.2516 25.6669C36.321 25.609 36.4354 25.5131 36.5556 25.4C36.8016 25.1685 37.1582 24.7872 37.4183 24.2265L32.907 22.1338ZM32.8118 22.0644C31.8203 22.9451 30.861 23.7828 29.8518 24.6754L33.1465 28.4005C34.1108 27.5476 35.1324 26.6547 36.1143 25.7826L32.8118 22.0644ZM29.8512 24.676C29.4395 25.0403 29.1304 25.324 28.7875 25.6088L31.9649 29.4344C32.3879 29.0831 32.8151 28.6938 33.1471 28.3999L29.8512 24.676ZM28.7803 25.6148C28.5201 25.8326 28.1239 26.2324 27.9012 26.8646C27.674 27.5096 27.7363 28.0846 27.8185 28.4476L32.6689 27.35C32.7142 27.5503 32.7766 27.9922 32.5917 28.517C32.4113 29.029 32.0997 29.3216 31.9721 29.4284L28.7803 25.6148ZM27.8205 28.4564C28.1798 30.0177 28.5318 31.583 28.8858 33.1531L33.737 32.0595C33.3841 30.4938 33.0292 28.9158 32.6668 27.3412L27.8205 28.4564ZM28.8847 33.1483C28.9846 33.596 29.0648 33.9261 29.1396 34.295L34.0134 33.3066C33.9262 32.8767 33.8149 32.4081 33.7381 32.0644L28.8847 33.1483ZM29.14 34.297C29.1107 34.1534 29.096 33.8911 29.2123 33.5854C29.33 33.276 29.5228 33.0772 29.6636 32.9751L32.5836 37.0006C33.1221 36.61 33.5911 36.0618 33.8606 35.353C34.1287 34.6479 34.1417 33.9364 34.013 33.3046L29.14 34.297ZM29.6569 32.98C29.7959 32.8785 30.0541 32.7492 30.4034 32.7364C30.7488 32.7238 31.0025 32.8317 31.1284 32.9078L28.5563 37.164C29.1167 37.5027 29.8085 37.7345 30.5847 37.7061C31.3648 37.6777 32.0464 37.3931 32.5903 36.9957L29.6569 32.98ZM31.119 32.9022C29.4075 31.8782 27.6954 30.8523 25.9916 29.8233L23.4207 34.0803C25.1337 35.1148 26.8531 36.145 28.5657 37.1697L31.119 32.9022ZM26.023 29.8426C25.7524 29.6736 25.2445 29.4106 24.5577 29.3999C23.8692 29.3893 23.3489 29.6374 23.0597 29.8087L25.5941 34.0875C25.4486 34.1737 25.0498 34.3812 24.4809 34.3724C23.9138 34.3636 23.5237 34.1449 23.3893 34.061L26.023 29.8426ZM23.0422 29.8192C21.3438 30.8442 19.6568 31.8505 17.9462 32.8791L20.5089 37.141C22.193 36.1283 23.9154 35.1007 25.6117 34.077L23.0422 29.8192ZM17.939 32.8835C17.9964 32.8487 18.2089 32.736 18.5446 32.7339C18.9103 32.7316 19.2052 32.862 19.3803 32.9904L16.4386 37.0001C17.0371 37.4392 17.7684 37.7119 18.5758 37.7068C19.3534 37.7019 20.0133 37.4413 20.5162 37.1366L17.939 32.8835ZM19.372 32.9843C19.5166 33.0895 19.7172 33.3008 19.8301 33.6269C19.9383 33.9391 19.9069 34.1854 19.8848 34.2823L15.0358 33.1788C14.8959 33.7934 14.8755 34.5167 15.1309 35.2542C15.3911 36.0056 15.8752 36.5903 16.4469 37.0061L19.372 32.9843ZM19.8852 34.2806C20.0841 33.4039 20.283 32.5263 20.4818 31.649C20.6806 30.7716 20.8794 29.8945 21.0781 29.0184L16.2283 27.9182C16.0294 28.7949 15.8305 29.6726 15.6317 30.5499C15.4329 31.4273 15.2341 32.3043 15.0354 33.1804L19.8852 34.2806ZM21.078 29.0189C21.1423 28.7355 21.1654 28.6141 21.2121 28.4229L16.3815 27.2416C16.3251 27.472 16.2598 27.7795 16.2284 27.9177L21.078 29.0189ZM21.2145 28.4133C21.3046 28.0385 21.3521 27.5049 21.1584 26.9149C20.9669 26.3315 20.6199 25.9383 20.3478 25.7006L17.0765 29.4462C16.889 29.2825 16.5972 28.9651 16.4334 28.4658C16.2673 27.9599 16.3148 27.5188 16.3791 27.2512L21.2145 28.4133ZM20.349 25.7017C19.5963 25.0434 18.8452 24.3839 18.0919 23.7227C17.3393 23.0619 16.5846 22.3993 15.8277 21.7374L12.5539 25.4809C13.3066 26.1391 14.0578 26.7986 14.811 27.4599C15.5636 28.1206 16.3184 28.7832 17.0752 29.4451L20.349 25.7017ZM15.8158 21.7271C16.0559 21.9344 16.1162 22.1422 16.0677 22.0213L11.4523 23.8731C11.6026 24.2478 11.9059 24.9215 12.5658 25.4912L15.8158 21.7271ZM16.2465 22.9472V22.4406H11.2735V22.9472H16.2465ZM15.986 21.3324L15.9823 21.325L11.5304 23.5413L11.5341 23.5487L15.986 21.3324Z" fill="#DDEAEC" mask="url(#path-3-inside-1_1605_4959)"/>
<rect x="8.15479" y="8.5" width="32.7229" height="32.7229" rx="16.3615" stroke="#005487" stroke-width="3" shape-rendering="crispEdges"/>
</g>
<g filter="url(#filter1_dd_1605_4959)">
<rect x="32.3486" y="27.7207" width="17.4056" height="17.4056" rx="8.70281" fill="#005487" shape-rendering="crispEdges"/>
<path d="M40.0559 40.3603V32.4863H42.0466V40.3603H40.0559ZM37.1143 37.4187V35.4279H44.9882V37.4187H37.1143Z" fill="#DDEAEC"/>
<rect x="33.3486" y="28.7207" width="15.4056" height="15.4056" rx="7.70281" stroke="#DBE0E0" stroke-width="2" shape-rendering="crispEdges"/>
</g>
<defs>
<filter id="filter0_dd_1605_4959" x="0.024076" y="0.369291" width="48.9846" height="48.9841" filterUnits="userSpaceOnUse" color-interpolation-filters="sRGB">
<feFlood flood-opacity="0" result="BackgroundImageFix"/>
<feColorMatrix in="SourceAlpha" type="matrix" values="0 0 0 0 0 0 0 0 0 0 0 0 0 0 0 0 0 0 127 0" result="hardAlpha"/>
<feOffset dy="0.828839"/>
<feGaussianBlur stdDeviation="1.65768"/>
<feComposite in2="hardAlpha" operator="out"/>
<feColorMatrix type="matrix" values="0 0 0 0 0 0 0 0 0 0 0 0 0 0 0 0 0 0 0.35 0"/>
<feBlend mode="normal" in2="BackgroundImageFix" result="effect1_dropShadow_1605_4959"/>
<feColorMatrix in="SourceAlpha" type="matrix" values="0 0 0 0 0 0 0 0 0 0 0 0 0 0 0 0 0 0 127 0" result="hardAlpha"/>
<feOffset/>
<feGaussianBlur stdDeviation="3.31535"/>
<feComposite in2="hardAlpha" operator="out"/>
<feColorMatrix type="matrix" values="0 0 0 0 0 0 0 0 0 0.329412 0 0 0 0 0.529412 0 0 0 0.2 0"/>
<feBlend mode="normal" in2="effect1_dropShadow_1605_4959" result="effect2_dropShadow_1605_4959"/>
<feBlend mode="normal" in="SourceGraphic" in2="effect2_dropShadow_1605_4959" result="shape"/>
</filter>
<filter id="filter1_dd_1605_4959" x="29.1179" y="24.49" width="23.8672" height="23.8668" filterUnits="userSpaceOnUse" color-interpolation-filters="sRGB">
<feFlood flood-opacity="0" result="BackgroundImageFix"/>
<feColorMatrix in="SourceAlpha" type="matrix" values="0 0 0 0 0 0 0 0 0 0 0 0 0 0 0 0 0 0 127 0" result="hardAlpha"/>
<feOffset dy="0.403843"/>
<feGaussianBlur stdDeviation="0.807685"/>
<feComposite in2="hardAlpha" operator="out"/>
<feColorMatrix type="matrix" values="0 0 0 0 0 0 0 0 0 0 0 0 0 0 0 0 0 0 0.35 0"/>
<feBlend mode="normal" in2="BackgroundImageFix" result="effect1_dropShadow_1605_4959"/>
<feColorMatrix in="SourceAlpha" type="matrix" values="0 0 0 0 0 0 0 0 0 0 0 0 0 0 0 0 0 0 127 0" result="hardAlpha"/>
<feOffset/>
<feGaussianBlur stdDeviation="1.61537"/>
<feComposite in2="hardAlpha" operator="out"/>
<feColorMatrix type="matrix" values="0 0 0 0 0 0 0 0 0 0.329412 0 0 0 0 0.529412 0 0 0 0.2 0"/>
<feBlend mode="normal" in2="effect1_dropShadow_1605_4959" result="effect2_dropShadow_1605_4959"/>
<feBlend mode="normal" in="SourceGraphic" in2="effect2_dropShadow_1605_4959" result="shape"/>
</filter>
</defs>
</svg>
