<svg width="60" height="55" viewBox="0 0 60 55" fill="none" xmlns="http://www.w3.org/2000/svg">
<g filter="url(#filter0_dd_1754_5808)">
<rect x="10.4092" y="9.97034" width="32.7229" height="32.7229" rx="16.3615" fill="#005487"/>
<rect x="10.4092" y="9.97034" width="32.7229" height="32.7229" rx="16.3615" stroke="#005487" stroke-width="3"/>
<mask id="path-2-inside-1_1754_5808" fill="white">
<path d="M16.0107 23.9035C16.2169 23.2601 16.6734 23.0049 17.3251 22.9605C18.3376 22.894 19.3428 22.7793 20.3553 22.6869C21.1837 22.6092 22.0121 22.5242 22.8405 22.4687C23.1314 22.4502 23.2934 22.3541 23.4112 22.0656C24.1476 20.2869 24.9097 18.5193 25.6645 16.7479C25.867 16.2709 26.2131 15.975 26.7506 15.9713C27.2992 15.9677 27.6527 16.2598 27.8626 16.7516C28.6173 18.5304 29.3795 20.3054 30.1232 22.0878C30.2373 22.3578 30.3883 22.4502 30.6644 22.4724C31.7174 22.5538 32.7668 22.6573 33.8198 22.7535C34.6556 22.8274 35.4913 22.9125 36.3271 22.9753C37.2439 23.0419 37.7778 23.8591 37.4169 24.6505C37.266 24.9759 36.9714 25.1682 36.7174 25.3938C35.7307 26.2702 34.7402 27.1356 33.7535 28.0083C33.3816 28.3374 33.0135 28.6739 32.6305 28.992C32.498 29.1029 32.4612 29.2064 32.498 29.3691C32.8588 30.9371 33.2123 32.5087 33.5657 34.0767C33.6541 34.4724 33.7498 34.8717 33.8308 35.2711C33.9302 35.7593 33.7756 36.1697 33.378 36.4582C32.973 36.754 32.5311 36.7688 32.0967 36.5063C30.3846 35.4819 28.6689 34.4539 26.9605 33.4221C26.8243 33.3371 26.7249 33.3334 26.5813 33.4184C24.8839 34.4428 23.1792 35.4597 21.4819 36.4804C21.0364 36.7503 20.5872 36.7762 20.1638 36.4656C19.7367 36.1549 19.5968 35.7186 19.7146 35.2009C20.1123 33.448 20.5099 31.6915 20.9075 29.9386C20.9554 29.7279 20.9996 29.5134 21.0511 29.3026C21.0769 29.1953 21.0511 29.1177 20.9664 29.0437C19.4569 27.7235 17.9547 26.3997 16.4451 25.0795C16.2353 24.8983 16.1138 24.6653 16.0144 24.4175V23.9109L16.0107 23.9035Z"/>
</mask>
<path d="M16.0107 23.9035C16.2169 23.2601 16.6734 23.0049 17.3251 22.9605C18.3376 22.894 19.3428 22.7793 20.3553 22.6869C21.1837 22.6092 22.0121 22.5242 22.8405 22.4687C23.1314 22.4502 23.2934 22.3541 23.4112 22.0656C24.1476 20.2869 24.9097 18.5193 25.6645 16.7479C25.867 16.2709 26.2131 15.975 26.7506 15.9713C27.2992 15.9677 27.6527 16.2598 27.8626 16.7516C28.6173 18.5304 29.3795 20.3054 30.1232 22.0878C30.2373 22.3578 30.3883 22.4502 30.6644 22.4724C31.7174 22.5538 32.7668 22.6573 33.8198 22.7535C34.6556 22.8274 35.4913 22.9125 36.3271 22.9753C37.2439 23.0419 37.7778 23.8591 37.4169 24.6505C37.266 24.9759 36.9714 25.1682 36.7174 25.3938C35.7307 26.2702 34.7402 27.1356 33.7535 28.0083C33.3816 28.3374 33.0135 28.6739 32.6305 28.992C32.498 29.1029 32.4612 29.2064 32.498 29.3691C32.8588 30.9371 33.2123 32.5087 33.5657 34.0767C33.6541 34.4724 33.7498 34.8717 33.8308 35.2711C33.9302 35.7593 33.7756 36.1697 33.378 36.4582C32.973 36.754 32.5311 36.7688 32.0967 36.5063C30.3846 35.4819 28.6689 34.4539 26.9605 33.4221C26.8243 33.3371 26.7249 33.3334 26.5813 33.4184C24.8839 34.4428 23.1792 35.4597 21.4819 36.4804C21.0364 36.7503 20.5872 36.7762 20.1638 36.4656C19.7367 36.1549 19.5968 35.7186 19.7146 35.2009C20.1123 33.448 20.5099 31.6915 20.9075 29.9386C20.9554 29.7279 20.9996 29.5134 21.0511 29.3026C21.0769 29.1953 21.0511 29.1177 20.9664 29.0437C19.4569 27.7235 17.9547 26.3997 16.4451 25.0795C16.2353 24.8983 16.1138 24.6653 16.0144 24.4175V23.9109L16.0107 23.9035Z" stroke="#DDEAEC" stroke-width="4.97303" mask="url(#path-2-inside-1_1754_5808)"/>
<rect x="35.6032" y="30.1913" width="15.4056" height="15.4056" rx="7.70281" fill="#005487"/>
<rect x="35.6032" y="30.1913" width="15.4056" height="15.4056" rx="7.70281" stroke="#DCE8E9" stroke-width="2"/>
<path d="M39.369 38.8895V36.8987H47.243V38.8895H39.369Z" fill="#DDEAEC"/>
</g>
<defs>
<filter id="filter0_dd_1754_5808" x="0.90921" y="0.470337" width="59.0996" height="54.1266" filterUnits="userSpaceOnUse" color-interpolation-filters="sRGB">
<feFlood flood-opacity="0" result="BackgroundImageFix"/>
<feColorMatrix in="SourceAlpha" type="matrix" values="0 0 0 0 0 0 0 0 0 0 0 0 0 0 0 0 0 0 127 0" result="hardAlpha"/>
<feOffset dy="1"/>
<feGaussianBlur stdDeviation="2"/>
<feComposite in2="hardAlpha" operator="out"/>
<feColorMatrix type="matrix" values="0 0 0 0 0 0 0 0 0 0 0 0 0 0 0 0 0 0 0.35 0"/>
<feBlend mode="normal" in2="BackgroundImageFix" result="effect1_dropShadow_1754_5808"/>
<feColorMatrix in="SourceAlpha" type="matrix" values="0 0 0 0 0 0 0 0 0 0 0 0 0 0 0 0 0 0 127 0" result="hardAlpha"/>
<feOffset/>
<feGaussianBlur stdDeviation="4"/>
<feComposite in2="hardAlpha" operator="out"/>
<feColorMatrix type="matrix" values="0 0 0 0 0 0 0 0 0 0.329412 0 0 0 0 0.529412 0 0 0 0.2 0"/>
<feBlend mode="normal" in2="effect1_dropShadow_1754_5808" result="effect2_dropShadow_1754_5808"/>
<feBlend mode="normal" in="SourceGraphic" in2="effect2_dropShadow_1754_5808" result="shape"/>
</filter>
</defs>
</svg>
