<svg width="53" height="50" viewBox="0 0 53 50" fill="none" xmlns="http://www.w3.org/2000/svg">
<g filter="url(#filter0_dd_1605_4946)">
<mask id="path-3-inside-1_1605_4946" fill="white">
<path d="M13.7563 23.0474C13.9625 22.404 14.4191 22.1488 15.0708 22.1045C16.0833 22.0379 17.0884 21.9233 18.1009 21.8308C18.9293 21.7532 19.7578 21.6681 20.5862 21.6126C20.877 21.5941 21.039 21.498 21.1569 21.2095C21.8932 19.4308 22.6554 17.6632 23.4102 15.8918C23.6127 15.4148 23.9588 15.119 24.4963 15.1153C25.0449 15.1116 25.3984 15.4037 25.6082 15.8955C26.363 17.6743 27.1251 19.4493 27.8689 21.2317C27.983 21.5017 28.134 21.5941 28.4101 21.6163C29.4631 21.6977 30.5124 21.8012 31.5654 21.8974C32.4012 21.9713 33.237 22.0564 34.0728 22.1193C34.9896 22.1858 35.5234 23.0031 35.1626 23.7944C35.0117 24.1199 34.7171 24.3122 34.4631 24.5377C33.4763 25.4142 32.4859 26.2795 31.4992 27.1522C31.1273 27.4813 30.7591 27.8178 30.3762 28.1359C30.2437 28.2468 30.2068 28.3504 30.2437 28.5131C30.6045 30.081 30.9579 31.6527 31.3114 33.2206C31.3998 33.6163 31.4955 34.0157 31.5765 34.415C31.6759 34.9032 31.5213 35.3137 31.1236 35.6021C30.7186 35.8979 30.2768 35.9127 29.8423 35.6502C28.1303 34.6258 26.4145 33.5978 24.7062 32.5661C24.5699 32.481 24.4705 32.4773 24.3269 32.5624C22.6296 33.5867 20.9249 34.6036 19.2276 35.6243C18.7821 35.8942 18.3329 35.9201 17.9095 35.6095C17.4824 35.2989 17.3425 34.8625 17.4603 34.3448C17.8579 32.5919 18.2556 30.8354 18.6532 29.0826C18.7011 28.8718 18.7453 28.6573 18.7968 28.4465C18.8226 28.3393 18.7968 28.2616 18.7121 28.1876C17.2026 26.8675 15.7004 25.5436 14.1908 24.2234C13.9809 24.0422 13.8594 23.8092 13.76 23.5615V23.0548L13.7563 23.0474Z"/>
</mask>
<path d="M13.7563 23.0474L11.3884 22.2887L11.0801 23.251L11.5304 24.1556L13.7563 23.0474ZM15.0708 22.1045L14.9077 19.6233L14.9018 19.6237L15.0708 22.1045ZM18.1009 21.8308L18.327 24.307L18.333 24.3065L18.1009 21.8308ZM20.5862 21.6126L20.4284 19.1311L20.4201 19.1317L20.5862 21.6126ZM21.1569 21.2095L18.8594 20.2584L18.855 20.2693L21.1569 21.2095ZM23.4102 15.8918L25.6977 16.8666L25.699 16.8634L23.4102 15.8918ZM24.4963 15.1153L24.4795 12.6288L24.4792 12.6288L24.4963 15.1153ZM25.6082 15.8955L27.8972 14.9243L27.8952 14.9197L25.6082 15.8955ZM27.8689 21.2317L25.5741 22.1893L25.5787 22.2001L27.8689 21.2317ZM28.4101 21.6163L28.211 24.0949L28.2186 24.0955L28.4101 21.6163ZM31.5654 21.8974L31.3394 24.3736L31.3463 24.3742L31.5654 21.8974ZM34.0728 22.1193L33.8863 24.5988L33.8927 24.5992L34.0728 22.1193ZM35.1626 23.7944L37.4183 24.8408L37.4217 24.8334L37.4251 24.826L35.1626 23.7944ZM34.4631 24.5377L32.8121 22.6784L32.8118 22.6787L34.4631 24.5377ZM31.4992 27.1522L29.8518 25.2897L29.8512 25.2902L31.4992 27.1522ZM30.3762 28.1359L28.7875 26.223L28.7803 26.2291L30.3762 28.1359ZM30.2437 28.5131L27.8184 29.0618L27.8205 29.0707L30.2437 28.5131ZM31.3114 33.2206L33.7381 32.6787L33.737 32.6738L31.3114 33.2206ZM31.5765 34.415L29.1396 34.9093L29.14 34.9112L31.5765 34.415ZM31.1236 35.6021L29.6636 33.5894L29.6569 33.5942L31.1236 35.6021ZM29.8423 35.6502L31.1284 33.5221L31.119 33.5164L29.8423 35.6502ZM24.7062 32.5661L23.3893 34.6752L23.4049 34.685L23.4207 34.6945L24.7062 32.5661ZM24.3269 32.5624L23.0597 30.423L23.0509 30.4282L23.0422 30.4335L24.3269 32.5624ZM19.2276 35.6243L17.9462 33.4934L17.939 33.4977L19.2276 35.6243ZM17.9095 35.6095L19.3803 33.6046L19.372 33.5986L17.9095 35.6095ZM17.4603 34.3448L19.8848 34.8965L19.8852 34.8949L17.4603 34.3448ZM18.6532 29.0826L16.2284 28.5319L16.2283 28.5325L18.6532 29.0826ZM18.7968 28.4465L21.2122 29.0372L21.2145 29.0275L18.7968 28.4465ZM18.7121 28.1876L17.0752 30.0594L17.0765 30.0604L18.7121 28.1876ZM14.1908 24.2234L15.8277 22.3517L15.8218 22.3465L15.8158 22.3413L14.1908 24.2234ZM13.76 23.5615H11.2735V24.0417L11.4523 24.4874L13.76 23.5615ZM13.76 23.0548H16.2465V22.4701L15.986 21.9467L13.76 23.0548ZM16.1243 23.8062C16.1088 23.8545 16.0691 23.9556 15.9824 24.0774C15.8927 24.2033 15.7756 24.3189 15.6398 24.4108C15.375 24.5899 15.1763 24.5895 15.2397 24.5852L14.9018 19.6237C14.3136 19.6637 13.5607 19.8131 12.8532 20.2918C12.1027 20.7996 11.6348 21.5199 11.3884 22.2887L16.1243 23.8062ZM15.2339 24.5856C16.2853 24.5165 17.3917 24.3924 18.327 24.307L17.8748 19.3546C16.7851 19.4541 15.8812 19.5593 14.9077 19.6233L15.2339 24.5856ZM18.333 24.3065C19.1913 24.226 19.9673 24.1462 20.7523 24.0936L20.4201 19.1317C19.5482 19.19 18.6674 19.2803 17.8689 19.3551L18.333 24.3065ZM20.7439 24.0941C21.1085 24.071 21.7262 23.983 22.3365 23.5672C22.9651 23.1389 23.2876 22.5689 23.4588 22.1498L18.855 20.2693C18.9083 20.1387 19.0909 19.7609 19.5363 19.4575C19.9634 19.1664 20.3547 19.1358 20.4284 19.1311L20.7439 24.0941ZM23.4543 22.1606C24.1841 20.3976 24.9373 18.651 25.6977 16.8666L21.1226 14.9171C20.3734 16.6754 19.6023 18.464 18.8594 20.2584L23.4543 22.1606ZM25.699 16.8634C25.6768 16.9157 25.5773 17.1222 25.3179 17.3164C25.033 17.5298 24.7259 17.6003 24.5134 17.6017L24.4792 12.6288C23.7292 12.634 22.9802 12.8542 22.3372 13.3357C21.7198 13.798 21.346 14.3909 21.1213 14.9202L25.699 16.8634ZM24.5131 17.6017C24.315 17.6031 24.0054 17.5418 23.7108 17.3262C23.4418 17.1293 23.3408 16.9174 23.3212 16.8714L27.8952 14.9197C27.6657 14.3818 27.2831 13.778 26.6478 13.313C25.9868 12.8293 25.2262 12.6238 24.4795 12.6288L24.5131 17.6017ZM23.3193 16.8668C24.0796 18.6588 24.8341 20.4158 25.5741 22.1892L30.1636 20.2742C29.4161 18.4828 28.6464 16.6898 27.8972 14.9243L23.3193 16.8668ZM25.5787 22.2001C25.7471 22.5985 26.0615 23.1465 26.6677 23.5643C27.2583 23.9714 27.8557 24.0663 28.211 24.0949L28.6093 19.1378C28.6883 19.1442 29.0722 19.1818 29.4898 19.4696C29.923 19.7681 30.1048 20.1349 30.1591 20.2634L25.5787 22.2001ZM28.2186 24.0955C29.2485 24.175 30.2623 24.2752 31.3394 24.3736L31.7915 19.4212C30.7626 19.3272 29.6777 19.2203 28.6016 19.1372L28.2186 24.0955ZM31.3463 24.3742C32.1358 24.4441 33.0314 24.5345 33.8863 24.5988L34.2593 19.6397C33.4426 19.5783 32.6666 19.4986 31.7846 19.4205L31.3463 24.3742ZM33.8927 24.5992C33.6394 24.5808 33.2681 24.4332 33.0134 24.0423C32.7461 23.6319 32.7318 23.1321 32.9002 22.7629L37.4251 24.826C37.9542 23.6654 37.8535 22.3613 37.1802 21.3278C36.5196 20.3137 35.423 19.7242 34.2529 19.6393L33.8927 24.5992ZM32.907 22.7481C32.961 22.6316 33.0212 22.5424 33.069 22.4813C33.0924 22.4516 33.1121 22.4294 33.1255 22.4151C33.1388 22.4008 33.147 22.3931 33.1474 22.3928C33.1475 22.3927 33.1421 22.3977 33.1279 22.41C33.1132 22.4228 33.0943 22.4387 33.065 22.4632C33.0494 22.4763 33.0365 22.487 33.0173 22.503C32.9999 22.5175 32.9799 22.5342 32.959 22.5518C32.9175 22.5867 32.8667 22.6299 32.8121 22.6784L36.114 26.3971C36.1409 26.3732 36.1659 26.3527 36.2516 26.2812C36.321 26.2233 36.4354 26.1274 36.5556 26.0142C36.8016 25.7827 37.1582 25.4015 37.4183 24.8408L32.907 22.7481ZM32.8118 22.6787C31.8203 23.5593 30.861 24.3971 29.8518 25.2897L33.1465 29.0147C34.1108 28.1619 35.1324 27.269 36.1143 26.3968L32.8118 22.6787ZM29.8512 25.2902C29.4395 25.6546 29.1304 25.9383 28.7875 26.2231L31.9649 30.0487C32.3879 29.6974 32.8151 29.3081 33.1471 29.0142L29.8512 25.2902ZM28.7803 26.2291C28.5201 26.4468 28.1239 26.8467 27.9012 27.4788C27.674 28.1238 27.7363 28.6988 27.8185 29.0618L32.6689 27.9643C32.7142 28.1646 32.7766 28.6065 32.5917 29.1313C32.4113 29.6432 32.0997 29.9358 31.9721 30.0426L28.7803 26.2291ZM27.8205 29.0707C28.1798 30.632 28.5318 32.1973 28.8858 33.7674L33.737 32.6738C33.3841 31.108 33.0292 29.5301 32.6668 27.9554L27.8205 29.0707ZM28.8847 33.7625C28.9846 34.2103 29.0648 34.5404 29.1396 34.9093L34.0134 33.9208C33.9262 33.491 33.8149 33.0223 33.7381 32.6787L28.8847 33.7625ZM29.14 34.9112C29.1107 34.7676 29.096 34.5054 29.2123 34.1996C29.33 33.8903 29.5228 33.6915 29.6636 33.5894L32.5836 37.6148C33.1221 37.2243 33.5911 36.676 33.8606 35.9673C34.1287 35.2621 34.1417 34.5506 34.013 33.9188L29.14 34.9112ZM29.6569 33.5942C29.7959 33.4927 30.0541 33.3634 30.4034 33.3507C30.7488 33.3381 31.0025 33.446 31.1284 33.5221L28.5563 37.7783C29.1167 38.1169 29.8085 38.3487 30.5847 38.3204C31.3648 38.2919 32.0464 38.0073 32.5903 37.61L29.6569 33.5942ZM31.119 33.5164C29.4075 32.4924 27.6954 31.4665 25.9916 30.4376L23.4207 34.6945C25.1337 35.729 26.8531 36.7593 28.5657 37.7839L31.119 33.5164ZM26.023 30.4569C25.7524 30.2879 25.2445 30.0248 24.5577 30.0142C23.8692 30.0036 23.3489 30.2517 23.0597 30.423L25.5941 34.7017C25.4486 34.788 25.0498 34.9954 24.4809 34.9866C23.9138 34.9779 23.5237 34.7592 23.3893 34.6752L26.023 30.4569ZM23.0422 30.4335C21.3438 31.4584 19.6568 32.4648 17.9462 33.4934L20.5089 37.7552C22.193 36.7425 23.9154 35.715 25.6117 34.6912L23.0422 30.4335ZM17.939 33.4977C17.9964 33.4629 18.2089 33.3503 18.5446 33.3481C18.9103 33.3459 19.2052 33.4762 19.3803 33.6046L16.4386 37.6143C17.0371 38.0534 17.7684 38.3261 18.5758 38.3211C19.3534 38.3162 20.0133 38.0556 20.5162 37.7509L17.939 33.4977ZM19.372 33.5986C19.5166 33.7038 19.7172 33.915 19.8301 34.2411C19.9383 34.5534 19.9069 34.7996 19.8848 34.8965L15.0358 33.793C14.8959 34.4077 14.8755 35.1309 15.1309 35.8685C15.3911 36.6199 15.8752 37.2046 16.4469 37.6204L19.372 33.5986ZM19.8852 34.8949C20.0841 34.0181 20.283 33.1405 20.4818 32.2632C20.6806 31.3858 20.8794 30.5088 21.0781 29.6327L16.2283 28.5325C16.0294 29.4092 15.8305 30.2868 15.6317 31.1641C15.4329 32.0415 15.2341 32.9186 15.0354 33.7947L19.8852 34.8949ZM21.078 29.6332C21.1423 29.3498 21.1654 29.2283 21.2121 29.0372L16.3815 27.8558C16.3251 28.0863 16.2598 28.3938 16.2284 28.5319L21.078 29.6332ZM21.2145 29.0275C21.3046 28.6527 21.3521 28.1192 21.1584 27.5291C20.9669 26.9457 20.6199 26.5525 20.3478 26.3148L17.0765 30.0604C16.889 29.8967 16.5972 29.5793 16.4334 29.08C16.2673 28.5741 16.3148 28.133 16.3791 27.8655L21.2145 29.0275ZM20.349 26.3159C19.5963 25.6577 18.8452 24.9982 18.0919 24.3369C17.3393 23.6762 16.5846 23.0136 15.8277 22.3517L12.5539 26.0951C13.3066 26.7534 14.0578 27.4128 14.811 28.0741C15.5636 28.7349 16.3184 29.3974 17.0752 30.0594L20.349 26.3159ZM15.8158 22.3413C16.0559 22.5487 16.1162 22.7565 16.0677 22.6356L11.4523 24.4874C11.6026 24.862 11.9059 25.5357 12.5658 26.1055L15.8158 22.3413ZM16.2465 23.5615V23.0548H11.2735V23.5615H16.2465ZM15.986 21.9467L15.9823 21.9393L11.5304 24.1556L11.5341 24.163L15.986 21.9467Z" fill="#005487" mask="url(#path-3-inside-1_1605_4946)"/>
<rect x="8.15479" y="9.11426" width="32.7229" height="32.7229" rx="16.3615" stroke="#005487" stroke-width="3" shape-rendering="crispEdges"/>
</g>
<g filter="url(#filter1_dd_1605_4946)">
<rect x="32.3486" y="28.335" width="17.4056" height="17.4056" rx="8.70281" fill="#DBE0E0" shape-rendering="crispEdges"/>
<path d="M40.0559 40.9746V33.1006H42.0466V40.9746H40.0559ZM37.1143 38.0329V36.0422H44.9882V38.0329H37.1143Z" fill="#005487"/>
<rect x="33.3486" y="29.335" width="15.4056" height="15.4056" rx="7.70281" stroke="#005487" stroke-width="2" shape-rendering="crispEdges"/>
</g>
<defs>
<filter id="filter0_dd_1605_4946" x="0.024076" y="0.983549" width="48.9846" height="48.9841" filterUnits="userSpaceOnUse" color-interpolation-filters="sRGB">
<feFlood flood-opacity="0" result="BackgroundImageFix"/>
<feColorMatrix in="SourceAlpha" type="matrix" values="0 0 0 0 0 0 0 0 0 0 0 0 0 0 0 0 0 0 127 0" result="hardAlpha"/>
<feOffset dy="0.828839"/>
<feGaussianBlur stdDeviation="1.65768"/>
<feComposite in2="hardAlpha" operator="out"/>
<feColorMatrix type="matrix" values="0 0 0 0 0 0 0 0 0 0 0 0 0 0 0 0 0 0 0.35 0"/>
<feBlend mode="normal" in2="BackgroundImageFix" result="effect1_dropShadow_1605_4946"/>
<feColorMatrix in="SourceAlpha" type="matrix" values="0 0 0 0 0 0 0 0 0 0 0 0 0 0 0 0 0 0 127 0" result="hardAlpha"/>
<feOffset/>
<feGaussianBlur stdDeviation="3.31535"/>
<feComposite in2="hardAlpha" operator="out"/>
<feColorMatrix type="matrix" values="0 0 0 0 0 0 0 0 0 0.329412 0 0 0 0 0.529412 0 0 0 0.2 0"/>
<feBlend mode="normal" in2="effect1_dropShadow_1605_4946" result="effect2_dropShadow_1605_4946"/>
<feBlend mode="normal" in="SourceGraphic" in2="effect2_dropShadow_1605_4946" result="shape"/>
</filter>
<filter id="filter1_dd_1605_4946" x="29.1179" y="25.1042" width="23.8672" height="23.8668" filterUnits="userSpaceOnUse" color-interpolation-filters="sRGB">
<feFlood flood-opacity="0" result="BackgroundImageFix"/>
<feColorMatrix in="SourceAlpha" type="matrix" values="0 0 0 0 0 0 0 0 0 0 0 0 0 0 0 0 0 0 127 0" result="hardAlpha"/>
<feOffset dy="0.403843"/>
<feGaussianBlur stdDeviation="0.807685"/>
<feComposite in2="hardAlpha" operator="out"/>
<feColorMatrix type="matrix" values="0 0 0 0 0 0 0 0 0 0 0 0 0 0 0 0 0 0 0.35 0"/>
<feBlend mode="normal" in2="BackgroundImageFix" result="effect1_dropShadow_1605_4946"/>
<feColorMatrix in="SourceAlpha" type="matrix" values="0 0 0 0 0 0 0 0 0 0 0 0 0 0 0 0 0 0 127 0" result="hardAlpha"/>
<feOffset/>
<feGaussianBlur stdDeviation="1.61537"/>
<feComposite in2="hardAlpha" operator="out"/>
<feColorMatrix type="matrix" values="0 0 0 0 0 0 0 0 0 0.329412 0 0 0 0 0.529412 0 0 0 0.2 0"/>
<feBlend mode="normal" in2="effect1_dropShadow_1605_4946" result="effect2_dropShadow_1605_4946"/>
<feBlend mode="normal" in="SourceGraphic" in2="effect2_dropShadow_1605_4946" result="shape"/>
</filter>
</defs>
</svg>
