<svg width="60" height="55" viewBox="0 0 60 55" fill="none" xmlns="http://www.w3.org/2000/svg">
<g filter="url(#filter0_dd_1754_5816)">
<rect x="9.80698" y="9.97034" width="32.7229" height="32.7229" rx="16.3615" fill="white" fill-opacity="0.8"/>
<rect x="9.80698" y="9.97034" width="32.7229" height="32.7229" rx="16.3615" stroke="#005487" stroke-width="3"/>
<mask id="path-2-inside-1_1754_5816" fill="white">
<path d="M15.4084 23.9035C15.6146 23.2601 16.0712 23.0049 16.7229 22.9605C17.7354 22.894 18.7405 22.7793 19.753 22.6869C20.5814 22.6092 21.4099 22.5242 22.2383 22.4687C22.5291 22.4502 22.6911 22.3541 22.809 22.0656C23.5453 20.2869 24.3075 18.5193 25.0623 16.7479C25.2648 16.2709 25.6109 15.975 26.1484 15.9713C26.697 15.9677 27.0505 16.2598 27.2603 16.7516C28.0151 18.5304 28.7772 20.3054 29.521 22.0878C29.6351 22.3578 29.7861 22.4502 30.0622 22.4724C31.1152 22.5538 32.1645 22.6573 33.2175 22.7535C34.0533 22.8274 34.8891 22.9125 35.7249 22.9753C36.6417 23.0419 37.1755 23.8591 36.8147 24.6505C36.6638 24.9759 36.3692 25.1682 36.1152 25.3938C35.1284 26.2702 34.138 27.1356 33.1513 28.0083C32.7794 28.3374 32.4112 28.6739 32.0283 28.992C31.8958 29.1029 31.8589 29.2064 31.8958 29.3691C32.2566 30.9371 32.61 32.5087 32.9635 34.0767C33.0519 34.4724 33.1476 34.8717 33.2286 35.2711C33.328 35.7593 33.1734 36.1697 32.7757 36.4582C32.3707 36.754 31.9289 36.7688 31.4944 36.5063C29.7824 35.4819 28.0666 34.4539 26.3583 33.4221C26.222 33.3371 26.1226 33.3334 25.979 33.4184C24.2817 34.4428 22.577 35.4597 20.8797 36.4804C20.4342 36.7503 19.985 36.7762 19.5616 36.4656C19.1345 36.1549 18.9946 35.7186 19.1124 35.2009C19.51 33.448 19.9077 31.6915 20.3053 29.9386C20.3532 29.7279 20.3974 29.5134 20.4489 29.3026C20.4747 29.1953 20.4489 29.1177 20.3642 29.0437C18.8547 27.7235 17.3525 26.3997 15.8429 25.0795C15.633 24.8983 15.5115 24.6653 15.4121 24.4175V23.9109L15.4084 23.9035Z"/>
</mask>
<path d="M15.4084 23.9035C15.6146 23.2601 16.0712 23.0049 16.7229 22.9605C17.7354 22.894 18.7405 22.7793 19.753 22.6869C20.5814 22.6092 21.4099 22.5242 22.2383 22.4687C22.5291 22.4502 22.6911 22.3541 22.809 22.0656C23.5453 20.2869 24.3075 18.5193 25.0623 16.7479C25.2648 16.2709 25.6109 15.975 26.1484 15.9713C26.697 15.9677 27.0505 16.2598 27.2603 16.7516C28.0151 18.5304 28.7772 20.3054 29.521 22.0878C29.6351 22.3578 29.7861 22.4502 30.0622 22.4724C31.1152 22.5538 32.1645 22.6573 33.2175 22.7535C34.0533 22.8274 34.8891 22.9125 35.7249 22.9753C36.6417 23.0419 37.1755 23.8591 36.8147 24.6505C36.6638 24.9759 36.3692 25.1682 36.1152 25.3938C35.1284 26.2702 34.138 27.1356 33.1513 28.0083C32.7794 28.3374 32.4112 28.6739 32.0283 28.992C31.8958 29.1029 31.8589 29.2064 31.8958 29.3691C32.2566 30.9371 32.61 32.5087 32.9635 34.0767C33.0519 34.4724 33.1476 34.8717 33.2286 35.2711C33.328 35.7593 33.1734 36.1697 32.7757 36.4582C32.3707 36.754 31.9289 36.7688 31.4944 36.5063C29.7824 35.4819 28.0666 34.4539 26.3583 33.4221C26.222 33.3371 26.1226 33.3334 25.979 33.4184C24.2817 34.4428 22.577 35.4597 20.8797 36.4804C20.4342 36.7503 19.985 36.7762 19.5616 36.4656C19.1345 36.1549 18.9946 35.7186 19.1124 35.2009C19.51 33.448 19.9077 31.6915 20.3053 29.9386C20.3532 29.7279 20.3974 29.5134 20.4489 29.3026C20.4747 29.1953 20.4489 29.1177 20.3642 29.0437C18.8547 27.7235 17.3525 26.3997 15.8429 25.0795C15.633 24.8983 15.5115 24.6653 15.4121 24.4175V23.9109L15.4084 23.9035Z" stroke="#005487" stroke-width="4.97303" mask="url(#path-2-inside-1_1754_5816)"/>
<rect x="35.001" y="30.1913" width="15.4056" height="15.4056" rx="7.70281" fill="#DBE0E0"/>
<rect x="35.001" y="30.1913" width="15.4056" height="15.4056" rx="7.70281" stroke="#005487" stroke-width="2"/>
<path d="M41.7084 41.8311V33.9571H43.6992V41.8311H41.7084ZM38.7668 38.8895V36.8987H46.6408V38.8895H38.7668Z" fill="#005487"/>
</g>
<defs>
<filter id="filter0_dd_1754_5816" x="0.306976" y="0.470337" width="59.0996" height="54.1266" filterUnits="userSpaceOnUse" color-interpolation-filters="sRGB">
<feFlood flood-opacity="0" result="BackgroundImageFix"/>
<feColorMatrix in="SourceAlpha" type="matrix" values="0 0 0 0 0 0 0 0 0 0 0 0 0 0 0 0 0 0 127 0" result="hardAlpha"/>
<feOffset dy="1"/>
<feGaussianBlur stdDeviation="2"/>
<feComposite in2="hardAlpha" operator="out"/>
<feColorMatrix type="matrix" values="0 0 0 0 0 0 0 0 0 0 0 0 0 0 0 0 0 0 0.35 0"/>
<feBlend mode="normal" in2="BackgroundImageFix" result="effect1_dropShadow_1754_5816"/>
<feColorMatrix in="SourceAlpha" type="matrix" values="0 0 0 0 0 0 0 0 0 0 0 0 0 0 0 0 0 0 127 0" result="hardAlpha"/>
<feOffset/>
<feGaussianBlur stdDeviation="4"/>
<feComposite in2="hardAlpha" operator="out"/>
<feColorMatrix type="matrix" values="0 0 0 0 0 0 0 0 0 0.329412 0 0 0 0 0.529412 0 0 0 0.2 0"/>
<feBlend mode="normal" in2="effect1_dropShadow_1754_5816" result="effect2_dropShadow_1754_5816"/>
<feBlend mode="normal" in="SourceGraphic" in2="effect2_dropShadow_1754_5816" result="shape"/>
</filter>
</defs>
</svg>
