<svg width="60" height="55" viewBox="0 0 60 55" fill="none" xmlns="http://www.w3.org/2000/svg">
<g id="Group 2151">
<g id="Vector">
<mask id="path-1-inside-1_1687_5715" fill="white">
<path d="M15.308 23.8446C15.5142 23.2012 15.9707 22.946 16.6224 22.9016C17.6349 22.8351 18.64 22.7204 19.6526 22.628C20.481 22.5503 21.3094 22.4653 22.1378 22.4098C22.4287 22.3913 22.5907 22.2952 22.7085 22.0067C23.4449 20.228 24.207 18.4604 24.9618 16.689C25.1643 16.212 25.5104 15.9161 26.0479 15.9124C26.5965 15.9088 26.95 16.2009 27.1598 16.6927C27.9146 18.4715 28.6768 20.2465 29.4205 22.0289C29.5346 22.2989 29.6856 22.3913 29.9617 22.4135C31.0147 22.4949 32.0641 22.5984 33.1171 22.6946C33.9529 22.7685 34.7886 22.8536 35.6244 22.9164C36.5412 22.983 37.0751 23.8002 36.7142 24.5916C36.5633 24.917 36.2687 25.1093 36.0147 25.3349C35.028 26.2113 34.0375 27.0767 33.0508 27.9494C32.6789 28.2785 32.3107 28.615 31.9278 28.9331C31.7953 29.044 31.7585 29.1475 31.7953 29.3102C32.1561 30.8782 32.5096 32.4498 32.863 34.0178C32.9514 34.4135 33.0471 34.8128 33.1281 35.2122C33.2275 35.7004 33.0729 36.1108 32.6752 36.3993C32.2702 36.6951 31.8284 36.7099 31.394 36.4474C29.6819 35.423 27.9662 34.395 26.2578 33.3632C26.1216 33.2782 26.0221 33.2745 25.8786 33.3595C24.1812 34.3839 22.4765 35.4008 20.7792 36.4215C20.3337 36.6914 19.8845 36.7173 19.4611 36.4067C19.034 36.096 18.8941 35.6597 19.0119 35.142C19.4095 33.3891 19.8072 31.6326 20.2048 29.8797C20.2527 29.669 20.2969 29.4545 20.3484 29.2437C20.3742 29.1364 20.3484 29.0588 20.2637 28.9848C18.7542 27.6646 17.252 26.3408 15.7424 25.0206C15.5326 24.8394 15.4111 24.6064 15.3117 24.3586V23.852L15.308 23.8446Z"/>
</mask>
<path d="M15.308 23.8446C15.5142 23.2012 15.9707 22.946 16.6224 22.9016C17.6349 22.8351 18.64 22.7204 19.6526 22.628C20.481 22.5503 21.3094 22.4653 22.1378 22.4098C22.4287 22.3913 22.5907 22.2952 22.7085 22.0067C23.4449 20.228 24.207 18.4604 24.9618 16.689C25.1643 16.212 25.5104 15.9161 26.0479 15.9124C26.5965 15.9088 26.95 16.2009 27.1598 16.6927C27.9146 18.4715 28.6768 20.2465 29.4205 22.0289C29.5346 22.2989 29.6856 22.3913 29.9617 22.4135C31.0147 22.4949 32.0641 22.5984 33.1171 22.6946C33.9529 22.7685 34.7886 22.8536 35.6244 22.9164C36.5412 22.983 37.0751 23.8002 36.7142 24.5916C36.5633 24.917 36.2687 25.1093 36.0147 25.3349C35.028 26.2113 34.0375 27.0767 33.0508 27.9494C32.6789 28.2785 32.3107 28.615 31.9278 28.9331C31.7953 29.044 31.7585 29.1475 31.7953 29.3102C32.1561 30.8782 32.5096 32.4498 32.863 34.0178C32.9514 34.4135 33.0471 34.8128 33.1281 35.2122C33.2275 35.7004 33.0729 36.1108 32.6752 36.3993C32.2702 36.6951 31.8284 36.7099 31.394 36.4474C29.6819 35.423 27.9662 34.395 26.2578 33.3632C26.1216 33.2782 26.0221 33.2745 25.8786 33.3595C24.1812 34.3839 22.4765 35.4008 20.7792 36.4215C20.3337 36.6914 19.8845 36.7173 19.4611 36.4067C19.034 36.096 18.8941 35.6597 19.0119 35.142C19.4095 33.3891 19.8072 31.6326 20.2048 29.8797C20.2527 29.669 20.2969 29.4545 20.3484 29.2437C20.3742 29.1364 20.3484 29.0588 20.2637 28.9848C18.7542 27.6646 17.252 26.3408 15.7424 25.0206C15.5326 24.8394 15.4111 24.6064 15.3117 24.3586V23.852L15.308 23.8446Z" stroke="#005487" stroke-width="4.97303" mask="url(#path-1-inside-1_1687_5715)"/>
</g>
<g id="Rectangle 1 (Stroke)" filter="url(#filter0_dd_1687_5715)">
<path fill-rule="evenodd" clip-rule="evenodd" d="M10.958 26.2729C10.958 34.6179 17.723 41.3829 26.068 41.3829C34.413 41.3829 41.178 34.6179 41.178 26.2729C41.178 17.9279 34.413 11.1629 26.068 11.1629C17.723 11.1629 10.958 17.9279 10.958 26.2729ZM26.068 8.27289C16.1269 8.27289 8.06798 16.3318 8.06798 26.2729C8.06798 36.214 16.1269 44.2729 26.068 44.2729C36.0091 44.2729 44.068 36.214 44.068 26.2729C44.068 16.3318 36.0091 8.27289 26.068 8.27289Z" fill="#005487"/>
</g>
<g id="Price_A" filter="url(#filter1_dd_1687_5715)">
<rect x="33.762" y="28.9939" width="17.4056" height="17.4056" rx="8.70281" fill="#DBE0E0" shape-rendering="crispEdges"/>
<path id="+" d="M41.4694 41.6337V33.7597H43.4602V41.6337H41.4694ZM38.5278 38.6921V36.7013H46.4018V38.6921H38.5278Z" fill="#005487"/>
<rect x="34.762" y="29.9939" width="15.4056" height="15.4056" rx="7.70281" stroke="#005487" stroke-width="2" shape-rendering="crispEdges"/>
</g>
</g>
<defs>
<filter id="filter0_dd_1687_5715" x="0.067976" y="0.272888" width="52" height="52" filterUnits="userSpaceOnUse" color-interpolation-filters="sRGB">
<feFlood flood-opacity="0" result="BackgroundImageFix"/>
<feColorMatrix in="SourceAlpha" type="matrix" values="0 0 0 0 0 0 0 0 0 0 0 0 0 0 0 0 0 0 127 0" result="hardAlpha"/>
<feOffset dy="1"/>
<feGaussianBlur stdDeviation="2"/>
<feComposite in2="hardAlpha" operator="out"/>
<feColorMatrix type="matrix" values="0 0 0 0 0 0 0 0 0 0 0 0 0 0 0 0 0 0 0.35 0"/>
<feBlend mode="normal" in2="BackgroundImageFix" result="effect1_dropShadow_1687_5715"/>
<feColorMatrix in="SourceAlpha" type="matrix" values="0 0 0 0 0 0 0 0 0 0 0 0 0 0 0 0 0 0 127 0" result="hardAlpha"/>
<feOffset/>
<feGaussianBlur stdDeviation="4"/>
<feComposite in2="hardAlpha" operator="out"/>
<feColorMatrix type="matrix" values="0 0 0 0 0 0 0 0 0 0.329412 0 0 0 0 0.529412 0 0 0 0.2 0"/>
<feBlend mode="normal" in2="effect1_dropShadow_1687_5715" result="effect2_dropShadow_1687_5715"/>
<feBlend mode="normal" in="SourceGraphic" in2="effect2_dropShadow_1687_5715" result="shape"/>
</filter>
<filter id="filter1_dd_1687_5715" x="25.762" y="20.9939" width="33.4056" height="33.4056" filterUnits="userSpaceOnUse" color-interpolation-filters="sRGB">
<feFlood flood-opacity="0" result="BackgroundImageFix"/>
<feColorMatrix in="SourceAlpha" type="matrix" values="0 0 0 0 0 0 0 0 0 0 0 0 0 0 0 0 0 0 127 0" result="hardAlpha"/>
<feOffset dy="1"/>
<feGaussianBlur stdDeviation="2"/>
<feComposite in2="hardAlpha" operator="out"/>
<feColorMatrix type="matrix" values="0 0 0 0 0 0 0 0 0 0 0 0 0 0 0 0 0 0 0.35 0"/>
<feBlend mode="normal" in2="BackgroundImageFix" result="effect1_dropShadow_1687_5715"/>
<feColorMatrix in="SourceAlpha" type="matrix" values="0 0 0 0 0 0 0 0 0 0 0 0 0 0 0 0 0 0 127 0" result="hardAlpha"/>
<feOffset/>
<feGaussianBlur stdDeviation="4"/>
<feComposite in2="hardAlpha" operator="out"/>
<feColorMatrix type="matrix" values="0 0 0 0 0 0 0 0 0 0.329412 0 0 0 0 0.529412 0 0 0 0.2 0"/>
<feBlend mode="normal" in2="effect1_dropShadow_1687_5715" result="effect2_dropShadow_1687_5715"/>
<feBlend mode="normal" in="SourceGraphic" in2="effect2_dropShadow_1687_5715" result="shape"/>
</filter>
</defs>
</svg>
