<svg width="52" height="47" viewBox="0 0 52 47" fill="none" xmlns="http://www.w3.org/2000/svg">
<g filter="url(#filter0_d_1696_6151)">
<mask id="path-2-inside-1_1696_6151" fill="white">
<path d="M11.1016 18.4332C11.3077 17.7897 11.7643 17.5346 12.416 17.4902C13.4285 17.4236 14.4336 17.309 15.4461 17.2166C16.2746 17.1389 17.103 17.0538 17.9314 16.9984C18.2223 16.9799 18.3843 16.8837 18.5021 16.5953C19.2384 14.8166 20.0006 13.0489 20.7554 11.2776C20.9579 10.8005 21.304 10.5047 21.8415 10.501C22.3901 10.4973 22.7436 10.7895 22.9534 11.2813C23.7082 13.06 24.4704 14.835 25.2141 16.6175C25.3282 16.8874 25.4792 16.9799 25.7553 17.0021C26.8083 17.0834 27.8577 17.187 28.9107 17.2831C29.7464 17.3571 30.5822 17.4421 31.418 17.505C32.3348 17.5716 32.8687 18.3888 32.5078 19.1802C32.3569 19.5056 32.0623 19.6979 31.8083 19.9235C30.8215 20.7999 29.8311 21.6652 28.8444 22.538C28.4725 22.8671 28.1043 23.2036 27.7214 23.5216C27.5889 23.6326 27.5521 23.7361 27.5889 23.8988C27.9497 25.4668 28.3032 27.0384 28.6566 28.6063C28.745 29.002 28.8407 29.4014 28.9217 29.8008C29.0211 30.2889 28.8665 30.6994 28.4688 30.9878C28.0638 31.2837 27.622 31.2985 27.1876 31.0359C25.4755 30.0116 23.7598 28.9835 22.0514 27.9518C21.9152 27.8667 21.8157 27.863 21.6721 27.9481C19.9748 28.9724 18.2701 29.9894 16.5728 31.01C16.1273 31.28 15.6781 31.3059 15.2547 30.9952C14.8276 30.6846 14.6877 30.2482 14.8055 29.7305C15.2031 27.9777 15.6008 26.2211 15.9984 24.4683C16.0463 24.2575 16.0905 24.043 16.142 23.8322C16.1678 23.725 16.142 23.6473 16.0573 23.5734C14.5478 22.2532 13.0456 20.9293 11.536 19.6091C11.3262 19.4279 11.2047 19.195 11.1052 18.9472V18.4406L11.1016 18.4332Z"/>
</mask>
<path d="M11.1016 18.4332C11.3077 17.7897 11.7643 17.5346 12.416 17.4902C13.4285 17.4236 14.4336 17.309 15.4461 17.2166C16.2746 17.1389 17.103 17.0538 17.9314 16.9984C18.2223 16.9799 18.3843 16.8837 18.5021 16.5953C19.2384 14.8166 20.0006 13.0489 20.7554 11.2776C20.9579 10.8005 21.304 10.5047 21.8415 10.501C22.3901 10.4973 22.7436 10.7895 22.9534 11.2813C23.7082 13.06 24.4704 14.835 25.2141 16.6175C25.3282 16.8874 25.4792 16.9799 25.7553 17.0021C26.8083 17.0834 27.8577 17.187 28.9107 17.2831C29.7464 17.3571 30.5822 17.4421 31.418 17.505C32.3348 17.5716 32.8687 18.3888 32.5078 19.1802C32.3569 19.5056 32.0623 19.6979 31.8083 19.9235C30.8215 20.7999 29.8311 21.6652 28.8444 22.538C28.4725 22.8671 28.1043 23.2036 27.7214 23.5216C27.5889 23.6326 27.5521 23.7361 27.5889 23.8988C27.9497 25.4668 28.3032 27.0384 28.6566 28.6063C28.745 29.002 28.8407 29.4014 28.9217 29.8008C29.0211 30.2889 28.8665 30.6994 28.4688 30.9878C28.0638 31.2837 27.622 31.2985 27.1876 31.0359C25.4755 30.0116 23.7598 28.9835 22.0514 27.9518C21.9152 27.8667 21.8157 27.863 21.6721 27.9481C19.9748 28.9724 18.2701 29.9894 16.5728 31.01C16.1273 31.28 15.6781 31.3059 15.2547 30.9952C14.8276 30.6846 14.6877 30.2482 14.8055 29.7305C15.2031 27.9777 15.6008 26.2211 15.9984 24.4683C16.0463 24.2575 16.0905 24.043 16.142 23.8322C16.1678 23.725 16.142 23.6473 16.0573 23.5734C14.5478 22.2532 13.0456 20.9293 11.536 19.6091C11.3262 19.4279 11.2047 19.195 11.1052 18.9472V18.4406L11.1016 18.4332Z" stroke="#005487" stroke-width="4.97303" mask="url(#path-2-inside-1_1696_6151)"/>
<rect x="5.5" y="4.5" width="32.7229" height="32.7229" rx="16.3615" stroke="#005487" stroke-width="3"/>
<rect x="30.6938" y="24.7207" width="15.4056" height="15.4056" rx="7.70281" fill="#DBE0E0"/>
<path d="M37.4011 36.3603V28.4863H39.3918V36.3603H37.4011ZM34.4595 33.4187V31.4279H42.3334V33.4187H34.4595Z" fill="#005487"/>
<rect x="30.6938" y="24.7207" width="15.4056" height="15.4056" rx="7.70281" stroke="#005487" stroke-width="2"/>
</g>
<defs>
<filter id="filter0_d_1696_6151" x="0" y="0" width="51.0996" height="46.127" filterUnits="userSpaceOnUse" color-interpolation-filters="sRGB">
<feFlood flood-opacity="0" result="BackgroundImageFix"/>
<feColorMatrix in="SourceAlpha" type="matrix" values="0 0 0 0 0 0 0 0 0 0 0 0 0 0 0 0 0 0 127 0" result="hardAlpha"/>
<feOffset dy="1"/>
<feGaussianBlur stdDeviation="2"/>
<feComposite in2="hardAlpha" operator="out"/>
<feColorMatrix type="matrix" values="0 0 0 0 0 0 0 0 0 0 0 0 0 0 0 0 0 0 0.55 0"/>
<feBlend mode="normal" in2="BackgroundImageFix" result="effect1_dropShadow_1696_6151"/>
<feBlend mode="normal" in="SourceGraphic" in2="effect1_dropShadow_1696_6151" result="shape"/>
</filter>
</defs>
</svg>
