<svg width="22" height="22" viewBox="0 0 22 22" fill="none" xmlns="http://www.w3.org/2000/svg">
<path d="M20.0134 1.92793C18.7683 0.682795 17.1227 0.00561523 15.3605 0.00561523C13.5984 0.00561523 11.9528 0.690076 10.7077 1.92793C8.81446 3.82112 8.26835 6.63178 9.2732 9.07108L0.244141 18.1074V21.6972L6.70283 21.7045V19.2142H9.1931V16.7239H11.6834V13.8405L12.8557 12.6681C13.6421 12.9885 14.5013 13.156 15.3532 13.156C17.1081 13.156 18.761 12.4715 19.9988 11.2337C22.5619 8.6706 22.5619 4.4983 19.9988 1.93521L20.0134 1.92793ZM19.0668 10.2798C18.0765 11.2701 16.7659 11.8089 15.3678 11.8089C14.5596 11.8089 13.744 11.6196 13.0232 11.2555L12.5936 11.0371L10.3581 13.2725V15.3696H7.86787V17.8598H5.3776V20.3501H1.58394V18.6535L10.897 9.3405L10.6785 8.91089C9.6664 6.89391 10.0596 4.46189 11.6615 2.86724C12.6518 1.87696 13.9625 1.33813 15.3605 1.33813C16.7586 1.33813 18.0692 1.88424 19.0595 2.86724C21.0984 4.90606 21.0984 8.22643 19.0595 10.2652L19.0668 10.2798Z" fill="#4F4F4F"/>
</svg>
