<svg width="21" height="23" viewBox="0 0 21 23" fill="none" xmlns="http://www.w3.org/2000/svg">
<path d="M10.5051 2.45749C13.2786 2.45749 15.5378 4.71673 15.5378 7.49021C15.5378 10.2637 13.2786 12.5229 10.5051 12.5229C7.73163 12.5229 5.47238 10.2637 5.47238 7.49021C5.47238 4.71673 7.73163 2.45749 10.5051 2.45749ZM10.5051 0.914795C6.87176 0.914795 3.92969 3.85687 3.92969 7.49021C3.92969 11.1235 6.87176 14.0656 10.5051 14.0656C14.1384 14.0656 17.0805 11.1235 17.0805 7.49021C17.0805 3.85687 14.1384 0.914795 10.5051 0.914795Z" fill="#4F4F4F"/>
<path d="M15.113 14.319C17.2626 14.319 19.0076 16.064 19.0076 18.2137V21.0124H1.98745V18.2137C1.98745 16.064 3.73246 14.319 5.88211 14.319H15.113ZM15.113 12.7173H5.88211C2.84731 12.7173 0.385742 15.1788 0.385742 18.2137V22.6141H20.6178V18.2137C20.6178 15.1788 18.1562 12.7173 15.1214 12.7173H15.113Z" fill="#4F4F4F"/>
</svg>
