<svg width="21" height="21" viewBox="0 0 21 21" fill="none" xmlns="http://www.w3.org/2000/svg">
<path id="Vector" d="M19.8814 17.0775L15.1435 13.0487C14.6535 12.6074 14.1297 12.4062 13.7072 12.4249C14.826 11.1149 15.5011 9.41617 15.5011 7.55865C15.5011 3.41612 12.1433 0.0585938 8.00053 0.0585938C3.85774 0.0585938 0.5 3.41612 0.5 7.55865C0.5 11.7012 3.85774 15.0587 8.00053 15.0587C9.85816 15.0587 11.557 14.3837 12.8671 13.2649C12.8471 13.6875 13.0496 14.2112 13.4909 14.7012L17.5199 19.4387C18.21 20.205 19.3363 20.27 20.0239 19.5825C20.7114 18.895 20.6464 17.7675 19.8801 17.0787L19.8814 17.0775ZM8.00053 12.5574C5.23908 12.5574 3.00018 10.3187 3.00018 7.5574C3.00018 4.79613 5.23908 2.55736 8.00053 2.55736C10.762 2.55736 13.0009 4.79613 13.0009 7.5574C13.0009 10.3187 10.762 12.5574 8.00053 12.5574Z" fill="#B3B4B4"/>
</svg>
