<svg width="18" height="15" viewBox="0 0 18 15" fill="none" xmlns="http://www.w3.org/2000/svg">
<g id="icon- carbon">
<path id="Vector" d="M6.44815 10.6951L9.0012 13.2481M9.0012 13.2481L11.5543 10.6951M9.0012 13.2481L9.00119 7.50378M14.669 11.3908C15.2239 11.0006 15.64 10.4437 15.857 9.80096C16.0739 9.15822 16.0805 8.46307 15.8756 7.81639C15.6707 7.16971 15.265 6.60514 14.7175 6.20461C14.17 5.80408 13.5092 5.58844 12.8308 5.58897H12.0266C11.8346 4.84084 11.4754 4.14601 10.9761 3.55679C10.4767 2.96757 9.85021 2.4993 9.14369 2.18725C8.43717 1.8752 7.66907 1.72749 6.89721 1.75525C6.12534 1.78301 5.36984 1.98551 4.68756 2.3475C4.00528 2.7095 3.41401 3.22155 2.95827 3.84512C2.50253 4.46869 2.19418 5.18753 2.05645 5.94751C1.91872 6.70749 1.95519 7.48882 2.16312 8.23266C2.37104 8.97651 2.74501 9.6635 3.25686 10.2419" stroke="#8A8A8A" stroke-width="2" stroke-linecap="round" stroke-linejoin="round"/>
</g>
</svg>
