<svg width="34" height="37" viewBox="0 0 34 37" fill="none" xmlns="http://www.w3.org/2000/svg">
<path d="M2 2H10.9107C12.4862 2 13.9972 2.78335 15.1113 4.17771C16.2253 5.57208 16.8512 7.46325 16.8512 9.43518V35.4583C16.8512 33.9794 16.3818 32.561 15.5462 31.5152C14.7107 30.4695 13.5775 29.8819 12.3958 29.8819H2V2Z" stroke="white" stroke-width="2.95" stroke-linecap="round" stroke-linejoin="round"/>
<path d="M31.7028 2H22.792C21.2165 2 19.7055 2.78335 18.5915 4.17771C17.4774 5.57208 16.8516 7.46325 16.8516 9.43518V35.4583C16.8516 33.9794 17.321 32.561 18.1565 31.5152C18.992 30.4695 20.1253 29.8819 21.3069 29.8819H31.7028V2Z" stroke="white" stroke-width="2.95" stroke-linecap="round" stroke-linejoin="round"/>
</svg>
