<svg width="80" height="61" viewBox="0 0 80 61" fill="none" xmlns="http://www.w3.org/2000/svg">
<g clip-path="url(#clip0_1_4470)" filter="url(#filter0_d_1_4470)">
<path d="M75.3454 20.5421C74.5061 16.669 71.9558 14.2925 68.3102 13.0002C67.6757 12.7758 67.4143 12.5165 67.3699 11.8059C67.192 9.01158 65.9257 6.82988 63.502 5.34138C60.6742 3.60569 57.6389 3.38806 54.4824 4.08663C54.0513 4.18201 53.7967 4.11081 53.4882 3.7978C48.486 -1.2803 40.074 -1.25477 35.0138 3.81929C34.8252 4.00871 34.4399 4.09872 34.1543 4.0826C32.7047 4.00334 31.2484 3.71451 29.8109 3.79108C24.9299 4.0517 21.6036 7.26917 21.1469 12.0638C21.0971 12.5864 20.9085 12.7839 20.4356 12.9209C18.4431 13.4959 16.817 14.6499 15.3809 16.1867C20.6363 22.5491 25.8703 28.8833 31.2201 35.3599H29.4646C29.501 36.0303 29.532 36.6254 29.5697 37.3105H38.5368C37.7231 38.3047 37.0198 39.1645 36.295 40.0511C36.4877 40.1962 36.6399 40.3225 36.8016 40.4326C41.7688 43.8207 48.1896 43.5158 52.8078 39.6561C53.1298 39.3875 53.3494 39.3284 53.7361 39.5379C59.4253 42.613 67.4211 39.3122 67.4372 32.3265C67.4372 32.1424 67.6892 31.8791 67.8858 31.7918C68.4571 31.5366 69.0701 31.374 69.6507 31.1376C73.6182 29.5174 76.2467 24.7026 75.3454 20.5448V20.5421ZM37.4226 28.9478C34.8845 30.4054 32.213 30.4887 29.594 29.4502C26.556 28.2465 24.9245 25.7921 24.4288 22.6029C24.1229 20.6361 24.2011 18.6734 24.779 16.7537C26.0212 12.6267 29.6856 10.2045 33.9899 10.6519C37.7999 11.0468 39.9985 12.8846 40.9806 16.4957C41.021 16.6448 41.0413 16.7993 41.0911 17.0613C39.4057 17.4643 37.7783 17.8526 36.1104 18.2502C36.0296 17.9802 35.9596 17.772 35.9057 17.5611C35.5325 16.1008 34.704 15.3377 33.3379 15.202C31.9031 15.0596 30.5182 15.7421 30.0412 17.0237C29.2073 19.2618 29.2087 21.5537 30.0978 23.7757C30.5734 24.9659 31.6067 25.4939 32.896 25.5087C34.161 25.5235 35.0502 24.9337 35.5487 23.8052C35.8356 23.1564 36.0054 22.4564 36.2654 21.6598C37.8632 22.1595 39.4704 22.6633 41.149 23.1886C40.5441 25.5705 39.6523 27.6649 37.4213 28.9465L37.4226 28.9478ZM55.9064 28.4561C54.4797 29.4879 52.8469 30.036 51.0767 30.0816C49.689 30.1166 48.3256 30.0104 46.9784 29.5591C44.7717 28.8202 43.1173 27.4607 42.1662 25.3743C40.7112 22.181 40.6667 18.8709 42.0395 15.6668C43.4555 12.362 46.1688 10.7782 49.7362 10.6223C53.5501 10.4544 56.7821 11.9617 58.4985 15.3283C59.1761 16.6569 59.525 18.3496 59.5479 20.5985C59.5358 23.5849 58.6669 26.4598 55.9064 28.4588V28.4561ZM64.86 32.2392C65.2332 32.2311 65.3827 32.3829 65.3733 32.7577C65.3558 33.4294 65.3949 34.1025 65.3517 34.7715C65.341 34.9394 65.1052 35.2296 64.9718 35.2309C62.6829 35.2538 60.3926 35.2403 58.1024 35.2309C58.0444 35.2309 57.9852 35.1785 57.9138 35.145C57.8316 33.643 58.5335 32.477 59.4994 31.4345C60.1838 30.6942 60.9167 29.9984 61.6119 29.2675C61.8086 29.0607 62.0389 28.8188 62.0928 28.5596C62.144 28.3177 61.981 28.0316 61.9123 27.7643C61.6388 27.8999 61.1444 28.0115 61.1269 28.174C61.0272 29.1023 60.4546 29.0633 59.785 28.9653C59.2785 28.8914 58.7666 28.8578 58.2115 28.8027C58.0808 27.2887 58.8999 25.733 60.1865 25.201C61.6806 24.5844 63.5694 24.8894 64.5609 25.9748C65.5619 27.0697 65.6697 28.7382 64.7374 30.1461C64.2632 30.8622 63.6475 31.4842 63.0157 32.2445C63.6731 32.2445 64.2672 32.2553 64.86 32.2405V32.2392Z" fill="white"/>
<path d="M27.0399 40.6985C26.1345 40.6972 26.1332 40.6945 26.1318 39.8213C26.1305 38.6807 26.1426 37.5388 26.1278 36.3983C26.1116 35.2053 25.4286 34.5054 24.2579 34.4933C22.5752 34.4772 20.8925 34.4758 19.2098 34.4933C17.9071 34.5067 17.2793 35.1502 17.2685 36.4426C17.2591 37.6288 17.2523 38.8137 17.2725 40C17.2806 40.5118 17.0974 40.716 16.5653 40.7039C15.2868 40.6757 14.0082 40.6918 12.7297 40.6972C12.5452 40.6972 12.3606 40.7294 12.0615 40.7576C15.3056 44.6831 18.4689 48.5105 21.6847 52.401C24.9207 48.489 28.1055 44.6414 31.3671 40.6985C29.8192 40.6985 28.4302 40.6999 27.0412 40.6985H27.0399Z" fill="white"/>
<path d="M14.3448 23.4237C14.6237 23.7609 14.9026 24.0981 15.1814 24.4339L14.0605 22.9817C14.2007 23.2007 14.2613 23.3216 14.3448 23.4237Z" fill="white"/>
<path d="M13.444 38.2024C15.0714 38.1662 14.8033 38.5114 14.8545 36.7798C14.8693 36.2532 14.6592 36.1296 14.1796 36.1524C13.4857 36.186 12.7865 36.1363 12.0927 36.1699C11.5889 36.194 11.4339 36.0087 11.442 35.5129C11.4676 33.8793 11.4353 32.2444 11.4609 30.6108C11.469 30.1205 11.3356 29.9311 10.8183 29.9593C10.0503 30.0009 9.27973 29.97 8.51047 29.97C8.48622 29.9055 8.46197 29.8424 8.43772 29.7779C10.278 27.5532 12.1183 25.3285 14.061 22.9802L18.9325 25.7625C18.1929 24.8651 17.4519 23.969 16.7096 23.0729C15.8285 22.0103 14.9367 20.9557 14.0085 19.8474C10.6539 23.9072 7.35591 27.8958 4 31.9529C5.58163 31.9529 7.03797 31.9515 8.49565 31.9529C9.39829 31.9542 9.39829 31.9569 9.39964 32.8261C9.39964 33.9008 9.38751 34.9756 9.40368 36.049C9.42389 37.3615 10.2497 38.1783 11.5592 38.2011C12.187 38.2118 12.8162 38.2159 13.4453 38.2011L13.444 38.2024Z" fill="white"/>
<path d="M16.9814 31.9142C17.1094 31.9155 17.2373 31.9142 17.3653 31.9142L16.6338 31.4668C16.6513 31.6334 16.8588 31.9128 16.9814 31.9142Z" fill="white"/>
<path d="M22.6707 30.2871C22.6707 30.2871 22.6693 30.2965 22.668 30.3019L23.9573 31.8683C23.4979 31.3041 23.1058 30.8231 22.6707 30.2885V30.2871Z" fill="white"/>
<path d="M50.6556 15.2045C49.047 15.1118 47.6648 15.6264 46.9777 17.1511C46.0212 19.271 46.0023 21.4783 47.0303 23.582C47.7402 25.0356 49.0619 25.6039 50.6664 25.4978C52.1807 25.3983 53.2854 24.6447 53.8027 23.2435C54.1449 22.3152 54.2527 21.3009 54.4548 20.374C54.2648 19.3772 54.1853 18.4516 53.9024 17.5918C53.4012 16.071 52.2426 15.2959 50.6556 15.2032V15.2045Z" fill="white"/>
<path d="M19.0507 30.5773C18.7058 30.2186 18.7476 30.0023 19.2771 29.9688C19.3323 29.9647 19.3875 29.9607 19.4428 29.958H17.585C17.8787 29.9889 18.1966 29.962 18.4593 30.0682C18.687 30.1595 18.8554 30.4027 19.0494 30.5787L19.0507 30.5773Z" fill="white"/>
<path d="M17.3679 31.9167L17.6657 31.9141C17.566 31.9141 17.4649 31.9141 17.3652 31.9141L17.3693 31.9167H17.3679Z" fill="white"/>
<path d="M18.7349 29.0284L18.8467 28.7759C19.554 28.6267 20.2276 28.7409 20.8702 29.1211C20.4377 28.6603 19.8881 28.487 19.2805 28.5663C18.7362 28.6375 18.4263 28.3849 18.107 27.9886C17.1451 26.7943 16.163 25.6148 15.1836 24.4353L19.4489 29.9581C19.6752 29.9433 19.9029 29.9285 20.1265 29.9137C19.6658 29.6195 19.201 29.3253 18.7362 29.0298L18.7349 29.0284Z" fill="white"/>
<path d="M22.3864 31.879L22.8135 31.8763C22.4713 31.7245 22.4875 31.2772 22.668 30.3019L22.2881 29.8411C22.5198 30.4604 22.4174 31.1697 22.3864 31.8804V31.879Z" fill="white"/>
<path d="M21.1576 28.6791C21.194 29.6773 21.1738 30.6768 21.1738 31.6494C20.8626 31.3847 20.5675 31.1335 20.2752 30.8837C20.5042 31.1994 20.7359 31.5164 20.9677 31.8334C20.9555 31.8523 20.9447 31.8711 20.9326 31.8899L21.4257 31.8858V28.8444C21.4567 28.8632 21.485 28.882 21.5133 28.9021L18.9307 25.7666C19.5585 26.5283 20.1863 27.2914 20.8114 28.0558C20.9623 28.2398 21.1495 28.4682 21.1576 28.6818V28.6791Z" fill="white"/>
<path d="M19.7822 31.8629H19.7849C19.7849 31.8629 19.7781 31.8629 19.7741 31.8616C19.7674 31.8602 19.7606 31.8589 19.7539 31.8562C19.0641 31.8764 18.3743 31.9059 17.6846 31.914L19.9546 31.8978C19.8927 31.8844 19.8307 31.8696 19.7701 31.8562C19.7701 31.8562 19.7835 31.8656 19.7822 31.8643V31.8629Z" fill="white"/>
<path d="M17.2442 30.2495C17.4112 31.3054 18.1603 31.5822 19.0615 31.7031C19.2946 31.734 19.5223 31.8012 19.754 31.8562C19.7554 31.8562 19.7581 31.8562 19.7594 31.8562C19.3552 31.7138 18.9295 31.6104 18.559 31.4089C18.1899 31.2074 17.841 30.9333 17.5634 30.6217C17.457 30.5021 17.5729 30.185 17.5877 29.958H16.7969C17.0246 30.0695 17.2293 30.1461 17.2455 30.2509L17.2442 30.2495Z" fill="white"/>
<path d="M15.1818 24.4338C16.1612 25.6147 17.1433 26.7928 18.1053 27.9871C18.4245 28.3834 18.7344 28.6346 19.2787 28.5648C19.8863 28.4855 20.4359 28.6588 20.8684 29.1196C20.6811 29.442 20.8239 30.0734 20.1247 29.9109C19.9011 29.927 19.6748 29.9418 19.4471 29.9552H19.443C19.3878 29.9592 19.3326 29.9633 19.2773 29.966C18.7465 30.0009 18.7048 30.2158 19.051 30.5745C19.4606 30.678 19.8701 30.7801 20.2756 30.8822C20.568 31.132 20.863 31.3833 21.1742 31.6479C21.1742 30.6753 21.1944 29.6758 21.158 28.6776C21.15 28.464 20.9627 28.2357 20.8118 28.0516C20.1867 27.2872 19.5602 26.5241 18.9311 25.7624L14.0596 22.9802L15.1805 24.4325L15.1818 24.4338Z" fill="white"/>
<path d="M20.2754 30.8836C19.8699 30.7829 19.4603 30.6794 19.0508 30.576C18.8568 30.4 18.6897 30.1582 18.4607 30.0655C18.1966 29.9594 17.88 29.9862 17.5864 29.9553C17.5715 30.1824 17.4557 30.4994 17.5621 30.619C17.8396 30.932 18.1886 31.206 18.5577 31.4062C18.9282 31.6091 19.3552 31.7112 19.7581 31.8536C19.7621 31.8536 19.7661 31.8536 19.7688 31.8536C19.8308 31.867 19.8928 31.8818 19.9534 31.8952L20.9315 31.8885C20.9436 31.8697 20.9544 31.8509 20.9665 31.8321C20.7348 31.515 20.5031 31.198 20.274 30.8823L20.2754 30.8836Z" fill="white"/>
<path d="M19.7846 31.8645H19.7818C19.7818 31.8645 19.7762 31.8617 19.7734 31.8604C19.7776 31.8604 19.7804 31.8631 19.7846 31.8645Z" fill="white"/>
<path d="M21.4277 31.8857L22.387 31.879C22.4179 31.1697 22.5217 30.459 22.2886 29.8397L21.5153 28.902C21.487 28.8832 21.4574 28.863 21.4277 28.8442V31.8857Z" fill="white"/>
<path d="M19.7833 31.8636L19.7705 31.855L19.7819 31.8621L19.7833 31.8636Z" fill="white"/>
<path d="M19.7738 31.8615C19.7738 31.8615 19.7645 31.8588 19.7592 31.8562C19.7579 31.8562 19.7552 31.8562 19.7539 31.8562C19.7605 31.8575 19.7672 31.8588 19.7738 31.8615Z" fill="white"/>
<path d="M19.0624 31.7032C18.1624 31.5823 17.4134 31.3056 17.245 30.2496C17.2288 30.1449 17.024 30.0683 16.7964 29.9568H16.6172L16.6334 31.4668L17.3649 31.9141C17.4646 31.9141 17.5656 31.9141 17.6653 31.9141H17.6842C18.374 31.9061 19.0637 31.8765 19.7535 31.8564C19.5218 31.8013 19.2941 31.7341 19.061 31.7032H19.0624Z" fill="white"/>
<path d="M19.7819 31.8631L19.7708 31.8562C19.7708 31.8562 19.7625 31.8562 19.7598 31.8562C19.7653 31.8576 19.7694 31.8589 19.775 31.8617C19.7777 31.8617 19.7805 31.8617 19.7832 31.8631H19.7819Z" fill="white"/>
<path d="M18.8462 28.7759L18.7344 29.0285C19.1992 29.324 19.664 29.6182 20.1247 29.9124C20.8239 30.0763 20.6824 29.4436 20.8684 29.1212C20.2271 28.7396 19.5521 28.6268 18.8448 28.7759H18.8462Z" fill="white"/>
<path d="M22.8134 31.8765L23.9586 31.8684L22.6693 30.302C22.4888 31.2787 22.4726 31.7247 22.8148 31.8765H22.8134Z" fill="white"/>
</g>
<defs>
<filter id="filter0_d_1_4470" x="0" y="0" width="79.5225" height="60.4023" filterUnits="userSpaceOnUse" color-interpolation-filters="sRGB">
<feFlood flood-opacity="0" result="BackgroundImageFix"/>
<feColorMatrix in="SourceAlpha" type="matrix" values="0 0 0 0 0 0 0 0 0 0 0 0 0 0 0 0 0 0 127 0" result="hardAlpha"/>
<feOffset dy="4"/>
<feGaussianBlur stdDeviation="2"/>
<feComposite in2="hardAlpha" operator="out"/>
<feColorMatrix type="matrix" values="0 0 0 0 0 0 0 0 0 0 0 0 0 0 0 0 0 0 0.25 0"/>
<feBlend mode="normal" in2="BackgroundImageFix" result="effect1_dropShadow_1_4470"/>
<feBlend mode="normal" in="SourceGraphic" in2="effect1_dropShadow_1_4470" result="shape"/>
</filter>
<clipPath id="clip0_1_4470">
<rect width="71.5223" height="52.4025" fill="white" transform="translate(4)"/>
</clipPath>
</defs>
</svg>
