<svg width="18" height="15" viewBox="0 0 18 15" fill="none" xmlns="http://www.w3.org/2000/svg">
<g id="Group 245">
<path id="Vector" d="M9.00293 7.49927V13.2459" stroke="#8A8A8A" stroke-width="2" stroke-linecap="round" stroke-linejoin="round"/>
<path id="Vector_2" d="M14.3598 11.5794C14.9826 11.2398 15.4746 10.7026 15.7581 10.0524C16.0416 9.40225 16.1006 8.67617 15.9256 7.98878C15.7507 7.30139 15.3518 6.69184 14.7919 6.25633C14.232 5.82082 13.5431 5.58415 12.8338 5.58369H12.0293C11.836 4.83614 11.4758 4.14213 10.9757 3.55383C10.4756 2.96554 9.84862 2.49827 9.14194 2.18716C8.43526 1.87605 7.66725 1.72919 6.89565 1.75761C6.12404 1.78604 5.36892 1.98902 4.68706 2.3513C4.00519 2.71357 3.41432 3.22571 2.95887 3.84921C2.50343 4.4727 2.19525 5.19134 2.05751 5.95109C1.91978 6.71083 1.95607 7.49191 2.16366 8.23561C2.37124 8.97932 2.74473 9.66628 3.25603 10.2449" stroke="#8A8A8A" stroke-width="2" stroke-linecap="round" stroke-linejoin="round"/>
<path id="Vector_3" d="M11.5574 10.0533L9.00329 7.49927L6.44922 10.0533" stroke="#8A8A8A" stroke-width="2" stroke-linecap="round" stroke-linejoin="round"/>
<path id="Vector_4" d="M11.0574 9.79919L8.50329 7.24512L5.94922 9.79919" stroke="#8A8A8A" stroke-width="2" stroke-linecap="round" stroke-linejoin="round"/>
</g>
</svg>
