<svg width="27" height="27" viewBox="0 0 27 27" fill="none" xmlns="http://www.w3.org/2000/svg">
<rect x="0.544922" y="0.541504" width="25" height="25" rx="12.5" fill="#FFD600"/>
<path d="M6.15448 10.9203C6.47604 10.9346 6.65345 11.1101 6.83456 11.2857C8.03949 12.4642 9.25181 13.632 10.442 14.8214C10.697 15.0757 10.83 15.0936 11.0999 14.8321C13.7943 12.1991 16.5036 9.58052 19.2091 6.95831C19.7857 6.39948 20.0481 6.40306 20.6284 6.95831C20.9795 7.29862 21.3307 7.63535 21.6781 7.97567C22.166 8.45569 22.1697 8.75302 21.6781 9.23304C18.858 11.9699 16.0341 14.7031 13.2103 17.44C12.6042 18.0275 12.0017 18.615 11.3955 19.1989C10.9187 19.6574 10.612 19.6574 10.1352 19.1953C8.20951 17.3182 6.28384 15.4411 4.36187 13.5604C3.93682 13.1449 3.94051 12.8189 4.36187 12.4033C4.77214 11.9985 5.18979 11.6009 5.60006 11.1961C5.76639 11.0349 5.94749 10.9239 6.15078 10.9203H6.15448Z" fill="white"/>
<rect x="0.544922" y="0.541504" width="25" height="25" rx="12.5" stroke="#FFD600"/>
</svg>
