<svg width="23" height="16" viewBox="0 0 23 16" fill="none" xmlns="http://www.w3.org/2000/svg">
<g clip-path="url(#clip0_1143_96648)">
<path d="M3.86754 4.80269C3.98621 4.89344 4.04904 4.94231 4.11885 4.98419C4.88674 5.50077 5.65462 6.01037 6.42251 6.51997C6.71571 6.71543 6.84834 6.99466 6.78551 7.33672C6.72269 7.67878 6.51326 7.92311 6.16422 7.96499C5.96876 7.98594 5.71745 7.95103 5.54991 7.84632C3.94433 6.7992 2.35271 5.73812 0.768063 4.66307C0.265445 4.32101 0.265445 3.66482 0.775044 3.32276C2.35969 2.26168 3.95829 1.2006 5.54991 0.146495C5.94782 -0.111795 6.42251 -0.00708293 6.67382 0.3629C6.91117 0.725901 6.8274 1.2006 6.44346 1.46587C5.68255 1.98943 4.90768 2.49204 4.13979 3.00862C4.063 3.05749 3.99319 3.11334 3.86056 3.20409C4.0281 3.20409 4.11885 3.20409 4.21658 3.20409C8.32129 3.20409 12.433 3.19711 16.5377 3.20409C19.7489 3.21805 22.4784 5.71718 22.8065 8.90042C23.1625 12.3629 20.8099 15.3926 17.3544 15.9301C17.0543 15.979 16.7401 15.9929 16.433 15.9929C12.4539 15.9929 8.46789 15.9929 4.48883 15.9929C3.85358 15.9929 3.44869 15.4694 3.65113 14.9179C3.76981 14.5968 4.01414 14.4292 4.34921 14.3943C4.43298 14.3873 4.51675 14.3943 4.60052 14.3943C8.50977 14.3943 12.412 14.3943 16.3213 14.3943C18.7297 14.3943 20.6564 12.8027 21.1171 10.4362C21.6337 7.79745 19.693 5.14475 17.0124 4.83759C16.796 4.80967 16.5796 4.79571 16.3632 4.79571C12.2864 4.79571 8.21658 4.79571 4.13979 4.79571C4.06998 4.79571 4.00017 4.79571 3.86056 4.79571L3.86754 4.80269Z" fill="white"/>
</g>
<defs>
<clipPath id="clip0_1143_96648">
<rect width="22.4503" height="16" fill="white" transform="translate(0.391113)"/>
</clipPath>
</defs>
</svg>
