<svg width="51" height="45" viewBox="0 0 51 45" fill="none" xmlns="http://www.w3.org/2000/svg">
<g clip-path="url(#clip0_2803_4930)">
<path d="M14.9164 30.084L11.7764 36.4304H45.7364" stroke="white" stroke-width="2" stroke-linecap="round" stroke-linejoin="round"/>
<path d="M20.6669 43.3888C22.5281 43.3888 24.0369 41.8242 24.0369 39.8941C24.0369 37.964 22.5281 36.3994 20.6669 36.3994C18.8057 36.3994 17.2969 37.964 17.2969 39.8941C17.2969 41.8242 18.8057 43.3888 20.6669 43.3888Z" stroke="white" stroke-width="2" stroke-linecap="round" stroke-linejoin="round"/>
<path d="M39.7264 43.3888C41.5876 43.3888 43.0964 41.8242 43.0964 39.8941C43.0964 37.964 41.5876 36.3994 39.7264 36.3994C37.8652 36.3994 36.3564 37.964 36.3564 39.8941C36.3564 41.8242 37.8652 43.3888 39.7264 43.3888Z" stroke="white" stroke-width="2" stroke-linecap="round" stroke-linejoin="round"/>
<path d="M39.6867 10.5782H49.8867L43.6467 30.0842H14.9167L9.16672 7.33237L1.88672 5.16504" stroke="white" stroke-width="2" stroke-linecap="round" stroke-linejoin="round"/>
<path d="M13.8672 10.5781H20.4772" stroke="white" stroke-width="2" stroke-linecap="round" stroke-linejoin="round"/>
<path d="M20.4765 10.5781C20.4565 10.8685 20.4365 11.1588 20.4365 11.4596C20.4365 16.9868 24.7565 21.4666 30.0865 21.4666C35.4165 21.4666 39.7365 16.9868 39.7365 11.4596C39.7365 11.1588 39.7165 10.8685 39.6965 10.5781" stroke="#FFD600" stroke-width="2" stroke-linecap="round" stroke-linejoin="round"/>
<path d="M39.6863 10.5781C39.2563 5.46572 35.1263 1.46289 30.0863 1.46289C25.0463 1.46289 20.9163 5.47609 20.4863 10.5781" stroke="#FFD600" stroke-width="2" stroke-linecap="round" stroke-linejoin="round"/>
<path d="M25.6465 11.418H34.5265" stroke="#FFD600" stroke-width="2" stroke-linecap="round" stroke-linejoin="round"/>
<path d="M30.0869 6.81348V16.0221" stroke="#FFD600" stroke-width="2" stroke-linecap="round" stroke-linejoin="round"/>
</g>
<defs>
<clipPath id="clip0_2803_4930">
<rect width="50" height="44" fill="white" transform="translate(0.886719 0.425781)"/>
</clipPath>
</defs>
</svg>
