<svg width="18" height="15" viewBox="0 0 18 15" fill="none" xmlns="http://www.w3.org/2000/svg">
<path d="M6.44864 10.6951L9.00169 13.2481M9.00169 13.2481L11.5547 10.6951M9.00169 13.2481L9.00168 7.50378M14.6695 11.3908C15.2244 11.0006 15.6405 10.4437 15.8575 9.80096C16.0744 9.15822 16.0809 8.46307 15.8761 7.81639C15.6712 7.16971 15.2655 6.60514 14.718 6.20461C14.1705 5.80408 13.5097 5.58844 12.8313 5.58897H12.0271C11.8351 4.84084 11.4759 4.14601 10.9766 3.55679C10.4772 2.96757 9.85069 2.4993 9.14418 2.18725C8.43766 1.8752 7.66956 1.72749 6.89769 1.75525C6.12583 1.78301 5.37032 1.98551 4.68805 2.3475C4.00577 2.7095 3.4145 3.22155 2.95876 3.84512C2.50302 4.46869 2.19467 5.18753 2.05694 5.94751C1.91921 6.70749 1.95568 7.48882 2.16361 8.23266C2.37153 8.97651 2.7455 9.6635 3.25735 10.2419" stroke="#8A8A8A" stroke-width="2" stroke-linecap="round" stroke-linejoin="round"/>
</svg>
