<svg width="20" height="20" viewBox="0 0 20 20" fill="none" xmlns="http://www.w3.org/2000/svg">
<path d="M9.54456 0.919922C4.2814 0.919922 0.0141602 2.25299 0.0141602 3.89817V5.68512L7.16196 12.8329V18.7894C7.16196 19.447 8.22817 19.9807 9.54456 19.9807C10.8609 19.9807 11.9272 19.447 11.9272 18.7894V12.8329L19.075 5.68512V3.89817C19.075 2.25299 14.8077 0.919922 9.54456 0.919922ZM1.77133 3.50385C2.21687 3.2501 2.8435 3.00827 3.5821 2.80575C5.21895 2.35782 7.33708 2.11122 9.54456 2.11122C11.752 2.11122 13.8702 2.35782 15.507 2.80575C16.2456 3.00827 16.8722 3.24891 17.3178 3.50385C17.612 3.67182 17.7705 3.81359 17.8443 3.89817C17.7705 3.98275 17.612 4.12452 17.3178 4.29249C16.8722 4.54624 16.2456 4.78807 15.507 4.99059C13.8702 5.43852 11.752 5.68512 9.54456 5.68512C7.33708 5.68512 5.21895 5.43852 3.5821 4.99059C2.8435 4.78807 2.21687 4.54743 1.77133 4.29249C1.47708 4.12452 1.31863 3.98275 1.24477 3.89817C1.31863 3.81359 1.47708 3.67182 1.77133 3.50385Z" fill="#525050"/>
</svg>
