<svg width="50" height="43" viewBox="0 0 50 43" fill="none" xmlns="http://www.w3.org/2000/svg">
<g id="_&#229;&#156;&#150;&#229;&#177;&#164;_1" clip-path="url(#clip0_1_4148)">
<path id="Vector" d="M14.0299 28.6L10.8899 34.72H44.8499" stroke="white" stroke-width="2" stroke-linecap="round" stroke-linejoin="round"/>
<path id="Vector_2" d="M19.7799 41.4299C21.6411 41.4299 23.1499 39.9211 23.1499 38.0599C23.1499 36.1987 21.6411 34.6899 19.7799 34.6899C17.9187 34.6899 16.4099 36.1987 16.4099 38.0599C16.4099 39.9211 17.9187 41.4299 19.7799 41.4299Z" stroke="white" stroke-width="2" stroke-linecap="round" stroke-linejoin="round"/>
<path id="Vector_3" d="M38.84 41.4299C40.7012 41.4299 42.21 39.9211 42.21 38.0599C42.21 36.1987 40.7012 34.6899 38.84 34.6899C36.9788 34.6899 35.47 36.1987 35.47 38.0599C35.47 39.9211 36.9788 41.4299 38.84 41.4299Z" stroke="white" stroke-width="2" stroke-linecap="round" stroke-linejoin="round"/>
<path id="Vector_4" d="M38.8 9.78995H49L42.76 28.5999H14.03L8.28 6.65995L1 4.56995" stroke="white" stroke-width="2" stroke-linecap="round" stroke-linejoin="round"/>
<path id="Vector_5" d="M12.98 9.79004H19.59" stroke="white" stroke-width="2" stroke-linecap="round" stroke-linejoin="round"/>
<path id="Vector_6" d="M19.59 9.79004C19.57 10.07 19.55 10.35 19.55 10.64C19.55 15.97 23.8701 20.29 29.2001 20.29C34.5301 20.29 38.85 15.97 38.85 10.64C38.85 10.35 38.8301 10.07 38.8101 9.79004" stroke="#FFD600" stroke-width="2" stroke-linecap="round" stroke-linejoin="round"/>
<path id="Vector_7" d="M38.8001 9.79C38.3701 4.86 34.2401 1 29.2001 1C24.1601 1 20.0301 4.87 19.6001 9.79" stroke="#FFD600" stroke-width="2" stroke-linecap="round" stroke-linejoin="round"/>
<path id="Vector_8" d="M24.76 10.6H33.64" stroke="#FFD600" stroke-width="2" stroke-linecap="round" stroke-linejoin="round"/>
<path id="Vector_9" d="M29.2 6.16003V15.04" stroke="#FFD600" stroke-width="2" stroke-linecap="round" stroke-linejoin="round"/>
</g>
<defs>
<clipPath id="clip0_1_4148">
<rect width="50" height="42.43" fill="white"/>
</clipPath>
</defs>
</svg>
