<svg width="30" height="30" viewBox="0 0 30 30" fill="none" xmlns="http://www.w3.org/2000/svg">
<g id="noun-dropdown-4916129 1">
<g id="Group">
<path id="Vector" d="M15 1.78599C16.3805 1.78599 17.7183 2.05602 18.9768 2.58858C20.1933 3.1032 21.2865 3.84013 22.2258 4.77896C23.1646 5.71779 23.9021 6.81099 24.4162 8.02792C24.9487 9.28651 25.2188 10.6248 25.2188 12.0048C25.2188 13.3847 24.9487 14.723 24.4162 15.9816C23.9016 17.198 23.1646 18.2912 22.2258 19.2306C21.287 20.1694 20.1938 20.9068 18.9768 21.421C17.7183 21.9535 16.38 22.2235 15 22.2235C13.62 22.2235 12.2817 21.9535 11.0232 21.421C9.80623 20.9063 8.71354 20.1694 7.7742 19.2306C6.83537 18.2917 6.09793 17.1985 5.58381 15.9816C5.05127 14.723 4.78123 13.3847 4.78123 12.0048C4.78123 10.6248 5.05126 9.28651 5.58381 8.02792C6.09844 6.8115 6.83537 5.7183 7.7742 4.77896C8.71303 3.84013 9.80623 3.10269 11.0232 2.58858C12.2817 2.05603 13.62 1.78599 15 1.78599ZM15 0.00476074C8.37257 0.00476074 3 5.37733 3 12.0048C3 18.6322 8.37257 24.0048 15 24.0048C21.6274 24.0048 27 18.6318 27 12.0048C27 5.37776 21.627 0.00476074 15 0.00476074Z" fill="white"/>
<path id="Vector_2" d="M14.9692 16.7872C14.7414 16.7872 14.5135 16.7005 14.3398 16.5261L8.30461 10.4918C7.95673 10.1439 7.95673 9.58008 8.30461 9.23217C8.65249 8.88429 9.21631 8.88429 9.56423 9.23217L14.9694 14.6373L20.4362 9.17046C20.7841 8.82258 21.3479 8.82258 21.6958 9.17046C22.0437 9.51834 22.0437 10.0822 21.6958 10.4301L15.5994 16.5265C15.4255 16.7004 15.1976 16.7877 14.9699 16.7877L14.9692 16.7872Z" fill="white"/>
</g>
</g>
</svg>
