<svg width="15" height="3" viewBox="0 0 15 3" fill="none" xmlns="http://www.w3.org/2000/svg">
<path id="Vector" d="M12.9869 0.32443C13.4006 0.32443 13.7054 0.399674 13.9013 0.55016C14.0755 0.713187 14.1626 0.970268 14.1626 1.3214L14.1626 1.67881C14.1626 2.0174 14.0755 2.26821 13.9013 2.43124C13.7054 2.59427 13.4006 2.67578 12.9869 2.67578L2.01395 2.67578C1.60028 2.67578 1.30637 2.59427 1.13219 2.43124C0.936245 2.26821 0.838272 2.0174 0.838272 1.67881L0.838272 1.3214C0.838272 0.970267 0.936245 0.713186 1.13219 0.550159C1.30637 0.399673 1.60028 0.324429 2.01395 0.324429L12.9869 0.32443Z" fill="#FFD600"/>
</svg>
