<svg width="15" height="15" viewBox="0 0 15 15" fill="none" xmlns="http://www.w3.org/2000/svg">
<path id="Vector" d="M7.29175 0.23617C7.60608 0.23617 7.83622 0.281074 7.98216 0.370883C8.11687 0.460692 8.18423 0.612243 8.18423 0.825539L8.18423 6.18037L13.5559 6.18037C13.7692 6.18037 13.9264 6.2365 14.0274 6.34877C14.1172 6.46103 14.1621 6.66871 14.1621 6.97181L14.1621 7.17388C14.1621 7.49944 14.1116 7.74641 14.0106 7.9148C13.9095 8.09442 13.758 8.18423 13.5559 8.18423L8.18423 8.18423L8.18423 13.5559C8.18423 13.758 8.11687 13.9095 7.98216 14.0106C7.83622 14.1116 7.60608 14.1621 7.29175 14.1621L7.08968 14.1621C6.4947 14.1621 6.19721 13.96 6.19721 13.5559L6.19721 8.18423L0.859214 8.18423C0.657145 8.18423 0.505593 8.11126 0.404558 7.96532C0.303523 7.83061 0.253006 7.60608 0.253006 7.29175L0.253006 7.08968C0.253006 6.48348 0.455076 6.18037 0.859214 6.18037L6.19721 6.18037L6.19721 0.825539C6.19721 0.612243 6.27018 0.460691 6.41612 0.370883C6.55083 0.281074 6.77535 0.23617 7.08968 0.23617L7.29175 0.23617Z" fill="#FFD600"/>
</svg>
