<svg width="51" height="51" viewBox="0 0 51 51" fill="none" xmlns="http://www.w3.org/2000/svg">
<circle cx="25.5" cy="25.5" r="25" fill="#D0FECC"/>
<path d="M40.0146 16.1514C36.9979 13.8654 32.3543 12.5 27.5921 12.5C21.7034 12.5 16.9045 14.5559 14.4284 18.1411C13.2653 19.8238 12.6218 21.8187 12.5155 24.0664C12.4213 26.0682 12.7578 28.2828 13.5146 30.6648C16.0989 22.9155 23.3181 16.849 31.6411 16.849C31.6411 16.849 23.8534 18.8979 18.9569 25.2469C18.9534 25.2504 18.8889 25.3306 18.7773 25.4841C17.7938 26.7989 16.9376 28.295 16.2959 29.9882C15.2096 32.5725 14.2034 36.1176 14.2034 40.3898H17.6909C17.6909 40.3898 17.1608 37.0592 18.0816 33.2299C19.6039 33.4356 20.9657 33.5385 22.1916 33.5385C25.3984 33.5385 27.6775 32.8445 29.3672 31.3553C30.8808 30.0214 31.7161 28.227 32.6001 26.3298C33.9498 23.4299 35.4791 20.1447 39.9205 17.6075C40.1751 17.4628 40.339 17.1994 40.3582 16.9065C40.3773 16.6135 40.2483 16.3328 40.0146 16.1549V16.1514Z" fill="#267020"/>
</svg>
