<svg width="21" height="21" viewBox="0 0 21 21" fill="none" xmlns="http://www.w3.org/2000/svg">
<path d="M19.491 7.84045H12.746V1.09537C12.746 0.756887 12.4713 0.482178 12.1328 0.482178H8.45364C8.11516 0.482178 7.84045 0.756887 7.84045 1.09537V7.84045H1.09537C0.756887 7.84045 0.482178 8.11516 0.482178 8.45364V12.1328C0.482178 12.4713 0.756887 12.746 1.09537 12.746H7.84045V19.491C7.84045 19.8295 8.11516 20.1042 8.45364 20.1042H12.1328C12.4713 20.1042 12.746 19.8295 12.746 19.491V12.746H19.491C19.8295 12.746 20.1042 12.4713 20.1042 12.1328V8.45364C20.1042 8.11516 19.8295 7.84045 19.491 7.84045Z" fill="#6F874C"/>
</svg>
