<svg width="21" height="21" viewBox="0 0 21 21" fill="none" xmlns="http://www.w3.org/2000/svg">
<path d="M20.314 17.8192L15.5829 13.7969C15.0936 13.3563 14.5706 13.1554 14.1486 13.1741C15.2659 11.8662 15.94 10.1702 15.94 8.31564C15.94 4.17977 12.587 0.827637 8.45008 0.827637C4.31317 0.827637 0.960205 4.17977 0.960205 8.31564C0.960205 12.4515 4.31317 15.8036 8.45008 15.8036C10.3051 15.8036 12.0015 15.1297 13.3098 14.0128C13.2898 14.4346 13.492 14.9575 13.9327 15.4467L17.956 20.1766C18.6451 20.9417 19.7698 21.0066 20.4564 20.3202C21.1429 19.6338 21.078 18.5081 20.3128 17.8204L20.314 17.8192ZM8.45008 13.3064C5.69256 13.3064 3.45683 11.0712 3.45683 8.31439C3.45683 5.55756 5.69256 3.32239 8.45008 3.32239C11.2076 3.32239 13.4433 5.55756 13.4433 8.31439C13.4433 11.0712 11.2076 13.3064 8.45008 13.3064Z" fill="#525050"/>
</svg>
