<svg width="167" height="64" viewBox="0 0 167 64" fill="none" xmlns="http://www.w3.org/2000/svg">
<g clip-path="url(#clip0_1_7117)">
<path d="M22.5951 42.6901C20.7021 43.0408 19.1347 42.9668 17.604 42.8136C15.3303 38.6056 13.1779 38.1703 9.08725 38.9289C7.52207 39.2194 6.27238 40.1054 6.14573 41.8727C6.01062 43.7644 7.36855 44.4826 8.88844 44.8974C12.1247 45.781 15.4493 46.3941 18.615 47.4722C23.6866 49.1984 25.3616 54.9541 22.2458 59.3207C21.307 60.6359 20.1195 61.7117 18.6065 62.298C13.9402 64.1066 9.24999 64.1531 4.7356 61.9092C1.76568 60.4331 0.120664 57.981 0.251927 54.4684C2.03588 53.8074 3.6855 54.078 5.29136 54.1833C7.94964 58.4294 10.0414 59.4221 14.3577 58.5308C16.5808 58.0718 17.845 56.8762 17.8804 55.1905C17.9226 53.1463 16.4157 52.5135 14.8459 52.0858C12.2913 51.3904 9.68139 50.8902 7.13058 50.1819C2.4243 48.8751 0.482981 46.5717 0.512151 42.5223C0.542088 38.3998 3.22569 35.0991 7.60114 34.1697C11.4937 33.3424 15.3618 33.4316 18.8583 35.6885C21.3109 37.2713 22.711 39.458 22.5943 42.6916L22.5951 42.6901Z" fill="white"/>
<path d="M158.109 62.5184C156.494 62.9987 155.019 62.8089 153.736 62.7174C152.915 62.3095 153.182 61.47 152.694 61.1284C152.351 60.9515 152.158 61.1368 151.96 61.2992C147.562 64.9117 141.854 63.9525 139.243 58.9227C136.895 54.4021 137.099 49.7061 139.687 45.3327C142.188 41.1065 147.272 40.2083 151.394 42.9958C151.676 43.1864 151.901 43.4906 152.527 43.3671C153.064 40.6406 152.378 37.754 152.908 34.9009C154.587 34.2574 156.223 34.6104 158.108 34.6256V62.5184H158.109ZM143.519 52.9206C143.566 53.3354 143.582 54.2244 143.781 55.0708C144.352 57.5015 145.758 58.7259 147.929 58.7946C150.227 58.867 151.85 57.6578 152.5 55.2141C153.028 53.2287 153.032 51.2105 152.277 49.2616C151.519 47.3037 149.951 46.192 148.076 46.1943C146.155 46.1966 144.751 47.293 143.984 49.3531C143.608 50.3611 143.542 51.4041 143.519 52.9206H143.519Z" fill="white"/>
<path d="M96.5707 34.9374C98.8843 34.3793 99.3019 34.3816 101.628 34.9908V62.3575C100.093 63.1679 98.5166 62.7166 97.161 62.7349C96.2675 62.3758 96.6037 61.5294 96.0756 61.0872C95.8691 61.1703 95.5981 61.2176 95.407 61.3663C90.6915 65.0329 84.8944 63.7749 82.438 58.3668C80.5059 54.1138 80.7285 49.7397 82.9631 45.6605C85.5185 40.9959 90.7698 40.1961 95.8438 43.6019C96.6858 42.2196 96.1186 40.7229 96.2652 39.3276C96.4195 37.8637 96.0111 36.3525 96.5707 34.9382V34.9374ZM96.3703 52.3526C96.4241 51.4308 96.2015 50.31 95.7831 49.2403C95.0385 47.3334 93.4158 46.1996 91.5436 46.211C89.6015 46.2232 88.1936 47.2968 87.4675 49.3828C86.6876 51.626 86.7313 53.8782 87.6095 56.081C88.2873 57.7805 89.5316 58.7572 91.4461 58.8022C93.3221 58.8464 94.6777 58.0374 95.5306 56.4088C96.1531 55.2194 96.3942 53.9293 96.3696 52.3526H96.3703Z" fill="white"/>
<path d="M76.0492 10.2151V1.61011C77.8592 0.722614 79.4912 1.02073 81.355 1.26853V28.7564C80.5827 29.3832 79.7568 29.1743 78.9838 29.2131C78.2814 29.2482 77.5752 29.2208 77.4815 29.2208C75.99 28.8815 76.5688 27.766 75.6884 27.3695C74.5492 28.3317 73.387 29.387 71.7413 29.6889C67.5324 30.462 63.745 28.5582 62.0815 24.5103C60.425 20.4785 60.6184 16.3765 62.5313 12.4918C64.8511 7.78215 70.259 6.48522 74.6682 9.39779C74.9492 9.58306 75.247 9.74165 76.0492 10.2151ZM66.7471 18.9795C66.708 20.1377 66.9337 21.2592 67.3313 22.3335C68.006 24.1566 69.2987 25.2324 71.3091 25.2568C73.2842 25.2804 74.7097 24.3479 75.465 22.5508C76.5036 20.079 76.4775 17.569 75.323 15.1451C74.5385 13.4982 73.1621 12.6725 71.2792 12.6847C69.3417 12.6969 68.145 13.7064 67.4357 15.3853C66.9528 16.5282 66.7103 17.7314 66.7479 18.9803L66.7471 18.9795Z" fill="white"/>
<path d="M26.3287 9.32604C24.4488 10.0145 22.7109 9.71641 20.8356 9.60357C19.6227 6.9632 17.6699 5.28047 14.5902 5.12874C10.9478 4.9488 7.93184 7.01657 6.81956 10.6458C6.06115 13.12 5.94524 15.6612 6.41502 18.2063C7.31698 23.0951 10.8642 25.5518 15.8391 24.7672C16.3565 24.6856 16.8685 24.5713 17.4726 24.4546C18.1957 25.936 17.8242 27.3893 17.7666 28.7708C12.7356 31.5401 5.79939 29.4799 2.41955 24.3013C-0.862032 19.276 -0.702366 10.6687 2.76268 5.75166C6.92856 -0.161147 16.335 -1.72493 22.182 2.55318C24.4649 4.22371 26.0132 6.36086 26.3287 9.32604Z" fill="white"/>
<path d="M28.9876 18.7362C29.0061 12.0274 33.2234 7.65702 39.7152 7.6189C46.2683 7.58002 50.6054 12.0838 50.5709 18.891C50.5371 25.6006 46.3321 29.9465 39.8272 29.993C33.2349 30.0403 28.9677 25.6097 28.9869 18.7362H28.9876ZM44.8152 18.5326C44.707 17.8967 44.6241 16.9292 44.37 16.0074C43.7137 13.6209 42.1101 12.3423 39.8503 12.2927C37.4944 12.2416 35.8133 13.5706 35.0726 16.0463C34.7133 17.2456 34.7218 18.4747 34.7847 19.6977C34.9613 23.1188 36.7268 25.2064 39.5087 25.3451C42.4226 25.49 44.3347 23.4992 44.7262 19.9073C44.7638 19.5597 44.7723 19.2082 44.8152 18.5326Z" fill="white"/>
<path d="M123.475 62.5276C121.5 63.0056 119.761 62.78 117.954 62.7312C117.584 62.1616 117.22 61.6005 116.777 60.9211C115.003 62.2592 113.226 63.3625 110.987 63.4463C107.169 63.5889 104.47 61.7346 103.927 58.5011C103.303 54.7826 105.077 51.9318 108.815 50.9185C110.424 50.4824 112.126 50.4 113.767 50.0646C115.185 49.7748 117.153 49.7596 116.857 47.6545C116.584 45.7117 114.715 45.9397 113.226 45.8581C111.327 45.7537 110.391 47.0048 109.633 48.4665C107.998 48.7371 106.446 48.7394 104.906 48.5038C104.766 45.3031 106.109 43.1583 109.009 42.1435C112.487 40.9266 115.965 41.121 119.349 42.5758C121.445 43.4762 122.409 45.1589 122.438 47.3723C122.476 50.2681 122.446 53.1647 122.471 56.0605C122.489 58.2197 122.208 60.4171 123.475 62.5299V62.5276ZM116.742 53.0198C114.852 53.4567 113.124 53.7807 111.444 54.2672C109.856 54.727 109.164 55.8958 109.513 57.5137C109.891 59.2635 111.242 59.5815 112.775 59.4206C115.918 59.0912 117.254 57.0418 116.743 53.0198H116.742Z" fill="white"/>
<path d="M57.811 62.5588C55.6194 62.9683 53.9529 62.7586 52.5167 62.7792C51.5395 62.4048 51.6439 61.4617 50.9392 61.0271C50.5378 61.2848 50.0826 61.544 49.6634 61.8513C47.8672 63.1688 45.8476 63.6202 43.6553 63.3998C40.7038 63.1032 38.6227 61.2794 38.123 58.572C37.5365 55.3941 38.8822 52.6172 41.6848 51.376C43.6476 50.5068 45.7823 50.3878 47.8764 50.063C49.2904 49.8434 51.1112 49.848 51.0889 47.7154C51.0751 46.3987 49.4516 45.7567 47.2186 45.8459C45.4446 45.9168 44.5572 47.0102 43.8725 48.4398C42.2444 48.7691 40.693 48.6975 39.1493 48.5312C38.8684 45.2931 40.4527 42.9463 43.6061 41.9841C46.5599 41.0829 49.5383 41.1568 52.466 42.145C55.4674 43.1583 56.5674 44.6252 56.6319 47.7962C56.6933 50.7774 56.6396 53.7601 56.6565 56.7421C56.6672 58.6475 56.4147 60.5925 57.811 62.5581V62.5588ZM50.798 53.1143C49.4362 53.3873 48.0706 53.6549 46.7081 53.9378C46.3657 54.0087 46.0226 54.1017 45.6971 54.2283C44.0045 54.8863 43.2477 56.184 43.7274 57.6929C44.264 59.3817 45.6173 59.602 47.1188 59.3924C50.2699 58.9517 51.574 56.765 50.7972 53.1143H50.798Z" fill="white"/>
<path d="M60.1424 42.2166C61.7905 41.7256 63.1875 41.8903 64.4272 41.9909C65.5065 42.3554 65.0321 43.4952 65.7621 44.093C68.1886 41.4152 71.1524 40.8449 74.4616 41.814C76.9855 42.5528 78.7388 44.2104 78.8247 46.8523C78.9929 52.0118 78.8739 57.1797 78.8739 62.3827C77.1406 63.0742 75.5155 62.8333 73.945 62.6495C73.1405 61.6027 73.4314 60.5124 73.4145 59.4937C73.3608 56.1603 73.423 52.8238 73.3255 49.4919C73.2718 47.6605 72.4642 46.2782 70.4055 46.0136C68.4027 45.7559 66.7501 46.7219 65.9847 48.5914C65.5034 49.7656 65.5418 50.997 65.5403 52.2245C65.5349 55.6243 65.5387 59.0233 65.5387 62.51C63.5982 62.9362 61.9801 62.9309 60.1416 62.5413V42.2158L60.1424 42.2166Z" fill="white"/>
<path d="M27.5108 46.6747C26.4998 45.7544 25.5257 46.2241 24.8786 45.528C24.5224 44.5703 24.5316 43.5609 24.8732 42.5994C25.5265 41.9185 26.4937 42.3257 27.2628 41.6418C27.9099 40.1634 27.1231 38.3144 27.804 36.6675C29.4176 36.0278 30.9697 36.3847 32.5111 36.4152C33.5566 38.1558 32.6231 40.0284 33.2733 41.6067C34.0716 42.4179 35.2208 41.8713 36.0936 42.4957C36.6117 43.4328 36.4405 44.4583 36.2432 45.4617C35.4779 46.3186 34.3211 45.7064 33.1252 46.5321C32.9824 50.3208 32.9778 54.3762 33.1697 58.1427C34.1952 59.1621 35.3551 58.7375 36.1811 59.4137C36.5142 60.4896 36.5595 61.5875 36.1312 62.6603C35.286 63.1681 34.3787 63.0956 33.5151 63.117C28.8902 63.2321 27.5215 61.8871 27.5123 57.2735C27.5054 53.687 27.5108 50.1004 27.5108 46.674V46.6747Z" fill="white"/>
<path d="M53.0889 1.23331C54.9726 0.931379 56.5317 0.817774 58.2864 1.32252V28.783C56.0289 29.3571 55.6366 29.3632 53.0889 28.8523V1.23331Z" fill="white"/>
<path d="M130.804 62.5192C128.802 62.9408 127.241 62.8684 125.423 62.6206V42.1907C126.966 41.6798 128.505 41.8392 129.945 42.0374C130.689 42.7686 130.203 43.6805 130.732 44.5451C132.516 42.9539 134.134 40.9105 137.072 41.615C137.609 43.2322 137.421 44.8615 137.242 46.3849C136.891 46.9034 136.45 46.9224 136.009 46.9667C132.006 47.3616 130.897 48.4748 130.817 52.4007C130.751 55.7135 130.804 59.0287 130.804 62.5184L130.804 62.5192Z" fill="white"/>
<path d="M21.3253 19.395C19.0754 18.6082 16.8025 19.3783 14.6063 18.7736C14.0068 17.4919 14.1918 16.2187 14.4551 14.6899H26.0101C26.661 18.4366 26.2688 22.2054 26.2166 25.9201C24.6215 26.6162 23.3518 26.3814 22.0254 26.2274C21.2355 23.9705 22.0714 21.7091 21.3261 19.395H21.3253Z" fill="white"/>
<path d="M166.342 37.6214C166.179 37.2433 165.945 36.9032 165.648 36.612C165.352 36.3207 165.007 36.0927 164.622 35.9334C164.224 35.7687 163.801 35.6848 163.367 35.6848C162.932 35.6848 162.509 35.7687 162.112 35.9334C161.727 36.0927 161.382 36.3215 161.086 36.612C160.788 36.9032 160.555 37.2433 160.392 37.6214C160.223 38.0141 160.137 38.4304 160.137 38.8597C160.137 39.2889 160.223 39.706 160.392 40.0979C160.555 40.4761 160.788 40.8161 161.086 41.1074C161.382 41.3986 161.727 41.6266 162.112 41.7859C162.509 41.9506 162.932 42.0345 163.367 42.0345C163.801 42.0345 164.224 41.9506 164.622 41.7859C165.007 41.6266 165.352 41.3979 165.648 41.1074C165.945 40.8161 166.179 40.4761 166.342 40.0979C166.511 39.7052 166.597 39.2889 166.597 38.8597C166.597 38.4304 166.511 38.0133 166.342 37.6214ZM163.366 41.3818C161.944 41.3818 160.788 40.2504 160.788 38.8597C160.788 37.4689 161.944 36.3375 163.366 36.3375C164.788 36.3375 165.945 37.4689 165.945 38.8597C165.945 40.2504 164.788 41.3818 163.366 41.3818Z" fill="white"/>
<path d="M164.607 39.4032C164.507 39.192 164.372 39.0219 164.203 38.8946C164.588 38.701 164.784 38.3998 164.784 37.998C164.784 37.6655 164.634 37.4002 164.339 37.2081C164.052 37.022 163.662 36.9275 163.181 36.9275C162.863 36.9275 162.499 36.9603 162.099 37.0258L162.044 37.035V40.6666H162.698V39.1142H163.298C163.546 39.1142 163.744 39.2316 163.904 39.4733C164.07 39.7226 164.19 40.1054 164.264 40.6109L164.273 40.6666H164.93L164.917 40.5903C164.828 40.0474 164.724 39.6479 164.609 39.4024L164.607 39.4032ZM163.272 38.5934H162.697V37.4879C162.829 37.4765 162.991 37.4711 163.181 37.4711C163.83 37.4711 164.147 37.6533 164.147 38.0285C164.147 38.4036 163.861 38.5934 163.272 38.5934Z" fill="white"/>
</g>
<defs>
<clipPath id="clip0_1_7117">
<rect width="166.539" height="63.5" fill="white" transform="translate(0.0576172 0.124756)"/>
</clipPath>
</defs>
</svg>
