<svg width="259" height="64" viewBox="0 0 259 64" fill="none" xmlns="http://www.w3.org/2000/svg">
<path d="M35.4457 43.0204C35.998 42.0608 36.5242 41.1514 37.0473 40.2398C40.4125 34.3676 43.7769 28.4953 47.1413 22.6223C50.9021 16.0574 54.6621 9.4918 58.4229 2.92693C58.7685 2.32408 59.1296 1.72973 59.4583 1.11836C59.6634 0.736837 59.9384 0.561939 60.3778 0.563487C63.3981 0.574321 66.4184 0.560391 69.4387 0.574321C70.3328 0.578191 70.6008 1.07735 70.1407 1.91546C69.262 3.51741 68.3456 5.09845 67.4438 6.68801C63.6354 13.4038 59.8262 20.1196 56.0178 26.8353C52.5651 32.9243 49.1146 39.0147 45.6619 45.1037C42.5394 50.6106 39.4162 56.1168 36.293 61.6238C36.2292 61.736 36.1762 61.8536 36.1056 61.9612C35.6892 62.5981 35.0386 62.5966 34.6384 61.9357C34.199 61.2098 33.7935 60.4622 33.3702 59.7262C30.1095 54.0614 26.848 48.3966 23.5865 42.7317C22.4051 40.6801 21.223 38.6286 20.0485 36.5731C19.5208 35.6491 19.5669 35.5624 20.6407 35.5655C23.6349 35.5748 26.6245 35.3852 29.6187 35.3806C30.4375 35.379 30.8607 35.677 31.2502 36.3456C32.4162 38.3461 33.6375 40.3141 34.8443 42.2906C34.9887 42.5266 35.0955 42.7998 35.4457 43.0196V43.0204Z" fill="white"/>
<path d="M27.992 0.604546C36.8455 0.604546 45.6997 0.610737 54.5532 0.599129C56.0395 0.597581 55.7162 0.825103 55.1984 1.73132C54.0885 3.67455 52.9916 5.62629 51.9185 7.59041C51.6604 8.06325 51.3317 8.27065 50.8124 8.2219C50.6096 8.20332 50.403 8.21958 50.1987 8.21958C35.2032 8.21958 20.2085 8.21958 5.21301 8.21958C5.00792 8.21958 4.80206 8.201 4.59927 8.22267C4.01472 8.28381 3.66215 8.02688 3.37487 7.5107C2.37399 5.71064 1.33241 3.93612 0.30695 2.15077C0.217847 1.99522 0.115685 1.84121 0.0573072 1.67328C-0.110146 1.19115 0.0957138 0.774801 0.591927 0.667231C0.912238 0.597581 1.25252 0.606868 1.58359 0.606094C10.3864 0.602998 19.1892 0.603772 27.992 0.603772V0.604546Z" fill="white"/>
<path d="M27.7765 12.2258C34.5069 12.2258 41.2373 12.2235 47.9676 12.2327C48.3333 12.2327 48.8295 12.0509 49.0277 12.4479C49.192 12.7768 48.8241 13.1041 48.6528 13.4121C47.6396 15.2339 46.6203 17.0509 45.6025 18.8696C45.5019 19.0491 45.3882 19.2225 45.3007 19.4082C45.0664 19.9089 44.6877 20.1449 44.1346 20.0985C43.9564 20.0838 43.7767 20.0977 43.5977 20.0977C33.0543 20.0977 22.511 20.0854 11.9676 20.1186C10.999 20.1217 10.429 19.8315 9.96505 18.9671C8.90733 16.9952 7.74976 15.0775 6.63366 13.1374C6.54379 12.9811 6.45161 12.8255 6.37864 12.6615C6.28416 12.4487 6.37096 12.2962 6.59141 12.2683C6.86948 12.2335 7.15215 12.2273 7.43252 12.2273C14.2144 12.225 20.9954 12.2258 27.7773 12.2258H27.7765Z" fill="white"/>
<path d="M27.8222 24.1081C32.3772 24.1081 36.9322 24.1066 41.4865 24.1128C41.7837 24.1128 42.1786 23.9766 42.3522 24.256C42.5565 24.5841 42.2116 24.8704 42.0564 25.1506C41.0333 26.9955 40.0001 28.835 38.9685 30.6753C38.8303 30.9222 38.679 31.1613 38.5399 31.4082C38.3717 31.7077 38.1113 31.8385 37.781 31.847C37.5506 31.8532 37.3209 31.8578 37.0905 31.8578C30.9231 31.8578 24.7566 31.8578 18.5892 31.8578C18.4609 31.8578 18.3327 31.8485 18.2052 31.8578C17.659 31.9012 17.3141 31.669 17.0376 31.1776C15.8647 29.092 14.6549 27.028 13.4589 24.9555C13.3821 24.8217 13.3014 24.6893 13.2361 24.55C13.124 24.3094 13.18 24.143 13.4658 24.1236C13.6955 24.1074 13.9259 24.1089 14.1563 24.1089C18.7114 24.1089 23.2664 24.1089 27.8206 24.1089L27.8222 24.1081Z" fill="white"/>
<path d="M186.616 0.588379C188.779 0.621656 191.282 1.72135 193.078 4.24963C193.769 5.2224 193.759 5.25181 192.759 5.87943C192.303 6.16577 191.856 6.46759 191.396 6.74464C190.888 7.04877 190.655 6.9977 190.279 6.53414C190.183 6.41419 190.103 6.28108 190.008 6.15958C188.575 4.32315 186.695 3.71642 184.478 4.2357C182.324 4.74027 181.015 6.18899 180.525 8.31794C180.003 10.5862 180.377 12.6811 182.098 14.3813C184.199 16.4569 188.349 16.4623 190.204 13.6554C190.275 13.5479 190.342 13.438 190.425 13.3389C190.726 12.9736 190.952 12.9001 191.356 13.1431C192.037 13.5525 192.692 14.0045 193.356 14.4409C193.718 14.6793 193.587 14.9478 193.41 15.2342C192.548 16.6248 191.401 17.7168 189.939 18.4241C186.549 20.0647 181.711 19.6461 178.805 16.4995C176.876 14.41 176.175 11.8894 176.38 9.09106C176.507 7.3622 177.04 5.7618 178.058 4.34482C179.825 1.88773 182.494 0.584509 186.617 0.589153L186.616 0.588379Z" fill="white"/>
<path d="M87.412 44.4351C85.1468 44.3933 83.069 43.4391 81.6049 41.2853C81.1848 40.667 81.1978 40.6268 81.8093 40.1918C82.2901 39.8498 82.7663 39.5008 83.2564 39.1734C83.8248 38.7934 84.0814 38.8329 84.4762 39.387C84.8388 39.8954 85.2336 40.3629 85.772 40.6848C86.7514 41.2699 87.7853 41.3906 88.8691 41.0245C90.2579 40.5556 90.8118 38.7787 89.5466 37.6891C88.7946 37.0414 87.9144 36.6358 87.0256 36.2373C85.9502 35.7559 84.868 35.2916 83.9132 34.5765C82.2993 33.3677 81.6733 31.7565 81.9682 29.7707C82.171 28.4048 82.9261 27.3987 84.0568 26.6744C86.501 25.108 90.7442 25.2156 93.0109 27.8321C93.7552 28.6911 93.7675 28.7329 92.8558 29.4109C92.444 29.7173 92.0346 30.0269 91.6129 30.3186C91.1305 30.6529 90.8778 30.6367 90.4914 30.177C89.9061 29.4805 89.2156 29.0154 88.3 28.8745C87.7454 28.7894 87.2261 28.849 86.7215 29.0518C85.5616 29.5169 85.3365 30.9478 86.3067 31.7341C86.8459 32.1713 87.4596 32.4956 88.0895 32.7881C89.1111 33.2617 90.1542 33.6935 91.1198 34.284C92.07 34.8652 92.9341 35.5362 93.4856 36.5438C94.4896 38.3755 94.2722 41.502 91.8188 43.2038C90.5744 44.0667 89.1872 44.4327 87.412 44.4351Z" fill="white"/>
<path d="M89.3511 13.6837C90.2997 10.9008 91.3367 8.18522 92.293 5.44102C92.7247 4.20126 93.1887 2.97233 93.605 1.72715C93.7701 1.23186 94.049 1.03142 94.5636 1.04535C95.4838 1.07089 96.4056 1.04071 97.3258 1.05774C97.9242 1.06934 98.0072 1.19394 97.7836 1.76661C97.1092 3.49315 96.4171 5.21273 95.7335 6.93462C94.2617 10.6431 92.7908 14.3515 91.3183 18.06C91.233 18.2751 91.1431 18.4887 91.0502 18.7008C90.948 18.936 90.7683 19.0622 90.5109 19.0629C89.7436 19.066 88.9762 19.0653 88.2096 19.0668C87.9162 19.0668 87.7342 18.9151 87.6289 18.6497C87.5529 18.4585 87.4668 18.2713 87.3908 18.0801C85.2823 12.7689 83.1738 7.45777 81.0668 2.14659C80.6535 1.10572 80.685 1.05619 81.765 1.05232C82.4809 1.04922 83.1976 1.04845 83.9135 1.05232C84.8176 1.05774 84.8337 1.06006 85.1394 1.89585C85.9083 3.99927 86.6695 6.10579 87.4261 8.21385C88.0767 10.0278 88.7865 11.8217 89.3526 13.6837H89.3511Z" fill="white"/>
<path d="M163.227 17.6748C162.883 17.7398 162.769 17.9619 162.601 18.1097C160.285 20.152 156.368 19.7395 155.018 16.483C153.926 13.8518 153.968 11.2338 155.732 8.85483C157.42 6.57806 160.801 6.4465 162.638 8.36187C162.777 8.50658 162.886 8.69464 163.115 8.7581C163.314 8.57314 163.227 8.33014 163.227 8.11422C163.228 5.87073 163.223 3.62724 163.22 1.38374C163.22 1.2545 163.227 1.12604 163.227 0.996801C163.23 0.657839 163.389 0.452759 163.733 0.449664C164.552 0.441925 165.371 0.441151 166.189 0.451986C166.499 0.455855 166.643 0.656291 166.656 0.955785C166.665 1.16164 166.669 1.36827 166.669 1.57412C166.669 6.96346 166.67 12.3536 166.669 17.7429C166.669 18.8859 166.666 18.8867 165.503 18.889C165.043 18.8898 164.582 18.8968 164.122 18.8859C163.396 18.8697 163.348 18.8186 163.274 18.102C163.26 17.9766 163.247 17.8512 163.227 17.674V17.6748ZM157.847 13.1561C157.884 13.5662 157.884 13.8263 157.933 14.077C158.136 15.1326 158.632 15.9413 159.745 16.2292C161.218 16.6099 162.604 15.8593 163.079 14.4005C163.36 13.5399 163.333 12.6732 163.026 11.8289C162.581 10.6085 161.503 9.9491 160.198 10.0629C159.029 10.1642 158.198 10.9583 157.95 12.2375C157.883 12.5881 157.869 12.9502 157.847 13.1561Z" fill="white"/>
<path d="M176.024 33.8946C176.196 33.5509 176.138 33.2901 176.139 33.0394C176.144 30.8988 176.142 28.759 176.143 26.6185C176.143 26.4382 176.149 26.2579 176.149 26.0768C176.151 25.7417 176.298 25.5265 176.646 25.5227C177.465 25.5149 178.284 25.5141 179.103 25.525C179.406 25.5289 179.567 25.7099 179.578 26.0172C179.584 26.1975 179.589 26.3778 179.589 26.5581C179.589 31.9985 179.589 37.4397 179.589 42.8801C179.589 43.0094 179.593 43.1386 179.585 43.2671C179.553 43.8444 179.478 43.9357 178.901 43.9535C178.262 43.9736 177.621 43.9736 176.981 43.9535C176.371 43.9349 176.312 43.8576 176.28 43.2067C176.272 43.0287 176.279 42.8507 176.279 42.6155C175.884 42.672 175.745 42.9792 175.538 43.1688C173.815 44.7475 171.15 44.8621 169.317 43.4234C168.739 42.9699 168.29 42.4034 168.005 41.7332C166.968 39.2978 166.915 36.8701 168.239 34.5214C169.549 32.1982 172.46 31.4251 174.701 32.7469C175.192 33.0363 175.55 33.4805 176.023 33.8938L176.024 33.8946ZM170.781 38.2562C170.807 38.5642 170.811 38.8761 170.862 39.1794C171.078 40.437 171.835 41.2364 173.009 41.3734C173.957 41.484 175.255 41.1784 175.828 39.9223C176.386 38.6973 176.361 37.4544 175.633 36.299C175.038 35.3556 174.125 35.0244 173.043 35.1475C172.018 35.2643 171.388 35.8819 171.011 36.8106C170.823 37.2749 170.798 37.7632 170.781 38.2562Z" fill="white"/>
<path d="M139.126 42.7176C138.837 42.7308 138.718 42.9916 138.539 43.1556C136.862 44.7019 134.291 44.8582 132.442 43.5263C131.777 43.0465 131.293 42.4081 130.973 41.6729C129.934 39.2885 129.949 36.9011 131.188 34.5965C132.461 32.2261 135.441 31.4112 137.688 32.7469C138.177 33.0371 138.543 33.472 138.965 33.8535C139.213 33.6492 139.125 33.4031 139.125 33.1896C139.128 30.9979 139.121 28.8055 139.118 26.6139C139.118 26.4335 139.125 26.2532 139.125 26.0721C139.126 25.7347 139.278 25.525 139.626 25.5219C140.444 25.5142 141.263 25.5142 142.082 25.5242C142.38 25.5281 142.556 25.6945 142.568 26.0064C142.577 26.2122 142.582 26.4188 142.582 26.6247C142.582 32.014 142.583 37.4034 142.582 42.7935C142.582 43.5699 142.202 43.9595 141.441 43.962C140.929 43.9636 140.416 43.976 139.905 43.9535C139.371 43.9303 139.312 43.8514 139.255 43.3112C139.234 43.1154 139.316 42.8948 139.126 42.7176ZM136.431 35.125C135.261 35.1188 134.421 35.6938 134.021 36.8028C133.696 37.7036 133.683 38.6261 133.946 39.5408C134.269 40.6661 135.065 41.3571 136.143 41.392C137.351 41.4314 138.361 40.9671 138.85 39.8682C139.338 38.7708 139.321 37.6541 138.784 36.5792C138.306 35.6211 137.506 35.1336 136.431 35.125Z" fill="white"/>
<path d="M221.991 17.6268C221.797 17.8358 221.872 18.0532 221.851 18.2506C221.796 18.7629 221.739 18.8565 221.264 18.8735C220.548 18.8991 219.83 18.8998 219.114 18.8735C218.638 18.8557 218.567 18.7513 218.53 18.2467C218.517 18.0671 218.524 17.8861 218.524 17.705C218.524 12.3396 218.524 6.97505 218.524 1.6097C218.524 0.828079 218.902 0.435719 219.658 0.432623C220.17 0.431075 220.683 0.423337 221.194 0.436493C221.864 0.453518 221.944 0.537872 221.972 1.19413C221.979 1.37444 221.975 1.55553 221.975 1.73585C221.975 3.82534 221.973 5.91483 221.977 8.00354C221.977 8.24964 221.926 8.50889 222.055 8.74647C222.371 8.68766 222.498 8.43924 222.671 8.26666C224.506 6.43952 228.607 6.38148 230.065 9.67436C231.252 12.3574 231.206 15.0714 229.411 17.5216C227.773 19.7573 224.566 19.9694 222.559 18.0726C222.395 17.917 222.27 17.7065 221.992 17.6268H221.991ZM227.312 13.2691C227.31 12.7923 227.289 12.41 227.193 12.0301C226.928 10.99 226.348 10.2648 225.252 10.093C224.093 9.91117 223.088 10.2199 222.461 11.2693C221.717 12.5153 221.703 13.8278 222.421 15.0916C222.959 16.0365 223.865 16.3925 224.903 16.3066C225.994 16.2152 226.757 15.6217 227.11 14.5506C227.256 14.1064 227.329 13.6498 227.311 13.2698L227.312 13.2691Z" fill="white"/>
<path d="M238.392 7.05532C241.26 7.05996 243.421 8.44831 244.41 10.8373C245.805 14.2083 243.926 18.1103 240.426 19.066C238.07 19.7091 235.883 19.3353 234.049 17.6715C232.285 16.0719 231.719 14.0094 232.265 11.6979C232.786 9.49306 234.204 8.06911 236.329 7.35094C237.04 7.11026 237.774 7.029 238.392 7.05454V7.05532ZM241.322 13.121C241.316 13.0258 241.315 12.7929 241.286 12.5638C241.11 11.191 240.077 10.1795 238.757 10.0766C237.3 9.96358 236.122 10.7653 235.737 12.1521C235.562 12.7828 235.561 13.4321 235.701 14.0652C235.966 15.2724 236.996 16.1523 238.185 16.239C240.011 16.3721 241.292 15.154 241.321 13.1218L241.322 13.121Z" fill="white"/>
<path d="M104.584 13.7968C103.484 13.7968 102.384 13.7914 101.284 13.7984C100.461 13.8038 100.296 14.0437 100.547 14.8408C101.15 16.7515 103.654 17.332 105.013 15.7726C105.652 15.0389 106.164 15.0235 106.901 15.4088C107.24 15.5861 107.62 15.6797 107.97 15.8368C108.498 16.0744 108.544 16.2075 108.217 16.7105C107.66 17.568 106.949 18.2862 106.01 18.6886C103.551 19.7434 101.169 19.6405 98.9666 18.006C97.8674 17.1903 97.2306 16.0326 96.9933 14.7023C96.5985 12.4944 96.8973 10.425 98.5434 8.75034C99.5934 7.68161 100.887 7.11435 102.387 7.06404C103.257 7.03464 104.121 7.04083 104.965 7.33645C107.237 8.13201 108.422 9.78735 108.756 12.1307C108.796 12.4108 108.802 12.6956 108.815 12.9788C108.847 13.663 108.743 13.7837 108.038 13.7907C106.887 13.8023 105.735 13.7938 104.584 13.7938V13.7953V13.7968ZM102.866 11.8668V11.8699C103.479 11.8699 104.091 11.8823 104.702 11.866C105.294 11.8505 105.362 11.7344 105.17 11.1548C104.841 10.1619 103.961 9.5784 102.858 9.62328C101.773 9.66739 100.842 10.3995 100.592 11.3792C100.504 11.7236 100.617 11.866 100.953 11.866C101.591 11.866 102.228 11.866 102.866 11.866L102.866 11.8668Z" fill="white"/>
<path d="M148.734 13.7974C147.556 13.7974 146.379 13.7889 145.201 13.8013C144.677 13.8067 144.636 13.8732 144.689 14.4018C144.874 16.287 147.133 17.3 148.737 16.2173C149.08 15.9852 149.373 15.6996 149.617 15.363C149.804 15.106 150.048 14.9985 150.354 15.1169C151.023 15.3754 151.691 15.6385 152.357 15.9055C152.738 16.0579 152.667 16.3218 152.504 16.5935C151.914 17.5693 151.116 18.3324 150.072 18.765C147.967 19.6371 145.88 19.6039 143.858 18.4771C142.985 17.9903 142.297 17.3023 141.837 16.4108C140.829 14.4575 140.767 12.4284 141.633 10.4395C142.586 8.2471 144.373 7.17991 146.723 7.06306C147.568 7.02127 148.403 7.07157 149.226 7.34088C151.905 8.21615 153.14 10.8342 153.021 13.1752C152.996 13.6798 152.899 13.7788 152.344 13.7866C151.141 13.8028 149.937 13.7912 148.734 13.7912V13.7959L148.734 13.7974ZM147.064 11.8666V11.8689C147.702 11.8689 148.34 11.8813 148.977 11.865C149.495 11.8519 149.549 11.7598 149.417 11.2498C149.166 10.2739 148.251 9.61146 147.172 9.62229C146.044 9.6339 145.052 10.3598 144.812 11.3504C144.718 11.7404 144.785 11.8464 145.228 11.8611C145.839 11.8813 146.452 11.8666 147.064 11.8666H147.064Z" fill="white"/>
<path d="M250.226 8.78275C250.454 8.7309 250.541 8.55678 250.661 8.42986C251.893 7.11967 253.421 6.81553 255.101 7.17152C256.679 7.50584 257.546 8.59005 257.889 10.127C258.001 10.6277 258.059 11.1423 258.057 11.6616C258.052 13.7248 258.056 15.788 258.055 17.8511C258.055 17.9804 258.058 18.1096 258.045 18.2373C257.993 18.7488 257.896 18.8618 257.375 18.8773C256.659 18.899 255.94 18.899 255.225 18.8781C254.671 18.8618 254.576 18.7481 254.535 18.1769C254.52 17.9719 254.527 17.7645 254.526 17.5578C254.526 16.0364 254.527 14.5149 254.525 12.9927C254.525 12.6576 254.522 12.3217 254.499 11.9874C254.425 10.9427 254.037 10.3731 253.26 10.1448C252.395 9.89095 251.409 10.2222 250.865 10.9705C250.394 11.619 250.22 12.3627 250.222 13.1568C250.223 14.6527 250.222 16.1486 250.22 17.6445C250.218 18.8804 250.212 18.8858 248.976 18.8874C248.413 18.8874 247.849 18.9013 247.287 18.8765C246.807 18.8556 246.72 18.7512 246.678 18.2698C246.665 18.1158 246.671 17.9603 246.671 17.8055C246.671 14.7362 246.671 11.667 246.671 8.59857C246.671 8.46933 246.668 8.34009 246.676 8.21162C246.714 7.63044 246.789 7.53989 247.363 7.52441C248.028 7.50661 248.694 7.50816 249.359 7.52209C250.039 7.53602 250.07 7.58013 250.12 8.28592C250.131 8.43682 250.096 8.59624 250.226 8.78043V8.78275Z" fill="white"/>
<path d="M120.587 33.8465C120.854 33.7939 120.965 33.5354 121.141 33.3667C122.536 32.0341 124.167 31.8383 125.922 32.3986C126.929 32.7197 127.611 33.4395 127.999 34.4347C128.264 35.1149 128.392 35.8222 128.393 36.5505C128.398 38.6655 128.396 40.7805 128.395 42.8948C128.395 43.0496 128.388 43.2043 128.383 43.3583C128.368 43.7724 128.148 43.9581 127.744 43.9566C127.053 43.9542 126.362 43.9713 125.671 43.9566C124.984 43.9426 124.881 43.8436 124.874 43.1254C124.858 41.6295 124.869 40.1336 124.866 38.6376C124.865 38.1222 124.873 37.6053 124.842 37.0906C124.777 36.0041 124.366 35.4198 123.554 35.2078C122.678 34.9779 121.71 35.3324 121.179 36.09C120.735 36.7238 120.566 37.4435 120.565 38.2089C120.562 39.7048 120.563 41.2007 120.561 42.6967C120.559 43.5366 120.152 43.9581 119.338 43.9612C118.852 43.962 118.365 43.9689 117.878 43.9581C117.147 43.9411 117.062 43.8474 117.034 43.0906C117.03 42.9876 117.032 42.8839 117.032 42.781C117.032 39.7636 117.03 36.7455 117.032 33.7281C117.033 32.6029 117.043 32.5959 118.131 32.592C118.617 32.5905 119.104 32.5866 119.591 32.5936C120.385 32.606 120.405 32.6307 120.462 33.4062C120.473 33.5524 120.416 33.7211 120.587 33.845V33.8465Z" fill="white"/>
<path d="M109.777 32.1503C110.288 32.1379 110.797 32.148 111.3 32.2718C112.905 32.6665 113.908 33.7855 114.14 35.4362C114.266 36.3331 114.265 37.2332 114.263 38.1347C114.26 39.1655 114.251 40.1964 114.273 41.2264C114.284 41.7813 114.365 41.8324 114.906 41.8378C115.401 41.8424 115.461 41.8935 115.502 42.4043C115.521 42.6349 115.513 42.8678 115.511 43.0992C115.502 44.0093 115.381 44.161 114.466 44.26C114.01 44.3096 113.547 44.2918 113.087 44.2995C112.404 44.3103 111.852 44.0433 111.408 43.5179C111.027 43.0675 111.009 43.0667 110.516 43.4343C109.457 44.2221 108.262 44.5232 106.971 44.4094C106.028 44.3266 105.179 43.9961 104.581 43.1936C103.836 42.193 103.808 40.16 105.196 39.0889C105.962 38.4992 106.831 38.1293 107.747 37.8763C108.486 37.6719 109.24 37.5241 109.989 37.3562C110.696 37.1976 110.777 37.09 110.709 36.3587C110.624 35.4362 110.105 34.9657 109.182 35.0098C108.26 35.0539 107.534 35.5159 106.915 36.1691C106.373 36.7394 106.368 36.7456 105.713 36.3076C105.415 36.1079 105.117 35.909 104.826 35.6978C104.229 35.2628 104.204 35.17 104.644 34.6019C105.773 33.1424 107.269 32.3438 109.088 32.1534C109.315 32.1294 109.548 32.1503 109.778 32.1503H109.777ZM110.729 40.3465C110.729 40.0501 110.742 39.8179 110.725 39.5881C110.693 39.157 110.63 39.099 110.192 39.1841C109.565 39.3056 108.95 39.479 108.372 39.7622C108.021 39.934 107.723 40.1755 107.535 40.5276C107.21 41.1382 107.433 41.8563 108.05 42.063C108.81 42.3176 109.495 42.0413 110.163 41.6768C110.743 41.3603 110.767 40.8402 110.729 40.3473V40.3465Z" fill="white"/>
<path d="M205.078 13.3239C205.078 14.3671 205.066 15.2184 205.082 16.0689C205.093 16.7166 205.142 16.7723 205.784 16.7352C206.169 16.7127 206.3 16.8861 206.309 17.2196C206.319 17.6321 206.31 18.0446 206.314 18.4571C206.317 18.7867 206.169 18.9895 205.846 19.0677C204.987 19.2766 204.123 19.3153 203.261 19.1149C202.855 19.0205 202.522 18.7798 202.247 18.4532C201.861 17.9951 201.85 17.9958 201.349 18.3611C200.332 19.1017 199.19 19.4144 197.949 19.3416C197.225 19.2991 196.532 19.1195 195.951 18.6405C194.549 17.4858 194.538 15.2787 195.931 14.0978C196.486 13.6265 197.121 13.3014 197.802 13.0546C198.818 12.6862 199.867 12.4579 200.922 12.2466C201.62 12.1073 201.674 12.0122 201.56 11.3064C201.383 10.2036 200.76 9.75396 199.664 9.96136C198.906 10.1045 198.299 10.5162 197.778 11.0788C197.251 11.6469 197.198 11.6484 196.56 11.2259C196.239 11.0138 195.92 10.7972 195.608 10.5727C195.055 10.1757 195.036 10.0983 195.469 9.53495C196.613 8.04676 198.125 7.22335 199.985 7.07476C200.468 7.03607 200.958 7.04923 201.443 7.08173C203.268 7.204 204.548 8.32846 204.94 10.1208C205.185 11.2452 205.017 12.3844 205.077 13.3231L205.078 13.3239ZM201.622 15.1626C201.622 14.8778 201.619 14.6712 201.622 14.4654C201.628 14.1303 201.486 13.9964 201.146 14.0707C200.393 14.2348 199.653 14.429 198.98 14.8245C198.583 15.0574 198.309 15.3809 198.236 15.8475C198.157 16.3513 198.404 16.8358 198.849 16.9635C199.638 17.1887 200.35 16.9759 201.044 16.561C201.642 16.2035 201.659 15.6664 201.622 15.1626Z" fill="white"/>
<path d="M154.568 38.5116C154.568 39.3621 154.557 40.2134 154.571 41.0639C154.583 41.7859 154.632 41.8393 155.36 41.8161C155.698 41.8052 155.836 41.9623 155.866 42.2526C155.894 42.5335 155.894 42.819 155.892 43.1015C155.884 44.0023 155.779 44.1346 154.919 44.2546C154.334 44.3359 153.743 44.3335 153.156 44.2778C152.601 44.2252 152.131 43.9892 151.772 43.5395C151.391 43.062 151.375 43.0551 150.893 43.4196C149.621 44.38 148.201 44.6261 146.675 44.2956C145.62 44.0673 144.828 43.4544 144.573 42.3787C144.309 41.2597 144.411 40.1739 145.325 39.3079C145.977 38.6904 146.771 38.3437 147.587 38.0372C148.405 37.73 149.26 37.5636 150.116 37.4042C151.04 37.2316 151.082 37.2014 151.108 36.7069C151.149 35.9051 150.808 35.31 150.182 35.0972C149.833 34.978 149.478 34.9904 149.121 35.0608C148.387 35.2056 147.813 35.6157 147.303 36.1458C146.731 36.7409 146.686 36.7402 146.029 36.2766C145.694 36.0398 145.348 35.8169 145.023 35.567C144.639 35.2721 144.61 35.1351 144.898 34.7343C145.383 34.0587 145.993 33.5131 146.697 33.0727C148.213 32.1247 149.867 31.915 151.574 32.2679C153.428 32.6502 154.467 33.9588 154.542 35.8858C154.576 36.7611 154.548 37.6387 154.548 38.5147C154.554 38.5147 154.561 38.5147 154.568 38.5147L154.568 38.5116ZM151.112 40.2861C151.112 40.0005 151.105 39.7947 151.113 39.5888C151.129 39.1934 150.928 39.0951 150.581 39.1694C149.878 39.3195 149.191 39.5184 148.558 39.8698C148.31 40.0075 148.094 40.1925 147.946 40.4424C147.521 41.1583 147.835 41.9631 148.638 42.1264C149.419 42.2858 150.081 41.9569 150.717 41.5344C151.232 41.1931 151.086 40.68 151.112 40.2861H151.112Z" fill="white"/>
<path d="M129.903 18.8881C129.596 18.8881 129.288 18.8967 128.982 18.8866C128.31 18.8634 128.225 18.7899 128.215 18.1251C128.201 17.1717 128.211 16.2182 128.211 15.264C128.211 13.8726 128.215 12.4804 128.208 11.0889C128.205 10.2787 128.175 10.2547 127.402 10.2384C126.611 10.2214 126.215 9.82492 126.214 9.04897C126.214 8.73942 126.202 8.42909 126.224 8.12185C126.258 7.63276 126.334 7.56388 126.836 7.52828C127.065 7.51203 127.297 7.52828 127.527 7.51822C128.129 7.49423 128.192 7.44238 128.205 6.85268C128.221 6.18327 128.215 5.51231 128.213 4.84213C128.211 4.11545 128.325 3.40348 128.513 2.70543C128.88 1.33256 129.738 0.484382 131.146 0.216617C132.072 0.0401714 132.978 0.137681 133.882 0.357464C134.187 0.431757 134.409 0.591952 134.39 0.934009C134.353 1.62818 134.305 2.32158 134.239 3.01344C134.212 3.299 134.009 3.3849 133.737 3.34544C133.435 3.30132 133.13 3.23941 132.826 3.24173C132.287 3.24638 132.002 3.45068 131.86 3.95448C131.567 4.98917 131.677 6.05171 131.7 7.10574C131.706 7.38666 131.911 7.50275 132.17 7.50894C132.605 7.51977 133.041 7.50739 133.475 7.52983C134.007 7.55692 134.083 7.63508 134.108 8.18299C134.127 8.62024 134.125 9.0598 134.111 9.49705C134.092 10.1401 134.022 10.2082 133.404 10.2346C133.098 10.2477 132.79 10.2346 132.483 10.24C131.713 10.2531 131.683 10.281 131.676 11.0913C131.67 11.8125 131.675 12.5345 131.675 13.2566C131.675 14.8291 131.679 16.4009 131.673 17.9734C131.669 18.8239 131.607 18.8773 130.746 18.8912C130.465 18.8959 130.183 18.8912 129.902 18.8912V18.8897L129.903 18.8881Z" fill="white"/>
<path d="M99.998 30.3953C99.998 30.9107 99.9849 31.4269 100.002 31.9415C100.019 32.4972 100.088 32.5699 100.626 32.587C101.213 32.6055 101.802 32.5808 102.391 32.6017C102.913 32.6195 103.01 32.7139 103.036 33.2479C103.06 33.7362 103.061 34.2284 103.033 34.7159C103.005 35.2081 102.909 35.2994 102.426 35.3188C101.864 35.3412 101.301 35.3188 100.738 35.3312C100.079 35.3451 100.008 35.4 100.002 36.0222C99.9895 37.2852 100 38.5482 100.003 39.8112C100.003 39.9141 100.011 40.0178 100.023 40.12C100.139 41.0625 100.662 41.4804 101.604 41.3744C101.781 41.3543 101.954 41.3017 102.13 41.2622C102.812 41.1098 102.91 41.1508 102.985 41.8186C103.049 42.3797 103.041 42.9493 103.055 43.5158C103.063 43.8431 102.887 44.0443 102.579 44.1318C101.108 44.5473 99.6385 44.6247 98.2374 43.919C97.1021 43.3463 96.5898 42.3248 96.5621 41.0788C96.5275 39.5334 96.5491 37.9864 96.546 36.4394C96.546 36.2335 96.5421 36.0269 96.5345 35.821C96.5229 35.5107 96.357 35.3497 96.0513 35.3404C95.7448 35.3304 95.4376 35.3234 95.1311 35.3219C94.7585 35.3195 94.5581 35.1485 94.5588 34.7616C94.5596 34.2462 94.5389 33.73 94.5611 33.2153C94.5826 32.7185 94.671 32.6427 95.1549 32.6017C95.3331 32.5862 95.5128 32.597 95.6918 32.5931C96.4968 32.5753 96.5368 32.5351 96.546 31.6916C96.5514 31.2017 96.5598 30.7118 96.546 30.2227C96.536 29.8528 96.6589 29.5742 96.983 29.3869C97.626 29.0147 98.2628 28.6316 98.9095 28.2656C99.0386 28.1928 99.1976 28.1541 99.3466 28.1402C99.786 28.0992 99.9611 28.2354 99.9826 28.6951C100.009 29.2608 99.9887 29.8288 99.9887 30.3961C99.9926 30.3961 99.9964 30.3961 100 30.3961L99.998 30.3953Z" fill="white"/>
<path d="M114.024 9.02211C114.358 8.64755 114.573 8.39449 114.801 8.15381C115.551 7.35981 116.463 6.98989 117.559 7.05644C118.719 7.12687 119.707 7.92784 120.009 9.0639C120.079 9.32625 120.039 9.51972 119.8 9.65438C119.087 10.0583 118.371 10.4608 117.658 10.8655C117.363 11.0327 117.152 10.9468 116.92 10.7053C116.249 10.0034 115.615 10.0429 114.99 10.7951C114.582 11.2873 114.409 11.8832 114.31 12.4969C114.207 13.1322 114.147 13.773 114.156 14.4207C114.173 15.5553 114.163 16.6898 114.16 17.8243C114.157 18.8698 114.141 18.8837 113.07 18.8891C112.712 18.8907 112.353 18.8891 111.995 18.8891C111.14 18.8881 110.712 18.4687 110.711 17.6308C110.71 14.9493 110.711 12.2678 110.711 9.58628C110.711 9.17379 110.704 8.76131 110.714 8.34883C110.732 7.61287 110.8 7.53858 111.498 7.5231C112.061 7.51072 112.624 7.51149 113.187 7.5231C113.874 7.53703 113.932 7.59971 113.973 8.26835C113.985 8.46879 114 8.66845 114.023 9.02134L114.024 9.02211Z" fill="white"/>
<path d="M160.772 34.0285C161.047 33.7267 161.278 33.4659 161.518 33.2128C162.293 32.3948 163.248 32.0682 164.362 32.1371C165.489 32.2068 166.356 33.0727 166.718 34.174C166.807 34.4456 166.702 34.6221 166.476 34.7505C165.761 35.1529 165.047 35.5554 164.331 35.9547C164.071 36.1002 163.869 36.0359 163.653 35.8193C162.91 35.0732 162.265 35.1251 161.625 35.9555C161.252 36.4391 161.089 37.0072 161.004 37.5992C160.913 38.2369 160.853 38.8761 160.861 39.5238C160.875 40.7605 160.873 41.998 160.858 43.2354C160.852 43.8367 160.762 43.9358 160.208 43.9536C159.492 43.976 158.775 43.976 158.059 43.9536C157.535 43.9373 157.458 43.8375 157.42 43.2989C157.41 43.1449 157.415 42.9901 157.415 42.8353C157.415 39.7939 157.414 36.7526 157.416 33.7112C157.416 33.4798 157.423 33.2476 157.446 33.017C157.468 32.7833 157.606 32.6247 157.84 32.6208C158.633 32.6076 159.426 32.6045 160.218 32.6138C160.536 32.6177 160.64 32.8421 160.669 33.1315C160.697 33.404 160.625 33.6895 160.772 34.0293L160.772 34.0285Z" fill="white"/>
<path d="M211.254 8.81755C211.523 8.77808 211.604 8.53276 211.751 8.36482C212.603 7.38509 213.657 6.92849 214.957 7.07166C215.986 7.18465 216.959 8.05527 217.17 9.05513C217.225 9.31516 217.179 9.52256 216.95 9.65412C216.218 10.0751 215.484 10.493 214.743 10.8985C214.47 11.0479 214.274 10.9008 214.078 10.6934C213.445 10.0248 212.719 10.0581 212.149 10.7941C211.573 11.5385 211.411 12.4331 211.391 13.3425C211.36 14.8105 211.379 16.2793 211.375 17.7474C211.373 18.5068 210.984 18.8873 210.208 18.8889C209.722 18.8897 209.236 18.8966 208.751 18.8858C208.002 18.8688 207.94 18.8014 207.928 18.0214C207.92 17.5323 207.926 17.0424 207.926 16.5533C207.926 13.9515 207.926 11.3497 207.926 8.7479C207.926 8.54204 207.918 8.33464 207.934 8.12956C207.974 7.64202 208.05 7.54915 208.542 7.53135C209.18 7.50813 209.821 7.50891 210.459 7.5298C210.991 7.54683 211.04 7.62267 211.1 8.17754C211.123 8.39501 211.021 8.64807 211.254 8.81832V8.81755Z" fill="white"/>
<path d="M135.622 13.1268C135.622 11.5566 135.615 9.98712 135.625 8.4169C135.629 7.59426 135.699 7.53081 136.494 7.52152C137.159 7.51455 137.823 7.50836 138.487 7.52694C139.014 7.54241 139.097 7.63683 139.141 8.16539C139.157 8.34416 139.15 8.52525 139.15 8.70556C139.15 11.6912 139.15 14.6769 139.15 17.6617C139.15 17.8421 139.156 18.0231 139.14 18.2019C139.094 18.7576 138.998 18.8636 138.43 18.8806C137.766 18.9007 137.102 18.8976 136.437 18.8837C135.742 18.869 135.636 18.7738 135.628 18.0673C135.612 16.6007 135.622 15.1335 135.621 13.6662C135.621 13.4859 135.621 13.3055 135.622 13.126V13.1268Z" fill="white"/>
<path d="M124.761 13.2202C124.761 14.7672 124.764 16.3142 124.76 17.8612C124.758 18.8595 124.732 18.8819 123.71 18.8889C123.249 18.892 122.789 18.892 122.328 18.8889C121.34 18.8819 121.316 18.8571 121.311 17.8263C121.308 17.2335 121.311 16.64 121.311 16.0472C121.311 13.5978 121.311 11.1485 121.312 8.69913C121.312 8.46696 121.314 8.23479 121.331 8.0034C121.352 7.69849 121.523 7.53443 121.828 7.53288C122.621 7.52824 123.414 7.53056 124.207 7.52979C124.597 7.52979 124.754 7.74647 124.754 8.11562C124.754 8.32147 124.761 8.5281 124.761 8.73395C124.761 10.2291 124.761 11.725 124.761 13.2202Z" fill="white"/>
<path d="M109.469 59.5318C109.469 58.5265 109.461 57.5205 109.472 56.5152C109.48 55.7924 109.563 55.7034 110.263 55.6933C111.184 55.6802 112.111 55.6345 113.025 55.708C115.292 55.8907 115.864 58.0707 115.042 59.3995C114.848 59.7129 114.592 59.9652 114.278 60.147C113.961 60.3312 113.946 60.5371 114.12 60.8443C114.464 61.4472 114.783 62.0655 115.099 62.6846C115.384 63.2441 115.276 63.4353 114.67 63.4748C114.492 63.4864 114.31 63.4616 114.133 63.4833C113.595 63.549 113.28 63.3045 113.06 62.8185C112.785 62.2094 112.459 61.6228 112.142 61.0339C112.025 60.8172 111.928 60.4984 111.599 60.6013C111.28 60.7011 111.376 61.0277 111.368 61.2707C111.352 61.7598 111.376 62.2512 111.353 62.7396C111.326 63.3393 111.206 63.4453 110.61 63.4763C110.457 63.484 110.302 63.4848 110.15 63.4763C109.584 63.4446 109.483 63.3618 109.474 62.7806C109.458 61.6979 109.47 60.6152 109.47 59.5326H109.468L109.469 59.5318ZM112.316 57.4369C112.102 57.447 111.926 57.4501 111.749 57.464C111.585 57.4771 111.47 57.5599 111.406 57.7194C111.125 58.4174 111.445 58.9274 112.178 58.9367C112.406 58.9398 112.637 58.9475 112.86 58.9112C113.268 58.8446 113.484 58.5675 113.476 58.1705C113.466 57.7774 113.243 57.5615 112.884 57.4849C112.688 57.4431 112.482 57.4493 112.317 57.4369H112.316Z" fill="white"/>
<path d="M117.594 59.5599C117.594 58.5283 117.584 57.4967 117.597 56.4659C117.606 55.8096 117.708 55.7059 118.365 55.6951C119.286 55.6804 120.21 55.6587 121.129 55.7036C122.596 55.7756 123.615 56.9442 123.507 58.3758C123.454 59.0932 123.095 59.6303 122.53 60.0505C122.006 60.4398 122.012 60.446 122.326 61.0334C122.642 61.6231 122.974 62.2058 123.265 62.8079C123.481 63.256 123.373 63.42 122.897 63.4734C122.847 63.4788 122.795 63.4727 122.744 63.4796C121.884 63.6081 121.272 63.355 120.961 62.455C120.769 61.9001 120.447 61.3901 120.176 60.8639C120.092 60.7006 119.979 60.5481 119.761 60.5899C119.536 60.6325 119.502 60.8236 119.498 61.0055C119.485 61.5465 119.496 62.0889 119.479 62.6299C119.456 63.369 119.349 63.4657 118.614 63.4804C118.486 63.4827 118.357 63.4858 118.23 63.4757C117.715 63.4355 117.612 63.3512 117.601 62.8102C117.581 61.8568 117.593 60.9026 117.592 59.9484C117.592 59.8191 117.592 59.6907 117.592 59.5614H117.594V59.5599ZM120.503 58.9385C120.576 58.9338 120.784 58.9416 120.982 58.9036C121.378 58.8286 121.593 58.5825 121.605 58.235C121.619 57.8581 121.385 57.537 120.981 57.4812C120.63 57.4325 120.269 57.4549 119.912 57.4619C119.676 57.4665 119.556 57.6097 119.504 57.8419C119.326 58.6336 119.561 58.9346 120.503 58.9392V58.9385Z" fill="white"/>
<path d="M102.111 59.5931C102.111 58.5886 102.102 57.5841 102.114 56.5796C102.123 55.8243 102.231 55.7036 102.943 55.6943C104.093 55.6796 105.244 55.6873 106.395 55.6927C106.672 55.6943 107.005 55.661 107.123 55.9884C107.273 56.4055 107.298 56.8512 107.087 57.2606C106.98 57.468 106.74 57.4541 106.537 57.4564C105.898 57.4626 105.258 57.4502 104.619 57.468C104.106 57.4827 104.01 57.588 104.012 58.0415C104.013 58.4942 104.112 58.6002 104.618 58.6219C105.052 58.6405 105.487 58.6165 105.921 58.6358C106.516 58.6621 106.61 58.772 106.632 59.3865C106.636 59.4894 106.636 59.5931 106.63 59.6953C106.6 60.2757 106.521 60.3693 105.956 60.3941C105.471 60.415 104.985 60.4072 104.499 60.408C104.076 60.408 104.005 60.6766 104.006 61.0263C104.007 61.5487 104.078 61.6787 104.517 61.6965C105.156 61.7228 105.795 61.705 106.435 61.7128C106.716 61.7159 107.046 61.6958 107.14 62.0386C107.255 62.4596 107.309 62.903 107.049 63.3039C106.958 63.4447 106.789 63.4656 106.636 63.4656C105.332 63.4703 104.028 63.4842 102.724 63.4633C102.254 63.4556 102.131 63.3031 102.12 62.7599C102.1 61.7043 102.114 60.6479 102.114 59.5916H102.109L102.111 59.5931Z" fill="white"/>
<path d="M131.322 63.4795C130.821 63.5701 130.411 63.3642 130.197 62.7846C130.099 62.5176 129.885 62.3876 129.597 62.3884C128.957 62.3899 128.317 62.3922 127.678 62.3868C127.353 62.3845 127.159 62.5532 127.027 62.8349C126.907 63.0903 126.793 63.3774 126.476 63.4339C126.047 63.5097 125.609 63.5213 125.181 63.4223C125.007 63.382 124.946 63.2218 124.983 63.0562C125.022 62.8821 125.083 62.7095 125.157 62.547C126.139 60.4188 127.124 58.293 128.111 56.1671C128.175 56.0286 128.244 55.8808 128.349 55.7755C128.584 55.5387 128.872 55.6254 129.068 56.0162C129.357 56.5912 129.616 57.1809 129.887 57.7652C130.6 59.3075 131.313 60.8507 132.026 62.3938C132.037 62.417 132.05 62.4394 132.061 62.4627C132.462 63.348 132.376 63.4795 131.322 63.4788L131.322 63.4795ZM128.558 59.4298C128.408 59.751 128.276 60.0226 128.155 60.2989C128.1 60.4258 128.106 60.5775 128.257 60.6146C128.526 60.6819 128.837 60.7531 129.062 60.5651C129.258 60.4003 129.046 60.189 128.971 60.0133C128.893 59.8299 128.842 59.6225 128.559 59.4298H128.558Z" fill="white"/>
<path d="M169.4 63.4749C168.966 63.4749 168.53 63.4919 168.097 63.4702C167.593 63.4447 167.487 63.3263 167.432 62.8178C167.422 62.7157 167.422 62.612 167.422 62.509C167.422 60.5527 167.415 58.5963 167.425 56.6391C167.429 55.8049 167.538 55.702 168.351 55.6911C169.016 55.6826 169.681 55.6679 170.344 55.6965C172.197 55.7762 173.81 57.1909 174.044 58.9159C174.311 60.8916 173.296 62.6414 171.524 63.2876C170.828 63.5414 170.112 63.4625 169.4 63.4741V63.4749ZM169.834 56.9711C169.729 56.9711 169.551 56.9734 169.373 56.9711C168.996 56.9657 168.807 57.1522 168.807 57.5322C168.807 58.9438 168.807 60.3561 168.807 61.7677C168.807 62.1608 169.016 62.3125 169.387 62.3086C169.95 62.3032 170.51 62.2521 171.045 62.0764C171.708 61.859 172.172 61.4016 172.458 60.7562C173.255 58.9654 172.044 56.8024 169.834 56.9711Z" fill="white"/>
<path d="M194.091 63.4733C193.682 63.4733 193.271 63.4926 192.864 63.4679C192.391 63.4393 192.306 63.3355 192.262 62.8519C192.253 62.7497 192.256 62.646 192.256 62.5431C192.256 60.5596 192.251 58.5762 192.258 56.5927C192.261 55.7809 192.341 55.7027 193.132 55.6911C193.797 55.6811 194.463 55.671 195.126 55.695C196.998 55.7615 198.561 57.187 198.863 59.0807C199.137 60.808 197.999 62.6592 196.295 63.2845C195.574 63.5484 194.83 63.4609 194.093 63.4741L194.091 63.4733ZM193.556 59.6472H193.557C193.557 60.3174 193.545 60.9884 193.561 61.6585C193.575 62.2181 193.649 62.28 194.182 62.3078C194.595 62.3295 195 62.2653 195.401 62.1832C196.726 61.9147 197.567 60.8073 197.485 59.4406C197.401 58.0282 196.418 57.0415 195.017 56.9703C194.787 56.9587 194.556 56.9603 194.326 56.9657C193.636 56.9835 193.572 57.0384 193.559 57.7125C193.547 58.3571 193.556 59.0018 193.556 59.6464L193.556 59.6472Z" fill="white"/>
<path d="M159.688 58.2222C159.414 58.6649 159.488 58.928 159.485 59.1764C159.475 60.3883 159.491 61.6002 159.472 62.8121C159.464 63.3693 159.22 63.5435 158.692 63.463C158.425 63.422 158.273 63.2788 158.241 63.018C158.216 62.8145 158.206 62.6071 158.205 62.4012C158.203 60.4673 158.197 58.5333 158.21 56.5994C158.212 56.2604 158.08 55.8178 158.532 55.6622C158.932 55.5245 159.12 55.9021 159.329 56.1428C160.457 57.4429 161.572 58.7539 162.694 60.0602C162.859 60.2521 162.986 60.4858 163.242 60.6019C163.473 60.4704 163.385 60.2421 163.386 60.0594C163.396 58.8475 163.384 57.6356 163.399 56.4237C163.406 55.9014 163.532 55.7597 163.913 55.7087C164.392 55.6452 164.656 55.8333 164.673 56.3262C164.7 57.1249 164.686 57.9243 164.686 58.7237C164.688 59.9101 164.686 61.0957 164.686 62.282C164.686 62.4624 164.693 62.6434 164.683 62.8238C164.667 63.1 164.723 63.4289 164.371 63.5381C164.035 63.6418 163.858 63.3693 163.677 63.1596C163.325 62.751 162.987 62.33 162.642 61.9152C161.738 60.8287 160.831 59.7445 159.931 58.6548C159.85 58.5566 159.803 58.4289 159.687 58.2215L159.688 58.2222Z" fill="white"/>
<path d="M184.169 59.4993C184.169 58.5196 184.158 57.5391 184.173 56.5593C184.183 55.8125 184.293 55.705 185.021 55.6926C185.815 55.6794 186.609 55.6755 187.402 55.6957C188.343 55.7189 189.079 56.1383 189.551 56.9648C190.087 57.902 189.939 58.9584 189.185 59.7408C189.043 59.8878 188.893 60.0379 188.721 60.1432C188.401 60.3398 188.415 60.5704 188.576 60.8598C188.815 61.287 189.037 61.7227 189.267 62.1545C189.328 62.2683 189.405 62.3743 189.451 62.4935C189.564 62.7837 189.898 63.0816 189.529 63.3858C189.218 63.6427 188.449 63.4701 188.237 63.0932C187.897 62.4881 187.568 61.8713 187.298 61.232C187.059 60.6648 186.682 60.4659 186.096 60.5216C185.55 60.5735 185.469 60.6153 185.451 61.1531C185.432 61.6685 185.453 62.1847 185.441 62.7001C185.426 63.3316 185.318 63.4616 184.843 63.4709C184.337 63.481 184.184 63.3246 184.174 62.6722C184.157 61.6151 184.17 60.5572 184.17 59.5001H184.168L184.169 59.4993ZM186.694 59.3662C186.948 59.3662 187.207 59.3964 187.456 59.36C188.069 59.271 188.545 58.7115 188.526 58.1419C188.508 57.5925 188.056 57.0949 187.464 56.9958C187.264 56.9625 187.058 56.9679 186.854 56.9656C185.98 56.9558 185.544 57.3848 185.545 58.2526C185.547 59.0094 185.93 59.3807 186.694 59.3662Z" fill="white"/>
<path d="M96.8318 59.4569C97.3941 58.5406 97.7106 57.5841 98.15 56.6879C98.2291 56.5262 98.2982 56.359 98.3658 56.1919C98.4948 55.8738 98.7176 55.6919 99.0686 55.6958C99.4012 55.6997 99.7354 55.6865 100.065 55.719C100.384 55.7507 100.507 55.9574 100.404 56.2677C100.331 56.4875 100.245 56.7034 100.147 56.9131C99.2369 58.8741 98.3228 60.8336 97.4095 62.7939C97.3657 62.8875 97.3219 62.9804 97.275 63.0725C97.1714 63.2791 97.0861 63.5306 96.8188 63.5469C96.5023 63.5654 96.4017 63.2845 96.2957 63.0547C95.2802 60.8584 94.2632 58.6629 93.2631 56.4596C93.0042 55.8893 93.1233 55.7345 93.7601 55.6935C93.9129 55.6834 94.0681 55.7012 94.2202 55.6873C94.784 55.6347 95.1212 55.8854 95.3363 56.4132C95.6866 57.2707 96.0852 58.1088 96.4647 58.9539C96.5369 59.1148 96.6006 59.2843 96.8326 59.4569H96.8318Z" fill="white"/>
<path d="M155.725 63.4754C155.356 63.5288 155.09 63.3214 154.948 62.9445C154.514 61.7945 154.49 61.9052 153.221 61.8974C152.71 61.8943 152.198 61.9137 151.688 61.8943C151.249 61.8773 150.956 62.0414 150.8 62.4647C150.721 62.6814 150.612 62.8872 150.512 63.0962C150.405 63.3229 150.23 63.4491 149.975 63.47C149.205 63.5342 149.041 63.2881 149.329 62.6628C150.32 60.516 151.284 58.3569 152.258 56.2024C152.28 56.1552 152.302 56.1095 152.327 56.0639C152.437 55.8596 152.537 55.6359 152.822 55.6514C153.07 55.6653 153.152 55.872 153.238 56.0561C153.573 56.7789 153.904 57.5041 154.23 58.2308C154.862 59.6377 155.489 61.0461 156.118 62.4538C156.16 62.5475 156.208 62.6396 156.243 62.7355C156.443 63.2726 156.326 63.4591 155.726 63.4754H155.725ZM152.736 58.1201C152.38 58.9319 152.083 59.6052 151.79 60.2808C151.678 60.54 151.699 60.7459 152.041 60.7521C152.523 60.7606 153.006 60.7645 153.487 60.7467C153.805 60.735 153.871 60.5369 153.749 60.2692C153.445 59.599 153.205 58.8978 152.736 58.1201Z" fill="white"/>
<path d="M181.659 63.4741C181.316 63.5113 181.067 63.3294 180.921 62.9827C180.412 61.7731 180.462 61.907 179.053 61.897C178.567 61.8939 178.082 61.9109 177.597 61.8954C177.186 61.8823 176.921 62.0541 176.766 62.4356C176.67 62.6732 176.547 62.8999 176.43 63.1282C176.314 63.3542 176.123 63.4486 175.873 63.4726C175.2 63.5384 174.999 63.3085 175.271 62.6879C175.899 61.2523 176.557 59.8307 177.203 58.4029C177.5 57.7474 177.798 57.0935 178.097 56.4388C178.16 56.2987 178.222 56.1563 178.299 56.0232C178.603 55.5055 178.908 55.4962 179.172 56.0247C179.471 56.6214 179.732 57.2374 180.005 57.8465C180.7 59.3927 181.393 60.9404 182.086 62.4874C182.128 62.5811 182.176 62.6732 182.21 62.7699C182.395 63.2923 182.261 63.4749 181.657 63.4741H181.659ZM178.68 58.108C178.322 58.9407 178.007 59.6581 177.708 60.3825C177.619 60.5976 177.734 60.7416 177.955 60.747C178.464 60.7586 178.973 60.7632 179.481 60.7431C179.75 60.7323 179.832 60.5473 179.72 60.3105C179.394 59.6241 179.157 58.8935 178.68 58.108Z" fill="white"/>
<path d="M88.1157 63.4754C87.7509 63.5234 87.4935 63.3238 87.3338 62.9477C86.8506 61.8085 86.9128 61.9021 85.6016 61.8967C85.0908 61.8944 84.58 61.913 84.07 61.8936C83.6275 61.8766 83.3418 62.0561 83.1843 62.4709C83.1114 62.6621 83.0192 62.8478 82.9186 63.0266C82.6881 63.4375 82.2434 63.5954 81.8124 63.4368C81.6127 63.3632 81.5267 63.2232 81.5789 63.0181C81.6166 62.8695 81.6726 62.724 81.7356 62.5847C82.6904 60.4797 83.646 58.3748 84.6084 56.2729C84.7214 56.0268 84.7728 55.6855 85.1208 55.6631C85.5187 55.6383 85.5909 55.9982 85.7146 56.2706C86.6355 58.3067 87.5527 60.3443 88.4698 62.3819C88.5328 62.522 88.5974 62.6636 88.645 62.8091C88.8078 63.3083 88.6941 63.4623 88.1142 63.4747L88.1157 63.4754ZM85.17 58.1132C84.7037 58.9157 84.4525 59.6401 84.1391 60.3335C84.0247 60.5858 84.1499 60.7367 84.4072 60.746C84.8642 60.7622 85.3228 60.773 85.7798 60.7529C86.2031 60.7336 86.2715 60.6291 86.1017 60.2143C85.8321 59.5557 85.5264 58.9111 85.17 58.1132Z" fill="white"/>
<path d="M139.74 63.6227C138.858 63.6057 138.188 63.3696 137.58 62.9641C137.121 62.6576 137.071 62.4123 137.335 62.006C137.58 61.6284 137.752 61.5928 138.229 61.8752C138.722 62.1662 139.217 62.417 139.813 62.3527C140.191 62.3125 140.516 62.1894 140.661 61.8002C140.816 61.383 140.658 61.0433 140.359 60.7585C140.114 60.5256 139.807 60.3894 139.51 60.2392C139.076 60.0202 138.624 59.8314 138.215 59.5722C137.431 59.0746 137.066 58.3394 137.202 57.4037C137.333 56.4983 137.978 55.8923 138.935 55.6726C139.776 55.4791 140.561 55.6439 141.306 56.0316C141.777 56.277 141.862 56.5184 141.678 56.8891C141.463 57.3217 141.229 57.4006 140.746 57.1692C140.35 56.9804 139.958 56.8001 139.506 56.8179C139.038 56.8365 138.671 57.0756 138.544 57.4502C138.427 57.7969 138.558 58.1536 138.932 58.4601C139.274 58.7402 139.684 58.8942 140.085 59.0637C140.509 59.244 140.916 59.4491 141.281 59.7432C141.992 60.3174 142.268 61.0565 142.064 61.9364C141.872 62.7621 141.28 63.2342 140.502 63.4857C140.208 63.5801 139.906 63.6366 139.74 63.6219V63.6227Z" fill="white"/>
<path d="M145.549 60.1433C145.549 59.2936 145.562 58.4439 145.545 57.5949C145.534 57.0501 145.452 56.982 144.914 56.9487C144.659 56.9325 144.401 56.9534 144.149 56.9232C143.7 56.8698 143.578 56.7057 143.581 56.2677C143.583 55.8792 143.781 55.6997 144.148 55.6989C145.502 55.695 146.857 55.6842 148.21 55.7051C148.654 55.7121 148.813 55.9225 148.809 56.3343C148.804 56.7344 148.646 56.8915 148.176 56.9325C147.922 56.9541 147.666 56.9479 147.411 56.9503C147.03 56.9534 146.855 57.1492 146.857 57.5276C146.859 58.0167 146.853 58.5058 146.852 58.9949C146.851 60.2308 146.86 61.4659 146.844 62.701C146.836 63.2768 146.71 63.4199 146.296 63.4656C145.784 63.5221 145.575 63.3681 145.562 62.8457C145.542 61.9457 145.557 61.0441 145.557 60.1433H145.549Z" fill="white"/>
<path d="M123.088 0.852825C123.978 0.835025 124.636 1.23667 125.012 2.02217C125.348 2.72331 125.277 3.43218 124.773 4.05361C124.144 4.82827 123.304 4.949 122.405 4.74005C121.465 4.52104 120.944 3.74483 120.978 2.71944C121.009 1.79851 121.571 1.11904 122.48 0.920927C122.678 0.877589 122.885 0.874493 123.088 0.852051V0.852825Z" fill="white"/>
<path d="M137.455 4.81919C136.039 4.80371 135.142 3.83481 135.293 2.57879C135.383 1.82813 135.772 1.28563 136.489 1.014C137.033 0.807371 137.596 0.802728 138.146 0.966018C139.064 1.2392 139.564 2.03862 139.484 3.05086C139.417 3.8913 138.726 4.64352 137.879 4.78746C137.704 4.81687 137.523 4.81455 137.455 4.81919Z" fill="white"/>
</svg>
